# Wavefront OBJ file made by Mineways version 11.03, http://mineways.com
# World: __RTX__ Test Map 2_0
# Terrain file name: C:\Cours\TIPE\mineways\terrainExt.png
# Color scheme: Standard
# Mon Oct 23 20:19:50 2023

# Selection location min to max: 210, 0, -222 to 225, 22, -210
#   Non-empty selection location min to max: 210, 2, -222 to 225, 11, -210

# Set render type: Wavefront OBJ absolute indices
# Units for the model vertex data itself: meters

# 319 vertices, 226 faces (452 triangles), 716 blocks, 10 billboards/bits. Simplification saved 1296 faces.
# block dimensions: X=17 by Y=10 (height) by Z=14 blocks
# Elevation shading: no
# Lighting: no
# Transparent water: no
# Map grid: no
# File type: Export individual textures to directory tex
# Texture output RGB: YES
# Texture output A: YES
# Texture output RGBA: YES
# Export separate types: YES
# Export individual blocks: no
#   Material per family: YES
#   Split by block type: YES
# Make groups objects: no
# Custom material: YES
# Export lesser blocks: YES
# Fatten lesser blocks: no
# Simplify mesh: YES
# Double all billboard faces: no
# Create composite overlay faces: no
# Center model: YES
# Use biomes: no
# Create block faces at the borders: YES
# Tree leaves solid: no
# Rotate model 0.000000 degrees
# Make Z the up direction instead of Y: no
# Scale model by making each block 150 mm high
# Data operation options:
#   Fill air bubbles: no; Seal off entrances: no; Fill in isolated tunnels in base of model: no
#   Connect parts sharing an edge: no; Connect corner tips: no; Weld all shared edges: no
#   Delete floating objects: trees and parts smaller than 16 blocks: no
#   Hollow out bottom of model, making the walls 1000 mm thick: no; Superhollow: no
# Melt snow blocks: no
#   Debug: show separate parts as colors: no
#   Debug: show weld blocks in bright colors: no

# Full world path: C:\Users\Florian\AppData\Roaming\.minecraft\saves\__RTX__ Test Map 2_0
# Full terrainExt.png path: C:\Cours\TIPE\mineways\terrainExt.png
# Full current path: C:\Cours\TIPE\mineways

mtllib salle_rouge_bleu.mtl

o __RTX___Test_Map_2_0__210_0_-222_to_225_22_-210
vn -1 0 0
vn 0 -1 0
vn 0 0 -1
vn 1 0 0
vn 0 1 0
vn 0 0 1
vn -0.707107 0 -0.707107
vn -0.707107 0 0.707107
vn 0.707107 0 -0.707107
vn 0.707107 0 0.707107
vn -0.707107 -0.707107 0
vn 0 -0.707107 -0.707107
vn 0.707107 -0.707107 0
vn 0 -0.707107 0.707107
vn -0.707107 0.707107 0
vn 0 0.707107 -0.707107
vn 0.707107 0.707107 0
vn 0 0.707107 0.707107
vn -0.92388 0 -0.382683
vn -0.92388 0 0.382683
vn 0.92388 0 -0.382683
vn 0.92388 0 0.382683
vn -0.382683 0 -0.92388
vn -0.382683 0 0.92388
vn 0.382683 0 -0.92388
vn 0.382683 0 0.92388
vn -0.397273 0.9177 0
vn 0.397273 -0.9177 0
vn 0.397273 0.9177 0
vn -0.397273 -0.9177 0
vn 0 0.9177 -0.397273
vn 0 -0.9177 0.397273
vn 0 0.9177 0.397273
vn 0 -0.9177 -0.397273
vn -0.440932 0.897541 0
vn 0.440932 -0.897541 0
vn 0.440932 0.897541 0
vn -0.440932 -0.897541 0
vn 0 0.897541 -0.440932
vn 0 -0.897541 0.440932
vn 0 0.897541 0.440932
vn 0 -0.897541 -0.440932
vt 0.000000000 0.000000000
vt 0.062500000 0.000000000
vt 0.187500000 0.000000000
vt 0.812500000 0.000000000
vt 0.937500000 0.000000000
vt 1.000000000 0.000000000
vt 0.062500000 0.062500000
vt 0.937500000 0.062500000
vt 0.000000000 0.187500000
vt 1.000000000 0.187500000
vt 0.000000000 0.500000000
vt 1.000000000 0.500000000
vt 0.000000000 0.812500000
vt 1.000000000 0.812500000
vt 0.062500000 0.937500000
vt 0.937500000 0.937500000
vt 0.000000000 1.000000000
vt 0.187500000 1.000000000
vt 0.812500000 1.000000000
vt 1.000000000 1.000000000
vt 2.000000000 0.000000000
vt 3.000000000 0.000000000
vt 4.000000000 0.000000000
vt 5.000000000 0.000000000
vt 6.000000000 0.000000000
vt 7.000000000 0.000000000
vt 8.000000000 0.000000000
vt 9.000000000 0.000000000
vt 10.000000000 0.000000000
vt 11.000000000 0.000000000
vt 12.000000000 0.000000000
vt 14.000000000 0.000000000
vt 16.000000000 0.000000000
vt 2.000000000 1.000000000
vt 3.000000000 1.000000000
vt 4.000000000 1.000000000
vt 5.000000000 1.000000000
vt 8.000000000 1.000000000
vt 9.000000000 1.000000000
vt 10.000000000 1.000000000
vt 12.000000000 1.000000000
vt 14.000000000 1.000000000
vt 16.000000000 1.000000000
vt 0.000000000 2.000000000
vt 1.000000000 2.000000000
vt 2.000000000 2.000000000
vt 3.000000000 2.000000000
vt 8.000000000 2.000000000
vt 14.000000000 2.000000000
vt 16.000000000 2.000000000
vt 0.000000000 3.000000000
vt 1.000000000 3.000000000
vt 2.000000000 3.000000000
vt 3.000000000 3.000000000
vt 4.000000000 3.000000000
vt 8.000000000 3.000000000
vt 0.000000000 4.000000000
vt 1.000000000 4.000000000
vt 2.000000000 4.000000000
vt 3.000000000 4.000000000
vt 5.000000000 4.000000000
vt 7.000000000 4.000000000
vt 11.000000000 4.000000000
vt 12.000000000 4.000000000
vt 0.000000000 5.000000000
vt 1.000000000 5.000000000
vt 3.000000000 5.000000000
vt 4.000000000 5.000000000
vt 7.000000000 5.000000000
vt 9.000000000 5.000000000
vt 0.000000000 6.000000000
vt 1.000000000 6.000000000
vt 2.000000000 6.000000000
vt 5.000000000 6.000000000
vt 6.000000000 6.000000000
vt 0.000000000 8.000000000
vt 1.000000000 8.000000000
vt 0.000000000 9.000000000
vt 1.000000000 9.000000000
vt 4.000000000 9.000000000
vt 12.000000000 9.000000000
vt 0.000000000 10.000000000
vt 2.000000000 10.000000000
vt 0.000000000 11.000000000
vt 1.000000000 11.000000000
vt 14.000000000 11.000000000
v 0.309375 0.75 0.609375
v 0.309375 0.75 0.740625
v 0.309375 0.759375 0.609375
v 0.309375 0.759375 0.740625
v 0.440625 0.75 0.609375
v 0.440625 0.75 0.740625
v 0.440625 0.759375 0.609375
v 0.440625 0.759375 0.740625
v 0.309375 0.75 0.909375
v 0.309375 0.75 1.04063
v 0.309375 0.759375 0.909375
v 0.309375 0.759375 1.04063
v 0.440625 0.75 0.909375
v 0.440625 0.75 1.04063
v 0.440625 0.759375 0.909375
v 0.440625 0.759375 1.04063
v 0.759375 0.75 0.009375
v 0.759375 0.75 0.140625
v 0.759375 0.759375 0.009375
v 0.759375 0.759375 0.140625
v 0.890625 0.75 0.009375
v 0.890625 0.75 0.140625
v 0.890625 0.759375 0.009375
v 0.890625 0.759375 0.140625
v 1.05938 0.75 0.009375
v 1.05938 0.75 0.140625
v 1.05938 0.759375 0.009375
v 1.05938 0.759375 0.140625
v 1.19063 0.75 0.009375
v 1.19063 0.75 0.140625
v 1.19063 0.759375 0.009375
v 1.19063 0.759375 0.140625
v -0.9 0.825 -0.6
v -0.9 0.825 -0.45
v -0.9 0.9 -0.45
v -0.75 0.825 -0.6
v -0.75 0.825 -0.45
v -0.75 0.9 -0.6
v -0.75 0.9 -0.45
v -0.9 0.825 0.6
v -0.9 0.825 0.75
v -0.9 0.9 0.6
v -0.75 0.825 0.6
v -0.75 0.825 0.75
v -0.75 0.9 0.6
v -0.75 0.9 0.75
v 0.3 0.75 0.75
v 0.3 0.75 0.778125
v 0.3 0.9 0.75
v 0.3 0.9 0.778125
v 0.45 0.75 0.75
v 0.45 0.75 0.778125
v 0.45 0.9 0.75
v 0.45 0.9 0.778125
v 0.3 0.9 0.75
v 0.3 0.9 0.778125
v 0.3 1.05 0.75
v 0.3 1.05 0.778125
v 0.45 0.9 0.75
v 0.45 0.9 0.778125
v 0.45 1.05 0.75
v 0.45 1.05 0.778125
v 1.02188 0.75 0.15
v 1.05 0.75 0.15
v 1.02188 0.9 0.15
v 1.05 0.9 0.15
v 1.02188 0.75 0
v 1.05 0.75 0
v 1.02188 0.9 0
v 1.05 0.9 0
v 1.02188 0.9 0.15
v 1.05 0.9 0.15
v 1.02188 1.05 0.15
v 1.05 1.05 0.15
v 1.02188 0.9 0
v 1.05 0.9 0
v 1.02188 1.05 0
v 1.05 1.05 0
v -1.2 0.6 -0.9
v -1.2 0.75 -0.75
v -1.2 0.75 -0.9
v -1.2 1.5 -0.9
v -1.2 1.5 -0.75
v -1.2 1.65 -0.75
v -1.2 1.65 -0.9
v -1.05 1.5 -0.75
v -1.2 0.6 -0.6
v -1.2 0.75 -0.6
v -1.2 0.9 -0.75
v -1.05 0.9 -0.75
v -1.05 0.75 -0.6
v -1.05 0.9 -0.6
v -1.05 1.05 -0.75
v -1.05 1.05 -0.6
v -1.2 1.5 -0.6
v -1.05 1.5 -0.6
v -1.2 1.65 -0.6
v -1.2 0.45 -0.6
v -1.2 0.45 -0.45
v -1.2 0.6 -0.45
v -1.2 0.75 -0.45
v -1.05 0.75 0.75
v -1.2 1.5 0.75
v -1.2 1.65 0.75
v -1.05 1.5 0.75
v -1.05 0.75 0.9
v -1.2 1.35 0.75
v -1.2 1.35 0.9
v -1.2 1.5 0.9
v -1.05 1.35 0.9
v -1.05 1.35 0.75
v -1.05 1.5 0.9
v -1.2 1.65 0.9
v -1.2 0.6 1.05
v -1.2 0.75 1.05
v -1.05 0.75 1.05
v -1.2 1.5 1.05
v -1.2 1.65 1.05
v -0.9 0.6 -0.6
v -0.9 0.9 -0.75
v -0.9 0.9 -0.6
v -0.9 1.05 -0.6
v -0.9 1.05 -0.75
v -0.9 0.45 -0.45
v -0.9 0.45 -0.6
v -0.9 0.6 -0.45
v -0.9 0.75 -0.6
v -0.9 0.9 -0.45
v -0.9 1.05 -0.45
v -0.9 1.5 -0.6
v -0.9 1.5 -0.45
v -0.9 0.9 0
v -0.9 1.5 0
v -0.9 0.9 0.15
v -0.9 1.5 0.15
v -0.9 0.9 0.6
v -0.9 1.05 0.6
v -0.9 1.5 0.6
v -0.9 0.6 0.75
v -0.9 0.75 0.75
v -0.9 0.9 0.75
v -0.9 1.05 0.75
v -0.9 1.5 0.75
v -0.9 0.6 1.05
v -0.75 1.5 -0.75
v -0.75 0.9 -0.75
v -0.75 0.9 -0.6
v -0.75 1.05 -0.75
v -0.75 1.05 -0.6
v -0.75 1.5 -0.6
v -0.75 0.9 -0.45
v -0.75 1.05 -0.45
v -0.75 0.9 0.75
v -0.75 0.9 0.6
v -0.75 1.05 0.6
v -0.75 1.05 0.75
v -0.75 1.5 0.75
v -0.75 1.65 0.75
v -0.75 1.65 1.05
v -0.6 1.5 0.9
v -0.75 1.8 0.9
v -0.75 1.8 0.75
v -0.6 1.8 0.9
v -0.6 1.5 1.05
v -0.6 1.65 0.9
v -0.6 1.65 1.05
v -0.75 1.8 1.05
v -0.6 1.8 1.05
v -0.45 1.5 0.9
v -0.45 1.65 0.9
v -0.45 1.8 0.9
v -0.45 1.5 1.05
v -0.45 1.65 1.05
v -0.45 1.8 1.05
v -0.3 0.6 -0.6
v -0.3 0.6 -0.15
v -0.3 0.6 0.3
v -0.3 0.6 0.75
v -0.3 1.65 0.75
v -0.3 1.8 0.75
v -0.3 1.8 0.9
v -0.3 1.65 1.05
v -0.3 1.8 1.05
v -0.3 0.45 -0.15
v -0.15 1.5 0
v -0.15 0.9 0.15
v -0.15 0.9 0
v -0.15 1.5 0.15
v -0.3 0.45 0.3
v -0.15 1.5 0.75
v 0.15 0.6 -0.15
v 0.15 0.45 -0.15
v 0.15 0.45 0.3
v 0.15 0.6 0.3
v 0.15 0.6 0.75
v 0.3 0.75 0.75
v 0.3 1.5 0.75
v 0.3 0.9 0.75
v 0.3 0.75 0.9
v 0.3 1.05 0.75
v 0.3 1.05 0.9
v 0.3 1.5 0.9
v 0.3 0.75 1.05
v 0.45 0.75 0.75
v 0.45 1.5 0.75
v 0.45 0.75 0.9
v 0.45 1.05 0.9
v 0.45 1.05 0.75
v 0.45 1.2 0.9
v 0.45 1.5 0.9
v 0.45 0.75 1.05
v 0.9 0.75 -0.9
v 0.9 0.75 -0.75
v 0.9 1.5 -0.75
v 0.9 1.5 -0.9
v 0.9 1.65 -0.9
v 0.9 0.6 -0.6
v 0.9 0.9 -0.75
v 0.9 0.75 -0.6
v 0.9 0.9 -0.6
v 0.9 1.5 -0.6
v 0.9 0.6 -0.15
v 0.9 0.75 0
v 0.9 1.5 0
v 0.9 0.75 0.15
v 0.9 1.5 0.15
v 0.9 0.6 0.3
v 0.9 1.65 0.45
v 0.9 0.6 0.75
v 0.9 0.75 0.75
v 0.9 1.5 0.75
v 0.9 1.65 0.75
v 0.9 1.2 0.9
v 0.9 1.5 0.9
v 0.9 1.5 1.05
v 0.9 1.65 1.05
v 1.05 0.75 -0.9
v 1.05 1.65 -0.9
v 1.05 1.65 -0.75
v 0.9 1.8 -0.75
v 0.9 1.8 -0.9
v 1.05 1.8 -0.75
v 1.05 1.65 -0.6
v 1.05 1.8 -0.6
v 1.05 1.65 -0.45
v 1.05 1.8 -0.45
v 1.05 1.65 -0.3
v 1.05 1.8 -0.3
v 1.05 1.65 -0.15
v 1.05 1.8 -0.15
v 1.05 0.75 0
v 0.9 1.05 0
v 1.05 1.05 0
v 1.05 1.65 0
v 1.05 1.8 0
v 1.05 0.75 0.15
v 0.9 1.05 0.15
v 1.05 1.05 0.15
v 1.05 1.65 0.15
v 1.05 1.8 0.15
v 1.05 0.75 0.3
v 1.05 1.65 0.3
v 1.05 1.8 0.3
v 0.9 0.3 0.3
v 0.9 1.8 0.45
v 1.05 1.8 0.45
v 1.05 0.75 0.45
v 1.05 1.5 0.45
v 0.9 0.3 0.75
v 1.05 0.75 0.9
v 1.05 1.2 0.9
v 1.05 1.5 0.9
v 1.05 0.75 1.05
v 0.9 1.2 1.05
v 1.05 1.2 1.05
v 1.05 1.5 1.05
v 1.05 1.65 1.05
v 1.2 0.6 -0.9
v 1.2 0.75 -0.9
v 1.2 1.65 -0.75
v 1.2 1.65 -0.9
v 1.2 1.8 -0.9
v 1.2 1.8 -0.75
v 1.2 0.6 -0.6
v 1.2 1.65 -0.45
v 1.2 1.65 -0.6
v 1.2 1.8 -0.6
v 1.2 1.8 -0.45
v 1.2 1.65 -0.15
v 1.2 1.65 -0.3
v 1.2 1.8 -0.3
v 1.2 1.8 -0.15
v 1.2 1.65 0.15
v 1.2 1.65 0
v 1.2 1.8 0
v 1.2 1.8 0.15
v 1.2 0.6 0.3
v 1.2 0.75 0.3
v 1.2 0.3 0.3
v 1.2 0.45 0.3
v 1.2 0.45 0.45
v 1.2 0.6 0.45
v 1.2 0.75 0.45
v 1.2 1.5 0.45
v 1.2 1.65 0.3
v 1.2 1.65 0.45
v 1.2 1.8 0.3
v 1.2 1.8 0.45
v 1.2 0.45 0.6
v 1.2 0.6 0.6
v 1.2 0.75 0.6
v 1.2 0.3 0.75
v 1.2 0.45 0.75
v 1.2 0.6 0.75
v 1.2 0.75 0.75
v 1.2 0.6 1.05
v 1.2 0.75 1.05
v 1.2 1.5 1.05
v 1.2 1.65 1.05

g Polished_Andesite
usemtl polished_andesite
f 175/23/2 178/80/2 139/78/2 119/1/2
f 140/1/5 230/31/5 219/81/5 127/78/5
f 217/27/2 222/56/2 176/51/2 175/1/2
f 189/22/1 177/35/1 176/17/1 184/1/1
f 192/22/2 193/54/2 189/51/2 184/1/2
f 184/22/3 176/35/3 191/17/3 192/1/3
f 189/1/6 193/22/6 194/35/6 177/17/6
f 194/22/2 195/54/2 178/51/2 177/1/2
f 193/1/4 192/22/4 191/35/4 194/17/4
f 222/24/2 229/74/2 195/71/2 191/1/2

g Iron_Door
usemtl iron_door_top
f 53/14/5 49/13/5 50/17/5 54/20/5
f 57/19/1 55/4/1 56/6/1 58/20/1
f 61/20/3 59/6/3 55/1/3 57/17/3
f 61/18/4 62/17/4 60/1/4 59/3/4
f 61/14/5 57/13/5 58/17/5 62/20/5
f 62/20/6 58/17/6 56/1/6 60/6/6
f 69/14/5 65/13/5 66/17/5 70/20/5
f 74/20/6 73/19/6 71/4/6 72/6/6
f 77/20/1 75/6/1 71/1/1 73/17/1
f 78/17/3 76/1/3 75/3/3 77/18/3
f 77/14/5 73/13/5 74/17/5 78/20/5
f 78/20/4 74/17/4 72/1/4 76/6/4

usemtl iron_door_bottom
f 49/19/1 47/4/1 48/6/1 50/20/1
f 48/9/2 47/1/2 51/6/2 52/10/2
f 53/20/3 51/6/3 47/1/3 49/17/3
f 53/18/4 54/17/4 52/1/4 51/3/4
f 54/20/6 50/17/6 48/1/6 52/6/6
f 56/9/2 55/1/2 59/6/2 60/10/2
f 66/20/6 65/19/6 63/4/6 64/6/6
f 64/9/2 63/1/2 67/6/2 68/10/2
f 69/20/1 67/6/1 63/1/1 65/17/1
f 70/17/3 68/1/3 67/3/3 69/18/3
f 70/20/4 66/17/4 64/1/4 68/6/4
f 72/9/2 71/1/2 75/6/2 76/10/2

g Oak_Pressure_Plate
usemtl oak_planks
f 3/7/1 1/2/1 2/5/1 4/8/1
f 7/7/3 5/2/3 1/5/3 3/8/3
f 7/8/4 8/7/4 6/2/4 5/5/4
f 7/16/5 3/15/5 4/7/5 8/8/5
f 8/8/6 4/7/6 2/2/6 6/5/6
f 11/7/1 9/2/1 10/5/1 12/8/1
f 15/7/3 13/2/3 9/5/3 11/8/3
f 15/8/4 16/7/4 14/2/4 13/5/4
f 15/16/5 11/15/5 12/7/5 16/8/5
f 16/8/6 12/7/6 10/2/6 14/5/6
f 19/7/1 17/2/1 18/5/1 20/8/1
f 23/7/3 21/2/3 17/5/3 19/8/3
f 23/8/4 24/7/4 22/2/4 21/5/4
f 23/16/5 19/15/5 20/7/5 24/8/5
f 24/8/6 20/7/6 18/2/6 22/5/6
f 27/7/1 25/2/1 26/5/1 28/8/1
f 31/7/3 29/2/3 25/5/3 27/8/3
f 31/8/4 32/7/4 30/2/4 29/5/4
f 31/16/5 27/15/5 28/7/5 32/8/5
f 32/8/6 28/7/6 26/2/6 30/5/6

g White_Stained_Glass
usemtl white_stained_glass
f 164/17/2 160/1/2 169/6/2 172/20/2
f 164/1/6 172/6/6 173/20/6 166/17/6

g Redstone_Lamp_(active)
usemtl redstone_lamp_on
f 128/17/2 121/1/2 147/6/2 151/20/2
f 151/1/4 147/6/4 149/20/4 152/17/4
f 129/1/5 152/6/5 149/20/5 122/17/5
f 128/1/6 151/6/6 152/20/6 129/17/6

g Block_of_Redstone
usemtl redstone_block
f 121/6/1 122/20/1 123/17/1 120/1/1
f 120/6/3 123/20/3 148/17/3 146/1/3

g Sea_Lantern
usemtl sea_lantern
f 141/17/2 136/1/2 154/6/2 153/20/2
f 136/6/3 137/20/3 155/17/3 154/1/3
f 153/1/4 154/6/4 155/20/4 156/17/4
f 142/1/5 156/6/5 155/20/5 137/17/5

g Smooth_Quartz_Slab
usemtl quartz_block_bottom
f 34/17/2 33/1/2 36/6/2 37/20/2
f 38/20/4 39/17/4 37/11/4 36/12/4
f 39/20/6 35/17/6 34/11/6 37/12/6
f 41/17/2 40/1/2 43/6/2 44/20/2
f 45/17/3 43/11/3 40/12/3 42/20/3
f 45/20/4 46/17/4 44/11/4 43/12/4

g White_Concrete
usemtl white_concrete
f 87/21/1 88/34/1 81/17/1 79/1/1
f 278/33/2 284/50/2 87/44/2 79/1/2
f 79/33/3 81/43/3 279/17/3 278/1/3
f 80/1/5 213/32/5 212/42/5 81/17/5
f 83/6/1 84/20/1 85/17/1 82/1/1
f 215/32/2 214/42/2 83/17/2 82/1/2
f 82/32/3 85/42/3 216/17/3 215/1/3
f 104/1/5 232/32/5 216/86/5 85/84/5
f 88/6/1 97/72/1 84/71/1 80/1/1
f 80/32/3 89/42/3 218/17/3 213/1/3
f 88/1/6 91/6/6 96/66/6 95/65/6
f 89/6/3 83/58/3 86/57/3 90/1/3
f 92/1/4 90/6/4 93/20/4 94/17/4
f 99/6/1 101/45/1 88/44/1 98/1/1
f 125/21/2 124/34/2 99/17/2 98/1/2
f 98/21/3 87/34/3 119/17/3 125/1/3
f 99/1/6 124/21/6 126/34/6 100/17/6
f 115/1/5 116/6/5 91/85/5 88/84/5
f 103/28/1 104/39/1 97/17/1 95/1/1
f 96/6/2 105/79/2 103/78/2 95/1/2
f 114/29/1 115/40/1 101/17/1 100/1/1
f 126/21/2 144/83/2 114/82/2 100/1/2
f 108/6/1 113/45/1 104/44/1 107/1/1
f 108/17/2 107/1/2 111/6/2 110/20/2
f 107/6/3 103/20/3 105/17/3 111/1/3
f 108/1/6 110/6/6 112/20/6 109/17/6
f 118/1/5 159/22/5 158/47/5 104/44/5
f 114/1/6 316/33/6 317/43/6 115/17/6
f 117/6/1 118/20/1 113/17/1 109/1/1
f 160/23/2 164/36/2 117/17/2 109/1/2
f 117/1/6 164/23/6 166/36/6 118/17/6
f 92/1/5 121/6/5 120/20/5 90/17/5
f 94/17/2 93/1/2 123/6/2 122/20/2
f 93/21/3 86/53/3 145/51/3 148/1/3
f 124/1/4 125/6/4 119/20/4 126/17/4
f 102/28/1 105/70/1 96/65/1 91/1/1
f 140/1/4 127/28/4 121/39/4 141/17/4
f 92/6/3 94/20/3 122/17/3 121/1/3
f 129/1/4 122/6/4 130/52/4 131/51/4
f 132/1/4 128/22/4 131/60/4 133/57/4
f 136/1/4 134/22/4 135/60/4 138/57/4
f 142/1/4 137/6/4 138/52/4 143/51/4
f 106/6/1 110/58/1 111/57/1 102/1/1
f 106/1/6 199/28/6 202/70/6 112/65/6
f 116/1/5 203/28/5 199/39/5 106/17/5
f 127/1/6 219/31/6 220/41/6 121/17/6
f 122/1/6 149/6/6 150/52/6 130/51/6
f 221/31/2 224/64/2 133/57/2 130/1/2
f 187/24/2 186/37/2 134/17/2 132/1/2
f 132/24/3 133/61/3 185/57/3 187/1/3
f 134/1/6 186/24/6 188/61/6 135/57/6
f 188/24/2 190/61/2 143/57/2 135/1/2
f 314/32/2 316/49/2 144/44/2 139/1/2
f 140/27/3 141/38/3 198/17/3 196/1/3
f 142/6/3 143/52/3 157/51/3 156/1/3
f 146/30/3 145/63/3 214/57/3 218/1/3
f 147/1/6 220/30/6 221/63/6 150/57/6
f 153/26/3 157/62/3 197/57/3 198/1/3
f 159/21/1 167/34/1 162/17/1 158/1/1
f 158/22/3 162/35/3 180/17/3 179/1/3
f 161/1/5 181/22/5 180/35/5 162/17/5
f 164/1/4 160/6/4 165/20/4 166/17/4
f 167/1/5 168/6/5 163/20/5 161/17/5
f 159/1/6 166/6/6 168/20/6 167/17/6
f 160/1/6 169/6/6 170/20/6 165/17/6
f 182/1/4 179/21/4 180/34/4 183/17/4
f 172/6/1 173/20/1 170/17/1 169/1/1
f 234/28/2 235/39/2 172/17/2 169/1/2
f 172/1/6 235/28/6 236/39/6 173/17/6
f 174/1/5 183/6/5 181/20/5 171/17/5
f 173/1/6 182/6/6 183/20/6 174/17/6
f 186/1/4 187/6/4 185/58/4 188/57/4
f 182/1/5 236/27/5 232/48/5 179/44/5
f 224/26/2 231/69/2 190/65/2 185/1/2
f 199/1/4 196/6/4 200/45/4 201/44/4
f 203/1/5 211/6/5 204/45/5 196/44/5
f 201/17/2 200/1/2 208/6/2 207/20/2
f 200/6/3 197/52/3 205/51/3 208/1/3
f 201/1/6 207/6/6 210/52/6 202/51/6
f 206/6/1 207/45/1 208/44/1 204/1/1
f 204/22/3 205/67/3 231/65/3 230/1/3
f 206/1/6 270/23/6 271/55/6 209/51/6
f 209/1/6 233/22/6 234/47/6 210/44/6
f 211/1/5 273/23/5 270/36/5 206/17/5
f 213/6/1 214/66/1 215/65/1 212/1/1
f 212/6/3 216/72/3 238/71/3 237/1/3
f 251/1/4 237/25/4 238/75/4 254/71/4
f 284/21/2 297/73/2 227/71/2 217/1/2
f 223/23/1 224/68/1 221/65/1 219/1/1
f 223/1/6 251/6/6 253/45/6 252/44/6
f 225/1/5 256/6/5 251/20/5 223/17/5
f 257/6/1 226/52/1 224/51/1 252/1/1
f 257/17/2 252/1/2 253/6/2 258/20/2
f 258/1/4 253/6/4 254/58/4 259/57/4
f 230/23/1 231/68/1 226/65/1 225/1/1
f 225/6/3 257/45/3 258/44/3 256/1/3
f 261/1/4 256/6/4 259/72/4 262/71/4
f 269/22/1 229/47/1 227/44/1 264/1/1
f 299/21/2 312/53/2 269/51/2 264/1/2
f 264/21/3 227/46/3 297/44/3 299/1/3
f 270/1/4 267/22/4 268/67/4 272/65/4
f 236/1/5 319/21/5 306/59/5 228/57/5
f 269/1/6 312/21/6 314/46/6 229/44/6
f 274/6/1 235/45/1 234/44/1 233/1/1
f 274/17/2 233/1/2 271/6/2 275/20/2
f 275/1/4 271/6/4 272/45/4 276/44/4
f 274/1/6 275/6/6 277/52/6 236/51/6
f 297/1/4 278/27/4 279/38/4 298/17/4
f 261/1/5 298/6/5 279/77/5 237/76/5
f 312/1/4 299/22/4 300/35/4 313/17/4
f 301/1/4 300/6/4 305/77/4 306/76/4
f 261/6/3 262/72/3 305/71/3 298/1/3
f 267/1/6 303/6/6 304/66/6 268/65/6
f 310/1/4 302/6/4 303/20/4 311/17/4
f 273/1/5 317/6/5 303/58/5 267/57/5
f 304/6/2 318/58/2 276/57/2 268/1/2
f 318/1/4 304/23/4 306/36/4 319/17/4
f 313/1/4 309/6/4 311/45/4 315/44/4
f 316/1/4 314/21/4 315/34/4 317/17/4
f 276/1/6 318/6/6 319/20/6 277/17/6

g Orange_Concrete
usemtl orange_concrete
f 228/28/1 265/39/1 241/17/1 216/1/1
f 216/21/3 241/34/3 282/17/3 281/1/3
f 240/1/5 283/21/5 282/34/5 241/17/5
f 243/1/4 239/6/4 242/20/4 244/17/4
f 265/1/5 266/6/5 242/77/5 240/76/5
f 247/1/4 245/6/4 246/20/4 248/17/4
f 254/1/4 249/6/4 250/20/4 255/17/4
f 262/1/4 259/6/4 260/20/4 263/17/4
f 228/1/6 306/21/6 308/34/6 265/17/6
f 239/17/2 238/1/2 281/6/2 280/20/2
f 280/1/4 281/6/4 282/20/4 283/17/4
f 239/1/6 280/6/6 283/20/6 242/17/6
f 245/17/2 243/1/2 286/6/2 285/20/2
f 243/6/3 244/20/3 287/17/3 286/1/3
f 285/1/4 286/6/4 287/20/4 288/17/4
f 246/1/5 288/6/5 287/20/5 244/17/5
f 245/1/6 285/6/6 288/20/6 246/17/6
f 249/17/2 247/1/2 290/6/2 289/20/2
f 247/6/3 248/20/3 291/17/3 290/1/3
f 289/1/4 290/6/4 291/20/4 292/17/4
f 250/1/5 292/6/5 291/20/5 248/17/5
f 249/1/6 289/6/6 292/20/6 250/17/6
f 259/17/2 254/1/2 294/6/2 293/20/2
f 254/6/3 255/20/3 295/17/3 294/1/3
f 293/1/4 294/6/4 295/20/4 296/17/4
f 260/1/5 296/6/5 295/20/5 255/17/5
f 259/1/6 293/6/6 296/20/6 260/17/6
f 262/6/3 263/20/3 307/17/3 305/1/3
f 306/1/4 305/6/4 307/20/4 308/17/4
f 266/1/5 308/6/5 307/20/5 263/17/5

g White_Concrete_Powder
usemtl white_concrete_powder
f 166/17/2 165/1/2 170/6/2 173/20/2
f 168/1/5 174/6/5 171/20/5 163/17/5
f 166/1/6 173/6/6 174/20/6 168/17/6
f 309/1/4 301/6/4 302/20/4 310/17/4
