P3
16 16
255
121 121 121 100 100 100 81 81 81 81 81 81 81 81 81 81 81 81 61 61 67 61 61 67 100 100 100 100 100 100 100 100 100 81 81 81 81 81 81 61 61 67 81 81 81 81 81 81 
81 81 81 61 61 67 47 47 55 47 47 55 61 61 67 61 61 67 61 61 67 61 61 67 81 81 81 100 100 100 81 81 81 81 81 81 61 61 67 61 61 67 81 81 81 61 61 67 
100 100 100 100 100 100 121 121 121 100 100 100 214 123 91 81 81 81 81 81 81 47 47 55 47 47 55 47 47 55 47 47 55 61 61 67 230 138 117 214 123 91 61 61 67 61 61 67 
61 61 67 81 81 81 100 100 100 81 81 81 81 81 81 61 61 67 61 61 67 230 138 117 193 103 70 100 100 100 121 121 121 121 121 121 100 100 100 100 100 100 100 100 100 81 81 81 
47 47 55 61 61 67 81 81 81 81 81 81 61 61 67 61 61 67 61 61 67 81 81 81 100 100 100 100 100 100 100 100 100 121 121 121 100 100 100 100 100 100 81 81 81 61 61 67 
121 121 121 121 121 121 81 81 81 100 100 100 81 81 81 229 160 144 230 138 117 81 81 81 100 100 100 100 100 100 229 160 144 230 138 117 81 81 81 81 81 81 81 81 81 100 100 100 
121 121 121 100 100 100 100 100 100 229 160 144 230 138 117 214 123 91 214 123 91 193 103 70 81 81 81 81 81 81 214 123 91 193 103 70 47 47 55 47 47 55 61 61 67 81 81 81 
100 100 100 81 81 81 61 61 67 61 61 67 61 61 67 61 61 67 100 100 100 121 121 121 100 100 100 100 100 100 81 81 81 61 61 67 47 47 55 61 61 67 81 81 81 81 81 81 
81 81 81 230 138 117 214 123 91 61 61 67 61 61 67 61 61 67 81 81 81 121 121 121 229 160 144 230 138 117 100 100 100 81 81 81 61 61 67 61 61 67 61 61 67 81 81 81 
61 61 67 61 61 67 47 47 55 47 47 55 81 81 81 81 81 81 81 81 81 230 138 117 193 103 70 193 103 70 193 103 70 81 81 81 61 61 67 47 47 55 47 47 55 61 61 67 
100 100 100 81 81 81 100 100 100 81 81 81 214 123 91 81 81 81 81 81 81 61 61 67 61 61 67 47 47 55 47 47 55 61 61 67 81 81 81 81 81 81 121 121 121 121 121 121 
100 100 100 100 100 100 81 81 81 61 61 67 100 100 100 121 121 121 121 121 121 121 121 121 81 81 81 61 61 67 81 81 81 230 138 117 193 103 70 81 81 81 121 121 121 100 100 100 
100 100 100 81 81 81 61 61 67 61 61 67 81 81 81 121 121 121 100 100 100 100 100 100 230 138 117 229 160 144 230 138 117 214 123 91 214 123 91 193 103 70 100 100 100 100 100 100 
61 61 67 61 61 67 61 61 67 230 138 117 193 103 70 81 81 81 100 100 100 100 100 100 81 81 81 193 103 70 193 103 70 61 61 67 47 47 55 47 47 55 61 61 67 61 61 67 
121 121 121 121 121 121 100 100 100 100 100 100 81 81 81 61 61 67 61 61 67 47 47 55 61 61 67 121 121 121 100 100 100 81 81 81 81 81 81 100 100 100 100 100 100 121 121 121 
121 121 121 121 121 121 100 100 100 81 81 81 100 100 100 81 81 81 81 81 81 47 47 55 81 81 81 121 121 121 100 100 100 100 100 100 81 81 81 81 81 81 100 100 100 100 100 100 
