P3
16 16
255
121 121 121 100 100 100 81 81 81 81 81 81 81 81 81 81 81 81 61 61 67 61 61 67 100 100 100 100 100 100 100 100 100 81 81 81 81 81 81 61 61 67 81 81 81 81 81 81 
81 81 81 61 61 67 47 47 55 47 47 55 61 61 67 61 61 67 61 61 67 61 61 67 81 81 81 100 100 100 81 81 81 81 81 81 61 61 67 61 61 67 81 81 81 61 61 67 
100 100 100 100 100 100 121 121 121 100 100 100 151 3 3 81 81 81 81 81 81 47 47 55 47 47 55 47 47 55 47 47 55 61 61 67 255 0 0 151 3 3 61 61 67 61 61 67 
61 61 67 81 81 81 100 100 100 81 81 81 81 81 81 61 61 67 61 61 67 255 0 0 143 3 3 100 100 100 121 121 121 121 121 121 100 100 100 100 100 100 100 100 100 81 81 81 
47 47 55 61 61 67 81 81 81 81 81 81 61 61 67 61 61 67 61 61 67 81 81 81 100 100 100 100 100 100 100 100 100 121 121 121 100 100 100 100 100 100 81 81 81 61 61 67 
121 121 121 121 121 121 81 81 81 100 100 100 81 81 81 255 0 0 170 4 4 81 81 81 100 100 100 100 100 100 255 0 0 170 4 4 81 81 81 81 81 81 81 81 81 100 100 100 
121 121 121 100 100 100 100 100 100 184 5 5 170 4 4 151 3 3 151 3 3 143 3 3 81 81 81 81 81 81 151 3 3 143 3 3 47 47 55 47 47 55 61 61 67 81 81 81 
100 100 100 81 81 81 61 61 67 61 61 67 61 61 67 61 61 67 100 100 100 121 121 121 100 100 100 100 100 100 81 81 81 61 61 67 47 47 55 61 61 67 81 81 81 81 81 81 
81 81 81 255 0 0 151 3 3 61 61 67 61 61 67 61 61 67 81 81 81 121 121 121 255 0 0 170 4 4 100 100 100 81 81 81 61 61 67 61 61 67 61 61 67 81 81 81 
61 61 67 61 61 67 47 47 55 47 47 55 81 81 81 81 81 81 81 81 81 170 4 4 143 3 3 143 3 3 143 3 3 81 81 81 61 61 67 47 47 55 47 47 55 61 61 67 
100 100 100 81 81 81 100 100 100 81 81 81 151 3 3 81 81 81 81 81 81 61 61 67 61 61 67 47 47 55 47 47 55 61 61 67 81 81 81 81 81 81 121 121 121 121 121 121 
100 100 100 100 100 100 81 81 81 61 61 67 100 100 100 121 121 121 121 121 121 121 121 121 81 81 81 61 61 67 81 81 81 255 0 0 143 3 3 81 81 81 121 121 121 100 100 100 
100 100 100 81 81 81 61 61 67 61 61 67 81 81 81 121 121 121 100 100 100 100 100 100 170 4 4 255 0 0 170 4 4 151 3 3 151 3 3 143 3 3 100 100 100 100 100 100 
61 61 67 61 61 67 61 61 67 255 0 0 143 3 3 81 81 81 100 100 100 100 100 100 81 81 81 143 3 3 143 3 3 61 61 67 47 47 55 47 47 55 61 61 67 61 61 67 
121 121 121 121 121 121 100 100 100 100 100 100 81 81 81 61 61 67 61 61 67 47 47 55 61 61 67 121 121 121 100 100 100 81 81 81 81 81 81 100 100 100 100 100 100 121 121 121 
121 121 121 121 121 121 100 100 100 81 81 81 100 100 100 81 81 81 81 81 81 47 47 55 81 81 81 121 121 121 100 100 100 100 100 100 81 81 81 81 81 81 100 100 100 100 100 100 
