P3
16 16
255
121 121 121 100 100 100 81 81 81 81 81 81 81 81 81 81 81 81 61 61 67 61 61 67 100 100 100 100 100 100 100 100 100 81 81 81 81 81 81 61 61 67 81 81 81 81 81 81 
81 81 81 61 61 67 47 47 55 47 47 55 61 61 67 61 61 67 217 255 235 23 221 98 81 81 81 100 100 100 81 81 81 81 81 81 61 61 67 61 61 67 81 81 81 61 61 67 
100 100 100 100 100 100 121 121 121 100 100 100 100 100 100 81 81 81 23 221 98 0 123 24 47 47 55 47 47 55 47 47 55 61 61 67 61 61 67 47 47 55 61 61 67 61 61 67 
61 61 67 81 81 81 100 100 100 81 81 81 81 81 81 61 61 67 61 61 67 61 61 67 81 81 81 100 100 100 121 121 121 121 121 121 217 255 235 23 221 98 100 100 100 81 81 81 
47 47 55 61 61 67 81 81 81 81 81 81 217 255 235 23 221 98 61 61 67 81 81 81 100 100 100 100 100 100 100 100 100 121 121 121 23 221 98 0 123 24 81 81 81 61 61 67 
121 121 121 121 121 121 81 81 81 100 100 100 23 221 98 0 123 24 217 255 235 23 221 98 100 100 100 100 100 100 81 81 81 100 100 100 81 81 81 81 81 81 81 81 81 100 100 100 
121 121 121 100 100 100 100 100 100 81 81 81 81 81 81 47 47 55 23 221 98 0 123 24 81 81 81 81 81 81 61 61 67 61 61 67 47 47 55 47 47 55 61 61 67 81 81 81 
100 100 100 81 81 81 61 61 67 61 61 67 61 61 67 61 61 67 100 100 100 121 121 121 100 100 100 100 100 100 81 81 81 61 61 67 47 47 55 61 61 67 81 81 81 81 81 81 
81 81 81 61 61 67 81 81 81 61 61 67 61 61 67 61 61 67 217 255 235 23 221 98 100 100 100 81 81 81 100 100 100 81 81 81 61 61 67 61 61 67 61 61 67 81 81 81 
61 61 67 61 61 67 47 47 55 47 47 55 81 81 81 81 81 81 23 221 98 0 123 24 81 81 81 81 81 81 217 255 235 23 221 98 61 61 67 47 47 55 47 47 55 61 61 67 
100 100 100 81 81 81 100 100 100 81 81 81 61 61 67 81 81 81 81 81 81 61 61 67 61 61 67 47 47 55 23 221 98 0 123 24 81 81 81 217 255 235 23 221 98 121 121 121 
100 100 100 100 100 100 81 81 81 61 61 67 100 100 100 121 121 121 121 121 121 217 255 235 23 221 98 61 61 67 81 81 81 61 61 67 61 61 67 23 221 98 0 123 24 100 100 100 
100 100 100 81 81 81 61 61 67 61 61 67 81 81 81 121 121 121 100 100 100 23 221 98 0 123 24 81 81 81 61 61 67 61 61 67 61 61 67 81 81 81 100 100 100 100 100 100 
61 61 67 217 255 235 23 221 98 47 47 55 47 47 55 81 81 81 100 100 100 100 100 100 81 81 81 61 61 67 47 47 55 61 61 67 47 47 55 47 47 55 61 61 67 61 61 67 
121 121 121 23 221 98 0 123 24 100 100 100 81 81 81 61 61 67 61 61 67 47 47 55 61 61 67 121 121 121 100 100 100 81 81 81 81 81 81 100 100 100 100 100 100 121 121 121 
121 121 121 121 121 121 100 100 100 81 81 81 100 100 100 81 81 81 81 81 81 47 47 55 81 81 81 121 121 121 100 100 100 100 100 100 81 81 81 81 81 81 100 100 100 100 100 100 
