P3
16 16
255
121 121 121 100 100 100 81 81 81 81 81 81 81 81 81 81 81 81 61 61 67 61 61 67 100 100 100 100 100 100 100 100 100 81 81 81 81 81 81 61 61 67 81 81 81 81 81 81 
81 81 81 61 61 67 47 47 55 47 47 55 61 61 67 61 61 67 61 61 67 61 61 67 81 81 81 100 100 100 81 81 81 81 81 81 61 61 67 61 61 67 81 81 81 61 61 67 
100 100 100 100 100 100 121 121 121 100 100 100 252 238 75 81 81 81 81 81 81 47 47 55 47 47 55 47 47 55 47 47 55 61 61 67 255 255 181 252 238 75 61 61 67 61 61 67 
61 61 67 81 81 81 100 100 100 81 81 81 81 81 81 61 61 67 61 61 67 255 255 181 248 175 43 100 100 100 121 121 121 121 121 121 100 100 100 100 100 100 100 100 100 81 81 81 
47 47 55 61 61 67 81 81 81 81 81 81 61 61 67 61 61 67 61 61 67 81 81 81 100 100 100 100 100 100 100 100 100 121 121 121 100 100 100 100 100 100 81 81 81 61 61 67 
121 121 121 121 121 121 81 81 81 100 100 100 81 81 81 255 255 255 255 255 181 81 81 81 100 100 100 100 100 100 255 255 255 255 255 181 81 81 81 81 81 81 81 81 81 100 100 100 
121 121 121 100 100 100 100 100 100 255 255 255 255 255 181 252 238 75 252 238 75 248 175 43 81 81 81 81 81 81 252 238 75 248 175 43 47 47 55 47 47 55 61 61 67 81 81 81 
100 100 100 81 81 81 61 61 67 61 61 67 61 61 67 61 61 67 100 100 100 121 121 121 100 100 100 100 100 100 81 81 81 61 61 67 47 47 55 61 61 67 81 81 81 81 81 81 
81 81 81 255 255 181 252 238 75 61 61 67 61 61 67 61 61 67 81 81 81 121 121 121 255 255 255 255 255 181 100 100 100 81 81 81 61 61 67 61 61 67 61 61 67 81 81 81 
61 61 67 61 61 67 47 47 55 47 47 55 81 81 81 81 81 81 81 81 81 255 255 181 248 175 43 248 175 43 248 175 43 81 81 81 61 61 67 47 47 55 47 47 55 61 61 67 
100 100 100 81 81 81 100 100 100 81 81 81 252 238 75 81 81 81 81 81 81 61 61 67 61 61 67 47 47 55 47 47 55 61 61 67 81 81 81 81 81 81 121 121 121 121 121 121 
100 100 100 100 100 100 81 81 81 61 61 67 100 100 100 121 121 121 121 121 121 121 121 121 81 81 81 61 61 67 81 81 81 255 255 181 248 175 43 81 81 81 121 121 121 100 100 100 
100 100 100 81 81 81 61 61 67 61 61 67 81 81 81 121 121 121 100 100 100 100 100 100 255 255 181 255 255 255 255 255 181 252 238 75 252 238 75 248 175 43 100 100 100 100 100 100 
61 61 67 61 61 67 61 61 67 255 255 181 248 175 43 81 81 81 100 100 100 100 100 100 81 81 81 248 175 43 248 175 43 61 61 67 47 47 55 47 47 55 61 61 67 61 61 67 
121 121 121 121 121 121 100 100 100 100 100 100 81 81 81 61 61 67 61 61 67 47 47 55 61 61 67 121 121 121 100 100 100 81 81 81 81 81 81 100 100 100 100 100 100 121 121 121 
121 121 121 121 121 121 100 100 100 81 81 81 100 100 100 81 81 81 81 81 81 47 47 55 81 81 81 121 121 121 100 100 100 100 100 100 81 81 81 81 81 81 100 100 100 100 100 100 
