P3
16 16
255
143 143 143 127 127 127 127 127 127 143 143 143 127 127 127 116 116 116 116 116 116 127 127 127 116 116 116 104 104 104 116 116 116 116 116 116 127 127 127 143 143 143 143 143 143 143 143 143 
127 127 127 127 127 127 116 116 116 127 127 127 104 104 104 143 143 143 143 143 143 143 143 143 143 143 143 127 127 127 127 127 127 104 104 104 104 104 104 104 104 104 127 127 127 116 116 116 
127 127 127 116 116 116 104 104 104 104 104 104 101 245 227 116 116 116 127 127 127 104 104 104 104 104 104 116 116 116 116 116 116 127 127 127 158 254 235 101 245 227 127 127 127 127 127 127 
143 143 143 143 143 143 143 143 143 127 127 127 143 143 143 127 127 127 127 127 127 158 254 235 61 224 229 127 127 127 143 143 143 127 127 127 127 127 127 143 143 143 116 116 116 116 116 116 
116 116 116 127 127 127 127 127 127 116 116 116 116 116 116 104 104 104 104 104 104 116 116 116 143 143 143 127 127 127 116 116 116 127 127 127 143 143 143 116 116 116 127 127 127 127 127 127 
127 127 127 143 143 143 127 127 127 127 127 127 104 104 104 213 255 246 158 254 235 127 127 127 127 127 127 116 116 116 213 255 246 158 254 235 116 116 116 104 104 104 116 116 116 143 143 143 
116 116 116 127 127 127 127 127 127 213 255 246 158 254 235 101 245 227 101 245 227 61 224 229 143 143 143 127 127 127 101 245 227 61 224 229 127 127 127 127 127 127 127 127 127 127 127 127 
116 116 116 104 104 104 104 104 104 127 127 127 127 127 127 143 143 143 143 143 143 143 143 143 104 104 104 104 104 104 104 104 104 116 116 116 116 116 116 143 143 143 143 143 143 143 143 143 
143 143 143 158 254 235 101 245 227 127 127 127 143 143 143 127 127 127 116 116 116 104 104 104 213 255 246 158 254 235 127 127 127 116 116 116 127 127 127 127 127 127 143 143 143 116 116 116 
127 127 127 127 127 127 143 143 143 127 127 127 104 104 104 127 127 127 116 116 116 158 254 235 61 224 229 61 224 229 61 224 229 127 127 127 143 143 143 143 143 143 143 143 143 127 127 127 
104 104 104 127 127 127 116 116 116 127 127 127 101 245 227 116 116 116 104 104 104 104 104 104 116 116 116 143 143 143 143 143 143 104 104 104 104 104 104 127 127 127 116 116 116 116 116 116 
127 127 127 127 127 127 127 127 127 127 127 127 127 127 127 143 143 143 143 143 143 143 143 143 143 143 143 104 104 104 116 116 116 158 254 235 61 224 229 143 143 143 143 143 143 127 127 127 
127 127 127 116 116 116 116 116 116 104 104 104 104 104 104 143 143 143 143 143 143 116 116 116 158 254 235 213 255 246 158 254 235 101 245 227 101 245 227 61 224 229 127 127 127 116 116 116 
143 143 143 143 143 143 127 127 127 158 254 235 61 224 229 127 127 127 127 127 127 127 127 127 143 143 143 61 224 229 61 224 229 127 127 127 116 116 116 127 127 127 127 127 127 127 127 127 
127 127 127 116 116 116 116 116 116 127 127 127 143 143 143 143 143 143 143 143 143 127 127 127 127 127 127 143 143 143 143 143 143 127 127 127 116 116 116 116 116 116 116 116 116 127 127 127 
127 127 127 127 127 127 127 127 127 127 127 127 127 127 127 127 127 127 116 116 116 143 143 143 127 127 127 127 127 127 127 127 127 127 127 127 127 127 127 127 127 127 143 143 143 143 143 143 
