P3
16 16
255
143 143 143 127 127 127 127 127 127 143 143 143 127 127 127 116 116 116 104 104 104 104 104 104 116 116 116 104 104 104 116 116 116 116 116 116 127 127 127 143 143 143 143 143 143 143 143 143 
127 127 127 127 127 127 116 116 116 127 127 127 127 127 127 143 143 143 217 255 235 23 221 98 143 143 143 127 127 127 127 127 127 104 104 104 116 116 116 116 116 116 127 127 127 116 116 116 
127 127 127 116 116 116 104 104 104 104 104 104 116 116 116 116 116 116 23 221 98 0 123 24 116 116 116 116 116 116 116 116 116 127 127 127 104 104 104 104 104 104 127 127 127 127 127 127 
143 143 143 143 143 143 143 143 143 143 143 143 104 104 104 104 104 104 143 143 143 143 143 143 143 143 143 143 143 143 143 143 143 127 127 127 217 255 235 23 221 98 116 116 116 116 116 116 
116 116 116 127 127 127 127 127 127 116 116 116 217 255 235 23 221 98 116 116 116 104 104 104 127 127 127 143 143 143 143 143 143 143 143 143 23 221 98 0 123 24 127 127 127 127 127 127 
127 127 127 143 143 143 127 127 127 127 127 127 23 221 98 0 123 24 217 255 235 23 221 98 104 104 104 127 127 127 116 116 116 104 104 104 143 143 143 143 143 143 116 116 116 143 143 143 
116 116 116 127 127 127 127 127 127 143 143 143 143 143 143 143 143 143 23 221 98 0 123 24 143 143 143 127 127 127 127 127 127 116 116 116 127 127 127 127 127 127 127 127 127 127 127 127 
116 116 116 116 116 116 104 104 104 104 104 104 116 116 116 104 104 104 143 143 143 143 143 143 104 104 104 116 116 116 104 104 104 116 116 116 116 116 116 143 143 143 143 143 143 143 143 143 
143 143 143 143 143 143 143 143 143 127 127 127 143 143 143 127 127 127 217 255 235 23 221 98 127 127 127 127 127 127 104 104 104 104 104 104 127 127 127 127 127 127 143 143 143 116 116 116 
127 127 127 127 127 127 127 127 127 127 127 127 127 127 127 127 127 127 23 221 98 0 123 24 143 143 143 116 116 116 217 255 235 23 221 98 143 143 143 104 104 104 104 104 104 127 127 127 
104 104 104 127 127 127 116 116 116 127 127 127 116 116 116 116 116 116 104 104 104 104 104 104 116 116 116 116 116 116 23 221 98 0 123 24 116 116 116 217 255 235 23 221 98 116 116 116 
127 127 127 127 127 127 127 127 127 127 127 127 127 127 127 143 143 143 143 143 143 217 255 235 23 221 98 143 143 143 143 143 143 143 143 143 143 143 143 23 221 98 0 123 24 127 127 127 
127 127 127 104 104 104 104 104 104 116 116 116 127 127 127 143 143 143 143 143 143 23 221 98 0 123 24 116 116 116 116 116 116 104 104 104 104 104 104 143 143 143 143 143 143 116 116 116 
104 104 104 217 255 235 23 221 98 116 116 116 116 116 116 127 127 127 127 127 127 143 143 143 143 143 143 127 127 127 127 127 127 127 127 127 116 116 116 127 127 127 127 127 127 127 127 127 
127 127 127 23 221 98 0 123 24 127 127 127 143 143 143 143 143 143 143 143 143 127 127 127 127 127 127 143 143 143 143 143 143 127 127 127 116 116 116 116 116 116 116 116 116 127 127 127 
127 127 127 143 143 143 143 143 143 127 127 127 127 127 127 127 127 127 116 116 116 143 143 143 127 127 127 127 127 127 127 127 127 127 127 127 127 127 127 127 127 127 143 143 143 143 143 143 
