P3
16 16
255
143 143 143 127 127 127 127 127 127 143 143 143 127 127 127 116 116 116 116 116 116 127 127 127 116 116 116 104 104 104 116 116 116 116 116 116 127 127 127 143 143 143 143 143 143 143 143 143 
127 127 127 127 127 127 104 104 104 104 104 104 104 104 104 143 143 143 143 143 143 143 143 143 143 143 143 127 127 127 127 127 127 104 104 104 104 104 104 104 104 104 127 127 127 116 116 116 
127 127 127 116 116 116 24 85 189 32 89 139 24 85 189 22 68 141 127 127 127 104 104 104 116 116 116 116 116 116 116 116 116 127 127 127 16 52 189 22 68 141 127 127 127 127 127 127 
143 143 143 127 127 127 127 127 127 143 143 143 143 143 143 16 68 172 104 104 104 22 68 141 16 68 172 143 143 143 143 143 143 127 127 127 143 143 143 143 143 143 116 116 116 116 116 116 
116 116 116 127 127 127 127 127 127 116 116 116 116 116 116 104 104 104 104 104 104 116 116 116 143 143 143 127 127 127 104 104 104 116 116 116 143 143 143 116 116 116 127 127 127 127 127 127 
127 127 127 143 143 143 127 127 127 104 104 104 104 104 104 24 85 189 16 68 172 127 127 127 127 127 127 104 104 104 16 68 172 32 89 139 116 116 116 104 104 104 116 116 116 143 143 143 
116 116 116 127 127 127 104 104 104 16 52 189 16 68 172 24 85 189 16 68 172 22 68 141 143 143 143 127 127 127 16 68 172 22 68 141 127 127 127 127 127 127 127 127 127 127 127 127 
116 116 116 16 68 172 22 68 141 104 104 104 116 116 116 143 143 143 143 143 143 116 116 116 127 127 127 116 116 116 104 104 104 116 116 116 116 116 116 143 143 143 143 143 143 143 143 143 
143 143 143 22 68 141 16 52 189 127 127 127 143 143 143 127 127 127 116 116 116 16 68 172 104 104 104 24 85 189 22 68 141 22 68 141 127 127 127 104 104 104 104 104 104 116 116 116 
127 127 127 143 143 143 143 143 143 127 127 127 104 104 104 127 127 127 116 116 116 16 68 172 16 68 172 16 68 172 16 68 172 22 68 141 104 104 104 16 68 172 32 89 139 127 127 127 
104 104 104 127 127 127 104 104 104 104 104 104 16 68 172 116 116 116 104 104 104 104 104 104 16 52 189 16 68 172 22 68 141 116 116 116 116 116 116 16 68 172 32 89 139 116 116 116 
127 127 127 127 127 127 22 68 141 16 52 156 16 52 156 116 116 116 143 143 143 143 143 143 104 104 104 104 104 104 127 127 127 127 127 127 143 143 143 22 68 141 32 89 139 127 127 127 
127 127 127 116 116 116 116 116 116 143 143 143 143 143 143 16 52 156 104 104 104 104 104 104 16 52 189 16 68 172 22 68 141 104 104 104 104 104 104 22 68 141 22 68 141 143 143 143 
143 143 143 143 143 143 127 127 127 116 116 116 16 52 156 16 52 156 22 68 141 127 127 127 16 52 189 16 52 156 22 68 141 143 143 143 116 116 116 143 143 143 143 143 143 127 127 127 
127 127 127 116 116 116 116 116 116 127 127 127 22 68 141 22 68 141 22 68 141 143 143 143 127 127 127 143 143 143 143 143 143 127 127 127 116 116 116 116 116 116 116 116 116 127 127 127 
127 127 127 127 127 127 127 127 127 127 127 127 127 127 127 143 143 143 143 143 143 127 127 127 127 127 127 127 127 127 127 127 127 127 127 127 127 127 127 127 127 127 143 143 143 143 143 143 
