P3
16 16
255
220 113 29 213 87 15 212 85 14 220 111 27 232 162 61 230 153 55 223 124 35 212 85 14 202 59 6 206 70 9 210 81 13 213 87 15 217 102 22 220 111 27 217 102 22 222 120 33 
222 120 33 218 103 23 215 96 19 215 94 18 224 128 38 219 109 26 222 122 34 211 82 14 211 85 16 222 121 34 226 136 43 213 87 15 215 94 18 225 131 40 229 149 52 226 135 42 
224 126 37 224 128 38 217 100 21 213 87 15 209 80 12 203 63 7 208 74 10 214 91 17 209 77 12 220 113 29 223 126 37 210 81 13 213 87 15 227 140 46 250 235 114 237 181 74 
224 126 37 219 107 25 212 85 14 209 79 12 207 74 10 205 66 8 215 93 18 221 117 31 220 111 28 208 74 10 204 65 8 209 79 12 217 100 21 236 179 73 237 183 75 236 177 71 
220 113 29 210 81 13 213 87 15 209 79 12 209 79 12 211 85 14 224 129 39 228 143 48 223 125 36 217 101 22 216 99 21 209 79 12 217 102 22 232 162 61 224 128 38 227 142 47 
218 105 24 211 83 13 214 92 17 211 83 13 211 84 14 220 113 29 228 143 48 226 135 43 215 95 19 215 93 18 225 135 44 222 122 34 210 81 13 218 105 24 218 103 23 222 122 34 
217 100 21 213 89 16 218 105 24 217 100 21 219 109 27 230 152 54 234 170 67 221 115 30 205 66 8 219 108 26 233 165 64 225 133 41 208 74 10 219 109 26 223 124 35 219 107 25 
215 96 19 213 89 16 213 89 16 212 85 14 223 124 36 238 186 78 237 182 76 225 129 39 205 68 9 209 76 11 219 109 26 210 81 13 201 57 6 210 81 13 210 81 13 212 85 14 
220 113 29 227 140 46 219 107 25 211 83 13 209 78 12 224 130 40 227 141 47 219 110 27 206 70 9 204 65 8 204 64 8 211 83 13 210 81 13 203 61 7 208 74 10 214 92 17 
226 137 44 229 149 52 230 151 53 217 102 22 207 72 10 211 82 13 215 96 19 208 74 10 201 56 6 200 54 5 208 74 11 237 181 74 235 173 68 209 79 12 209 79 12 223 124 35 
227 142 47 227 142 47 235 175 70 220 113 29 209 77 11 208 74 10 202 59 6 199 52 5 203 61 7 204 65 8 215 94 18 242 205 91 235 175 70 209 79 12 208 74 10 221 117 31 
210 81 13 214 92 17 215 96 19 215 94 18 226 135 42 231 155 56 209 77 11 200 54 5 206 70 9 209 79 12 207 72 10 219 107 25 214 92 17 203 61 7 208 74 10 209 77 11 
215 94 18 213 87 15 209 79 12 213 89 16 232 160 59 237 183 75 213 87 15 204 65 8 209 79 12 215 94 18 222 122 34 211 83 13 202 59 6 202 59 6 211 83 13 218 103 23 
235 175 70 226 135 42 213 89 16 218 105 24 217 102 22 216 98 20 203 63 7 206 68 9 214 92 17 217 100 21 225 133 41 211 83 13 209 79 12 206 68 9 214 92 17 234 169 65 
238 186 78 238 186 78 223 124 35 227 142 47 215 94 18 208 74 10 201 57 6 203 61 7 208 74 10 210 81 13 214 92 17 217 100 21 226 137 44 217 100 21 212 85 14 227 142 47 
222 120 33 223 124 35 221 117 31 231 158 58 226 135 42 218 105 24 212 85 14 206 68 9 205 66 8 208 74 10 213 87 15 224 126 37 230 151 53 225 131 40 213 89 16 217 100 21 
