P3
16 16
255
81 21 21 87 33 33 81 21 21 80 27 27 101 40 40 80 27 27 114 50 50 114 50 50 101 40 40 101 40 40 65 22 22 101 40 40 101 40 40 114 50 50 101 40 40 87 33 33 
87 33 33 101 40 40 101 40 40 87 33 33 80 27 27 65 22 22 80 27 27 101 40 40 114 50 50 80 27 27 81 21 21 65 22 22 101 40 40 101 40 40 80 27 27 81 21 21 
114 50 50 101 40 40 114 50 50 101 40 40 179 67 22 179 67 22 81 21 21 80 27 27 101 40 40 87 33 33 248 175 43 81 21 21 101 40 40 80 27 27 101 40 40 114 50 50 
133 66 66 114 50 50 101 40 40 252 238 75 255 255 181 248 175 43 87 33 33 114 50 50 101 40 40 114 50 50 252 238 75 199 100 29 81 21 21 101 40 40 80 27 27 101 40 40 
114 50 50 133 66 66 114 50 50 248 175 43 252 238 75 101 40 40 114 50 50 133 66 66 133 66 66 101 40 40 114 50 50 114 50 50 80 27 27 114 50 50 101 40 40 87 33 33 
81 21 21 114 50 50 101 40 40 87 33 33 199 100 29 114 50 50 133 66 66 133 66 66 114 50 50 114 50 50 101 40 40 199 100 29 101 40 40 101 40 40 114 50 50 101 40 40 
81 21 21 101 40 40 114 50 50 80 27 27 65 22 22 114 50 50 101 40 40 114 50 50 114 50 50 101 40 40 80 27 27 255 255 181 252 238 75 114 50 50 133 66 66 114 50 50 
114 50 50 87 33 33 81 21 21 65 22 22 80 27 27 101 40 40 114 50 50 101 40 40 248 175 43 199 100 29 114 50 50 199 100 29 248 175 43 101 40 40 133 66 66 133 66 66 
101 40 40 80 27 27 101 40 40 114 50 50 101 40 40 80 27 27 80 27 27 179 67 22 101 40 40 101 40 40 114 50 50 114 50 50 101 40 40 81 21 21 101 40 40 114 50 50 
80 27 27 101 40 40 114 50 50 252 238 75 255 255 181 101 40 40 65 22 22 80 27 27 101 40 40 114 50 50 101 40 40 114 50 50 114 50 50 81 21 21 81 21 21 80 27 27 
87 33 33 114 50 50 101 40 40 114 50 50 248 175 43 101 40 40 65 22 22 80 27 27 114 50 50 133 66 66 114 50 50 114 50 50 80 27 27 179 67 22 65 22 22 80 27 27 
101 40 40 179 67 22 80 27 27 114 50 50 101 40 40 80 27 27 81 21 21 199 100 29 80 27 27 114 50 50 101 40 40 81 21 21 179 67 22 248 175 43 87 33 33 80 27 27 
81 21 21 101 40 40 114 50 50 101 40 40 80 27 27 114 50 50 101 40 40 255 255 181 252 238 75 80 27 27 81 21 21 114 50 50 101 40 40 114 50 50 101 40 40 81 21 21 
87 33 33 114 50 50 101 40 40 114 50 50 114 50 50 133 66 66 114 50 50 252 238 75 248 175 43 199 100 29 87 33 33 101 40 40 114 50 50 133 66 66 114 50 50 81 21 21 
80 27 27 101 40 40 114 50 50 114 50 50 133 66 66 101 40 40 80 27 27 87 33 33 80 27 27 179 67 22 101 40 40 114 50 50 101 40 40 114 50 50 101 40 40 101 40 40 
80 27 27 80 27 27 101 40 40 114 50 50 114 50 50 80 27 27 101 40 40 114 50 50 87 33 33 65 22 22 80 27 27 101 40 40 114 50 50 114 50 50 101 40 40 101 40 40 
