P3
16 16
255
164 165 156 180 178 172 164 165 156 180 178 172 180 178 172 180 178 172 180 178 172 180 178 172 180 178 172 180 178 172 164 165 156 180 178 172 180 178 172 164 165 156 180 178 172 139 141 156 
180 178 172 134 136 135 124 127 128 124 127 128 124 127 128 134 136 135 134 136 135 134 136 135 115 119 115 134 136 135 134 136 135 124 127 128 106 109 115 124 127 128 134 136 135 90 93 90 
180 178 172 134 136 135 134 136 135 134 136 135 134 136 135 134 136 135 134 136 135 124 127 128 124 127 128 164 165 156 138 144 144 138 144 144 134 136 135 134 136 135 124 127 128 90 93 90 
164 165 156 134 136 135 106 109 115 138 144 144 164 165 156 138 144 144 124 127 128 124 127 128 134 136 135 124 127 128 134 136 135 134 136 135 138 144 144 134 136 135 134 136 135 90 93 90 
180 178 172 134 136 135 134 136 135 134 136 135 134 136 135 115 119 115 134 136 135 139 141 156 138 144 144 134 136 135 124 127 128 124 127 128 124 127 128 124 127 128 134 136 135 90 93 90 
180 178 172 124 127 128 124 127 128 134 136 135 134 136 135 124 127 128 124 127 128 124 127 128 134 136 135 115 119 115 134 136 135 134 136 135 124 127 128 124 127 128 124 127 128 106 109 115 
180 178 172 134 136 135 134 136 135 134 136 135 138 144 144 124 127 128 134 136 135 138 144 144 138 144 144 138 144 144 139 141 156 139 141 156 134 136 135 124 127 128 115 119 115 90 93 90 
180 178 172 124 127 128 124 127 128 134 136 135 124 127 128 124 127 128 124 127 128 124 127 128 115 119 115 106 109 115 115 119 115 124 127 128 134 136 135 134 136 135 134 136 135 106 109 115 
180 178 172 134 136 135 139 141 156 138 144 144 115 119 115 134 136 135 134 136 135 134 136 135 134 136 135 138 144 144 138 144 144 164 165 156 164 165 156 138 144 144 138 144 144 90 93 90 
180 178 172 134 136 135 124 127 128 134 136 135 134 136 135 124 127 128 124 127 128 134 136 135 134 136 135 124 127 128 124 127 128 134 136 135 134 136 135 139 141 156 134 136 135 90 93 90 
180 178 172 134 136 135 134 136 135 138 144 144 138 144 144 164 165 156 138 144 144 124 127 128 124 127 128 124 127 128 138 144 144 138 144 144 134 136 135 134 136 135 134 136 135 90 93 90 
180 178 172 106 109 115 134 136 135 134 136 135 134 136 135 134 136 135 134 136 135 134 136 135 138 144 144 138 144 144 134 136 135 134 136 135 138 144 144 138 144 144 115 119 115 90 93 90 
180 178 172 134 136 135 138 144 144 138 144 144 138 144 144 139 141 156 134 136 135 124 127 128 124 127 128 124 127 128 106 109 115 124 127 128 134 136 135 164 165 156 138 144 144 90 93 90 
180 178 172 134 136 135 134 136 135 134 136 135 124 127 128 124 127 128 124 127 128 124 127 128 134 136 135 134 136 135 138 144 144 139 141 156 124 127 128 124 127 128 134 136 135 90 93 90 
180 178 172 124 127 128 124 127 128 124 127 128 124 127 128 138 144 144 138 144 144 134 136 135 134 136 135 134 136 135 134 136 135 124 127 128 124 127 128 134 136 135 134 136 135 90 93 90 
138 144 144 106 109 115 90 93 90 90 93 90 90 93 90 90 93 90 90 93 90 90 93 90 90 93 90 90 93 90 106 109 115 106 109 115 90 93 90 90 93 90 90 93 90 90 93 90 
