P3
16 16
255
238 234 230 238 234 230 238 234 230 238 234 230 238 234 230 238 234 230 238 230 222 238 230 222 238 230 222 238 230 222 234 226 218 234 226 218 234 226 218 238 234 230 238 234 230 238 234 230 
238 230 222 238 234 230 238 230 222 238 230 222 238 230 222 238 230 222 234 226 218 234 226 218 234 226 218 234 226 218 234 226 218 238 234 230 238 234 230 238 234 230 238 234 230 238 230 222 
238 230 222 238 230 222 238 230 222 234 226 218 234 226 218 234 226 218 234 226 218 234 226 218 234 226 218 238 230 222 238 234 230 238 234 230 238 234 230 238 234 230 238 230 222 238 230 222 
234 226 218 234 226 218 234 226 218 234 226 218 234 226 218 234 226 218 238 230 222 238 230 222 238 234 230 238 234 230 238 234 230 238 234 230 238 230 222 238 230 222 238 230 222 234 226 218 
234 226 218 234 226 218 238 230 222 238 230 222 238 230 222 238 230 222 234 226 218 234 226 218 234 226 218 238 230 222 238 230 222 234 226 218 234 226 218 234 226 218 234 226 218 234 226 218 
238 230 222 238 230 222 238 230 222 234 226 218 234 226 218 234 226 218 234 226 218 234 226 218 238 230 222 238 230 222 234 226 218 234 226 218 234 226 218 234 226 218 234 226 218 238 230 222 
238 230 222 238 230 222 238 230 222 238 230 222 238 234 230 238 234 230 238 234 230 238 234 230 234 226 218 234 226 218 234 226 218 234 226 218 238 230 222 238 230 222 238 230 222 238 230 222 
238 234 230 238 234 230 238 234 230 238 234 230 238 234 230 238 234 230 238 234 230 238 230 222 238 230 222 238 230 222 238 230 222 238 230 222 238 230 222 238 230 222 238 230 222 238 234 230 
238 234 230 238 234 230 238 234 230 238 230 222 238 230 222 234 226 218 234 226 218 234 226 218 238 230 222 238 230 222 238 234 230 238 234 230 238 234 230 238 234 230 238 234 230 238 234 230 
234 226 218 238 230 222 238 230 222 234 226 218 234 226 218 238 230 222 238 234 230 238 234 230 238 234 230 238 234 230 238 234 230 238 234 230 238 234 230 238 234 230 238 230 222 238 230 222 
238 234 230 238 234 230 238 234 230 238 234 230 238 234 230 238 234 230 238 234 230 238 234 230 238 234 230 238 234 230 238 230 222 234 226 218 234 226 218 234 226 218 234 226 218 234 226 218 
238 234 230 238 234 230 238 234 230 238 234 230 238 234 230 238 234 230 238 230 222 238 230 222 234 226 218 234 226 218 234 226 218 234 226 218 234 226 218 234 226 218 238 234 230 238 234 230 
238 234 230 238 234 230 238 234 230 238 234 230 238 230 222 238 230 222 234 226 218 238 230 222 238 230 222 234 226 218 238 230 222 238 230 222 238 234 230 238 234 230 238 234 230 238 234 230 
238 230 222 238 230 222 238 230 222 238 230 222 234 226 218 234 226 218 238 230 222 238 230 222 238 234 230 238 234 230 238 234 230 238 234 230 238 234 230 238 234 230 238 230 222 238 230 222 
234 226 218 234 226 218 238 230 222 234 226 218 238 230 222 238 230 222 238 234 230 238 234 230 238 234 230 238 234 230 238 234 230 238 230 222 238 230 222 238 230 222 238 230 222 234 226 218 
238 230 222 238 234 230 238 234 230 238 234 230 238 234 230 238 234 230 238 234 230 238 234 230 238 234 230 238 234 230 238 234 230 238 230 222 234 226 218 234 226 218 234 226 218 234 226 218 
