P3
16 16
255
59 32 21 59 32 21 59 32 21 59 32 21 59 32 21 59 32 21 59 32 21 59 32 21 59 32 21 59 32 21 59 32 21 59 32 21 59 32 21 59 32 21 59 32 21 59 32 21 
59 32 21 70 55 20 59 32 21 148 105 49 230 153 74 230 153 74 148 105 49 59 32 21 59 32 21 148 105 49 230 153 74 230 153 74 148 105 49 59 32 21 70 55 20 59 32 21 
59 32 21 59 32 21 148 105 49 230 153 74 246 218 180 242 189 116 230 153 74 70 55 20 59 32 21 230 153 74 242 189 116 246 218 180 230 153 74 148 105 49 59 32 21 59 32 21 
59 32 21 70 55 20 230 153 74 246 218 180 246 218 180 230 153 74 148 105 49 59 32 21 59 32 21 148 105 49 230 153 74 246 218 180 246 218 180 230 153 74 70 55 20 59 32 21 
59 32 21 148 105 49 246 218 180 246 218 180 230 153 74 148 105 49 59 32 21 148 105 49 230 153 74 59 32 21 148 105 49 230 153 74 246 218 180 246 218 180 148 105 49 59 32 21 
59 32 21 230 153 74 242 189 116 230 153 74 148 105 49 59 32 21 230 153 74 242 189 116 242 189 116 230 153 74 59 32 21 148 105 49 230 153 74 242 189 116 230 153 74 59 32 21 
59 32 21 148 105 49 230 153 74 148 105 49 59 32 21 230 153 74 246 218 180 246 218 180 246 218 180 242 189 116 230 153 74 59 32 21 148 105 49 230 153 74 148 105 49 59 32 21 
59 32 21 59 32 21 70 55 20 59 32 21 148 105 49 242 189 116 246 218 180 246 218 180 246 218 180 242 189 116 242 189 116 230 153 74 59 32 21 70 55 20 59 32 21 59 32 21 
59 32 21 59 32 21 59 32 21 59 32 21 230 153 74 230 153 74 242 189 116 246 218 180 242 189 116 242 189 116 230 153 74 242 189 116 59 32 21 59 32 21 59 32 21 59 32 21 
59 32 21 230 153 74 148 105 49 70 55 20 59 32 21 148 105 49 230 153 74 242 189 116 242 189 116 230 153 74 242 189 116 59 32 21 70 55 20 230 153 74 148 105 49 59 32 21 
59 32 21 230 153 74 242 189 116 230 153 74 70 55 20 59 32 21 148 105 49 230 153 74 230 153 74 242 189 116 59 32 21 70 55 20 230 153 74 242 189 116 230 153 74 59 32 21 
59 32 21 230 153 74 246 218 180 246 218 180 230 153 74 70 55 20 59 32 21 148 105 49 230 153 74 59 32 21 70 55 20 230 153 74 246 218 180 246 218 180 230 153 74 59 32 21 
59 32 21 148 105 49 230 153 74 246 218 180 246 218 180 230 153 74 70 55 20 59 32 21 59 32 21 70 55 20 230 153 74 246 218 180 246 218 180 230 153 74 148 105 49 59 32 21 
59 32 21 59 32 21 148 105 49 230 153 74 246 218 180 242 189 116 148 105 49 70 55 20 59 32 21 230 153 74 242 189 116 246 218 180 230 153 74 148 105 49 59 32 21 59 32 21 
59 32 21 70 55 20 59 32 21 70 55 20 148 105 49 230 153 74 230 153 74 59 32 21 59 32 21 148 105 49 230 153 74 148 105 49 70 55 20 59 32 21 70 55 20 59 32 21 
59 32 21 59 32 21 59 32 21 59 32 21 59 32 21 59 32 21 59 32 21 59 32 21 59 32 21 59 32 21 59 32 21 59 32 21 59 32 21 59 32 21 59 32 21 59 32 21 
