P3
16 16
255
230 32 8 230 32 8 230 32 8 230 32 8 230 32 8 230 32 8 230 32 8 230 32 8 230 32 8 230 32 8 230 32 8 230 32 8 230 32 8 230 32 8 230 32 8 230 32 8 
230 32 8 189 32 8 189 32 8 230 32 8 189 32 8 189 32 8 164 24 8 164 24 8 164 24 8 189 32 8 189 32 8 230 32 8 189 32 8 189 32 8 189 32 8 230 32 8 
230 32 8 189 32 8 189 32 8 230 32 8 164 24 8 164 24 8 115 12 0 164 24 8 164 24 8 164 24 8 164 24 8 164 24 8 189 32 8 164 24 8 189 32 8 230 32 8 
230 32 8 189 32 8 189 32 8 164 24 8 189 32 8 148 20 0 148 20 0 115 12 0 115 12 0 148 20 0 148 20 0 164 24 8 115 12 0 164 24 8 189 32 8 230 32 8 
230 32 8 230 32 8 189 32 8 164 24 8 148 20 0 148 20 0 115 12 0 148 20 0 164 24 8 115 12 0 148 20 0 148 20 0 164 24 8 230 32 8 230 32 8 230 32 8 
230 32 8 189 32 8 164 24 8 148 20 0 115 12 0 115 12 0 115 12 0 115 12 0 115 12 0 115 12 0 115 12 0 115 12 0 230 32 8 164 24 8 189 32 8 230 32 8 
230 32 8 189 32 8 115 12 0 164 24 8 148 20 0 115 12 0 115 12 0 115 12 0 115 12 0 115 12 0 115 12 0 148 20 0 148 20 0 148 20 0 189 32 8 230 32 8 
230 32 8 164 24 8 148 20 0 148 20 0 115 12 0 115 12 0 115 12 0 115 12 0 115 12 0 115 12 0 115 12 0 115 12 0 148 20 0 164 24 8 164 24 8 230 32 8 
230 32 8 164 24 8 164 24 8 189 32 8 148 20 0 115 12 0 115 12 0 115 12 0 115 12 0 115 12 0 115 12 0 148 20 0 148 20 0 148 20 0 189 32 8 230 32 8 
230 32 8 189 32 8 164 24 8 230 32 8 148 20 0 148 20 0 115 12 0 164 24 8 148 20 0 115 12 0 148 20 0 148 20 0 148 20 0 164 24 8 189 32 8 230 32 8 
230 32 8 189 32 8 164 24 8 148 20 0 148 20 0 115 12 0 115 12 0 115 12 0 230 32 8 115 12 0 115 12 0 148 20 0 164 24 8 164 24 8 230 32 8 230 32 8 
230 32 8 189 32 8 189 32 8 164 24 8 148 20 0 148 20 0 115 12 0 148 20 0 115 12 0 115 12 0 148 20 0 148 20 0 148 20 0 115 12 0 189 32 8 230 32 8 
230 32 8 189 32 8 164 24 8 164 24 8 164 24 8 148 20 0 148 20 0 148 20 0 148 20 0 148 20 0 148 20 0 164 24 8 164 24 8 164 24 8 164 24 8 230 32 8 
230 32 8 230 32 8 189 32 8 148 20 0 164 24 8 230 32 8 164 24 8 148 20 0 148 20 0 115 12 0 164 24 8 164 24 8 189 32 8 164 24 8 189 32 8 230 32 8 
230 32 8 189 32 8 189 32 8 189 32 8 230 32 8 230 32 8 189 32 8 189 32 8 164 24 8 164 24 8 189 32 8 189 32 8 189 32 8 189 32 8 189 32 8 230 32 8 
230 32 8 230 32 8 230 32 8 230 32 8 230 32 8 230 32 8 230 32 8 230 32 8 230 32 8 230 32 8 230 32 8 230 32 8 230 32 8 230 32 8 230 32 8 230 32 8 
