P3
16 16
255
207 213 214 206 212 213 208 214 215 207 213 214 208 214 215 206 212 213 208 214 215 208 214 215 207 213 214 207 213 214 208 214 215 208 214 215 207 213 214 207 213 214 208 214 215 207 213 214 
206 212 213 207 213 214 207 213 214 208 214 215 208 214 215 206 212 213 207 213 214 207 213 214 206 212 213 207 213 214 208 214 215 207 213 214 207 213 214 208 214 215 208 214 215 207 213 214 
206 212 213 207 213 214 208 214 215 207 213 214 207 213 214 206 212 213 207 213 214 206 212 213 206 212 213 208 214 215 206 212 213 206 212 213 206 212 213 208 214 215 206 212 213 206 212 213 
206 212 213 208 214 215 207 213 214 208 214 215 206 212 213 206 212 213 209 214 215 208 214 215 206 212 213 206 212 213 206 212 213 207 213 214 207 213 214 209 214 215 207 213 214 207 213 214 
208 214 215 207 213 214 208 214 215 208 214 215 208 214 215 208 214 215 207 213 214 206 212 213 207 213 214 206 212 213 206 212 213 207 213 214 208 214 215 208 214 215 207 213 214 207 213 214 
207 213 214 209 214 215 208 214 215 207 213 214 206 212 213 207 213 214 207 213 214 208 214 215 206 212 213 206 211 212 206 212 213 206 212 213 206 212 213 206 211 212 208 214 215 207 213 214 
206 212 213 207 213 214 207 213 214 207 213 214 206 212 213 208 214 215 208 214 215 208 214 215 207 213 214 207 213 214 208 214 215 207 213 214 206 212 213 208 214 215 207 213 214 207 213 214 
207 213 214 207 213 214 206 212 213 206 212 213 206 212 213 206 212 212 208 214 215 207 213 214 208 214 215 208 214 215 208 214 215 207 213 214 207 213 214 207 213 214 207 213 214 206 212 213 
207 213 214 208 214 215 208 214 215 207 213 214 208 214 215 207 213 214 208 214 215 206 212 213 208 214 215 207 213 214 208 214 215 208 214 215 208 214 215 208 214 215 207 213 214 206 212 213 
207 213 214 207 213 214 208 214 215 206 212 213 207 213 214 208 214 215 208 214 215 208 214 215 207 213 214 207 213 214 207 213 214 206 212 213 206 212 213 207 213 214 206 212 213 207 213 214 
209 214 215 208 214 215 208 214 215 206 212 213 206 212 213 207 213 214 207 213 214 207 213 214 206 212 213 206 212 213 206 212 213 208 214 215 207 213 214 208 214 215 206 212 213 208 214 215 
208 214 215 208 214 215 207 213 214 208 214 215 206 212 213 207 213 214 207 213 214 207 213 214 207 213 214 207 213 214 207 213 214 207 213 214 207 213 214 207 213 214 208 214 215 207 213 214 
206 212 213 207 213 214 208 214 215 206 212 213 208 214 215 208 214 215 207 213 214 206 212 213 206 212 213 208 214 215 209 214 215 208 214 215 207 213 214 207 213 214 206 212 213 206 212 213 
206 212 213 208 214 215 206 212 213 208 214 215 208 214 215 208 214 215 207 213 214 208 214 215 206 212 213 206 212 213 207 213 214 208 214 215 209 214 215 207 213 214 208 214 215 207 213 214 
208 214 215 208 214 215 206 212 213 207 213 214 207 213 214 208 214 215 208 214 215 207 213 214 208 214 215 207 213 214 206 212 213 208 214 215 207 213 214 208 214 215 206 212 213 206 212 213 
206 212 213 206 212 213 208 214 215 206 212 213 208 214 215 208 214 215 206 212 213 208 214 215 207 213 214 206 212 213 208 214 215 208 214 215 207 213 214 208 214 215 207 213 214 208 214 215 
