P3
16 16
255
143 143 143 127 127 127 127 127 127 143 143 143 127 127 127 116 116 116 116 116 116 127 127 127 116 116 116 104 104 104 116 116 116 116 116 116 127 127 127 143 143 143 143 143 143 143 143 143 
127 127 127 127 127 127 116 116 116 127 127 127 104 104 104 143 143 143 143 143 143 143 143 143 143 143 143 127 127 127 127 127 127 104 104 104 104 104 104 104 104 104 127 127 127 116 116 116 
127 127 127 116 116 116 104 104 104 104 104 104 63 63 63 116 116 116 127 127 127 104 104 104 104 104 104 116 116 116 116 116 116 127 127 127 63 63 63 63 63 63 127 127 127 127 127 127 
143 143 143 143 143 143 143 143 143 127 127 127 143 143 143 127 127 127 127 127 127 63 63 63 52 52 52 127 127 127 143 143 143 127 127 127 127 127 127 143 143 143 116 116 116 116 116 116 
116 116 116 127 127 127 127 127 127 116 116 116 116 116 116 104 104 104 104 104 104 116 116 116 143 143 143 127 127 127 116 116 116 127 127 127 143 143 143 116 116 116 127 127 127 127 127 127 
127 127 127 143 143 143 127 127 127 127 127 127 104 104 104 69 69 69 63 63 63 127 127 127 127 127 127 116 116 116 69 69 69 63 63 63 116 116 116 104 104 104 116 116 116 143 143 143 
116 116 116 127 127 127 127 127 127 69 69 69 63 63 63 63 63 63 63 63 63 52 52 52 143 143 143 127 127 127 63 63 63 52 52 52 127 127 127 127 127 127 127 127 127 127 127 127 
116 116 116 104 104 104 104 104 104 127 127 127 127 127 127 143 143 143 143 143 143 143 143 143 104 104 104 104 104 104 104 104 104 116 116 116 116 116 116 143 143 143 143 143 143 143 143 143 
143 143 143 63 63 63 63 63 63 127 127 127 143 143 143 127 127 127 116 116 116 104 104 104 69 69 69 63 63 63 127 127 127 116 116 116 127 127 127 127 127 127 143 143 143 116 116 116 
127 127 127 127 127 127 143 143 143 127 127 127 104 104 104 127 127 127 116 116 116 63 63 63 52 52 52 52 52 52 52 52 52 127 127 127 143 143 143 143 143 143 143 143 143 127 127 127 
104 104 104 127 127 127 116 116 116 127 127 127 63 63 63 116 116 116 104 104 104 104 104 104 116 116 116 143 143 143 143 143 143 104 104 104 104 104 104 127 127 127 116 116 116 116 116 116 
127 127 127 127 127 127 127 127 127 127 127 127 127 127 127 143 143 143 143 143 143 143 143 143 143 143 143 104 104 104 116 116 116 63 63 63 52 52 52 143 143 143 143 143 143 127 127 127 
127 127 127 116 116 116 116 116 116 104 104 104 104 104 104 143 143 143 143 143 143 116 116 116 63 63 63 69 69 69 63 63 63 63 63 63 63 63 63 52 52 52 127 127 127 116 116 116 
143 143 143 143 143 143 127 127 127 63 63 63 52 52 52 127 127 127 127 127 127 127 127 127 143 143 143 52 52 52 52 52 52 127 127 127 116 116 116 127 127 127 127 127 127 127 127 127 
127 127 127 116 116 116 116 116 116 127 127 127 143 143 143 143 143 143 143 143 143 127 127 127 127 127 127 143 143 143 143 143 143 127 127 127 116 116 116 116 116 116 116 116 116 127 127 127 
127 127 127 127 127 127 127 127 127 127 127 127 127 127 127 127 127 127 116 116 116 143 143 143 127 127 127 127 127 127 127 127 127 127 127 127 127 127 127 127 127 127 143 143 143 143 143 143 
