P3
16 16
255
143 143 143 127 127 127 127 127 127 143 143 143 127 127 127 116 116 116 116 116 116 127 127 127 116 116 116 104 104 104 116 116 116 116 116 116 127 127 127 143 143 143 143 143 143 143 143 143 
127 127 127 127 127 127 116 116 116 127 127 127 104 104 104 143 143 143 143 143 143 143 143 143 143 143 143 127 127 127 127 127 127 104 104 104 104 104 104 104 104 104 127 127 127 116 116 116 
127 127 127 116 116 116 104 104 104 104 104 104 214 123 91 116 116 116 127 127 127 104 104 104 104 104 104 116 116 116 116 116 116 127 127 127 230 138 117 214 123 91 127 127 127 127 127 127 
143 143 143 143 143 143 143 143 143 127 127 127 143 143 143 127 127 127 127 127 127 230 138 117 193 103 70 127 127 127 143 143 143 127 127 127 127 127 127 143 143 143 116 116 116 116 116 116 
116 116 116 127 127 127 127 127 127 116 116 116 116 116 116 104 104 104 104 104 104 116 116 116 143 143 143 127 127 127 116 116 116 127 127 127 143 143 143 116 116 116 127 127 127 127 127 127 
127 127 127 143 143 143 127 127 127 127 127 127 104 104 104 229 160 144 230 138 117 127 127 127 127 127 127 116 116 116 229 160 144 230 138 117 116 116 116 104 104 104 116 116 116 143 143 143 
116 116 116 127 127 127 127 127 127 229 160 144 230 138 117 214 123 91 214 123 91 193 103 70 143 143 143 127 127 127 214 123 91 193 103 70 127 127 127 127 127 127 127 127 127 127 127 127 
116 116 116 104 104 104 104 104 104 127 127 127 127 127 127 143 143 143 143 143 143 143 143 143 104 104 104 104 104 104 104 104 104 116 116 116 116 116 116 143 143 143 143 143 143 143 143 143 
143 143 143 230 138 117 214 123 91 127 127 127 143 143 143 127 127 127 116 116 116 104 104 104 229 160 144 230 138 117 127 127 127 116 116 116 127 127 127 127 127 127 143 143 143 116 116 116 
127 127 127 127 127 127 143 143 143 127 127 127 104 104 104 127 127 127 116 116 116 230 138 117 193 103 70 193 103 70 193 103 70 127 127 127 143 143 143 143 143 143 143 143 143 127 127 127 
104 104 104 127 127 127 116 116 116 127 127 127 214 123 91 116 116 116 104 104 104 104 104 104 116 116 116 143 143 143 143 143 143 104 104 104 104 104 104 127 127 127 116 116 116 116 116 116 
127 127 127 127 127 127 127 127 127 127 127 127 127 127 127 143 143 143 143 143 143 143 143 143 143 143 143 104 104 104 116 116 116 230 138 117 193 103 70 143 143 143 143 143 143 127 127 127 
127 127 127 116 116 116 116 116 116 104 104 104 104 104 104 143 143 143 143 143 143 116 116 116 230 138 117 229 160 144 230 138 117 214 123 91 214 123 91 193 103 70 127 127 127 116 116 116 
143 143 143 143 143 143 127 127 127 230 138 117 193 103 70 127 127 127 127 127 127 127 127 127 143 143 143 193 103 70 193 103 70 127 127 127 116 116 116 127 127 127 127 127 127 127 127 127 
127 127 127 116 116 116 116 116 116 127 127 127 143 143 143 143 143 143 143 143 143 127 127 127 127 127 127 143 143 143 143 143 143 127 127 127 116 116 116 116 116 116 116 116 116 127 127 127 
127 127 127 127 127 127 127 127 127 127 127 127 127 127 127 127 127 127 116 116 116 143 143 143 127 127 127 127 127 127 127 127 127 127 127 127 127 127 127 127 127 127 143 143 143 143 143 143 
