P3
16 16
255
121 121 121 100 100 100 81 81 81 81 81 81 81 81 81 81 81 81 61 61 67 61 61 67 100 100 100 100 100 100 100 100 100 81 81 81 81 81 81 61 61 67 81 81 81 81 81 81 
81 81 81 61 61 67 47 47 55 47 47 55 61 61 67 61 61 67 61 61 67 61 61 67 81 81 81 100 100 100 81 81 81 81 81 81 61 61 67 61 61 67 81 81 81 61 61 67 
100 100 100 100 100 100 24 85 189 32 89 139 24 85 189 22 68 141 81 81 81 47 47 55 47 47 55 47 47 55 47 47 55 61 61 67 16 52 189 22 68 141 61 61 67 61 61 67 
61 61 67 81 81 81 100 100 100 81 81 81 81 81 81 16 68 172 61 61 67 22 68 141 16 68 172 100 100 100 121 121 121 121 121 121 100 100 100 100 100 100 100 100 100 81 81 81 
47 47 55 61 61 67 81 81 81 81 81 81 61 61 67 61 61 67 61 61 67 81 81 81 100 100 100 100 100 100 100 100 100 121 121 121 100 100 100 100 100 100 81 81 81 61 61 67 
121 121 121 121 121 121 81 81 81 100 100 100 81 81 81 24 85 189 16 68 172 81 81 81 100 100 100 100 100 100 16 68 172 32 89 139 81 81 81 81 81 81 81 81 81 100 100 100 
121 121 121 100 100 100 100 100 100 16 52 189 16 68 172 24 85 189 16 68 172 22 68 141 81 81 81 81 81 81 16 68 172 22 68 141 47 47 55 47 47 55 61 61 67 81 81 81 
100 100 100 16 68 172 22 68 141 61 61 67 61 61 67 61 61 67 100 100 100 121 121 121 100 100 100 100 100 100 81 81 81 61 61 67 47 47 55 61 61 67 81 81 81 81 81 81 
81 81 81 22 68 141 16 52 189 61 61 67 61 61 67 61 61 67 81 81 81 16 68 172 100 100 100 24 85 189 22 68 141 22 68 141 61 61 67 61 61 67 61 61 67 81 81 81 
61 61 67 61 61 67 47 47 55 47 47 55 81 81 81 81 81 81 81 81 81 16 68 172 16 68 172 16 68 172 16 68 172 22 68 141 61 61 67 16 68 172 32 89 139 61 61 67 
100 100 100 81 81 81 100 100 100 81 81 81 16 68 172 81 81 81 81 81 81 61 61 67 16 52 189 16 68 172 22 68 141 61 61 67 81 81 81 16 68 172 32 89 139 121 121 121 
100 100 100 100 100 100 22 68 141 16 52 156 16 52 156 121 121 121 121 121 121 121 121 121 81 81 81 61 61 67 81 81 81 61 61 67 61 61 67 22 68 141 32 89 139 100 100 100 
100 100 100 81 81 81 61 61 67 61 61 67 81 81 81 16 52 156 100 100 100 100 100 100 16 52 189 16 68 172 22 68 141 61 61 67 61 61 67 22 68 141 22 68 141 100 100 100 
61 61 67 61 61 67 61 61 67 47 47 55 16 52 156 16 52 156 22 68 141 100 100 100 16 52 189 16 52 156 22 68 141 61 61 67 47 47 55 47 47 55 61 61 67 61 61 67 
121 121 121 121 121 121 100 100 100 100 100 100 22 68 141 22 68 141 22 68 141 47 47 55 61 61 67 121 121 121 100 100 100 81 81 81 81 81 81 100 100 100 100 100 100 121 121 121 
121 121 121 121 121 121 100 100 100 81 81 81 100 100 100 81 81 81 81 81 81 47 47 55 81 81 81 121 121 121 100 100 100 100 100 100 81 81 81 81 81 81 100 100 100 100 100 100 
