P3
16 16
255
121 121 121 100 100 100 81 81 81 81 81 81 81 81 81 81 81 81 61 61 67 61 61 67 100 100 100 100 100 100 100 100 100 81 81 81 81 81 81 61 61 67 81 81 81 81 81 81 
81 81 81 61 61 67 47 47 55 47 47 55 61 61 67 61 61 67 61 61 67 61 61 67 81 81 81 100 100 100 81 81 81 81 81 81 61 61 67 61 61 67 81 81 81 61 61 67 
100 100 100 100 100 100 121 121 121 100 100 100 188 153 128 81 81 81 81 81 81 47 47 55 47 47 55 47 47 55 47 47 55 61 61 67 216 175 147 188 153 128 61 61 67 61 61 67 
61 61 67 81 81 81 100 100 100 81 81 81 81 81 81 61 61 67 61 61 67 216 175 147 175 142 119 100 100 100 121 121 121 121 121 121 100 100 100 100 100 100 100 100 100 81 81 81 
47 47 55 61 61 67 81 81 81 81 81 81 61 61 67 61 61 67 61 61 67 81 81 81 100 100 100 100 100 100 100 100 100 121 121 121 100 100 100 100 100 100 81 81 81 61 61 67 
121 121 121 121 121 121 81 81 81 100 100 100 81 81 81 226 192 170 216 175 147 81 81 81 100 100 100 100 100 100 226 192 170 188 153 128 81 81 81 81 81 81 81 81 81 100 100 100 
121 121 121 100 100 100 100 100 100 226 192 170 216 175 147 188 153 128 188 153 128 175 142 119 81 81 81 81 81 81 188 153 128 175 142 119 47 47 55 47 47 55 61 61 67 81 81 81 
100 100 100 81 81 81 61 61 67 61 61 67 61 61 67 61 61 67 100 100 100 121 121 121 100 100 100 100 100 100 81 81 81 61 61 67 47 47 55 61 61 67 81 81 81 81 81 81 
81 81 81 216 175 147 188 153 128 61 61 67 61 61 67 61 61 67 81 81 81 121 121 121 226 192 170 216 175 147 100 100 100 81 81 81 61 61 67 61 61 67 61 61 67 81 81 81 
61 61 67 61 61 67 47 47 55 47 47 55 81 81 81 81 81 81 81 81 81 216 175 147 175 142 119 175 142 119 175 142 119 81 81 81 61 61 67 47 47 55 47 47 55 61 61 67 
100 100 100 81 81 81 100 100 100 81 81 81 188 153 128 81 81 81 81 81 81 61 61 67 61 61 67 47 47 55 47 47 55 61 61 67 81 81 81 81 81 81 121 121 121 121 121 121 
100 100 100 100 100 100 81 81 81 61 61 67 100 100 100 121 121 121 121 121 121 121 121 121 81 81 81 61 61 67 81 81 81 216 175 147 175 142 119 81 81 81 121 121 121 100 100 100 
100 100 100 81 81 81 61 61 67 61 61 67 81 81 81 121 121 121 100 100 100 100 100 100 216 175 147 226 192 170 216 175 147 216 175 147 216 175 147 175 142 119 100 100 100 100 100 100 
61 61 67 61 61 67 61 61 67 188 153 128 175 142 119 81 81 81 100 100 100 100 100 100 81 81 81 175 142 119 175 142 119 61 61 67 47 47 55 47 47 55 61 61 67 61 61 67 
121 121 121 121 121 121 100 100 100 100 100 100 81 81 81 61 61 67 61 61 67 47 47 55 61 61 67 121 121 121 100 100 100 81 81 81 81 81 81 100 100 100 100 100 100 121 121 121 
121 121 121 121 121 121 100 100 100 81 81 81 100 100 100 81 81 81 81 81 81 47 47 55 81 81 81 121 121 121 100 100 100 100 100 100 81 81 81 81 81 81 100 100 100 100 100 100 
