P3
16 16
255
139 139 139 164 162 162 164 162 162 164 162 162 190 191 193 233 233 233 164 162 162 164 162 162 190 191 193 190 191 193 233 233 233 164 162 162 206 206 207 190 191 193 233 233 233 233 233 233 
164 162 162 123 123 123 139 139 139 190 191 193 164 162 162 164 162 162 139 139 139 190 191 193 233 233 233 190 191 193 206 206 207 233 233 233 233 233 233 206 206 207 190 191 193 139 139 139 
233 233 233 139 139 139 190 191 193 233 233 233 233 233 233 139 139 139 123 123 123 139 139 139 190 191 193 164 162 162 233 233 233 233 233 233 206 206 207 190 191 193 164 162 162 190 191 193 
233 233 233 164 162 162 233 233 233 233 233 233 190 191 193 139 139 139 164 162 162 233 233 233 233 233 233 190 191 193 164 162 162 139 139 139 190 191 193 164 162 162 164 162 162 233 233 233 
190 191 193 233 233 233 139 139 139 164 162 162 206 206 207 190 191 193 139 139 139 233 233 233 190 191 193 233 233 233 190 191 193 164 162 162 164 162 162 233 233 233 233 233 233 164 162 162 
206 206 207 233 233 233 190 191 193 233 233 233 233 233 233 233 233 233 206 206 207 139 139 139 190 191 193 190 191 193 164 162 162 190 191 193 190 191 193 233 233 233 164 162 162 190 191 193 
233 233 233 190 191 193 190 191 193 164 162 162 206 206 207 233 233 233 233 233 233 164 162 162 139 139 139 206 206 207 233 233 233 233 233 233 206 206 207 139 139 139 123 123 123 164 162 162 
164 162 162 206 206 207 190 191 193 139 139 139 164 162 162 190 191 193 164 162 162 190 191 193 206 206 207 233 233 233 233 233 233 233 233 233 233 233 233 164 162 162 139 139 139 164 162 162 
190 191 193 164 162 162 164 162 162 123 123 123 190 191 193 164 162 162 233 233 233 233 233 233 206 206 207 206 206 207 190 191 193 164 162 162 206 206 207 206 206 207 164 162 162 233 233 233 
123 123 123 139 139 139 233 233 233 233 233 233 164 162 162 139 139 139 190 191 193 233 233 233 233 233 233 139 139 139 164 162 162 190 191 193 206 206 207 233 233 233 206 206 207 139 139 139 
164 162 162 206 206 207 206 206 207 190 191 193 139 139 139 123 123 123 139 139 139 190 191 193 206 206 207 190 191 193 190 191 193 233 233 233 233 233 233 139 139 139 190 191 193 123 123 123 
233 233 233 233 233 233 233 233 233 139 139 139 123 123 123 139 139 139 206 206 207 206 206 207 164 162 162 164 162 162 139 139 139 233 233 233 139 139 139 164 162 162 190 191 193 233 233 233 
164 162 162 233 233 233 206 206 207 164 162 162 233 233 233 206 206 207 190 191 193 233 233 233 233 233 233 206 206 207 164 162 162 164 162 162 190 191 193 164 162 162 164 162 162 190 191 193 
164 162 162 139 139 139 164 162 162 190 191 193 206 206 207 190 191 193 139 139 139 164 162 162 233 233 233 206 206 207 233 233 233 206 206 207 190 191 193 233 233 233 190 191 193 164 162 162 
206 206 207 164 162 162 139 139 139 139 139 139 233 233 233 233 233 233 164 162 162 139 139 139 206 206 207 233 233 233 233 233 233 190 191 193 164 162 162 139 139 139 164 162 162 206 206 207 
233 233 233 164 162 162 190 191 193 233 233 233 233 233 233 233 233 233 206 206 207 139 139 139 164 162 162 206 206 207 206 206 207 164 162 162 139 139 139 164 162 162 233 233 233 233 233 233 
