P3
16 16
255
143 143 143 127 127 127 127 127 127 143 143 143 127 127 127 116 116 116 116 116 116 127 127 127 116 116 116 104 104 104 116 116 116 116 116 116 127 127 127 143 143 143 143 143 143 143 143 143 
127 127 127 127 127 127 116 116 116 127 127 127 104 104 104 143 143 143 143 143 143 143 143 143 143 143 143 127 127 127 127 127 127 104 104 104 104 104 104 104 104 104 127 127 127 116 116 116 
127 127 127 116 116 116 104 104 104 104 104 104 252 238 75 116 116 116 127 127 127 104 104 104 104 104 104 116 116 116 116 116 116 127 127 127 255 255 181 252 238 75 127 127 127 127 127 127 
143 143 143 143 143 143 143 143 143 127 127 127 143 143 143 127 127 127 127 127 127 255 255 181 248 175 43 127 127 127 143 143 143 127 127 127 127 127 127 143 143 143 116 116 116 116 116 116 
116 116 116 127 127 127 127 127 127 116 116 116 116 116 116 104 104 104 104 104 104 116 116 116 143 143 143 127 127 127 116 116 116 127 127 127 143 143 143 116 116 116 127 127 127 127 127 127 
127 127 127 143 143 143 127 127 127 127 127 127 104 104 104 255 255 255 255 255 181 127 127 127 127 127 127 116 116 116 255 255 255 255 255 181 116 116 116 104 104 104 116 116 116 143 143 143 
116 116 116 127 127 127 127 127 127 255 255 255 255 255 181 252 238 75 252 238 75 248 175 43 143 143 143 127 127 127 252 238 75 248 175 43 127 127 127 127 127 127 127 127 127 127 127 127 
116 116 116 104 104 104 104 104 104 127 127 127 127 127 127 143 143 143 143 143 143 143 143 143 104 104 104 104 104 104 104 104 104 116 116 116 116 116 116 143 143 143 143 143 143 143 143 143 
143 143 143 255 255 181 252 238 75 127 127 127 143 143 143 127 127 127 116 116 116 104 104 104 255 255 255 255 255 181 127 127 127 116 116 116 127 127 127 127 127 127 143 143 143 116 116 116 
127 127 127 127 127 127 143 143 143 127 127 127 104 104 104 127 127 127 116 116 116 255 255 181 248 175 43 248 175 43 248 175 43 127 127 127 143 143 143 143 143 143 143 143 143 127 127 127 
104 104 104 127 127 127 116 116 116 127 127 127 252 238 75 116 116 116 104 104 104 104 104 104 116 116 116 143 143 143 143 143 143 104 104 104 104 104 104 127 127 127 116 116 116 116 116 116 
127 127 127 127 127 127 127 127 127 127 127 127 127 127 127 143 143 143 143 143 143 143 143 143 143 143 143 104 104 104 116 116 116 255 255 181 248 175 43 143 143 143 143 143 143 127 127 127 
127 127 127 116 116 116 116 116 116 104 104 104 104 104 104 143 143 143 143 143 143 116 116 116 255 255 181 255 255 255 255 255 181 252 238 75 252 238 75 248 175 43 127 127 127 116 116 116 
143 143 143 143 143 143 127 127 127 255 255 181 248 175 43 127 127 127 127 127 127 127 127 127 143 143 143 248 175 43 248 175 43 127 127 127 116 116 116 127 127 127 127 127 127 127 127 127 
127 127 127 116 116 116 116 116 116 127 127 127 143 143 143 143 143 143 143 143 143 127 127 127 127 127 127 143 143 143 143 143 143 127 127 127 116 116 116 116 116 116 116 116 116 127 127 127 
127 127 127 127 127 127 127 127 127 127 127 127 127 127 127 127 127 127 116 116 116 143 143 143 127 127 127 127 127 127 127 127 127 127 127 127 127 127 127 127 127 127 143 143 143 143 143 143 
