P3
16 16
255
143 143 143 127 127 127 127 127 127 143 143 143 127 127 127 116 116 116 116 116 116 127 127 127 116 116 116 104 104 104 116 116 116 116 116 116 127 127 127 143 143 143 143 143 143 143 143 143 
127 127 127 127 127 127 116 116 116 127 127 127 104 104 104 143 143 143 143 143 143 143 143 143 143 143 143 127 127 127 127 127 127 104 104 104 104 104 104 104 104 104 127 127 127 116 116 116 
127 127 127 116 116 116 104 104 104 104 104 104 188 153 128 116 116 116 127 127 127 104 104 104 104 104 104 116 116 116 116 116 116 127 127 127 216 175 147 188 153 128 127 127 127 127 127 127 
143 143 143 143 143 143 143 143 143 127 127 127 143 143 143 127 127 127 127 127 127 216 175 147 175 142 119 127 127 127 143 143 143 127 127 127 127 127 127 143 143 143 116 116 116 116 116 116 
116 116 116 127 127 127 127 127 127 116 116 116 116 116 116 104 104 104 104 104 104 116 116 116 143 143 143 127 127 127 116 116 116 127 127 127 143 143 143 116 116 116 127 127 127 127 127 127 
127 127 127 143 143 143 127 127 127 127 127 127 104 104 104 226 192 170 216 175 147 127 127 127 127 127 127 116 116 116 226 192 170 188 153 128 116 116 116 104 104 104 116 116 116 143 143 143 
116 116 116 127 127 127 127 127 127 226 192 170 216 175 147 188 153 128 188 153 128 175 142 119 143 143 143 127 127 127 188 153 128 175 142 119 127 127 127 127 127 127 127 127 127 127 127 127 
116 116 116 104 104 104 104 104 104 127 127 127 127 127 127 143 143 143 143 143 143 143 143 143 104 104 104 104 104 104 104 104 104 116 116 116 116 116 116 143 143 143 143 143 143 143 143 143 
143 143 143 216 175 147 188 153 128 127 127 127 143 143 143 127 127 127 116 116 116 104 104 104 226 192 170 216 175 147 127 127 127 116 116 116 127 127 127 127 127 127 143 143 143 116 116 116 
127 127 127 127 127 127 143 143 143 127 127 127 104 104 104 127 127 127 116 116 116 216 175 147 175 142 119 175 142 119 175 142 119 127 127 127 143 143 143 143 143 143 143 143 143 127 127 127 
104 104 104 127 127 127 116 116 116 127 127 127 188 153 128 116 116 116 104 104 104 104 104 104 116 116 116 143 143 143 143 143 143 104 104 104 104 104 104 127 127 127 116 116 116 116 116 116 
127 127 127 127 127 127 127 127 127 127 127 127 127 127 127 143 143 143 143 143 143 143 143 143 143 143 143 104 104 104 116 116 116 216 175 147 175 142 119 143 143 143 143 143 143 127 127 127 
127 127 127 116 116 116 116 116 116 104 104 104 104 104 104 143 143 143 143 143 143 116 116 116 216 175 147 226 192 170 216 175 147 216 175 147 216 175 147 175 142 119 127 127 127 116 116 116 
143 143 143 143 143 143 127 127 127 188 153 128 175 142 119 127 127 127 127 127 127 127 127 127 143 143 143 175 142 119 175 142 119 127 127 127 116 116 116 127 127 127 127 127 127 127 127 127 
127 127 127 116 116 116 116 116 116 127 127 127 143 143 143 143 143 143 143 143 143 127 127 127 127 127 127 143 143 143 143 143 143 127 127 127 116 116 116 116 116 116 116 116 116 127 127 127 
127 127 127 127 127 127 127 127 127 127 127 127 127 127 127 127 127 127 116 116 116 143 143 143 127 127 127 127 127 127 127 127 127 127 127 127 127 127 127 127 127 127 143 143 143 143 143 143 
