P3
16 16
255
81 21 21 87 33 33 81 21 21 80 27 27 101 40 40 80 27 27 114 50 50 114 50 50 101 40 40 101 40 40 65 22 22 101 40 40 101 40 40 114 50 50 101 40 40 87 33 33 
87 33 33 101 40 40 101 40 40 87 33 33 80 27 27 65 22 22 80 27 27 101 40 40 114 50 50 114 50 50 81 21 21 65 22 22 101 40 40 101 40 40 80 27 27 81 21 21 
114 50 50 101 40 40 114 50 50 101 40 40 87 33 33 65 22 22 114 50 50 172 113 106 212 202 186 182 164 142 80 27 27 81 21 21 101 40 40 80 27 27 101 40 40 114 50 50 
133 66 66 114 50 50 101 40 40 114 50 50 114 50 50 234 229 222 212 202 186 212 202 186 172 113 106 114 50 50 114 50 50 87 33 33 81 21 21 101 40 40 80 27 27 101 40 40 
114 50 50 133 66 66 114 50 50 114 50 50 234 229 222 212 202 186 172 113 106 114 50 50 133 66 66 101 40 40 114 50 50 114 50 50 80 27 27 114 50 50 101 40 40 87 33 33 
81 21 21 114 50 50 114 50 50 172 113 106 182 164 142 111 88 67 114 50 50 133 66 66 172 113 106 212 202 186 172 113 106 111 88 67 101 40 40 101 40 40 114 50 50 101 40 40 
81 21 21 101 40 40 114 50 50 114 50 50 111 88 67 114 50 50 111 88 67 234 229 222 212 202 186 182 164 142 111 88 67 81 21 21 101 40 40 114 50 50 172 113 106 114 50 50 
114 50 50 87 33 33 81 21 21 65 22 22 80 27 27 172 113 106 182 164 142 172 113 106 111 88 67 114 50 50 114 50 50 101 40 40 80 27 27 234 229 222 182 164 142 133 66 66 
101 40 40 80 27 27 101 40 40 114 50 50 182 164 142 234 229 222 172 113 106 81 21 21 101 40 40 101 40 40 114 50 50 114 50 50 212 202 186 234 229 222 172 113 106 114 50 50 
80 27 27 101 40 40 114 50 50 133 66 66 234 229 222 212 202 186 114 50 50 80 27 27 101 40 40 114 50 50 101 40 40 114 50 50 234 229 222 182 164 142 111 88 67 80 27 27 
87 33 33 114 50 50 101 40 40 212 202 186 182 164 142 111 88 67 65 22 22 80 27 27 114 50 50 172 113 106 114 50 50 114 50 50 111 88 67 114 50 50 65 22 22 80 27 27 
101 40 40 80 27 27 114 50 50 172 113 106 111 88 67 80 27 27 81 21 21 65 22 22 172 113 106 234 229 222 114 50 50 81 21 21 114 50 50 80 27 27 87 33 33 80 27 27 
81 21 21 101 40 40 114 50 50 101 40 40 80 27 27 114 50 50 101 40 40 182 164 142 212 202 186 182 164 142 81 21 21 114 50 50 101 40 40 182 164 142 101 40 40 81 21 21 
87 33 33 114 50 50 101 40 40 114 50 50 114 50 50 133 66 66 114 50 50 172 113 106 182 164 142 80 27 27 87 33 33 172 113 106 182 164 142 133 66 66 114 50 50 81 21 21 
80 27 27 101 40 40 114 50 50 114 50 50 133 66 66 101 40 40 80 27 27 87 33 33 172 113 106 65 22 22 101 40 40 114 50 50 101 40 40 114 50 50 101 40 40 101 40 40 
80 27 27 80 27 27 101 40 40 114 50 50 114 50 50 80 27 27 101 40 40 114 50 50 87 33 33 65 22 22 80 27 27 101 40 40 114 50 50 114 50 50 101 40 40 101 40 40 
