P3
16 16
255
157 133 88 157 133 88 157 133 88 157 133 88 157 133 88 157 133 88 157 133 88 157 133 88 157 133 88 157 133 88 157 133 88 157 133 88 157 133 88 157 133 88 157 133 88 157 133 88 
157 133 88 157 133 88 157 133 88 157 133 88 157 133 88 157 133 88 157 133 88 157 133 88 157 133 88 157 133 88 157 133 88 157 133 88 157 133 88 157 133 88 157 133 88 157 133 88 
157 133 88 157 133 88 157 133 88 157 133 88 157 133 88 157 133 88 157 133 88 157 133 88 157 133 88 157 133 88 157 133 88 157 133 88 157 133 88 157 133 88 157 133 88 157 133 88 
157 133 88 157 133 88 157 133 88 157 133 88 157 133 88 157 133 88 157 133 88 157 133 88 157 133 88 157 133 88 157 133 88 157 133 88 157 133 88 157 133 88 157 133 88 157 133 88 
157 133 88 157 133 88 157 133 88 157 133 88 157 133 88 157 133 88 157 133 88 157 133 88 157 133 88 157 133 88 157 133 88 157 133 88 157 133 88 157 133 88 157 133 88 157 133 88 
157 133 88 157 133 88 157 133 88 157 133 88 157 133 88 157 133 88 255 216 0 255 216 0 255 143 0 255 143 0 157 133 88 157 133 88 157 133 88 157 133 88 157 133 88 157 133 88 
157 133 88 157 133 88 157 133 88 157 133 88 157 133 88 157 133 88 255 216 0 255 216 0 255 143 0 255 143 0 157 133 88 157 133 88 157 133 88 157 133 88 157 133 88 157 133 88 
157 133 88 157 133 88 157 133 88 157 133 88 157 133 88 157 133 88 255 255 151 255 255 151 255 255 255 255 255 255 157 133 88 157 133 88 157 133 88 157 133 88 157 133 88 157 133 88 
157 133 88 157 133 88 157 133 88 157 133 88 157 133 88 157 133 88 159 127 80 159 127 80 109 87 54 109 87 54 157 133 88 157 133 88 157 133 88 157 133 88 157 133 88 157 133 88 
157 133 88 157 133 88 157 133 88 157 133 88 157 133 88 157 133 88 149 117 70 149 117 70 85 69 46 85 69 46 157 133 88 157 133 88 157 133 88 157 133 88 157 133 88 157 133 88 
157 133 88 157 133 88 157 133 88 157 133 88 157 133 88 157 133 88 159 127 80 159 127 80 66 53 34 66 53 34 157 133 88 157 133 88 157 133 88 157 133 88 157 133 88 157 133 88 
157 133 88 157 133 88 157 133 88 157 133 88 157 133 88 157 133 88 159 127 80 159 127 80 85 69 46 85 69 46 157 133 88 157 133 88 157 133 88 157 133 88 157 133 88 157 133 88 
157 133 88 157 133 88 157 133 88 157 133 88 157 133 88 157 133 88 149 117 70 149 117 70 85 69 46 85 69 46 157 133 88 157 133 88 157 133 88 157 133 88 157 133 88 157 133 88 
157 133 88 157 133 88 157 133 88 157 133 88 157 133 88 157 133 88 109 87 54 109 87 54 61 48 29 61 48 29 157 133 88 157 133 88 157 133 88 157 133 88 157 133 88 157 133 88 
157 133 88 157 133 88 157 133 88 157 133 88 157 133 88 157 133 88 159 127 80 159 127 80 59 46 27 59 46 27 157 133 88 157 133 88 157 133 88 157 133 88 157 133 88 157 133 88 
157 133 88 157 133 88 157 133 88 157 133 88 157 133 88 157 133 88 109 87 54 109 87 54 55 42 23 55 42 23 157 133 88 157 133 88 157 133 88 157 133 88 157 133 88 157 133 88 
