P3
16 16
255
80 105 44 69 90 41 58 76 38 80 105 44 80 105 44 108 128 49 112 146 45 80 105 44 80 105 44 69 90 41 58 76 38 58 76 38 85 111 41 80 105 44 80 105 44 108 128 49 
108 128 49 108 128 49 65 85 40 58 76 38 58 76 38 112 146 45 112 146 45 80 105 44 80 105 44 98 120 47 108 128 49 108 128 49 112 146 45 85 111 41 94 116 46 108 128 49 
58 76 38 82 103 43 80 105 44 80 105 44 80 105 44 80 105 44 58 76 38 58 76 38 112 146 45 108 128 49 108 128 49 112 146 45 112 146 45 58 76 38 58 76 38 58 76 38 
112 146 45 108 128 49 80 105 44 112 146 45 108 128 49 80 105 44 58 76 38 76 99 40 112 146 45 112 146 45 80 105 44 80 105 44 80 105 44 58 76 38 58 76 38 58 76 38 
112 146 45 112 146 45 101 132 44 112 146 45 112 146 45 96 125 44 58 76 38 76 99 40 83 109 42 80 105 44 80 105 44 89 112 45 108 128 49 112 146 45 110 137 47 83 102 43 
112 146 45 96 125 44 69 90 41 80 105 44 80 105 44 69 90 41 108 128 49 85 111 41 58 76 38 58 76 38 72 95 42 85 111 41 112 146 45 112 146 45 108 128 49 108 128 49 
112 146 45 80 105 44 58 76 38 65 85 40 58 76 38 58 76 38 108 128 49 112 146 45 112 146 45 112 146 45 80 105 44 58 76 38 77 100 41 80 105 44 108 128 49 108 128 49 
112 146 45 80 105 44 80 105 44 96 125 44 74 93 41 58 76 38 80 105 44 112 146 45 112 146 45 112 146 45 108 128 49 58 76 38 58 76 38 80 105 44 80 105 44 112 146 45 
58 76 38 72 95 42 83 109 42 112 146 45 108 128 49 80 105 44 108 128 49 80 105 44 80 105 44 112 146 45 112 146 45 80 105 44 58 76 38 58 76 38 80 105 44 80 105 44 
80 105 44 80 105 44 58 76 38 112 146 45 112 146 45 80 105 44 112 146 45 108 128 49 80 105 44 112 146 45 108 128 49 108 128 49 112 146 45 92 116 44 108 128 49 108 128 49 
108 128 49 80 105 44 80 105 44 112 146 45 80 105 44 88 115 44 112 146 45 112 146 45 108 128 49 110 137 47 110 137 47 112 146 45 112 146 45 100 126 46 108 128 49 108 128 49 
108 128 49 82 103 43 72 95 42 58 76 38 58 76 38 80 105 44 108 128 49 80 105 44 89 112 45 108 128 49 110 137 47 108 128 49 80 105 44 80 105 44 88 109 45 108 128 49 
83 102 43 58 76 38 80 105 44 80 105 44 58 76 38 80 105 44 80 105 44 80 105 44 80 105 44 108 128 49 112 146 45 112 146 45 108 128 49 80 105 44 58 76 38 74 93 41 
94 116 46 108 128 49 108 128 49 112 146 45 108 128 49 108 128 49 58 76 38 65 85 40 80 105 44 112 146 45 112 146 45 112 146 45 108 128 49 80 105 44 58 76 38 58 76 38 
80 105 44 108 128 49 112 146 45 108 128 49 112 146 45 108 128 49 58 76 38 58 76 38 69 90 41 96 125 44 80 105 44 80 105 44 58 76 38 108 128 49 108 128 49 82 103 43 
80 105 44 80 105 44 80 105 44 112 146 45 112 146 45 110 137 47 58 76 38 58 76 38 58 76 38 80 105 44 69 90 41 58 76 38 58 76 38 108 128 49 108 128 49 80 105 44 
