P3
16 16
255
148 153 164 154 163 179 172 174 189 175 185 214 172 174 189 161 167 177 161 167 177 172 174 189 161 167 177 154 163 179 161 167 177 161 167 177 161 167 177 172 174 189 161 167 177 148 153 164 
161 167 177 172 174 189 161 167 177 148 153 164 161 167 177 161 167 177 154 163 179 156 161 172 154 163 179 161 167 177 156 161 172 172 174 189 161 167 177 161 167 177 156 161 172 161 167 177 
161 167 177 161 167 177 156 161 172 161 167 177 154 163 179 156 161 172 154 163 179 154 163 179 172 174 189 161 167 177 161 167 177 156 161 172 175 185 214 156 161 172 161 167 177 172 174 189 
156 161 172 156 161 172 154 163 179 172 174 189 154 163 179 172 174 189 175 185 214 172 174 189 161 167 177 161 167 177 172 174 189 148 153 164 156 161 172 154 163 179 161 167 177 161 167 177 
161 167 177 154 163 179 161 167 177 161 167 177 172 174 189 154 163 179 161 167 177 161 167 177 156 161 172 156 161 172 148 153 164 161 167 177 161 167 177 161 167 177 154 163 179 156 161 172 
161 167 177 161 167 177 161 167 177 172 174 189 148 153 164 156 161 172 154 163 179 154 163 179 172 174 189 161 167 177 161 167 177 161 167 177 154 163 179 148 153 164 154 163 179 154 163 179 
154 163 179 148 153 164 156 161 172 154 163 179 172 174 189 161 167 177 172 174 189 161 167 177 156 161 172 161 167 177 175 185 214 154 163 179 148 153 164 161 167 177 161 167 177 161 167 177 
172 174 189 161 167 177 154 163 179 161 167 177 161 167 177 154 163 179 161 167 177 161 167 177 161 167 177 148 153 164 156 161 172 156 161 172 161 167 177 161 167 177 172 174 189 154 163 179 
161 167 177 154 163 179 175 185 214 161 167 177 156 161 172 156 161 172 161 167 177 154 163 179 154 163 179 156 161 172 161 167 177 172 174 189 172 174 189 175 185 214 156 161 172 161 167 177 
161 167 177 156 161 172 156 161 172 156 161 172 172 174 189 161 167 177 148 153 164 154 163 179 172 174 189 161 167 177 154 163 179 161 167 177 161 167 177 156 161 172 154 163 179 161 167 177 
156 161 172 172 174 189 154 163 179 172 174 189 172 174 189 154 163 179 154 163 179 148 153 164 161 167 177 172 174 189 161 167 177 156 161 172 154 163 179 161 167 177 172 174 189 156 161 172 
156 161 172 172 174 189 161 167 177 154 163 179 154 163 179 175 185 214 172 174 189 161 167 177 156 161 172 156 161 172 154 163 179 161 167 177 161 167 177 172 174 189 161 167 177 161 167 177 
148 153 164 156 161 172 154 163 179 156 161 172 172 174 189 161 167 177 161 167 177 172 174 189 154 163 179 161 167 177 161 167 177 156 161 172 172 174 189 172 174 189 175 185 214 172 174 189 
161 167 177 154 163 179 156 161 172 161 167 177 172 174 189 172 174 189 172 174 189 154 163 179 172 174 189 161 167 177 172 174 189 172 174 189 161 167 177 154 163 179 172 174 189 154 163 179 
161 167 177 156 161 172 161 167 177 172 174 189 154 163 179 154 163 179 156 161 172 156 161 172 161 167 177 175 185 214 161 167 177 156 161 172 156 161 172 148 153 164 154 163 179 161 167 177 
175 185 214 172 174 189 161 167 177 154 163 179 172 174 189 161 167 177 161 167 177 161 167 177 161 167 177 161 167 177 154 163 179 161 167 177 161 167 177 161 167 177 156 161 172 161 167 177 
