P3
16 16
255
80 105 44 69 90 41 58 76 38 80 105 44 80 105 44 108 128 49 112 146 45 80 105 44 80 105 44 69 90 41 58 76 38 58 76 38 58 76 38 69 90 41 80 105 44 108 128 49 
108 128 49 108 128 49 65 85 40 58 76 38 58 76 38 112 146 45 112 146 45 80 105 44 80 105 44 98 120 47 108 128 49 108 128 49 112 146 45 149 122 125 94 116 46 108 128 49 
58 76 38 82 103 43 80 105 44 80 105 44 80 105 44 80 105 44 83 109 42 96 125 44 112 146 45 108 128 49 108 128 49 186 98 206 208 123 227 186 98 206 122 87 122 58 76 38 
112 146 45 108 128 49 80 105 44 112 146 45 108 128 49 80 105 44 58 76 38 85 111 41 112 146 45 112 146 45 80 105 44 208 123 227 58 76 38 208 123 227 133 99 132 58 76 38 
112 146 45 112 146 45 101 132 44 112 146 45 112 146 45 58 76 38 58 76 38 58 76 38 58 76 38 80 105 44 80 105 44 186 98 206 208 123 227 158 80 136 133 104 92 83 102 43 
112 146 45 96 125 44 69 90 41 80 105 44 80 105 44 58 76 38 70 89 40 58 76 38 58 76 38 58 76 38 72 95 42 118 106 96 112 146 45 112 146 45 108 128 49 108 128 49 
112 146 45 80 105 44 58 76 38 98 87 72 80 105 44 83 102 43 108 128 49 112 146 45 112 146 45 112 146 45 80 105 44 58 76 38 77 100 41 80 105 44 108 128 49 108 128 49 
112 146 45 186 98 206 208 123 227 158 80 136 133 104 92 80 105 44 80 105 44 112 146 45 112 146 45 112 146 45 108 128 49 58 76 38 58 76 38 80 105 44 80 105 44 112 146 45 
58 76 38 208 123 227 58 76 38 186 98 206 108 128 49 80 105 44 108 128 49 80 105 44 80 105 44 112 146 45 112 146 45 80 105 44 58 76 38 58 76 38 80 105 44 80 105 44 
80 105 44 158 80 136 186 98 206 158 80 136 112 146 45 80 105 44 112 146 45 108 128 49 80 105 44 112 146 45 108 128 49 108 128 49 112 146 45 92 116 44 108 128 49 108 128 49 
108 128 49 80 105 44 80 105 44 112 146 45 80 105 44 88 115 44 112 146 45 112 146 45 108 128 49 126 118 76 135 124 100 112 146 45 112 146 45 100 126 46 108 128 49 108 128 49 
108 128 49 82 103 43 72 95 42 58 76 38 58 76 38 80 105 44 108 128 49 80 105 44 106 104 68 158 80 136 186 98 206 158 80 136 80 105 44 80 105 44 88 109 45 108 128 49 
83 102 43 58 76 38 80 105 44 80 105 44 58 76 38 80 105 44 80 105 44 80 105 44 80 105 44 186 98 206 58 76 38 186 98 206 108 128 49 80 105 44 58 76 38 58 76 38 
94 116 46 108 128 49 108 128 49 112 146 45 108 128 49 108 128 49 58 76 38 65 85 40 80 105 44 158 80 136 186 98 206 158 80 136 108 128 49 80 105 44 58 76 38 58 76 38 
80 105 44 108 128 49 112 146 45 108 128 49 112 146 45 108 128 49 58 76 38 58 76 38 69 90 41 119 92 90 80 105 44 80 105 44 58 76 38 108 128 49 108 128 49 82 103 43 
80 105 44 80 105 44 80 105 44 112 146 45 112 146 45 110 137 47 58 76 38 58 76 38 58 76 38 80 105 44 69 90 41 58 76 38 58 76 38 108 128 49 108 128 49 80 105 44 
