P3
16 16
255
100 91 91 137 129 126 150 142 142 114 107 105 114 107 105 151 151 151 129 127 127 151 151 151 114 107 105 129 127 127 114 107 105 129 127 127 129 127 127 151 151 151 129 127 127 114 107 105 
151 151 151 129 127 127 129 127 127 114 107 105 129 127 127 129 127 127 137 129 126 114 107 105 129 127 127 114 107 105 100 91 91 129 127 127 137 129 126 137 129 126 137 129 126 151 151 151 
129 127 127 129 127 127 114 107 105 100 91 91 137 129 126 114 107 105 137 129 126 137 129 126 151 151 151 129 127 127 129 127 127 137 129 126 151 151 151 114 107 105 137 129 126 151 151 151 
129 127 127 129 127 127 137 129 126 129 127 127 137 129 126 129 127 127 114 107 105 151 151 151 129 127 127 129 127 127 151 151 151 114 107 105 129 127 127 137 129 126 129 127 127 129 127 127 
114 107 105 137 129 126 129 127 127 177 162 162 150 142 142 114 107 105 114 107 105 129 127 127 129 127 127 129 127 127 114 107 105 100 91 91 129 127 127 151 151 151 137 129 126 129 127 127 
100 91 91 129 127 127 114 107 105 150 142 142 100 91 91 114 107 105 137 129 126 137 129 126 151 151 151 129 127 127 176 174 174 151 151 151 151 151 151 129 127 127 129 127 127 114 107 105 
137 129 126 114 107 105 100 91 91 150 142 142 129 127 127 129 127 127 176 174 174 151 151 151 114 107 105 151 151 151 151 151 151 137 129 126 100 91 91 114 107 105 129 127 127 129 127 127 
151 151 151 151 151 151 137 129 126 129 127 127 151 151 151 137 129 126 151 151 151 129 127 127 129 127 127 137 129 126 114 107 105 114 107 105 129 127 127 129 127 127 151 151 151 137 129 126 
151 151 151 137 129 126 151 151 151 129 127 127 114 107 105 129 127 127 129 127 127 137 129 126 137 129 126 114 107 105 100 91 91 129 127 127 151 151 151 176 174 174 114 107 105 129 127 127 
129 127 127 137 129 126 114 107 105 114 107 105 176 174 174 151 151 151 129 127 127 114 107 105 151 151 151 129 127 127 137 129 126 129 127 127 129 127 127 114 107 105 137 129 126 129 127 127 
114 107 105 129 127 127 137 129 126 151 151 151 151 151 151 137 129 126 114 107 105 100 91 91 129 127 127 151 151 151 129 127 127 114 107 105 137 129 126 129 127 127 151 151 151 100 91 91 
129 127 127 129 127 127 151 151 151 137 129 126 137 129 126 151 151 151 176 174 174 129 127 127 114 107 105 114 107 105 137 129 126 129 127 127 129 127 127 151 151 151 129 127 127 114 107 105 
129 127 127 114 107 105 137 129 126 129 127 127 129 127 127 129 127 127 129 127 127 151 151 151 137 129 126 177 162 162 150 142 142 114 107 105 151 151 151 151 151 151 129 127 127 151 151 151 
137 129 126 137 129 126 114 107 105 100 91 91 129 127 127 151 151 151 129 127 127 137 129 126 129 127 127 150 142 142 129 127 127 129 127 127 129 127 127 114 107 105 151 151 151 129 127 127 
137 129 126 151 151 151 137 129 126 129 127 127 137 129 126 137 129 126 114 107 105 114 107 105 129 127 127 150 142 142 137 129 126 137 129 126 114 107 105 100 91 91 137 129 126 151 151 151 
114 107 105 129 127 127 177 162 162 150 142 142 114 107 105 129 127 127 129 127 127 129 127 127 137 129 126 129 127 127 137 129 126 129 127 127 114 107 105 129 127 127 114 107 105 129 127 127 
