P3
16 16
255
185 133 92 150 108 74 150 108 74 121 85 58 89 61 41 185 133 92 173 125 101 150 108 74 121 85 58 187 151 137 89 61 41 121 85 58 121 85 58 185 133 92 121 85 58 185 133 92 
121 85 58 173 125 101 187 151 137 121 85 58 121 85 58 150 108 74 173 125 101 89 61 41 121 85 58 185 133 92 187 151 137 173 125 101 144 87 64 144 87 64 173 125 101 89 61 41 
185 133 92 121 85 58 173 125 101 173 125 101 185 133 92 173 125 101 187 151 137 150 108 74 185 133 92 121 85 58 121 85 58 187 151 137 121 85 58 89 61 41 144 87 64 173 125 101 
150 108 74 108 108 108 185 133 92 187 151 137 173 125 101 89 61 41 144 87 64 187 151 137 150 108 74 150 108 74 121 85 58 187 151 137 121 85 58 185 133 92 150 108 74 121 85 58 
150 108 74 121 85 58 150 108 74 173 125 101 187 151 137 150 108 74 121 85 58 144 87 64 150 108 74 89 61 41 121 85 58 108 108 108 173 125 101 150 108 74 89 61 41 121 85 58 
121 85 58 89 61 41 150 108 74 150 108 74 187 151 137 150 108 74 89 61 41 144 87 64 89 61 41 121 85 58 121 85 58 89 61 41 121 85 58 121 85 58 121 85 58 185 133 92 
187 151 137 121 85 58 121 85 58 121 85 58 173 125 101 121 85 58 121 85 58 185 133 92 173 125 101 121 85 58 185 133 92 185 133 92 121 85 58 150 108 74 173 125 101 187 151 137 
121 85 58 144 87 64 185 133 92 185 133 92 187 151 137 150 108 74 121 85 58 121 85 58 150 108 74 173 125 101 150 108 74 150 108 74 173 125 101 121 85 58 150 108 74 173 125 101 
150 108 74 121 85 58 144 87 64 173 125 101 121 85 58 187 151 137 121 85 58 89 61 41 121 85 58 150 108 74 150 108 74 173 125 101 121 85 58 121 85 58 89 61 41 121 85 58 
121 85 58 150 108 74 144 87 64 121 85 58 121 85 58 144 87 64 89 61 41 121 85 58 150 108 74 121 85 58 150 108 74 144 87 64 173 125 101 185 133 92 121 85 58 150 108 74 
121 85 58 150 108 74 187 151 137 185 133 92 185 133 92 121 85 58 144 87 64 150 108 74 173 125 101 121 85 58 121 85 58 89 61 41 150 108 74 173 125 101 173 125 101 121 85 58 
150 108 74 121 85 58 121 85 58 173 125 101 150 108 74 185 133 92 144 87 64 187 151 137 173 125 101 144 87 64 150 108 74 121 85 58 89 61 41 150 108 74 121 85 58 89 61 41 
121 85 58 89 61 41 150 108 74 121 85 58 150 108 74 150 108 74 187 151 137 173 125 101 121 85 58 173 125 101 121 85 58 121 85 58 173 125 101 121 85 58 185 133 92 185 133 92 
121 85 58 173 125 101 121 85 58 121 85 58 121 85 58 121 85 58 150 108 74 187 151 137 121 85 58 89 61 41 144 87 64 89 61 41 121 85 58 187 151 137 150 108 74 150 108 74 
150 108 74 187 151 137 89 61 41 185 133 92 121 85 58 89 61 41 121 85 58 173 125 101 185 133 92 185 133 92 121 85 58 150 108 74 121 85 58 173 125 101 187 151 137 150 108 74 
150 108 74 121 85 58 173 125 101 150 108 74 150 108 74 121 85 58 135 135 135 121 85 58 173 125 101 150 108 74 121 85 58 121 85 58 150 108 74 150 108 74 187 151 137 89 61 41 
