P3
16 16
255
231 228 187 218 207 163 218 207 163 227 219 176 218 207 163 213 196 150 227 219 176 218 207 163 227 219 176 218 207 163 213 196 150 227 219 176 218 207 163 227 219 176 213 196 150 227 219 176 
213 196 150 218 207 163 218 207 163 213 196 150 218 207 163 213 196 150 213 196 150 227 219 176 209 186 138 213 196 150 231 228 187 218 207 163 237 235 203 209 186 138 218 207 163 231 228 187 
227 219 176 218 207 163 209 186 138 213 196 150 213 196 150 231 228 187 218 207 163 218 207 163 218 207 163 218 207 163 218 207 163 213 196 150 218 207 163 213 196 150 213 196 150 218 207 163 
218 207 163 227 219 176 227 219 176 213 196 150 218 207 163 213 196 150 227 219 176 213 196 150 227 219 176 227 219 176 213 196 150 227 219 176 218 207 163 213 196 150 218 207 163 218 207 163 
213 196 150 218 207 163 237 235 203 218 207 163 213 196 150 227 219 176 218 207 163 227 219 176 218 207 163 227 219 176 218 207 163 218 207 163 213 196 150 218 207 163 218 207 163 227 219 176 
218 207 163 213 196 150 218 207 163 218 207 163 227 219 176 227 219 176 227 219 176 218 207 163 213 196 150 218 207 163 227 219 176 213 196 150 218 207 163 218 207 163 213 196 150 218 207 163 
213 196 150 231 228 187 218 207 163 213 196 150 213 196 150 237 235 203 213 196 150 218 207 163 213 196 150 213 196 150 209 186 138 218 207 163 218 207 163 213 196 150 218 207 163 213 196 150 
218 207 163 213 196 150 218 207 163 218 207 163 213 196 150 218 207 163 218 207 163 213 196 150 218 207 163 213 196 150 213 196 150 213 196 150 218 207 163 231 228 187 218 207 163 213 196 150 
213 196 150 218 207 163 227 219 176 218 207 163 218 207 163 227 219 176 213 196 150 209 186 138 213 196 150 227 219 176 213 196 150 218 207 163 227 219 176 218 207 163 213 196 150 218 207 163 
231 228 187 218 207 163 213 196 150 218 207 163 218 207 163 218 207 163 213 196 150 213 196 150 218 207 163 209 186 138 218 207 163 213 196 150 218 207 163 218 207 163 227 219 176 213 196 150 
218 207 163 209 186 138 218 207 163 227 219 176 218 207 163 213 196 150 218 207 163 227 219 176 218 207 163 218 207 163 227 219 176 218 207 163 209 186 138 213 196 150 218 207 163 227 219 176 
213 196 150 213 196 150 218 207 163 218 207 163 227 219 176 218 207 163 213 196 150 218 207 163 227 219 176 227 219 176 213 196 150 213 196 150 213 196 150 218 207 163 213 196 150 218 207 163 
213 196 150 218 207 163 213 196 150 227 219 176 213 196 150 227 219 176 218 207 163 213 196 150 231 228 187 237 235 203 227 219 176 218 207 163 213 196 150 213 196 150 218 207 163 227 219 176 
227 219 176 218 207 163 227 219 176 218 207 163 227 219 176 209 186 138 218 207 163 227 219 176 218 207 163 227 219 176 218 207 163 227 219 176 218 207 163 218 207 163 213 196 150 218 207 163 
218 207 163 227 219 176 218 207 163 227 219 176 237 235 203 227 219 176 227 219 176 218 207 163 227 219 176 218 207 163 227 219 176 218 207 163 209 186 138 227 219 176 218 207 163 218 207 163 
227 219 176 218 207 163 227 219 176 218 207 163 227 219 176 227 219 176 218 207 163 227 219 176 218 207 163 213 196 150 218 207 163 218 207 163 227 219 176 218 207 163 227 219 176 218 207 163 
