P3
16 16
255
61 139 23 61 139 23 61 139 23 80 149 41 80 149 41 80 149 41 61 139 23 61 139 23 80 149 41 80 149 41 80 149 41 61 139 23 61 139 23 61 139 23 61 139 23 61 139 23 
61 139 23 61 139 23 80 149 41 80 149 41 80 149 41 80 149 41 61 139 23 80 149 41 80 149 41 80 149 41 80 149 41 61 139 23 61 139 23 61 139 23 61 139 23 61 139 23 
61 139 23 61 139 23 80 149 41 80 149 41 80 149 41 80 149 41 61 139 23 80 149 41 80 149 41 80 149 41 80 149 41 61 139 23 61 139 23 61 139 23 61 139 23 61 139 23 
61 139 23 61 139 23 56 147 6 56 147 6 80 149 41 80 149 41 61 139 23 56 147 6 56 147 6 80 149 41 80 149 41 61 139 23 61 139 23 61 139 23 61 139 23 61 139 23 
61 139 23 61 139 23 47 130 0 47 130 0 80 149 41 80 149 41 80 149 41 47 130 0 47 130 0 80 149 41 80 149 41 61 139 23 61 139 23 61 139 23 61 139 23 61 139 23 
61 139 23 47 130 0 51 138 3 56 147 6 80 149 41 80 149 41 80 149 41 56 147 6 56 147 6 80 149 41 80 149 41 61 139 23 61 139 23 61 139 23 61 139 23 61 139 23 
61 139 23 47 130 0 47 130 0 80 149 41 80 149 41 80 149 41 80 149 41 63 139 20 47 130 0 80 149 41 80 149 41 61 139 23 61 139 23 61 139 23 61 139 23 61 139 23 
61 139 23 47 130 0 47 130 0 80 149 41 80 149 41 56 147 6 56 147 6 51 138 3 47 130 0 80 149 41 80 149 41 61 139 23 61 139 23 61 139 23 61 139 23 61 139 23 
61 139 23 47 130 0 47 130 0 56 147 6 56 147 6 47 130 0 47 130 0 47 130 0 47 130 0 56 147 6 56 147 6 61 139 23 61 139 23 61 139 23 61 139 23 61 139 23 
61 139 23 41 113 0 41 113 0 56 147 6 56 147 6 80 149 41 80 149 41 60 131 20 41 113 0 56 147 6 56 147 6 61 139 23 61 139 23 61 139 23 61 139 23 61 139 23 
61 139 23 41 113 0 41 113 0 56 147 6 56 147 6 80 149 41 80 149 41 56 130 13 41 113 0 56 147 6 56 147 6 61 139 23 61 139 23 61 139 23 61 139 23 61 139 23 
61 139 23 41 113 0 41 113 0 56 147 6 56 147 6 80 149 41 80 149 41 47 130 0 41 113 0 56 147 6 56 147 6 61 139 23 61 139 23 61 139 23 61 139 23 61 139 23 
61 139 23 47 130 0 47 130 0 56 147 6 56 147 6 56 147 6 56 147 6 47 130 0 47 130 0 56 147 6 56 147 6 61 139 23 61 139 23 61 139 23 61 139 23 61 139 23 
61 139 23 47 130 0 47 130 0 56 147 6 56 147 6 56 147 6 56 147 6 41 113 0 45 124 0 47 130 0 51 138 3 56 147 6 61 139 23 61 139 23 61 139 23 61 139 23 
61 139 23 47 130 0 47 130 0 56 147 6 56 147 6 56 147 6 56 147 6 41 113 0 44 121 0 47 130 0 56 147 6 56 147 6 61 139 23 61 139 23 61 139 23 61 139 23 
61 139 23 41 113 0 41 113 0 47 130 0 47 130 0 56 147 6 56 147 6 47 130 0 47 130 0 47 130 0 47 130 0 47 130 0 61 139 23 61 139 23 61 139 23 61 139 23 
