P3
16 16
255
48 121 14 56 147 6 56 147 6 47 130 0 47 130 0 47 130 0 56 147 6 47 130 0 44 121 0 41 113 0 47 130 0 47 130 0 48 121 14 48 121 14 48 121 14 48 121 14 
48 121 14 56 147 6 56 147 6 47 130 0 47 130 0 47 130 0 50 135 2 47 130 0 51 138 3 56 147 6 47 130 0 47 130 0 48 121 14 48 121 14 48 121 14 48 121 14 
48 121 14 80 149 41 80 149 41 47 130 0 47 130 0 47 130 0 47 130 0 47 130 0 63 139 20 80 149 41 47 130 0 47 130 0 48 121 14 80 149 41 80 149 41 80 149 41 
48 121 14 80 149 41 80 149 41 47 130 0 47 130 0 47 130 0 47 130 0 47 130 0 63 139 20 80 149 41 47 130 0 47 130 0 48 121 14 80 149 41 80 149 41 80 149 41 
48 121 14 80 149 41 80 149 41 41 113 0 41 113 0 41 113 0 44 121 0 47 130 0 61 142 15 80 149 41 41 113 0 41 113 0 48 121 14 56 147 6 56 147 6 56 147 6 
48 121 14 80 149 41 80 149 41 33 88 0 33 88 0 33 88 0 40 109 0 47 130 0 56 147 6 80 149 41 33 88 0 37 100 0 48 130 3 51 138 3 47 130 0 47 130 0 
48 121 14 33 88 0 33 88 0 41 113 0 41 113 0 41 113 0 44 121 0 47 130 0 80 149 41 33 88 0 41 113 0 41 113 0 48 130 3 56 147 6 51 138 3 47 130 0 
48 121 14 33 88 0 33 88 0 56 147 6 56 147 6 56 147 6 51 138 3 47 130 0 80 149 41 56 128 15 56 147 6 56 147 6 51 138 3 47 130 0 47 130 0 48 121 14 
48 121 14 33 88 0 33 88 0 47 130 0 47 130 0 47 130 0 45 124 0 41 113 0 80 149 41 56 118 20 33 88 0 47 130 0 47 130 0 47 130 0 47 130 0 48 121 14 
48 121 14 41 113 0 41 113 0 47 130 0 47 130 0 47 130 0 47 130 0 33 88 0 80 149 41 60 131 20 41 113 0 47 130 0 47 130 0 47 130 0 47 130 0 48 121 14 
48 121 14 33 88 0 33 88 0 47 130 0 44 121 0 41 113 0 47 130 0 41 113 0 33 88 0 33 88 0 33 88 0 47 130 0 45 124 0 41 113 0 41 113 0 48 121 14 
33 88 0 33 88 0 33 88 0 47 130 0 44 121 0 41 113 0 47 130 0 56 147 6 33 88 0 33 88 0 33 88 0 47 130 0 47 130 0 41 113 0 41 113 0 48 121 14 
33 88 0 33 88 0 47 130 0 33 88 0 37 100 0 41 113 0 33 88 0 47 130 0 33 88 0 37 102 0 47 130 0 33 88 0 33 88 0 41 113 0 41 113 0 48 121 14 
33 88 0 33 88 0 41 113 0 33 88 0 37 100 0 41 113 0 33 88 0 47 130 0 41 113 0 33 88 0 41 113 0 33 88 0 33 88 0 47 130 0 47 130 0 48 121 14 
33 88 0 33 88 0 47 130 0 33 88 0 42 116 0 47 130 0 33 88 0 47 130 0 33 88 0 33 88 0 47 130 0 33 88 0 33 88 0 47 130 0 47 130 0 48 121 14 
33 88 0 33 88 0 33 88 0 33 88 0 47 130 0 47 130 0 47 130 0 47 130 0 33 88 0 33 88 0 33 88 0 33 88 0 47 130 0 33 88 0 33 88 0 48 121 14 
