P3
16 16
255
127 127 127 116 116 116 116 116 116 156 156 156 138 138 142 138 138 142 127 127 127 116 116 116 104 104 104 156 156 156 156 156 156 127 127 127 138 138 142 127 127 127 127 127 127 116 116 116 
127 127 127 156 156 156 168 170 154 138 138 142 127 127 127 138 138 142 156 156 156 156 156 156 168 170 154 138 138 142 138 138 142 104 104 104 116 116 116 127 127 127 127 127 127 156 156 156 
116 116 116 116 116 116 138 138 142 138 138 142 156 156 156 156 156 156 116 116 116 104 104 104 116 116 116 127 127 127 127 127 127 156 156 156 156 156 156 138 138 142 127 127 127 127 127 127 
156 156 156 156 156 156 116 116 116 104 104 104 116 116 116 138 138 142 138 138 142 156 156 156 156 156 156 168 170 154 156 156 156 138 138 142 138 138 142 127 127 127 138 138 142 116 116 116 
127 127 127 138 138 142 168 170 154 156 156 156 156 156 156 127 127 127 127 127 127 127 127 127 138 138 142 138 138 142 138 138 142 138 138 142 127 127 127 116 116 116 116 116 116 156 156 156 
138 138 142 138 138 142 138 138 142 127 127 127 138 138 142 127 127 127 156 156 156 138 138 142 127 127 127 116 116 116 104 104 104 104 104 104 116 116 116 138 138 142 156 156 156 138 138 142 
127 127 127 138 138 142 127 127 127 156 156 156 168 170 154 156 156 156 127 127 127 116 116 116 104 104 104 156 156 156 168 170 154 156 156 156 138 138 142 138 138 142 138 138 142 138 138 142 
156 156 156 127 127 127 138 138 142 138 138 142 116 116 116 104 104 104 116 116 116 168 170 154 156 156 156 138 138 142 138 138 142 127 127 127 138 138 142 138 138 142 138 138 142 156 156 156 
138 138 142 138 138 142 116 116 116 116 116 116 156 156 156 116 116 116 156 156 156 138 138 142 138 138 142 156 156 156 138 138 142 127 127 127 127 127 127 156 156 156 168 170 154 138 138 142 
138 138 142 116 116 116 156 156 156 138 138 142 138 138 142 156 156 156 127 127 127 127 127 127 127 127 127 116 116 116 116 116 116 168 170 154 156 156 156 138 138 142 138 138 142 138 138 142 
138 138 142 138 138 142 127 127 127 138 138 142 127 127 127 116 116 116 116 116 116 104 104 104 116 116 116 168 170 154 156 156 156 156 156 156 138 138 142 138 138 142 127 127 127 127 127 127 
104 104 104 116 116 116 138 138 142 138 138 142 116 116 116 127 127 127 168 170 154 156 156 156 156 156 156 127 127 127 127 127 127 138 138 142 138 138 142 127 127 127 138 138 142 138 138 142 
138 138 142 156 156 156 156 156 156 138 138 142 156 156 156 156 156 156 138 138 142 127 127 127 138 138 142 138 138 142 127 127 127 116 116 116 127 127 127 138 138 142 138 138 142 116 116 116 
168 170 154 156 156 156 138 138 142 138 138 142 138 138 142 138 138 142 138 138 142 138 138 142 156 156 156 168 170 154 138 138 142 138 138 142 116 116 116 116 116 116 127 127 127 127 127 127 
138 138 142 138 138 142 138 138 142 104 104 104 116 116 116 127 127 127 156 156 156 156 156 156 138 138 142 127 127 127 138 138 142 127 127 127 127 127 127 138 138 142 168 170 154 156 156 156 
116 116 116 138 138 142 127 127 127 116 116 116 138 138 142 127 127 127 127 127 127 138 138 142 127 127 127 138 138 142 127 127 127 138 138 142 156 156 156 156 156 156 138 138 142 127 127 127 
