P3
16 16
255
255 255 255 235 235 231 153 150 130 235 235 231 235 235 231 153 150 130 153 150 130 81 79 71 81 79 71 153 150 130 235 235 231 81 79 71 255 255 255 235 235 231 235 235 231 255 255 255 
255 255 255 215 193 133 215 193 133 215 193 133 215 193 133 200 183 122 215 193 133 200 183 122 215 203 141 200 183 122 200 183 122 215 193 133 215 193 133 215 193 133 215 193 133 235 235 231 
153 150 130 215 193 133 165 148 103 165 148 103 174 159 118 174 159 118 184 168 117 174 159 118 184 168 117 184 168 117 184 168 117 184 168 117 174 159 118 174 159 118 215 203 141 153 150 130 
235 235 231 215 193 133 165 148 103 215 203 141 215 203 141 215 193 133 215 193 133 215 193 133 215 193 133 200 183 122 215 193 133 215 193 133 215 193 133 174 159 118 215 193 133 81 79 71 
153 150 130 200 183 122 174 159 118 215 193 133 200 183 122 200 183 122 200 183 122 200 183 122 200 183 122 200 183 122 200 183 122 200 183 122 215 193 133 184 168 117 200 183 122 153 150 130 
81 79 71 215 193 133 184 168 117 215 193 133 200 183 122 174 159 118 174 159 118 184 168 117 184 168 117 174 159 118 174 159 118 200 183 122 215 193 133 174 159 118 200 183 122 235 235 231 
81 79 71 200 183 122 174 159 118 200 183 122 200 183 122 165 148 103 200 183 122 200 183 122 200 183 122 200 183 122 174 159 118 200 183 122 200 183 122 174 159 118 215 193 133 235 235 231 
153 150 130 200 183 122 184 168 117 215 193 133 200 183 122 174 159 118 200 183 122 184 168 117 184 168 117 200 183 122 184 168 117 200 183 122 215 193 133 184 168 117 200 183 122 255 255 255 
255 255 255 200 183 122 184 168 117 215 193 133 200 183 122 174 159 118 200 183 122 184 168 117 174 159 118 200 183 122 174 159 118 200 183 122 215 193 133 174 159 118 200 183 122 255 255 255 
255 255 255 200 183 122 184 168 117 215 193 133 200 183 122 174 159 118 200 183 122 200 183 122 200 183 122 200 183 122 184 168 117 200 183 122 200 183 122 174 159 118 200 183 122 235 235 231 
235 235 231 200 183 122 174 159 118 215 193 133 200 183 122 174 159 118 174 159 118 165 148 103 174 159 118 184 168 117 184 168 117 200 183 122 215 193 133 184 168 117 200 183 122 153 150 130 
153 150 130 200 183 122 184 168 117 215 193 133 200 183 122 200 183 122 200 183 122 200 183 122 200 183 122 200 183 122 200 183 122 200 183 122 215 193 133 174 159 118 200 183 122 153 150 130 
81 79 71 215 193 133 184 168 117 215 193 133 215 193 133 200 183 122 215 193 133 215 193 133 215 193 133 215 193 133 215 193 133 215 203 141 215 193 133 174 159 118 200 183 122 81 79 71 
81 79 71 215 193 133 184 168 117 174 159 118 184 168 117 174 159 118 174 159 118 174 159 118 174 159 118 174 159 118 174 159 118 174 159 118 174 159 118 174 159 118 215 193 133 81 79 71 
153 150 130 215 193 133 215 193 133 215 193 133 200 183 122 200 183 122 215 193 133 200 183 122 200 183 122 215 203 141 200 183 122 200 183 122 215 193 133 215 193 133 215 193 133 235 235 231 
235 235 231 255 255 255 81 79 71 153 150 130 153 150 130 235 235 231 235 235 231 255 255 255 255 255 255 255 255 255 235 235 231 153 150 130 153 150 130 81 79 71 81 79 71 255 255 255 
