P3
16 16
255
148 109 82 151 114 81 141 104 80 148 109 82 151 114 81 151 114 81 148 109 82 151 114 81 148 109 82 151 114 81 148 109 82 151 114 81 148 109 82 151 114 81 151 114 81 151 114 81 
148 109 82 141 104 80 148 109 82 148 109 82 151 114 81 148 109 82 148 109 82 151 114 81 151 114 81 151 114 81 141 104 80 151 114 81 151 114 81 151 114 81 156 121 90 151 114 81 
148 109 82 151 114 81 151 114 81 151 114 81 151 114 81 141 104 80 148 109 82 151 114 81 151 114 81 148 109 82 148 109 82 141 104 80 151 114 81 148 109 82 151 114 81 151 114 81 
148 109 82 148 109 82 151 114 81 151 114 81 151 114 81 148 109 82 151 114 81 151 114 81 151 114 81 151 114 81 148 109 82 148 109 82 151 114 81 151 114 81 151 114 81 151 114 81 
148 109 82 151 114 81 151 114 81 151 114 81 156 121 90 151 114 81 151 114 81 151 114 81 151 114 81 151 114 81 151 114 81 148 109 82 148 109 82 151 114 81 151 114 81 141 104 80 
148 109 82 141 104 80 148 109 82 151 114 81 151 114 81 151 114 81 151 114 81 151 114 81 151 114 81 151 114 81 148 109 82 156 121 90 148 109 82 151 114 81 151 114 81 148 109 82 
148 109 82 148 109 82 151 114 81 151 114 81 151 114 81 151 114 81 151 114 81 151 114 81 148 109 82 151 114 81 151 114 81 151 114 81 151 114 81 141 104 80 151 114 81 151 114 81 
151 114 81 148 109 82 151 114 81 151 114 81 151 114 81 156 121 90 151 114 81 148 109 82 141 104 80 151 114 81 148 109 82 151 114 81 151 114 81 148 109 82 141 104 80 151 114 81 
151 114 81 148 109 82 151 114 81 151 114 81 151 114 81 151 114 81 151 114 81 141 104 80 148 109 82 151 114 81 148 109 82 151 114 81 151 114 81 151 114 81 148 109 82 151 114 81 
151 114 81 151 114 81 151 114 81 151 114 81 151 114 81 148 109 82 151 114 81 141 104 80 151 114 81 151 114 81 148 109 82 148 109 82 151 114 81 148 109 82 151 114 81 151 114 81 
148 109 82 151 114 81 151 114 81 151 114 81 148 109 82 141 104 80 151 114 81 148 109 82 151 114 81 148 109 82 151 114 81 148 109 82 141 104 80 151 114 81 151 114 81 151 114 81 
148 109 82 151 114 81 148 109 82 156 121 90 151 114 81 148 109 82 148 109 82 148 109 82 148 109 82 148 109 82 141 104 80 148 109 82 151 114 81 148 109 82 151 114 81 151 114 81 
141 104 80 151 114 81 151 114 81 151 114 81 148 109 82 148 109 82 151 114 81 151 114 81 148 109 82 151 114 81 141 104 80 141 104 80 151 114 81 151 114 81 148 109 82 151 114 81 
141 104 80 148 109 82 151 114 81 148 109 82 148 109 82 148 109 82 151 114 81 151 114 81 151 114 81 151 114 81 151 114 81 141 104 80 151 114 81 151 114 81 148 109 82 151 114 81 
151 114 81 148 109 82 148 109 82 141 104 80 148 109 82 151 114 81 151 114 81 151 114 81 156 121 90 151 114 81 148 109 82 141 104 80 151 114 81 148 109 82 148 109 82 151 114 81 
151 114 81 151 114 81 148 109 82 141 104 80 151 114 81 151 114 81 156 121 90 148 109 82 151 114 81 151 114 81 151 114 81 151 114 81 151 114 81 151 114 81 148 109 82 148 109 82 
