P3
16 16
255
143 143 143 143 143 143 143 143 143 143 143 143 127 127 127 116 116 116 116 116 116 127 127 127 116 116 116 104 104 104 116 116 116 116 116 116 127 127 127 127 127 127 127 127 127 127 127 127 
127 127 127 127 127 127 116 116 116 127 127 127 116 116 116 127 127 127 92 92 92 92 92 92 92 92 92 127 127 127 127 127 127 104 104 104 104 104 104 92 92 92 127 127 127 116 116 116 
127 127 127 116 116 116 104 104 104 104 104 104 116 116 116 92 92 92 37 37 37 57 60 54 54 54 54 92 92 92 116 116 116 127 127 127 46 46 46 54 54 54 127 127 127 127 127 127 
127 127 127 92 92 92 116 116 116 116 116 116 127 127 127 46 46 46 57 60 54 54 54 54 73 75 63 46 46 46 37 37 37 127 127 127 127 127 127 116 116 116 116 116 116 116 116 116 
116 116 116 37 37 37 54 54 54 116 116 116 116 116 116 116 116 116 92 92 92 46 46 46 37 37 37 37 37 37 92 92 92 116 116 116 116 116 116 116 116 116 127 127 127 127 127 127 
127 127 127 143 143 143 143 143 143 127 127 127 116 116 116 127 127 127 143 143 143 143 143 143 143 143 143 116 116 116 116 116 116 92 92 92 92 92 92 104 104 104 116 116 116 143 143 143 
116 116 116 143 143 143 127 127 127 116 116 116 92 92 92 116 116 116 116 116 116 116 116 116 127 127 127 116 116 116 57 60 54 46 46 46 57 60 54 92 92 92 127 127 127 127 127 127 
116 116 116 92 92 92 116 116 116 92 92 92 37 37 37 57 60 54 46 46 46 92 92 92 127 127 127 127 127 127 92 92 92 57 60 54 73 75 63 127 127 127 143 143 143 143 143 143 
143 143 143 116 116 116 127 127 127 37 37 37 57 60 54 73 75 63 54 54 54 46 46 46 127 127 127 116 116 116 127 127 127 116 116 116 116 116 116 116 116 116 127 127 127 116 116 116 
127 127 127 143 143 143 116 116 116 92 92 92 46 46 46 54 54 54 92 92 92 116 116 116 116 116 116 143 143 143 143 143 143 127 127 127 127 127 127 92 92 92 92 92 92 127 127 127 
104 104 104 127 127 127 143 143 143 116 116 116 92 92 92 92 92 92 127 127 127 116 116 116 127 127 127 116 116 116 116 116 116 116 116 116 92 92 92 37 37 37 57 60 54 104 104 104 
127 127 127 127 127 127 92 92 92 92 92 92 116 116 116 92 92 92 127 127 127 127 127 127 116 116 116 127 127 127 92 92 92 92 92 92 116 116 116 116 116 116 116 116 116 116 116 116 
127 127 127 92 92 92 37 37 37 73 75 63 54 54 54 37 37 37 37 37 37 143 143 143 143 143 143 92 92 92 73 75 63 57 60 54 37 37 37 116 116 116 104 104 104 104 104 104 
143 143 143 116 116 116 92 92 92 57 60 54 37 37 37 92 92 92 116 116 116 116 116 116 116 116 116 92 92 92 54 54 54 37 37 37 92 92 92 116 116 116 116 116 116 127 127 127 
127 127 127 116 116 116 116 116 116 116 116 116 127 127 127 127 127 127 54 54 54 46 46 46 127 127 127 127 127 127 92 92 92 127 127 127 127 127 127 127 127 127 143 143 143 143 143 143 
127 127 127 127 127 127 116 116 116 116 116 116 116 116 116 127 127 127 143 143 143 116 116 116 127 127 127 143 143 143 143 143 143 127 127 127 127 127 127 116 116 116 127 127 127 127 127 127 
