P3
16 16
255
84 124 171 84 124 171 84 124 171 84 124 171 84 124 171 84 124 171 84 124 171 84 124 171 84 124 171 84 124 171 84 124 171 84 124 171 84 124 171 84 124 171 84 124 171 84 124 171 
84 124 171 84 124 171 84 124 171 84 124 171 84 124 171 84 124 171 84 124 171 84 124 171 84 124 171 84 124 171 84 124 171 84 124 171 84 124 171 84 124 171 84 124 171 84 124 171 
84 124 171 84 124 171 84 124 171 84 124 171 84 124 171 84 124 171 84 124 171 84 124 171 84 124 171 84 124 171 84 124 171 84 124 171 84 124 171 84 124 171 84 124 171 84 124 171 
84 124 171 84 124 171 84 124 171 84 124 171 114 143 241 114 143 241 114 143 241 114 143 241 70 106 235 98 129 232 98 129 232 84 124 171 84 124 171 84 124 171 84 124 171 84 124 171 
84 124 171 84 124 171 84 124 171 70 106 235 92 124 238 114 143 241 114 143 241 114 143 241 70 106 235 98 129 232 84 117 233 70 106 235 84 124 171 84 124 171 84 124 171 84 124 171 
84 124 171 84 124 171 84 124 171 70 106 235 70 106 235 114 143 241 114 143 241 70 106 235 98 129 232 70 106 235 70 106 235 70 106 235 84 124 171 84 124 171 84 124 171 84 124 171 
84 124 171 84 124 171 84 124 171 70 106 235 84 117 233 98 129 232 42 76 199 42 76 199 67 46 153 70 106 235 42 76 199 42 76 199 84 124 171 84 124 171 84 124 171 84 124 171 
84 124 171 84 124 171 84 124 171 84 124 171 98 129 232 98 129 232 44 90 117 46 105 36 142 108 195 106 107 215 42 76 199 42 76 199 84 124 171 84 124 171 84 124 171 84 124 171 
84 124 171 84 124 171 84 124 171 84 124 171 84 124 171 84 124 171 87 140 77 87 140 77 87 140 77 87 140 77 84 124 171 84 124 171 84 124 171 84 124 171 84 124 171 84 124 171 
84 124 171 84 124 171 84 124 171 87 140 77 87 140 77 87 140 77 87 140 77 66 122 56 46 105 36 46 105 36 84 124 171 84 124 171 84 124 171 84 124 171 84 124 171 84 124 171 
84 124 171 84 124 171 84 124 171 87 140 77 87 140 77 87 140 77 87 140 77 87 140 77 87 140 77 87 140 77 84 124 171 84 124 171 84 124 171 84 124 171 84 124 171 84 124 171 
84 124 171 84 124 171 84 124 171 87 140 77 87 140 77 87 140 77 87 140 77 91 156 81 91 156 81 91 156 81 84 124 171 84 124 171 84 124 171 84 124 171 84 124 171 84 124 171 
84 124 171 84 124 171 84 124 171 84 124 171 63 121 53 63 121 53 87 140 77 88 145 78 91 156 81 91 156 81 84 124 171 84 124 171 84 124 171 84 124 171 84 124 171 84 124 171 
84 124 171 84 124 171 84 124 171 84 124 171 63 121 53 63 121 53 63 121 53 87 140 77 91 156 81 91 156 81 84 124 171 84 124 171 84 124 171 84 124 171 84 124 171 84 124 171 
84 124 171 84 124 171 84 124 171 84 124 171 84 124 171 63 121 53 54 113 44 46 105 36 91 156 81 91 156 81 84 124 171 84 124 171 84 124 171 84 124 171 84 124 171 84 124 171 
84 124 171 84 124 171 84 124 171 84 124 171 84 124 171 84 124 171 46 105 36 46 105 36 46 105 36 46 105 36 84 124 171 84 124 171 84 124 171 84 124 171 84 124 171 84 124 171 
