P3
16 16
255
63 49 29 48 37 19 74 56 30 63 49 29 63 49 29 41 32 17 74 56 30 63 49 29 63 49 29 41 32 17 63 49 29 74 56 30 48 37 19 74 56 30 63 49 29 51 39 21 
63 49 29 48 37 19 88 68 40 51 39 21 63 49 29 41 32 17 88 68 40 51 39 21 63 49 29 41 32 17 63 49 29 74 56 30 48 37 19 63 49 29 63 49 29 51 39 21 
63 49 29 41 32 17 51 39 21 51 39 21 63 49 29 41 32 17 88 68 40 51 39 21 63 49 29 48 37 19 63 49 29 48 37 19 48 37 19 63 49 29 63 49 29 51 39 21 
74 56 30 41 32 17 63 49 29 51 39 21 63 49 29 48 37 19 63 49 29 51 39 21 63 49 29 51 39 21 63 49 29 41 32 17 48 37 19 63 49 29 74 56 30 51 39 21 
74 56 30 48 37 19 63 49 29 51 39 21 63 49 29 41 32 17 63 49 29 51 39 21 88 68 40 51 39 21 63 49 29 51 39 21 63 49 29 48 37 19 74 56 30 63 49 29 
74 56 30 63 49 29 48 37 19 63 49 29 74 56 30 48 37 19 63 49 29 48 37 19 88 68 40 51 39 21 74 56 30 48 37 19 63 49 29 48 37 19 74 56 30 63 49 29 
51 39 21 63 49 29 48 37 19 63 49 29 74 56 30 51 39 21 51 39 21 63 49 29 74 56 30 63 49 29 74 56 30 63 49 29 63 49 29 48 37 19 74 56 30 63 49 29 
51 39 21 63 49 29 41 32 17 63 49 29 74 56 30 63 49 29 51 39 21 74 56 30 63 49 29 63 49 29 74 56 30 51 39 21 63 49 29 51 39 21 74 56 30 63 49 29 
63 49 29 48 37 19 41 32 17 88 68 40 63 49 29 63 49 29 51 39 21 74 56 30 63 49 29 51 39 21 74 56 30 51 39 21 74 56 30 51 39 21 74 56 30 63 49 29 
63 49 29 63 49 29 48 37 19 88 68 40 63 49 29 63 49 29 51 39 21 63 49 29 63 49 29 51 39 21 74 56 30 48 37 19 74 56 30 63 49 29 41 32 17 63 49 29 
63 49 29 63 49 29 63 49 29 74 56 30 63 49 29 51 39 21 63 49 29 41 32 17 63 49 29 51 39 21 63 49 29 48 37 19 74 56 30 63 49 29 41 32 17 63 49 29 
63 49 29 48 37 19 63 49 29 74 56 30 63 49 29 51 39 21 63 49 29 41 32 17 88 68 40 63 49 29 63 49 29 41 32 17 88 68 40 63 49 29 48 37 19 63 49 29 
88 68 40 48 37 19 63 49 29 63 49 29 74 56 30 51 39 21 74 56 30 41 32 17 88 68 40 51 39 21 63 49 29 41 32 17 63 49 29 63 49 29 51 39 21 63 49 29 
88 68 40 63 49 29 48 37 19 63 49 29 74 56 30 63 49 29 63 49 29 48 37 19 74 56 30 51 39 21 63 49 29 48 37 19 63 49 29 63 49 29 63 49 29 63 49 29 
74 56 30 63 49 29 48 37 19 74 56 30 63 49 29 63 49 29 74 56 30 41 32 17 63 49 29 48 37 19 63 49 29 48 37 19 48 37 19 74 56 30 63 49 29 63 49 29 
74 56 30 63 49 29 48 37 19 74 56 30 48 37 19 63 49 29 74 56 30 48 37 19 63 49 29 48 37 19 63 49 29 63 49 29 48 37 19 74 56 30 63 49 29 51 39 21 
