P3
16 16
255
65 98 25 65 98 25 85 132 33 106 166 41 86 134 33 88 138 34 88 138 34 88 138 34 88 138 34 106 166 41 72 110 28 106 166 41 106 166 41 106 166 41 106 166 41 72 110 28 
88 138 34 76 118 29 88 138 34 86 134 33 65 98 25 65 98 25 72 110 28 88 138 34 97 152 37 106 166 41 88 138 34 106 166 41 106 166 41 106 166 41 88 138 34 106 166 41 
88 138 34 97 152 37 88 138 34 88 138 34 76 118 29 88 138 34 88 138 34 72 110 28 106 166 41 95 149 37 106 166 41 106 166 41 106 166 41 106 166 41 106 166 41 106 166 41 
106 166 41 106 166 41 72 110 28 65 98 25 65 98 25 86 134 33 106 166 41 88 138 34 106 166 41 65 98 25 78 120 30 86 134 33 88 138 34 100 156 38 106 166 41 106 166 41 
106 166 41 88 138 34 106 166 41 88 138 34 76 118 29 97 152 37 88 138 34 106 166 41 92 143 35 65 98 25 65 98 25 72 111 28 88 138 34 88 138 34 94 147 36 97 152 37 
106 166 41 106 166 41 106 166 41 86 134 33 106 166 41 106 166 41 72 110 28 65 98 25 65 98 25 65 98 25 70 108 27 65 98 25 65 98 25 72 110 28 88 138 34 97 152 37 
88 138 34 88 138 34 81 125 31 65 98 25 106 166 41 88 138 34 106 166 41 88 138 34 76 118 29 88 138 34 88 138 34 86 135 33 88 138 34 88 138 34 72 110 28 106 166 41 
72 110 28 65 98 25 65 98 25 75 115 29 106 166 41 106 166 41 106 166 41 86 135 33 65 98 25 65 98 25 72 110 28 106 166 41 101 159 39 106 166 41 72 110 28 88 138 34 
106 166 41 88 138 34 72 111 28 65 98 25 65 98 25 106 166 41 88 138 34 88 138 34 82 128 31 88 138 34 106 166 41 88 138 34 106 166 41 65 98 25 88 138 34 72 110 28 
106 166 41 94 147 36 88 138 34 65 98 25 65 98 25 65 98 25 65 98 25 72 110 28 88 138 34 97 152 37 106 166 41 106 166 41 106 166 41 65 98 25 106 166 41 88 138 34 
94 147 36 88 138 34 88 138 34 72 111 28 65 98 25 72 111 28 88 138 34 88 138 34 72 110 28 106 166 41 106 166 41 106 166 41 65 98 25 65 98 25 65 98 25 106 166 41 
88 138 34 72 110 28 65 98 25 65 98 25 72 111 28 88 138 34 97 152 37 106 166 41 88 138 34 106 166 41 86 134 33 88 138 34 88 138 34 65 98 25 65 98 25 97 152 37 
72 110 28 88 138 34 88 138 34 86 135 33 88 138 34 88 138 34 76 118 29 106 166 41 106 166 41 85 132 33 65 98 25 65 98 25 72 110 28 106 166 41 94 147 36 88 138 34 
88 138 34 106 166 41 101 159 39 106 166 41 72 110 28 65 98 25 65 98 25 65 98 25 86 134 33 65 98 25 72 111 28 88 138 34 106 166 41 72 110 28 88 138 34 106 166 41 
106 166 41 106 166 41 106 166 41 88 138 34 106 166 41 88 138 34 76 118 29 76 118 29 88 138 34 88 138 34 88 138 34 97 152 37 106 166 41 88 138 34 106 166 41 100 156 38 
88 138 34 97 152 37 106 166 41 106 166 41 106 166 41 97 152 37 65 98 25 65 98 25 65 98 25 72 110 28 88 138 34 88 138 34 106 166 41 106 166 41 100 156 38 88 138 34 
