P3
16 16
255
51 39 21 63 49 29 74 56 30 63 49 29 74 56 30 63 49 29 41 32 17 63 49 29 63 49 29 74 56 30 51 39 21 63 49 29 63 49 29 74 56 30 48 37 19 51 39 21 
48 37 19 79 50 24 79 50 24 79 50 24 79 50 24 73 47 23 79 50 24 73 47 23 83 56 26 73 47 23 73 47 23 79 50 24 79 50 24 79 50 24 79 50 24 63 49 29 
74 56 30 79 50 24 48 30 14 48 30 14 58 36 17 58 36 17 62 41 18 58 36 17 62 41 18 62 41 18 62 41 18 62 41 18 58 36 17 58 36 17 83 56 26 74 56 30 
63 49 29 79 50 24 48 30 14 83 56 26 83 56 26 79 50 24 79 50 24 79 50 24 79 50 24 73 47 23 79 50 24 79 50 24 79 50 24 58 36 17 79 50 24 41 32 17 
63 49 29 73 47 23 58 36 17 79 50 24 73 47 23 73 47 23 73 47 23 73 47 23 73 47 23 73 47 23 73 47 23 73 47 23 79 50 24 62 41 18 73 47 23 74 56 30 
41 32 17 79 50 24 62 41 18 79 50 24 73 47 23 58 36 17 58 36 17 62 41 18 62 41 18 58 36 17 58 36 17 73 47 23 79 50 24 58 36 17 73 47 23 63 49 29 
74 56 30 73 47 23 58 36 17 73 47 23 73 47 23 48 30 14 73 47 23 73 47 23 73 47 23 73 47 23 58 36 17 73 47 23 73 47 23 58 36 17 79 50 24 48 37 19 
63 49 29 73 47 23 62 41 18 79 50 24 73 47 23 58 36 17 73 47 23 62 41 18 62 41 18 73 47 23 62 41 18 73 47 23 79 50 24 62 41 18 73 47 23 74 56 30 
63 49 29 73 47 23 62 41 18 79 50 24 73 47 23 58 36 17 73 47 23 62 41 18 58 36 17 73 47 23 58 36 17 73 47 23 79 50 24 58 36 17 73 47 23 74 56 30 
48 37 19 73 47 23 62 41 18 79 50 24 73 47 23 58 36 17 73 47 23 73 47 23 73 47 23 73 47 23 62 41 18 73 47 23 73 47 23 58 36 17 73 47 23 63 49 29 
63 49 29 73 47 23 58 36 17 79 50 24 73 47 23 58 36 17 58 36 17 48 30 14 58 36 17 62 41 18 62 41 18 73 47 23 79 50 24 62 41 18 73 47 23 41 32 17 
74 56 30 73 47 23 62 41 18 79 50 24 73 47 23 73 47 23 73 47 23 73 47 23 73 47 23 73 47 23 73 47 23 73 47 23 79 50 24 58 36 17 73 47 23 51 39 21 
41 32 17 79 50 24 62 41 18 79 50 24 79 50 24 73 47 23 79 50 24 79 50 24 79 50 24 79 50 24 79 50 24 83 56 26 79 50 24 58 36 17 73 47 23 51 39 21 
74 56 30 79 50 24 62 41 18 58 36 17 62 41 18 58 36 17 58 36 17 58 36 17 58 36 17 58 36 17 58 36 17 58 36 17 58 36 17 58 36 17 79 50 24 63 49 29 
63 49 29 79 50 24 79 50 24 79 50 24 73 47 23 73 47 23 79 50 24 73 47 23 73 47 23 83 56 26 73 47 23 73 47 23 79 50 24 79 50 24 79 50 24 48 37 19 
51 39 21 48 37 19 74 56 30 63 49 29 63 49 29 41 32 17 74 56 30 63 49 29 63 49 29 41 32 17 63 49 29 74 56 30 48 37 19 74 56 30 63 49 29 51 39 21 
