P3
16 16
255
108 146 67 108 146 67 108 146 67 108 146 67 108 146 67 108 146 67 108 146 67 108 146 67 108 146 67 108 146 67 108 146 67 108 146 67 108 146 67 108 146 67 108 146 67 108 146 67 
108 146 67 108 146 67 108 146 67 117 158 72 117 158 72 117 158 72 117 158 72 117 158 72 117 158 72 134 181 83 134 181 83 134 181 83 117 158 72 117 158 72 117 158 72 108 146 67 
108 146 67 108 146 67 108 146 67 117 158 72 117 158 72 117 158 72 117 158 72 117 158 72 117 158 72 134 181 83 134 181 83 134 181 83 117 158 72 117 158 72 117 158 72 108 146 67 
108 146 67 108 146 67 117 158 72 117 158 72 117 158 72 117 158 72 125 169 77 134 181 83 134 181 83 115 154 71 134 181 83 125 169 77 117 158 72 117 158 72 117 158 72 108 146 67 
117 158 72 117 158 72 117 158 72 117 158 72 122 165 75 134 181 83 134 181 83 134 181 83 115 154 71 96 127 59 117 158 72 128 173 79 134 181 83 134 181 83 134 181 83 134 181 83 
117 158 72 117 158 72 125 169 77 117 158 72 117 158 72 134 181 83 125 169 77 117 158 72 110 147 67 117 158 72 122 165 75 134 181 83 134 181 83 134 181 83 134 181 83 134 181 83 
117 158 72 125 169 77 134 181 83 110 149 68 86 118 53 117 158 72 113 153 69 117 158 72 96 127 59 134 181 83 125 169 77 117 158 72 125 169 77 134 181 83 134 181 83 134 181 83 
108 146 67 134 181 83 134 181 83 110 149 68 101 138 62 117 158 72 106 143 65 103 140 63 106 143 65 134 181 83 121 163 75 96 127 59 115 154 71 134 181 83 134 181 83 108 146 67 
117 158 72 134 181 83 134 181 83 86 118 53 96 130 59 106 143 65 117 158 72 86 118 53 96 127 59 106 143 65 134 181 83 86 118 53 112 152 69 117 158 72 101 138 62 86 118 53 
117 158 72 117 158 72 117 158 72 106 143 65 120 162 74 134 181 83 105 143 65 86 118 53 117 158 72 109 146 67 117 158 72 86 118 53 134 181 83 112 152 69 86 118 53 101 138 62 
117 158 72 106 142 65 106 143 65 117 158 72 117 158 72 117 158 72 86 118 53 96 131 59 117 158 72 96 127 59 106 143 65 103 139 63 117 158 72 106 144 65 86 118 53 117 158 72 
117 158 72 96 127 59 103 138 63 117 158 72 117 158 72 106 143 65 86 118 53 99 134 61 106 143 65 96 127 59 117 158 72 109 148 67 106 143 65 117 158 72 103 140 63 106 143 65 
106 143 65 101 135 62 96 127 59 106 143 65 86 118 53 106 143 65 86 118 53 106 143 65 86 118 53 96 127 59 117 158 72 106 143 65 96 127 59 106 143 65 106 143 65 96 127 59 
106 143 65 106 143 65 96 127 59 96 127 59 86 118 53 106 143 65 96 127 59 106 143 65 96 127 59 86 118 53 117 158 72 86 118 53 96 127 59 96 127 59 106 143 65 99 132 61 
102 137 63 96 127 59 86 118 53 117 158 72 79 107 49 96 127 59 86 118 53 117 158 72 96 127 59 79 107 49 106 143 65 86 118 53 117 158 72 96 127 59 96 127 59 96 127 59 
106 143 65 96 127 59 79 107 49 117 158 72 79 107 49 96 127 59 79 107 49 117 158 72 96 127 59 79 107 49 96 127 59 79 107 49 117 158 72 79 107 49 96 127 59 86 118 53 
