P3
16 16
255
143 143 143 127 127 127 127 127 127 127 127 127 127 127 127 116 116 116 116 116 116 127 127 127 116 116 116 104 104 104 116 116 116 116 116 116 116 116 116 116 116 116 143 143 143 143 143 143 
127 127 127 127 127 127 116 116 116 104 104 104 104 104 104 127 127 127 127 127 127 143 143 143 143 143 143 127 127 127 119 103 79 136 116 85 136 116 85 119 103 79 127 127 127 116 116 116 
127 127 127 116 116 116 136 116 85 175 142 119 136 116 85 116 116 116 127 127 127 104 104 104 116 116 116 116 116 116 127 127 127 136 116 85 175 142 119 127 127 127 127 127 127 127 127 127 
127 127 127 136 116 85 175 142 119 216 175 147 143 143 143 127 127 127 116 116 116 104 104 104 104 104 104 104 104 104 116 116 116 127 127 127 127 127 127 116 116 116 116 116 116 116 116 116 
116 116 116 143 143 143 143 143 143 143 143 143 116 116 116 104 104 104 104 104 104 136 116 85 136 116 85 175 142 119 175 142 119 136 116 85 104 104 104 104 104 104 116 116 116 127 127 127 
127 127 127 143 143 143 127 127 127 127 127 127 136 116 85 175 142 119 216 175 147 216 175 147 226 192 170 216 175 147 175 142 119 127 127 127 116 116 116 136 116 85 175 142 119 143 143 143 
116 116 116 127 127 127 127 127 127 143 143 143 143 143 143 143 143 143 175 142 119 216 175 147 216 175 147 143 143 143 127 127 127 116 116 116 127 127 127 143 143 143 143 143 143 127 127 127 
116 116 116 116 116 116 127 127 127 104 104 104 104 104 104 116 116 116 143 143 143 143 143 143 143 143 143 127 127 127 116 116 116 104 104 104 104 104 104 127 127 127 127 127 127 127 127 127 
143 143 143 143 143 143 104 104 104 136 116 85 175 142 119 104 104 104 104 104 104 116 116 116 127 127 127 119 103 79 136 116 85 175 142 119 119 103 79 116 116 116 127 127 127 116 116 116 
127 127 127 143 143 143 119 103 79 175 142 119 175 142 119 216 175 147 216 175 147 143 143 143 127 127 127 143 143 143 175 142 119 216 175 147 143 143 143 143 143 143 143 143 143 127 127 127 
104 104 104 127 127 127 143 143 143 143 143 143 216 175 147 226 192 170 143 143 143 104 104 104 116 116 116 127 127 127 143 143 143 143 143 143 127 127 127 116 116 116 116 116 116 116 116 116 
127 127 127 127 127 127 127 127 127 127 127 127 143 143 143 143 143 143 127 127 127 143 143 143 127 127 127 127 127 127 127 127 127 119 103 79 136 116 85 143 143 143 127 127 127 143 143 143 
127 127 127 116 116 116 104 104 104 116 116 116 136 116 85 175 142 119 143 143 143 116 116 116 119 103 79 136 116 85 175 142 119 216 175 147 216 175 147 175 142 119 136 116 85 116 116 116 
143 143 143 136 116 85 175 142 119 116 116 116 127 127 127 143 143 143 127 127 127 116 116 116 143 143 143 175 142 119 216 175 147 226 192 170 175 142 119 143 143 143 143 143 143 127 127 127 
127 127 127 143 143 143 136 116 85 119 103 79 116 116 116 127 127 127 127 127 127 127 127 127 127 127 127 143 143 143 143 143 143 143 143 143 143 143 143 127 127 127 127 127 127 127 127 127 
127 127 127 127 127 127 143 143 143 143 143 143 127 127 127 127 127 127 116 116 116 116 116 116 127 127 127 127 127 127 143 143 143 143 143 143 127 127 127 116 116 116 127 127 127 127 127 127 
