P3
16 16
255
147 181 136 147 181 136 147 181 136 147 181 136 147 181 136 147 181 136 147 181 136 147 181 136 147 181 136 147 181 136 147 181 136 147 181 136 147 181 136 147 181 136 147 181 136 147 181 136 
147 181 136 147 181 136 147 181 136 147 181 136 147 181 136 147 181 136 147 181 136 147 181 136 147 181 136 147 181 136 147 181 136 147 181 136 147 181 136 147 181 136 147 181 136 147 181 136 
147 181 136 147 181 136 147 181 136 147 181 136 147 181 136 147 181 136 147 181 136 147 181 136 147 181 136 147 181 136 147 181 136 147 181 136 147 181 136 147 181 136 147 181 136 147 181 136 
147 181 136 147 181 136 147 181 136 127 192 89 127 192 89 127 192 89 100 177 50 100 177 50 147 181 136 147 181 136 147 181 136 147 181 136 147 181 136 147 181 136 147 181 136 147 181 136 
147 181 136 147 181 136 255 255 255 191 223 172 127 192 89 127 192 89 100 177 50 90 161 48 80 146 47 147 181 136 147 181 136 147 181 136 147 181 136 147 181 136 147 181 136 147 181 136 
147 181 136 147 181 136 255 255 255 255 255 255 231 231 231 179 211 160 86 156 48 80 146 47 80 146 47 80 146 47 147 181 136 147 181 136 147 181 136 147 181 136 147 181 136 147 181 136 
147 181 136 147 181 136 255 255 255 255 255 255 216 216 216 183 205 172 80 146 47 80 146 47 80 146 47 80 146 47 147 181 136 80 146 47 80 146 47 80 146 47 147 181 136 147 181 136 
147 181 136 147 181 136 243 243 243 243 243 243 229 229 229 255 255 255 231 231 231 146 189 122 80 146 47 80 146 47 80 146 47 80 146 47 80 146 47 80 146 47 147 181 136 147 181 136 
147 181 136 147 181 136 231 231 231 231 231 231 216 216 216 255 255 255 216 216 216 127 192 89 55 127 19 55 127 19 80 146 47 80 146 47 100 177 50 100 177 50 147 181 136 147 181 136 
147 181 136 147 181 136 231 231 231 231 231 231 216 216 216 235 235 235 216 216 216 154 197 130 80 146 47 55 127 19 78 150 38 100 177 50 100 177 50 100 177 50 147 181 136 147 181 136 
147 181 136 147 181 136 231 231 231 231 231 231 216 216 216 216 216 216 255 255 255 255 255 255 55 127 19 55 127 19 80 146 47 127 192 89 100 177 50 100 177 50 147 181 136 147 181 136 
147 181 136 147 181 136 147 181 136 147 181 136 147 181 136 147 181 136 255 255 255 255 255 255 55 127 19 55 127 19 127 192 89 100 177 50 55 127 19 55 127 19 147 181 136 147 181 136 
147 181 136 147 181 136 147 181 136 147 181 136 147 181 136 147 181 136 255 255 255 155 191 137 55 127 19 80 146 47 100 177 50 80 146 47 67 136 33 55 127 19 147 181 136 147 181 136 
147 181 136 147 181 136 147 181 136 147 181 136 147 181 136 147 181 136 147 181 136 55 127 19 55 127 19 100 177 50 80 146 47 55 127 19 55 127 19 147 181 136 147 181 136 147 181 136 
147 181 136 147 181 136 147 181 136 147 181 136 147 181 136 147 181 136 147 181 136 55 127 19 55 127 19 55 127 19 55 127 19 55 127 19 55 127 19 147 181 136 147 181 136 147 181 136 
147 181 136 147 181 136 147 181 136 147 181 136 147 181 136 147 181 136 147 181 136 55 127 19 55 127 19 55 127 19 55 127 19 55 127 19 147 181 136 147 181 136 147 181 136 147 181 136 
