P3
16 16
255
199 168 119 199 168 119 191 159 110 206 174 123 206 174 123 206 174 123 199 168 119 199 168 119 191 159 110 206 174 123 206 174 123 199 168 119 199 168 119 199 168 119 206 174 123 199 168 119 
199 168 119 199 168 119 206 174 123 206 174 123 171 144 102 199 168 119 199 168 119 215 182 128 199 168 119 206 174 123 199 168 119 199 168 119 199 168 119 206 174 123 171 144 102 206 174 123 
215 182 128 206 174 123 199 168 119 199 168 119 199 168 119 206 174 123 206 174 123 206 174 123 199 168 119 206 174 123 206 174 123 206 174 123 191 159 110 206 174 123 206 174 123 215 182 128 
171 144 102 215 182 128 206 174 123 199 168 119 206 174 123 191 159 110 206 174 123 206 174 123 206 174 123 199 168 119 206 174 123 199 168 119 206 174 123 199 168 119 199 168 119 206 174 123 
206 174 123 199 168 119 199 168 119 191 159 110 206 174 123 206 174 123 215 182 128 206 174 123 171 144 102 206 174 123 199 168 119 199 168 119 215 182 128 199 168 119 206 174 123 191 159 110 
199 168 119 206 174 123 206 174 123 171 144 102 206 174 123 199 168 119 215 182 128 215 182 128 206 174 123 199 168 119 206 174 123 171 144 102 206 174 123 199 168 119 206 174 123 206 174 123 
199 168 119 199 168 119 199 168 119 206 174 123 199 168 119 199 168 119 206 174 123 206 174 123 206 174 123 199 168 119 206 174 123 206 174 123 199 168 119 206 174 123 191 159 110 206 174 123 
206 174 123 215 182 128 215 182 128 199 168 119 199 168 119 206 174 123 191 159 110 199 168 119 199 168 119 206 174 123 199 168 119 199 168 119 199 168 119 206 174 123 199 168 119 206 174 123 
171 144 102 206 174 123 199 168 119 206 174 123 206 174 123 215 182 128 215 182 128 206 174 123 199 168 119 171 144 102 206 174 123 199 168 119 206 174 123 206 174 123 199 168 119 199 168 119 
206 174 123 206 174 123 199 168 119 206 174 123 171 144 102 206 174 123 199 168 119 199 168 119 206 174 123 215 182 128 215 182 128 206 174 123 199 168 119 171 144 102 206 174 123 199 168 119 
199 168 119 206 174 123 206 174 123 199 168 119 199 168 119 206 174 123 215 182 128 215 182 128 199 168 119 199 168 119 199 168 119 206 174 123 206 174 123 206 174 123 206 174 123 199 168 119 
206 174 123 206 174 123 215 182 128 215 182 128 215 182 128 206 174 123 206 174 123 206 174 123 206 174 123 206 174 123 191 159 110 171 144 102 206 174 123 199 168 119 206 174 123 191 159 110 
199 168 119 199 168 119 191 159 110 206 174 123 199 168 119 199 168 119 206 174 123 191 159 110 199 168 119 206 174 123 171 144 102 191 159 110 206 174 123 199 168 119 215 182 128 206 174 123 
206 174 123 199 168 119 206 174 123 199 168 119 199 168 119 199 168 119 206 174 123 215 182 128 215 182 128 206 174 123 206 174 123 206 174 123 199 168 119 199 168 119 199 168 119 206 174 123 
215 182 128 171 144 102 206 174 123 206 174 123 171 144 102 206 174 123 199 168 119 199 168 119 199 168 119 171 144 102 199 168 119 206 174 123 206 174 123 199 168 119 199 168 119 199 168 119 
215 182 128 199 168 119 199 168 119 199 168 119 206 174 123 199 168 119 206 174 123 206 174 123 215 182 128 215 182 128 215 182 128 206 174 123 206 174 123 191 159 110 206 174 123 215 182 128 
