P3
16 16
255
116 90 54 76 61 38 145 113 66 116 90 54 116 90 54 56 43 24 145 113 66 116 90 54 116 90 54 56 43 24 116 90 54 145 113 66 76 61 38 145 113 66 116 90 54 95 74 43 
116 90 54 76 61 38 152 120 73 95 74 43 116 90 54 56 43 24 152 120 73 95 74 43 116 90 54 56 43 24 116 90 54 145 113 66 76 61 38 116 90 54 116 90 54 95 74 43 
116 90 54 56 43 24 95 74 43 95 74 43 116 90 54 56 43 24 152 120 73 95 74 43 116 90 54 76 61 38 116 90 54 76 61 38 76 61 38 116 90 54 116 90 54 95 74 43 
145 113 66 56 43 24 116 90 54 95 74 43 116 90 54 76 61 38 116 90 54 95 74 43 116 90 54 95 74 43 116 90 54 56 43 24 76 61 38 116 90 54 145 113 66 95 74 43 
145 113 66 76 61 38 116 90 54 95 74 43 116 90 54 56 43 24 116 90 54 95 74 43 152 120 73 95 74 43 116 90 54 95 74 43 116 90 54 76 61 38 145 113 66 116 90 54 
145 113 66 116 90 54 76 61 38 116 90 54 145 113 66 76 61 38 116 90 54 76 61 38 152 120 73 95 74 43 145 113 66 76 61 38 116 90 54 76 61 38 145 113 66 116 90 54 
95 74 43 116 90 54 76 61 38 116 90 54 145 113 66 95 74 43 95 74 43 116 90 54 145 113 66 116 90 54 145 113 66 116 90 54 116 90 54 76 61 38 145 113 66 116 90 54 
95 74 43 116 90 54 56 43 24 116 90 54 145 113 66 116 90 54 95 74 43 145 113 66 116 90 54 116 90 54 145 113 66 95 74 43 116 90 54 95 74 43 145 113 66 116 90 54 
116 90 54 76 61 38 56 43 24 152 120 73 116 90 54 116 90 54 95 74 43 145 113 66 116 90 54 95 74 43 145 113 66 95 74 43 145 113 66 95 74 43 145 113 66 116 90 54 
116 90 54 116 90 54 76 61 38 152 120 73 116 90 54 116 90 54 95 74 43 116 90 54 116 90 54 95 74 43 145 113 66 76 61 38 145 113 66 116 90 54 56 43 24 116 90 54 
116 90 54 116 90 54 116 90 54 145 113 66 116 90 54 95 74 43 116 90 54 56 43 24 116 90 54 95 74 43 116 90 54 76 61 38 145 113 66 116 90 54 56 43 24 116 90 54 
116 90 54 76 61 38 116 90 54 145 113 66 116 90 54 95 74 43 116 90 54 56 43 24 152 120 73 116 90 54 116 90 54 56 43 24 152 120 73 116 90 54 76 61 38 116 90 54 
152 120 73 76 61 38 116 90 54 116 90 54 145 113 66 95 74 43 145 113 66 56 43 24 152 120 73 95 74 43 116 90 54 56 43 24 116 90 54 116 90 54 95 74 43 116 90 54 
152 120 73 116 90 54 76 61 38 116 90 54 145 113 66 116 90 54 116 90 54 76 61 38 145 113 66 95 74 43 116 90 54 76 61 38 116 90 54 116 90 54 116 90 54 116 90 54 
145 113 66 116 90 54 76 61 38 145 113 66 116 90 54 116 90 54 145 113 66 56 43 24 116 90 54 76 61 38 116 90 54 76 61 38 76 61 38 145 113 66 116 90 54 116 90 54 
145 113 66 116 90 54 76 61 38 145 113 66 76 61 38 116 90 54 145 113 66 76 61 38 116 90 54 76 61 38 116 90 54 116 90 54 76 61 38 145 113 66 116 90 54 95 74 43 
