P3
16 16
255
122 144 36 122 144 36 122 144 36 122 144 36 122 144 36 122 144 36 122 144 36 122 144 36 122 144 36 122 144 36 122 144 36 122 144 36 122 144 36 122 144 36 122 144 36 122 144 36 
122 144 36 122 144 36 122 144 36 122 144 36 122 144 36 122 144 36 122 144 36 122 144 36 122 144 36 122 144 36 122 144 36 122 144 36 122 144 36 122 144 36 122 144 36 122 144 36 
122 144 36 122 144 36 122 144 36 122 144 36 122 144 36 241 157 37 241 157 37 241 157 37 241 157 37 241 157 37 122 144 36 122 144 36 122 144 36 122 144 36 122 144 36 122 144 36 
122 144 36 122 144 36 122 144 36 122 144 36 122 144 36 241 157 37 241 157 37 241 157 37 241 157 37 241 157 37 122 144 36 122 144 36 122 144 36 122 144 36 122 144 36 122 144 36 
122 144 36 122 144 36 122 144 36 122 144 36 122 144 36 241 157 37 241 157 37 241 157 37 211 125 50 211 125 50 122 144 36 122 144 36 122 144 36 122 144 36 122 144 36 122 144 36 
122 144 36 122 144 36 122 144 36 122 144 36 122 144 36 189 106 34 189 106 34 211 125 50 189 106 34 189 106 34 122 144 36 122 144 36 122 144 36 122 144 36 122 144 36 122 144 36 
122 144 36 122 144 36 122 144 36 122 144 36 122 144 36 189 106 34 189 106 34 189 106 34 189 106 34 74 143 40 74 143 40 122 144 36 122 144 36 122 144 36 122 144 36 122 144 36 
122 144 36 122 144 36 122 144 36 122 144 36 74 143 40 74 143 40 23 124 4 23 124 4 59 140 30 74 143 40 74 143 40 122 144 36 122 144 36 122 144 36 122 144 36 122 144 36 
122 144 36 122 144 36 122 144 36 122 144 36 74 143 40 74 143 40 48 133 22 23 124 4 82 154 46 23 124 4 23 124 4 122 144 36 122 144 36 122 144 36 122 144 36 122 144 36 
122 144 36 122 144 36 122 144 36 122 144 36 85 171 45 85 171 45 77 152 41 74 143 40 85 171 45 23 124 4 23 124 4 122 144 36 122 144 36 122 144 36 122 144 36 122 144 36 
122 144 36 122 144 36 122 144 36 122 144 36 85 171 45 85 171 45 74 143 40 23 124 4 85 171 45 23 124 4 23 124 4 122 144 36 122 144 36 122 144 36 122 144 36 122 144 36 
122 144 36 122 144 36 122 144 36 122 144 36 82 154 46 82 154 46 85 171 45 23 124 4 85 171 45 23 124 4 23 124 4 122 144 36 122 144 36 122 144 36 122 144 36 122 144 36 
122 144 36 122 144 36 122 144 36 122 144 36 74 143 40 74 143 40 85 171 45 74 143 40 82 154 46 23 124 4 23 124 4 122 144 36 122 144 36 122 144 36 122 144 36 122 144 36 
122 144 36 122 144 36 122 144 36 122 144 36 74 143 40 74 143 40 74 143 40 85 171 45 23 124 4 23 124 4 23 124 4 122 144 36 122 144 36 122 144 36 122 144 36 122 144 36 
122 144 36 122 144 36 122 144 36 122 144 36 122 144 36 74 143 40 74 143 40 85 171 45 23 124 4 23 124 4 122 144 36 122 144 36 122 144 36 122 144 36 122 144 36 122 144 36 
122 144 36 122 144 36 122 144 36 122 144 36 122 144 36 74 143 40 48 133 22 23 124 4 23 124 4 23 124 4 122 144 36 122 144 36 122 144 36 122 144 36 122 144 36 122 144 36 
