P3
16 16
255
200 208 179 200 208 179 200 208 179 200 208 179 200 208 179 200 208 179 200 208 179 200 208 179 200 208 179 200 208 179 200 208 179 200 208 179 200 208 179 200 208 179 200 208 179 200 208 179 
200 208 179 200 208 179 200 208 179 200 208 179 200 208 179 155 189 189 155 189 189 247 247 247 214 232 232 214 232 232 200 208 179 200 208 179 200 208 179 200 208 179 200 208 179 200 208 179 
200 208 179 200 208 179 200 208 179 200 208 179 214 232 232 184 210 210 155 189 189 247 247 247 214 232 232 214 232 232 214 232 232 200 208 179 200 208 179 200 208 179 200 208 179 200 208 179 
200 208 179 200 208 179 200 208 179 214 232 232 214 232 232 214 232 232 214 232 232 247 247 247 247 247 247 214 232 232 184 210 210 155 189 189 200 208 179 200 208 179 200 208 179 200 208 179 
200 208 179 200 208 179 200 208 179 214 232 232 214 232 232 247 247 247 245 186 39 254 214 57 254 214 57 214 232 232 155 189 189 155 189 189 200 208 179 200 208 179 200 208 179 200 208 179 
200 208 179 200 208 179 200 208 179 247 247 247 247 247 247 247 247 247 254 214 57 255 236 79 245 186 39 247 247 247 247 247 247 247 247 247 200 208 179 200 208 179 200 208 179 200 208 179 
200 208 179 200 208 179 200 208 179 155 189 189 155 189 189 214 232 232 245 186 39 254 214 57 241 157 37 247 247 247 214 232 232 214 232 232 200 208 179 200 208 179 200 208 179 200 208 179 
200 208 179 200 208 179 200 208 179 155 189 189 184 210 210 214 232 232 247 247 247 247 247 247 214 232 232 214 232 232 214 232 232 214 232 232 200 208 179 200 208 179 200 208 179 200 208 179 
200 208 179 200 208 179 200 208 179 200 208 179 214 232 232 214 232 232 214 232 232 247 247 247 155 189 189 184 210 210 214 232 232 200 208 179 200 208 179 200 208 179 200 208 179 200 208 179 
200 208 179 200 208 179 200 208 179 200 208 179 200 208 179 214 232 232 148 193 139 82 154 46 23 124 4 23 124 4 200 208 179 200 208 179 200 208 179 200 208 179 200 208 179 200 208 179 
200 208 179 200 208 179 200 208 179 200 208 179 23 124 4 23 124 4 83 162 45 85 171 45 54 147 24 23 124 4 200 208 179 200 208 179 200 208 179 200 208 179 200 208 179 200 208 179 
200 208 179 200 208 179 200 208 179 200 208 179 23 124 4 23 124 4 82 154 46 85 171 45 85 171 45 23 124 4 23 124 4 200 208 179 200 208 179 200 208 179 200 208 179 200 208 179 
200 208 179 200 208 179 200 208 179 200 208 179 23 124 4 23 124 4 23 124 4 85 171 45 43 139 17 23 124 4 23 124 4 200 208 179 200 208 179 200 208 179 200 208 179 200 208 179 
200 208 179 200 208 179 200 208 179 200 208 179 200 208 179 23 124 4 54 147 24 85 171 45 23 124 4 23 124 4 23 124 4 200 208 179 200 208 179 200 208 179 200 208 179 200 208 179 
200 208 179 200 208 179 200 208 179 200 208 179 200 208 179 200 208 179 82 154 46 82 154 46 23 124 4 23 124 4 200 208 179 200 208 179 200 208 179 200 208 179 200 208 179 200 208 179 
200 208 179 200 208 179 200 208 179 200 208 179 200 208 179 200 208 179 23 124 4 23 124 4 23 124 4 23 124 4 200 208 179 200 208 179 200 208 179 200 208 179 200 208 179 200 208 179 
