P3
16 16
255
168 140 180 168 140 180 168 140 180 168 140 180 168 140 180 168 140 180 168 140 180 168 140 180 168 140 180 168 140 180 168 140 180 168 140 180 168 140 180 168 140 180 168 140 180 168 140 180 
168 140 180 168 140 180 168 140 180 168 140 180 168 140 180 168 140 180 168 140 180 168 140 180 168 140 180 168 140 180 168 140 180 168 140 180 168 140 180 168 140 180 168 140 180 168 140 180 
168 140 180 168 140 180 168 140 180 168 140 180 168 140 180 168 140 180 168 140 180 168 140 180 168 140 180 168 140 180 168 140 180 168 140 180 168 140 180 168 140 180 168 140 180 168 140 180 
168 140 180 168 140 180 168 140 180 168 140 180 168 140 180 168 140 180 168 140 180 168 140 180 168 140 180 228 175 244 228 175 244 228 175 244 168 140 180 168 140 180 168 140 180 168 140 180 
168 140 180 168 140 180 235 197 253 235 197 253 235 197 253 235 197 253 235 197 253 168 140 180 228 175 244 228 175 244 228 175 244 228 175 244 228 175 244 168 140 180 168 140 180 168 140 180 
168 140 180 228 175 244 231 186 248 235 197 253 235 197 253 235 197 253 235 197 253 136 143 145 133 132 140 228 175 244 235 197 253 228 175 244 227 168 245 235 197 253 235 197 253 168 140 180 
168 140 180 228 175 244 228 175 244 227 161 247 228 175 244 235 197 253 235 197 253 101 119 109 38 90 37 222 147 241 235 197 253 246 226 255 227 161 247 235 197 253 235 197 253 168 140 180 
168 140 180 235 197 253 235 197 253 228 175 244 227 161 247 246 226 255 222 147 241 32 70 38 38 99 37 32 70 38 222 147 241 235 197 253 228 175 244 228 175 244 228 175 244 168 140 180 
168 140 180 228 175 244 228 175 244 235 197 253 235 197 253 228 175 244 222 147 241 32 70 38 38 99 37 38 90 37 26 56 31 222 147 241 222 147 241 162 137 174 133 132 140 168 140 180 
168 140 180 228 175 244 225 161 242 222 147 241 222 147 241 26 56 31 32 70 38 38 99 37 38 90 37 26 56 31 32 70 38 82 103 88 38 99 37 38 90 37 38 90 37 168 140 180 
38 90 37 38 90 37 38 99 37 99 112 105 38 90 37 38 90 37 26 56 31 38 90 37 32 70 38 26 56 31 38 90 37 38 99 37 32 70 38 35 80 37 38 90 37 168 140 180 
38 90 37 38 90 37 38 99 37 38 99 37 26 56 31 32 70 38 26 56 31 32 70 38 26 56 31 38 90 37 26 56 31 26 56 31 32 75 35 38 90 37 38 90 37 168 140 180 
38 90 37 35 80 37 32 70 38 38 90 37 38 99 37 26 56 31 235 197 253 228 175 244 26 56 31 26 56 31 32 70 38 38 99 37 38 99 37 38 90 37 38 90 37 168 140 180 
168 140 180 32 70 38 32 70 38 133 132 140 228 175 244 228 175 244 227 161 247 235 197 253 228 175 244 32 70 38 38 99 37 38 90 37 235 197 253 228 175 244 228 175 244 168 140 180 
168 140 180 168 140 180 168 140 180 228 175 244 228 175 244 235 197 253 235 197 253 246 226 255 222 147 241 26 56 31 32 70 38 26 56 31 235 197 253 235 197 253 235 197 253 168 140 180 
168 140 180 168 140 180 168 140 180 228 175 244 228 175 244 228 175 244 222 147 241 222 147 241 26 56 31 32 70 38 26 56 31 32 70 38 133 133 145 235 197 253 235 197 253 168 140 180 
