P3
16 16
255
130 115 140 38 90 37 38 90 37 38 90 37 38 90 37 38 99 37 26 56 31 38 90 37 32 70 38 26 56 31 26 56 31 222 147 241 222 147 241 130 115 140 130 115 140 130 115 140 
130 115 140 38 90 37 38 90 37 103 125 109 235 197 253 32 70 38 26 56 31 32 70 38 38 99 37 32 70 38 26 56 31 222 147 241 222 147 241 130 115 140 130 115 140 130 115 140 
130 115 140 38 99 37 38 99 37 38 90 37 228 175 244 228 175 244 32 70 38 26 56 31 38 90 37 26 56 31 95 103 105 225 161 242 225 161 242 130 115 140 130 115 140 130 115 140 
130 115 140 38 90 37 38 90 37 32 70 38 38 90 37 38 90 37 38 99 37 26 56 31 32 70 38 228 175 244 235 197 253 228 175 244 228 175 244 130 115 140 130 115 140 130 115 140 
130 115 140 222 147 241 222 147 241 38 90 37 26 56 31 32 70 38 38 90 37 26 56 31 228 175 244 235 197 253 227 161 247 228 175 244 133 137 140 38 90 37 38 90 37 130 115 140 
26 56 31 124 101 136 222 147 241 222 147 241 32 70 38 26 56 31 26 56 31 32 70 38 222 147 241 246 226 255 235 197 253 235 197 253 38 99 37 38 90 37 38 90 37 130 115 140 
26 56 31 26 56 31 38 90 37 38 99 37 38 90 37 32 70 38 26 56 31 38 90 37 26 56 31 222 147 241 222 147 241 228 175 244 32 70 38 35 80 37 38 90 37 130 115 140 
26 56 31 26 56 31 26 56 31 26 56 31 38 99 37 26 56 31 32 70 38 26 56 31 32 70 38 26 56 31 38 90 37 38 99 37 97 105 105 127 108 139 130 115 140 130 115 140 
38 90 37 38 90 37 32 75 35 32 70 38 26 56 31 26 56 31 38 90 37 26 56 31 32 70 38 26 56 31 38 99 37 38 90 37 222 147 241 222 147 241 130 115 140 130 115 140 
38 90 37 38 90 37 38 99 37 38 99 37 235 197 253 246 226 255 26 56 31 32 70 38 38 90 37 26 56 31 32 70 38 38 99 37 38 90 37 35 80 37 32 70 38 130 115 140 
38 90 37 35 80 37 32 70 38 228 175 244 227 161 247 235 197 253 222 147 241 38 90 37 26 56 31 32 70 38 38 99 37 26 56 31 26 56 31 32 70 38 32 70 38 130 115 140 
130 115 140 32 70 38 133 133 145 235 197 253 228 175 244 222 147 241 38 99 37 32 70 38 26 56 31 246 226 255 235 197 253 32 70 38 29 63 34 32 70 38 32 70 38 130 115 140 
130 115 140 130 115 140 235 197 253 235 197 253 127 115 137 26 56 31 38 90 37 26 56 31 235 197 253 227 161 247 222 147 241 127 108 139 32 70 38 130 115 140 130 115 140 130 115 140 
130 115 140 130 115 140 130 115 140 130 115 140 32 70 38 32 70 38 26 56 31 38 90 37 32 70 38 228 175 244 228 175 244 228 175 244 130 115 140 130 115 140 130 115 140 130 115 140 
130 115 140 130 115 140 130 115 140 130 115 140 32 70 38 29 63 34 26 56 31 32 70 38 26 56 31 32 70 38 130 122 141 228 175 244 130 115 140 130 115 140 130 115 140 130 115 140 
130 115 140 130 115 140 130 115 140 130 115 140 130 115 140 26 56 31 26 56 31 26 56 31 26 56 31 29 63 34 32 70 38 130 115 140 130 115 140 130 115 140 130 115 140 130 115 140 
