P3
16 16
255
130 160 129 130 160 129 130 160 129 130 160 129 130 160 129 130 160 129 130 160 129 130 160 129 130 160 129 130 160 129 130 160 129 130 160 129 130 160 129 130 160 129 130 160 129 130 160 129 
130 160 129 130 160 129 130 160 129 130 160 129 130 160 129 130 160 129 130 160 129 130 160 129 130 160 129 130 160 129 130 160 129 130 160 129 130 160 129 130 160 129 130 160 129 130 160 129 
130 160 129 130 160 129 130 160 129 130 160 129 130 160 129 246 226 255 246 226 255 240 211 254 235 197 253 235 197 253 130 160 129 130 160 129 130 160 129 130 160 129 130 160 129 130 160 129 
130 160 129 130 160 129 130 160 129 130 160 129 130 160 129 246 226 255 246 226 255 242 216 254 235 197 253 235 197 253 130 160 129 130 160 129 130 160 129 130 160 129 130 160 129 130 160 129 
130 160 129 130 160 129 130 160 129 130 160 129 130 160 129 235 197 253 235 197 253 246 226 255 235 197 253 235 197 253 130 160 129 130 160 129 130 160 129 130 160 129 130 160 129 130 160 129 
130 160 129 130 160 129 130 160 129 130 160 129 130 160 129 228 175 244 228 175 244 235 197 253 228 175 244 228 175 244 130 160 129 130 160 129 130 160 129 130 160 129 130 160 129 130 160 129 
130 160 129 130 160 129 130 160 129 130 160 129 74 143 40 74 143 40 228 175 244 228 175 244 228 175 244 228 175 244 130 160 129 130 160 129 130 160 129 130 160 129 130 160 129 130 160 129 
130 160 129 130 160 129 130 160 129 130 160 129 74 143 40 74 143 40 59 140 30 23 124 4 23 124 4 74 143 40 74 143 40 130 160 129 130 160 129 130 160 129 130 160 129 130 160 129 
130 160 129 130 160 129 130 160 129 130 160 129 85 171 45 85 171 45 82 154 46 23 124 4 48 133 22 74 143 40 74 143 40 130 160 129 130 160 129 130 160 129 130 160 129 130 160 129 
130 160 129 130 160 129 130 160 129 130 160 129 85 171 45 85 171 45 85 171 45 74 143 40 57 136 28 23 124 4 23 124 4 130 160 129 130 160 129 130 160 129 130 160 129 130 160 129 
130 160 129 130 160 129 130 160 129 130 160 129 85 171 45 85 171 45 85 171 45 23 124 4 74 143 40 23 124 4 23 124 4 130 160 129 130 160 129 130 160 129 130 160 129 130 160 129 
130 160 129 130 160 129 130 160 129 130 160 129 82 154 46 82 154 46 85 171 45 23 124 4 85 171 45 23 124 4 23 124 4 130 160 129 130 160 129 130 160 129 130 160 129 130 160 129 
130 160 129 130 160 129 130 160 129 130 160 129 74 143 40 74 143 40 82 154 46 74 143 40 85 171 45 23 124 4 23 124 4 130 160 129 130 160 129 130 160 129 130 160 129 130 160 129 
130 160 129 130 160 129 130 160 129 130 160 129 74 143 40 78 148 43 82 154 46 85 171 45 23 124 4 23 124 4 23 124 4 130 160 129 130 160 129 130 160 129 130 160 129 130 160 129 
130 160 129 130 160 129 130 160 129 130 160 129 130 160 129 74 143 40 74 143 40 85 171 45 23 124 4 23 124 4 130 160 129 130 160 129 130 160 129 130 160 129 130 160 129 130 160 129 
130 160 129 130 160 129 130 160 129 130 160 129 130 160 129 74 143 40 48 133 22 23 124 4 23 124 4 23 124 4 130 160 129 130 160 129 130 160 129 130 160 129 130 160 129 130 160 129 
