P3
16 16
255
158 74 39 158 74 39 158 74 39 158 74 39 158 74 39 158 74 39 158 74 39 158 74 39 158 74 39 158 74 39 158 74 39 158 74 39 158 74 39 158 74 39 158 74 39 158 74 39 
158 74 39 158 74 39 158 74 39 158 74 39 158 74 39 158 74 39 158 74 39 158 74 39 158 74 39 158 74 39 158 74 39 158 74 39 158 74 39 158 74 39 158 74 39 158 74 39 
158 74 39 158 74 39 158 74 39 158 74 39 158 74 39 158 74 39 158 74 39 158 74 39 158 74 39 158 74 39 158 74 39 158 74 39 158 74 39 158 74 39 158 74 39 158 74 39 
158 74 39 158 74 39 158 74 39 158 74 39 158 74 39 158 74 39 158 74 39 158 74 39 158 74 39 158 74 39 158 74 39 158 74 39 158 74 39 158 74 39 158 74 39 158 74 39 
158 74 39 158 74 39 158 74 39 158 74 39 158 74 39 158 74 39 158 74 39 237 48 44 237 48 44 155 34 26 155 34 26 158 74 39 158 74 39 158 74 39 158 74 39 158 74 39 
158 74 39 158 74 39 158 74 39 158 74 39 158 74 39 237 48 44 237 48 44 214 42 42 237 48 44 155 34 26 173 35 33 191 37 41 158 74 39 158 74 39 158 74 39 158 74 39 
158 74 39 158 74 39 158 74 39 158 74 39 237 48 44 237 48 44 237 48 44 191 37 41 155 34 26 237 48 44 191 37 41 191 37 41 158 74 39 158 74 39 158 74 39 158 74 39 
158 74 39 158 74 39 158 74 39 158 74 39 237 48 44 237 48 44 191 37 41 116 35 3 191 37 41 237 48 44 155 34 26 155 34 26 158 74 39 158 74 39 158 74 39 158 74 39 
158 74 39 158 74 39 158 74 39 158 74 39 237 48 44 237 48 44 237 48 44 237 48 44 237 48 44 155 34 26 155 34 26 155 34 26 158 74 39 158 74 39 158 74 39 158 74 39 
158 74 39 158 74 39 158 74 39 158 74 39 237 48 44 214 42 42 191 37 41 32 70 38 38 90 37 96 62 31 155 34 26 158 74 39 158 74 39 158 74 39 158 74 39 158 74 39 
158 74 39 158 74 39 158 74 39 158 74 39 158 74 39 191 37 41 191 37 41 53 106 39 74 143 40 74 143 40 158 74 39 158 74 39 158 74 39 158 74 39 158 74 39 158 74 39 
158 74 39 158 74 39 158 74 39 158 74 39 158 74 39 158 74 39 158 74 39 74 143 40 74 143 40 74 143 40 158 74 39 158 74 39 158 74 39 158 74 39 158 74 39 158 74 39 
158 74 39 158 74 39 158 74 39 158 74 39 32 70 38 32 70 38 38 90 37 74 143 40 74 143 40 74 143 40 38 90 37 38 90 37 38 90 37 158 74 39 158 74 39 158 74 39 
158 74 39 158 74 39 158 74 39 158 74 39 32 70 38 32 70 38 38 90 37 40 101 39 43 112 42 37 90 39 38 90 37 38 90 37 38 90 37 158 74 39 158 74 39 158 74 39 
158 74 39 158 74 39 158 74 39 158 74 39 32 70 38 32 70 38 32 70 38 32 70 38 32 70 38 32 70 38 35 80 37 38 90 37 38 90 37 158 74 39 158 74 39 158 74 39 
158 74 39 158 74 39 158 74 39 158 74 39 158 74 39 32 70 38 32 70 38 32 70 38 38 90 37 32 70 38 32 70 38 158 74 39 158 74 39 158 74 39 158 74 39 158 74 39 
