P3
16 16
255
114 137 38 114 137 38 114 137 38 114 137 38 114 137 38 114 137 38 114 137 38 114 137 38 114 137 38 114 137 38 114 137 38 114 137 38 114 137 38 114 137 38 114 137 38 114 137 38 
114 137 38 114 137 38 114 137 38 114 137 38 114 137 38 114 137 38 114 137 38 114 137 38 114 137 38 114 137 38 114 137 38 114 137 38 114 137 38 114 137 38 114 137 38 114 137 38 
114 137 38 114 137 38 114 137 38 114 137 38 114 137 38 237 48 44 237 48 44 237 48 44 237 48 44 237 48 44 114 137 38 114 137 38 114 137 38 114 137 38 114 137 38 114 137 38 
114 137 38 114 137 38 114 137 38 114 137 38 114 137 38 237 48 44 237 48 44 243 55 50 237 48 44 237 48 44 114 137 38 114 137 38 114 137 38 114 137 38 114 137 38 114 137 38 
114 137 38 114 137 38 114 137 38 85 171 45 85 171 45 237 48 44 237 48 44 255 69 64 191 37 41 191 37 41 114 137 38 114 137 38 114 137 38 114 137 38 114 137 38 114 137 38 
114 137 38 114 137 38 114 137 38 85 171 45 85 171 45 119 120 44 191 37 41 237 48 44 155 34 26 155 34 26 114 137 38 114 137 38 114 137 38 114 137 38 114 137 38 114 137 38 
114 137 38 114 137 38 114 137 38 85 171 45 85 171 45 82 154 46 112 87 29 155 34 26 155 34 26 155 34 26 114 137 38 114 137 38 114 137 38 114 137 38 114 137 38 114 137 38 
114 137 38 114 137 38 114 137 38 82 154 46 82 154 46 85 171 45 23 124 4 82 154 46 82 154 46 85 171 45 85 171 45 23 124 4 23 124 4 114 137 38 114 137 38 114 137 38 
114 137 38 114 137 38 114 137 38 82 154 46 83 162 45 85 171 45 74 143 40 85 171 45 85 171 45 85 171 45 85 171 45 23 124 4 23 124 4 114 137 38 114 137 38 114 137 38 
114 137 38 114 137 38 114 137 38 114 137 38 74 143 40 74 143 40 85 171 45 82 154 46 80 156 43 85 171 45 23 124 4 23 124 4 23 124 4 114 137 38 114 137 38 114 137 38 
114 137 38 114 137 38 114 137 38 114 137 38 74 143 40 74 143 40 85 171 45 82 154 46 74 143 40 85 171 45 23 124 4 23 124 4 114 137 38 114 137 38 114 137 38 114 137 38 
114 137 38 114 137 38 114 137 38 114 137 38 23 124 4 23 124 4 74 143 40 82 154 46 82 154 46 23 124 4 23 124 4 23 124 4 114 137 38 114 137 38 114 137 38 114 137 38 
114 137 38 114 137 38 114 137 38 114 137 38 23 124 4 23 124 4 74 143 40 85 171 45 74 143 40 23 124 4 23 124 4 114 137 38 114 137 38 114 137 38 114 137 38 114 137 38 
114 137 38 114 137 38 114 137 38 114 137 38 23 124 4 23 124 4 23 124 4 85 171 45 23 124 4 23 124 4 23 124 4 114 137 38 114 137 38 114 137 38 114 137 38 114 137 38 
114 137 38 114 137 38 114 137 38 114 137 38 114 137 38 23 124 4 23 124 4 82 154 46 23 124 4 23 124 4 114 137 38 114 137 38 114 137 38 114 137 38 114 137 38 114 137 38 
114 137 38 114 137 38 114 137 38 114 137 38 114 137 38 23 124 4 23 124 4 23 124 4 23 124 4 23 124 4 114 137 38 114 137 38 114 137 38 114 137 38 114 137 38 114 137 38 
