P3
16 16
255
229 239 218 229 239 218 150 193 102 150 193 102 170 219 116 170 219 116 130 168 89 130 168 89 170 219 116 170 219 116 130 168 89 130 168 89 170 219 116 170 219 116 130 168 89 130 168 89 
130 168 89 130 168 89 105 135 71 125 187 60 170 219 116 170 219 116 130 168 89 130 168 89 170 219 116 170 219 116 130 168 89 123 180 64 229 239 218 229 239 218 150 193 102 150 193 102 
170 219 116 170 219 116 130 168 89 145 239 50 157 229 83 170 219 116 130 168 89 137 203 69 170 219 116 170 219 116 130 168 89 117 193 40 123 180 64 130 168 89 105 135 71 105 135 71 
170 219 116 170 219 116 130 168 89 117 193 40 143 206 78 170 219 116 130 168 89 145 239 50 157 229 83 170 219 116 130 168 89 123 180 64 170 219 116 170 219 116 130 168 89 130 168 89 
170 219 116 170 219 116 130 168 89 123 180 64 229 239 218 229 239 218 150 193 102 117 193 40 143 206 78 170 219 116 130 168 89 130 168 89 170 219 116 170 219 116 130 168 89 130 168 89 
170 219 116 170 219 116 130 168 89 130 168 89 130 168 89 130 168 89 105 135 71 111 164 55 229 239 218 229 239 218 150 193 102 150 193 102 170 219 116 170 219 116 130 168 89 137 203 69 
170 219 116 170 219 116 130 168 89 130 168 89 170 219 116 170 219 116 130 168 89 130 168 89 130 168 89 130 168 89 105 135 71 105 135 71 170 219 116 170 219 116 130 168 89 145 239 50 
157 229 83 170 219 116 130 168 89 130 168 89 170 219 116 170 219 116 130 168 89 130 168 89 170 219 116 170 219 116 130 168 89 130 168 89 170 219 116 170 219 116 130 168 89 117 193 40 
145 239 50 229 239 218 150 193 102 150 193 102 170 219 116 170 219 116 130 168 89 130 168 89 170 219 116 170 219 116 130 168 89 130 168 89 170 219 116 170 219 116 130 168 89 123 180 64 
117 193 40 130 168 89 105 135 71 105 135 71 143 206 78 170 219 116 130 168 89 130 168 89 157 229 83 170 219 116 130 168 89 130 168 89 229 239 218 229 239 218 150 193 102 150 193 102 
143 206 78 170 219 116 130 168 89 123 180 64 117 193 40 229 239 218 150 193 102 147 216 76 145 239 50 170 219 116 130 168 89 130 168 89 130 168 89 130 168 89 105 135 71 105 135 71 
170 219 116 170 219 116 130 168 89 130 168 89 123 180 64 130 168 89 105 135 71 111 164 55 117 193 40 170 219 116 130 168 89 130 168 89 170 219 116 170 219 116 130 168 89 130 168 89 
170 219 116 170 219 116 130 168 89 130 168 89 170 219 116 170 219 116 130 168 89 130 168 89 143 206 78 170 219 116 130 168 89 130 168 89 143 206 78 170 219 116 130 168 89 130 168 89 
170 219 116 170 219 116 130 168 89 130 168 89 170 219 116 170 219 116 130 168 89 130 168 89 229 239 218 229 239 218 150 193 102 133 193 71 117 193 40 170 219 116 130 168 89 130 168 89 
170 219 116 170 219 116 130 168 89 130 168 89 170 219 116 170 219 116 130 168 89 130 168 89 130 168 89 130 168 89 105 135 71 105 135 71 143 206 78 170 219 116 130 168 89 130 168 89 
170 219 116 170 219 116 130 168 89 130 168 89 170 219 116 170 219 116 130 168 89 130 168 89 170 219 116 170 219 116 130 168 89 130 168 89 170 219 116 170 219 116 130 168 89 130 168 89 
