P3
16 16
255
96 129 59 96 127 59 96 127 59 102 135 63 108 143 67 108 143 67 108 143 67 117 155 72 126 168 78 105 142 65 84 116 52 126 168 78 108 143 67 96 127 59 96 127 59 96 129 59 
96 129 59 108 143 67 108 143 67 102 135 63 96 127 59 102 135 63 108 143 67 117 155 72 126 168 78 126 168 78 105 142 65 126 168 78 114 151 70 108 143 67 108 143 67 96 129 59 
108 143 67 108 143 67 108 143 67 108 143 67 108 143 67 117 155 72 126 168 78 117 155 72 108 143 67 108 143 67 108 143 67 108 143 67 117 155 72 126 168 78 117 155 72 108 143 67 
108 143 67 108 143 67 108 143 67 111 147 68 126 168 78 126 168 78 126 168 78 111 147 68 96 127 59 102 135 63 108 143 67 84 116 52 105 142 65 126 168 78 108 143 67 108 143 67 
102 135 63 96 127 59 96 127 59 96 127 59 126 168 78 117 155 72 108 143 67 93 124 57 96 127 59 102 135 63 108 143 67 96 129 59 126 168 78 126 168 78 84 116 52 84 116 52 
108 143 67 96 127 59 96 127 59 96 127 59 108 143 67 108 143 67 108 143 67 75 104 46 108 143 67 108 143 67 108 143 67 108 143 67 108 143 67 108 143 67 84 116 52 84 116 52 
108 143 67 108 143 67 102 135 63 96 127 59 84 116 52 90 121 55 96 127 59 75 104 46 126 168 78 99 133 61 96 127 59 96 127 59 108 143 67 108 143 67 84 116 52 84 116 52 
84 116 52 126 168 78 95 129 58 84 116 52 84 116 52 85 115 52 96 127 59 75 104 46 126 168 78 75 104 46 96 127 59 96 127 59 102 135 63 108 143 67 84 116 52 84 116 52 
105 142 65 126 168 78 75 104 46 84 116 52 79 110 49 75 104 46 96 127 59 75 104 46 126 168 78 75 104 46 84 116 52 96 127 59 111 147 68 126 168 78 75 104 46 75 104 46 
91 123 56 108 143 67 75 104 46 108 143 67 96 129 59 84 116 52 84 116 52 75 104 46 108 143 67 75 104 46 84 116 52 108 143 67 103 138 63 126 168 78 75 104 46 75 104 46 
75 104 46 96 127 59 75 104 46 126 168 78 99 133 61 96 127 59 84 116 52 75 104 46 108 143 67 84 116 52 75 104 46 126 168 78 75 104 46 126 168 78 84 116 52 75 104 46 
96 127 59 84 116 52 75 104 46 126 168 78 75 104 46 108 143 67 84 116 52 75 104 46 96 127 59 96 127 59 75 104 46 126 168 78 75 104 46 108 143 67 84 116 52 75 104 46 
108 143 67 75 104 46 75 104 46 108 143 67 75 104 46 96 127 59 75 104 46 108 143 67 84 116 52 96 127 59 75 104 46 108 143 67 75 104 46 96 127 59 108 143 67 75 104 46 
108 143 67 75 104 46 84 116 52 96 127 59 75 104 46 84 116 52 75 104 46 108 143 67 75 104 46 96 127 59 75 104 46 96 127 59 96 127 59 75 104 46 108 143 67 75 104 46 
96 127 59 75 104 46 96 127 59 84 116 52 75 104 46 84 116 52 75 104 46 96 127 59 75 104 46 84 116 52 75 104 46 84 116 52 96 127 59 75 104 46 96 127 59 75 104 46 
84 116 52 75 104 46 84 116 52 75 104 46 75 104 46 84 116 52 75 104 46 84 116 52 75 104 46 84 116 52 75 104 46 84 116 52 75 104 46 84 116 52 84 116 52 75 104 46 
