P3
16 16
255
117 169 112 117 169 112 117 169 112 117 169 112 117 169 112 117 169 112 117 169 112 117 169 112 117 169 112 117 169 112 117 169 112 117 169 112 117 169 112 117 169 112 117 169 112 117 169 112 
117 169 112 117 169 112 117 169 112 117 169 112 117 169 112 117 169 112 117 169 112 117 169 112 117 169 112 117 169 112 117 169 112 117 169 112 117 169 112 117 169 112 117 169 112 117 169 112 
117 169 112 117 169 112 117 169 112 117 169 112 117 169 112 247 247 247 247 247 247 230 239 239 214 232 232 214 232 232 117 169 112 117 169 112 117 169 112 117 169 112 117 169 112 117 169 112 
117 169 112 117 169 112 117 169 112 117 169 112 117 169 112 247 247 247 247 247 247 236 242 242 214 232 232 214 232 232 117 169 112 117 169 112 117 169 112 117 169 112 117 169 112 117 169 112 
117 169 112 117 169 112 117 169 112 117 169 112 117 169 112 247 247 247 247 247 247 247 247 247 214 232 232 214 232 232 117 169 112 117 169 112 117 169 112 117 169 112 117 169 112 117 169 112 
117 169 112 117 169 112 117 169 112 117 169 112 117 169 112 155 189 189 155 189 189 214 232 232 155 189 189 155 189 189 23 124 4 23 124 4 117 169 112 117 169 112 117 169 112 117 169 112 
117 169 112 117 169 112 117 169 112 117 169 112 117 169 112 155 189 189 155 189 189 155 189 189 155 189 189 48 133 22 23 124 4 23 124 4 117 169 112 117 169 112 117 169 112 117 169 112 
117 169 112 117 169 112 117 169 112 117 169 112 117 169 112 117 169 112 23 124 4 23 124 4 40 130 16 74 143 40 85 171 45 85 171 45 117 169 112 117 169 112 117 169 112 117 169 112 
117 169 112 117 169 112 117 169 112 117 169 112 117 169 112 117 169 112 82 154 46 82 154 46 23 124 4 85 171 45 85 171 45 85 171 45 117 169 112 117 169 112 117 169 112 117 169 112 
117 169 112 117 169 112 117 169 112 85 171 45 85 171 45 85 171 45 85 171 45 85 171 45 23 124 4 85 171 45 82 154 46 82 154 46 117 169 112 117 169 112 117 169 112 117 169 112 
117 169 112 117 169 112 117 169 112 85 171 45 85 171 45 85 171 45 84 165 45 85 171 45 82 154 46 85 171 45 23 124 4 23 124 4 117 169 112 117 169 112 117 169 112 117 169 112 
117 169 112 117 169 112 117 169 112 74 143 40 74 143 40 85 171 45 82 154 46 85 171 45 82 154 46 82 154 46 52 139 25 23 124 4 117 169 112 117 169 112 117 169 112 117 169 112 
117 169 112 117 169 112 117 169 112 74 143 40 74 143 40 74 143 40 85 171 45 82 154 46 74 143 40 23 124 4 23 124 4 117 169 112 117 169 112 117 169 112 117 169 112 117 169 112 
117 169 112 117 169 112 117 169 112 117 169 112 74 143 40 79 157 42 85 171 45 82 154 46 23 124 4 23 124 4 23 124 4 117 169 112 117 169 112 117 169 112 117 169 112 117 169 112 
117 169 112 117 169 112 117 169 112 117 169 112 117 169 112 23 124 4 23 124 4 74 143 40 23 124 4 23 124 4 117 169 112 117 169 112 117 169 112 117 169 112 117 169 112 117 169 112 
117 169 112 117 169 112 117 169 112 117 169 112 117 169 112 23 124 4 23 124 4 23 124 4 23 124 4 23 124 4 117 169 112 117 169 112 117 169 112 117 169 112 117 169 112 117 169 112 
