P3
16 16
255
73 73 73 73 73 73 66 66 66 66 66 66 66 66 66 74 74 74 74 74 74 74 74 74 82 82 82 82 82 82 74 74 74 66 66 66 66 66 66 66 66 66 73 73 73 73 73 73 
73 73 73 73 73 73 66 66 66 66 66 66 74 74 74 82 82 82 82 82 82 82 82 82 82 82 82 74 74 74 74 74 74 74 74 74 66 66 66 66 66 66 73 73 73 73 73 73 
73 73 73 73 73 73 61 61 61 61 61 61 74 74 74 74 74 74 74 74 74 82 82 82 82 82 82 82 82 82 82 82 82 82 82 82 74 74 74 74 74 74 73 73 73 73 73 73 
73 73 73 73 73 73 56 56 56 56 56 56 66 66 66 82 82 82 82 82 82 82 82 82 74 74 74 66 66 66 66 66 66 74 74 74 66 66 66 66 66 66 73 73 73 73 73 73 
73 73 73 73 73 73 56 56 56 56 56 56 74 74 74 82 82 82 82 82 82 82 82 82 82 82 82 82 82 82 74 74 74 66 66 66 61 61 61 61 61 61 73 73 73 73 73 73 
73 73 73 73 73 73 61 61 61 61 61 61 61 61 61 66 66 66 74 74 74 74 74 74 82 82 82 74 74 74 74 74 74 74 74 74 61 61 61 61 61 61 73 73 73 73 73 73 
73 73 73 73 73 73 61 61 61 61 61 61 66 66 66 74 74 74 82 82 82 82 82 82 82 82 82 82 82 82 82 82 82 82 82 82 61 61 61 61 61 61 73 73 73 73 73 73 
73 73 73 73 73 73 61 61 61 61 61 61 74 74 74 82 82 82 82 82 82 82 82 82 74 74 74 66 66 66 74 74 74 82 82 82 66 66 66 66 66 66 73 73 73 73 73 73 
73 73 73 73 73 73 56 56 56 56 56 56 82 82 82 82 82 82 82 82 82 82 82 82 82 82 82 74 74 74 74 74 74 66 66 66 66 66 66 66 66 66 73 73 73 73 73 73 
73 73 73 73 73 73 61 61 61 61 61 61 82 82 82 74 74 74 74 74 74 82 82 82 82 82 82 82 82 82 74 74 74 74 74 74 66 66 66 66 66 66 73 73 73 73 73 73 
73 73 73 73 73 73 61 61 61 61 61 61 74 74 74 66 66 66 66 66 66 66 66 66 74 74 74 82 82 82 82 82 82 74 74 74 61 61 61 61 61 61 73 73 73 73 73 73 
73 73 73 73 73 73 61 61 61 61 61 61 66 66 66 74 74 74 82 82 82 82 82 82 82 82 82 74 74 74 74 74 74 74 74 74 61 61 61 61 61 61 73 73 73 73 73 73 
73 73 73 73 73 73 61 61 61 61 61 61 66 66 66 66 66 66 74 74 74 82 82 82 82 82 82 82 82 82 82 82 82 74 74 74 61 61 61 61 61 61 73 73 73 73 73 73 
73 73 73 73 73 73 66 66 66 66 66 66 74 74 74 82 82 82 82 82 82 82 82 82 82 82 82 74 74 74 74 74 74 66 66 66 61 61 61 61 61 61 73 73 73 73 73 73 
73 73 73 73 73 73 66 66 66 66 66 66 66 66 66 74 74 74 74 74 74 74 74 74 66 66 66 66 66 66 66 66 66 66 66 66 56 56 56 56 56 56 73 73 73 73 73 73 
73 73 73 73 73 73 56 56 56 56 56 56 66 66 66 66 66 66 66 66 66 66 66 66 61 61 61 66 66 66 61 61 61 61 61 61 56 56 56 56 56 56 73 73 73 73 73 73 
