P3
16 16
255
61 61 61 61 61 61 66 66 66 66 66 66 74 74 74 74 74 74 90 90 90 90 90 90 90 90 90 90 90 90 82 82 82 82 82 82 74 74 74 66 66 66 61 61 61 61 61 61 
61 61 61 66 66 66 74 74 74 82 82 82 82 82 82 90 90 90 90 90 90 90 90 90 82 82 82 82 82 82 82 82 82 82 82 82 82 82 82 74 74 74 66 66 66 61 61 61 
61 61 61 61 61 61 74 74 74 74 74 74 74 74 74 82 82 82 82 82 82 82 82 82 82 82 82 82 82 82 90 90 90 90 90 90 74 74 74 82 82 82 74 74 74 61 61 61 
61 61 61 66 66 66 66 66 66 74 74 74 82 82 82 82 82 82 82 82 82 82 82 82 90 90 90 90 90 90 90 90 90 82 82 82 82 82 82 74 74 74 66 66 66 66 66 66 
61 61 61 74 74 74 74 74 74 66 66 66 74 74 74 74 74 74 82 82 82 82 82 82 82 82 82 82 82 82 82 82 82 82 82 82 74 74 74 82 82 82 82 82 82 61 61 61 
56 56 56 61 61 61 66 66 66 74 74 74 74 74 74 66 66 66 75 75 75 82 82 82 82 82 82 74 74 74 74 74 74 74 74 74 66 66 66 61 61 61 61 61 61 56 56 56 
61 61 61 66 66 66 74 74 74 74 74 74 66 66 66 61 61 61 61 61 61 66 66 66 74 74 74 74 74 74 74 74 74 66 66 66 66 66 66 66 66 66 56 56 56 56 56 56 
61 61 61 66 66 66 66 66 66 74 74 74 74 74 74 74 74 74 66 66 66 66 66 66 74 74 74 74 74 74 74 74 74 74 74 74 82 82 82 74 74 74 61 61 61 56 56 56 
61 61 61 61 61 61 66 66 66 66 66 66 74 74 74 74 74 74 66 66 66 66 66 66 66 66 66 74 74 74 82 82 82 82 82 82 82 82 82 82 82 82 74 74 74 61 61 61 
56 56 56 61 61 61 66 66 66 74 74 74 74 74 74 74 74 74 74 74 74 66 66 66 61 61 61 66 66 66 82 82 82 82 82 82 74 74 74 66 66 66 61 61 61 61 61 61 
56 56 56 61 61 61 61 61 61 66 66 66 66 66 66 66 66 66 61 61 61 61 61 61 66 66 66 74 74 74 74 74 74 74 74 74 66 66 66 61 61 61 61 61 61 61 61 61 
56 56 56 61 61 61 66 66 66 66 66 66 61 61 61 61 61 61 66 66 66 66 66 66 74 74 74 74 74 74 66 66 66 61 61 61 61 61 61 61 61 61 61 61 61 56 56 56 
56 56 56 56 56 56 56 56 56 61 61 61 61 61 61 56 56 56 61 61 61 66 66 66 66 66 66 61 61 61 61 61 61 61 61 61 61 61 61 56 56 56 56 56 56 56 56 56 
56 56 56 61 61 61 66 66 66 66 66 66 66 66 66 61 61 61 56 56 56 56 56 56 61 61 61 61 61 61 61 61 61 66 66 66 66 66 66 66 66 66 61 61 61 61 61 61 
56 56 56 56 56 56 61 61 61 66 66 66 66 66 66 66 66 66 61 61 61 61 61 61 61 61 61 61 61 61 66 66 66 66 66 66 61 61 61 56 56 56 56 56 56 56 56 56 
56 56 56 56 56 56 56 56 56 61 61 61 61 61 61 66 66 66 66 66 66 66 66 66 61 61 61 61 61 61 61 61 61 56 56 56 56 56 56 56 56 56 56 56 56 56 56 56 
