P3
16 16
255
190 209 162 190 209 162 190 209 162 190 209 162 190 209 162 190 209 162 190 209 162 190 209 162 190 209 162 190 209 162 190 209 162 190 209 162 190 209 162 190 209 162 190 209 162 190 209 162 
190 209 162 190 209 162 190 209 162 190 209 162 190 209 162 190 209 162 190 209 162 190 209 162 190 209 162 190 209 162 190 209 162 190 209 162 190 209 162 190 209 162 190 209 162 190 209 162 
190 209 162 190 209 162 190 209 162 190 209 162 190 209 162 190 209 162 190 209 162 190 209 162 190 209 162 190 209 162 190 209 162 190 209 162 190 209 162 190 209 162 190 209 162 190 209 162 
190 209 162 190 209 162 190 209 162 190 209 162 190 209 162 190 209 162 190 209 162 190 209 162 190 209 162 190 209 162 190 209 162 190 209 162 190 209 162 190 209 162 190 209 162 190 209 162 
190 209 162 190 209 162 190 209 162 190 209 162 190 209 162 190 209 162 190 209 162 190 209 162 190 209 162 190 209 162 190 209 162 190 209 162 190 209 162 190 209 162 190 209 162 190 209 162 
190 209 162 190 209 162 190 209 162 190 209 162 190 209 162 190 209 162 214 232 232 214 232 232 214 232 232 190 209 162 190 209 162 190 209 162 190 209 162 190 209 162 190 209 162 190 209 162 
190 209 162 190 209 162 190 209 162 190 209 162 255 236 79 255 236 79 230 239 239 214 232 232 214 232 232 214 232 232 190 209 162 190 209 162 190 209 162 190 209 162 190 209 162 190 209 162 
190 209 162 190 209 162 190 209 162 190 209 162 255 236 79 255 236 79 247 247 247 255 236 79 214 232 232 230 239 239 255 236 79 255 236 79 190 209 162 190 209 162 190 209 162 190 209 162 
190 209 162 190 209 162 255 236 79 255 236 79 230 239 239 214 232 232 82 154 46 85 171 45 198 224 192 247 247 247 255 236 79 255 236 79 190 209 162 190 209 162 190 209 162 190 209 162 
190 209 162 190 209 162 255 236 79 255 236 79 247 247 247 225 237 237 214 232 232 247 247 247 247 247 247 85 171 45 214 232 232 214 232 232 190 209 162 190 209 162 190 209 162 190 209 162 
190 209 162 190 209 162 247 247 247 247 247 247 85 171 45 81 161 43 74 143 40 214 232 232 255 236 79 82 154 46 181 211 175 255 236 79 255 236 79 190 209 162 190 209 162 190 209 162 
190 209 162 190 209 162 247 247 247 160 195 143 74 143 40 85 171 45 82 154 46 115 173 92 82 154 46 137 185 113 247 247 247 255 236 79 255 236 79 190 209 162 190 209 162 190 209 162 
190 209 162 190 209 162 190 209 162 74 143 40 160 195 143 247 247 247 255 236 79 82 154 46 85 171 45 85 171 45 85 171 45 214 232 232 214 232 232 190 209 162 190 209 162 190 209 162 
190 209 162 190 209 162 190 209 162 190 209 162 247 247 247 247 247 247 214 232 232 85 171 45 85 171 45 85 171 45 85 171 45 214 232 232 214 232 232 190 209 162 190 209 162 190 209 162 
190 209 162 190 209 162 190 209 162 190 209 162 247 247 247 247 247 247 149 201 138 85 171 45 82 154 46 83 162 45 85 171 45 190 209 162 190 209 162 190 209 162 190 209 162 190 209 162 
190 209 162 190 209 162 190 209 162 190 209 162 190 209 162 190 209 162 74 143 40 74 143 40 78 148 43 82 154 46 190 209 162 190 209 162 190 209 162 190 209 162 190 209 162 190 209 162 
