P3
16 16
255
240 238 235 240 238 235 222 211 213 216 216 206 216 216 206 240 238 235 240 238 235 240 238 235 216 216 206 222 211 213 240 238 235 240 238 235 216 216 206 216 216 206 240 238 235 240 238 235 
216 216 206 222 211 213 240 238 235 240 238 235 240 238 235 240 238 235 255 255 255 255 255 255 255 255 255 240 238 235 216 216 206 222 211 213 222 211 213 222 211 213 216 216 206 240 238 235 
255 255 255 255 255 255 255 255 255 222 211 213 222 211 213 216 216 206 240 238 235 255 255 255 240 238 235 240 238 235 240 238 235 240 238 235 216 216 206 240 238 235 255 255 255 255 255 255 
255 255 255 255 255 255 216 216 206 190 190 174 96 94 84 54 52 42 54 52 42 96 94 84 216 216 206 240 238 235 255 255 255 255 255 255 255 255 255 255 255 255 216 216 206 255 255 255 
216 216 206 240 238 235 240 238 235 216 216 206 190 190 174 96 94 84 96 94 84 54 52 42 96 94 84 216 216 206 255 255 255 255 255 255 240 238 235 216 216 206 96 94 84 190 190 174 
96 94 84 96 94 84 216 216 206 216 216 206 240 238 235 216 216 206 222 211 213 222 211 213 216 216 206 240 238 235 216 216 206 216 216 206 216 216 206 96 94 84 54 52 42 54 52 42 
96 94 84 190 190 174 240 238 235 240 238 235 216 216 206 222 211 213 222 211 213 240 238 235 255 255 255 255 255 255 255 255 255 240 238 235 240 238 235 238 241 234 216 216 206 190 190 174 
216 216 206 222 211 213 216 216 206 255 255 255 255 255 255 255 255 255 255 255 255 255 255 255 255 255 255 216 216 206 216 216 206 222 211 213 238 241 234 238 241 234 240 238 235 216 216 206 
255 255 255 240 238 235 216 216 206 216 216 206 240 238 235 255 255 255 255 255 255 238 241 234 238 241 234 255 255 255 255 255 255 255 255 255 255 255 255 238 241 234 255 255 255 255 255 255 
255 255 255 255 255 255 240 238 235 222 211 213 222 211 213 238 241 234 238 241 234 238 241 234 255 255 255 255 255 255 255 255 255 240 238 235 240 238 235 216 216 206 216 216 206 240 238 235 
216 216 206 216 216 206 240 238 235 255 255 255 255 255 255 255 255 255 255 255 255 240 238 235 240 238 235 240 238 235 216 216 206 222 211 213 222 211 213 255 255 255 255 255 255 240 238 235 
216 216 206 240 238 235 255 255 255 255 255 255 255 255 255 255 255 255 240 238 235 255 255 255 255 255 255 255 255 255 255 255 255 238 241 234 255 255 255 255 255 255 240 238 235 216 216 206 
222 211 213 222 211 213 216 216 206 240 238 235 240 238 235 216 216 206 216 216 206 240 238 235 240 238 235 255 255 255 238 241 234 238 241 234 216 216 206 190 190 174 96 94 84 54 52 42 
54 52 42 190 190 174 240 238 235 240 238 235 255 255 255 255 255 255 255 255 255 240 238 235 216 216 206 222 211 213 222 211 213 216 216 206 96 94 84 54 52 42 54 52 42 54 52 42 
54 52 42 54 52 42 96 94 84 216 216 206 216 216 206 216 216 206 255 255 255 255 255 255 255 255 255 240 238 235 96 94 84 96 94 84 216 216 206 190 190 174 96 94 84 96 94 84 
240 238 235 216 216 206 216 216 206 96 94 84 240 238 235 255 255 255 255 255 255 255 255 255 240 238 235 222 211 213 216 216 206 216 216 206 240 238 235 216 216 206 216 216 206 240 238 235 
