P3
16 16
255
25 20 12 14 11 6 14 11 6 25 20 12 65 35 14 115 57 32 115 57 32 115 57 32 115 57 32 115 57 32 115 57 32 65 35 14 26 21 13 14 11 6 26 21 13 25 20 12 
14 11 6 188 152 98 188 152 98 65 35 14 158 89 50 174 105 60 174 105 60 174 105 60 174 105 60 174 105 60 174 105 60 158 89 50 65 35 14 188 152 98 188 152 98 14 11 6 
14 11 6 188 152 98 65 35 14 174 105 60 174 105 60 174 105 60 174 105 60 174 105 60 174 105 60 174 105 60 174 105 60 174 105 60 174 105 60 65 35 14 188 152 98 14 11 6 
25 20 12 65 35 14 174 105 60 85 56 36 75 43 24 85 56 36 85 56 36 85 56 36 75 43 24 75 43 24 75 43 24 75 43 24 85 56 36 174 105 60 65 35 14 25 20 12 
65 35 14 158 89 50 174 105 60 85 56 36 158 89 50 174 105 60 85 56 36 174 105 60 174 105 60 75 43 24 174 105 60 174 105 60 85 56 36 174 105 60 158 89 50 65 35 14 
115 57 32 174 105 60 174 105 60 85 56 36 174 105 60 174 105 60 75 43 24 158 89 50 174 105 60 85 56 36 158 89 50 174 105 60 85 56 36 174 105 60 174 105 60 115 57 32 
115 57 32 174 105 60 174 105 60 85 56 36 85 56 36 75 43 24 85 56 36 85 56 36 75 43 24 85 56 36 85 56 36 75 43 24 85 56 36 174 105 60 174 105 60 115 57 32 
115 57 32 174 105 60 174 105 60 85 56 36 174 105 60 174 105 60 85 56 36 174 105 60 174 105 60 85 56 36 174 105 60 174 105 60 85 56 36 174 105 60 174 105 60 115 57 32 
115 57 32 174 105 60 174 105 60 85 56 36 174 105 60 174 105 60 85 56 36 174 105 60 174 105 60 85 56 36 174 105 60 174 105 60 85 56 36 174 105 60 174 105 60 115 57 32 
115 57 32 174 105 60 174 105 60 75 43 24 75 43 24 75 43 24 85 56 36 75 43 24 75 43 24 85 56 36 85 56 36 75 43 24 85 56 36 174 105 60 174 105 60 115 57 32 
115 57 32 174 105 60 174 105 60 75 43 24 158 89 50 174 105 60 75 43 24 174 105 60 158 89 50 75 43 24 174 105 60 174 105 60 85 56 36 174 105 60 174 105 60 115 57 32 
65 35 14 158 89 50 174 105 60 85 56 36 158 89 50 174 105 60 75 43 24 174 105 60 174 105 60 75 43 24 158 89 50 174 105 60 85 56 36 174 105 60 158 89 50 65 35 14 
26 21 13 65 35 14 174 105 60 85 56 36 85 56 36 75 43 24 85 56 36 85 56 36 85 56 36 85 56 36 85 56 36 85 56 36 85 56 36 174 105 60 65 35 14 26 21 13 
14 11 6 188 152 98 65 35 14 174 105 60 174 105 60 174 105 60 174 105 60 174 105 60 174 105 60 174 105 60 174 105 60 174 105 60 174 105 60 65 35 14 188 152 98 14 11 6 
26 21 13 188 152 98 188 152 98 65 35 14 158 89 50 174 105 60 174 105 60 174 105 60 174 105 60 174 105 60 174 105 60 158 89 50 65 35 14 188 152 98 188 152 98 26 21 13 
25 20 12 26 21 13 14 11 6 26 21 13 65 35 14 115 57 32 115 57 32 115 57 32 115 57 32 115 57 32 115 57 32 65 35 14 25 20 12 14 11 6 14 11 6 25 20 12 
