P3
16 16
255
25 20 12 175 143 85 184 148 95 194 157 98 194 157 98 56 33 22 115 57 32 75 43 24 75 43 24 115 57 32 56 33 22 194 157 98 194 157 98 194 157 98 184 148 95 25 20 12 
25 20 12 184 148 95 175 143 85 175 143 85 150 116 65 159 132 77 56 33 22 75 43 24 75 43 24 56 33 22 175 143 85 175 143 85 184 148 95 184 148 95 159 132 77 25 20 12 
25 20 12 184 148 95 184 148 95 184 148 95 175 143 85 184 148 95 175 143 85 38 32 18 38 32 18 159 132 77 159 132 77 175 143 85 175 143 85 184 148 95 184 148 95 25 20 12 
25 20 12 126 98 55 126 98 55 150 116 65 150 116 65 126 98 55 103 80 44 27 22 13 27 22 13 126 98 55 103 80 44 126 98 55 103 80 44 103 80 44 126 98 55 25 20 12 
25 20 12 194 157 98 159 132 77 194 157 98 194 157 98 194 157 98 194 157 98 75 43 24 75 43 24 194 157 98 194 157 98 184 148 95 175 143 85 175 143 85 159 132 77 25 20 12 
25 20 12 184 148 95 184 148 95 65 35 14 159 132 77 65 35 14 159 132 77 56 33 22 56 33 22 175 143 85 175 143 85 184 148 95 184 148 95 184 148 95 184 148 95 25 20 12 
25 20 12 159 132 77 175 143 85 40 30 11 175 143 85 40 30 11 175 143 85 56 33 22 56 33 22 184 148 95 184 148 95 175 143 85 175 143 85 159 132 77 159 132 77 25 20 12 
25 20 12 103 80 44 126 98 55 126 98 55 216 216 216 126 98 55 103 80 44 27 22 13 27 22 13 103 80 44 126 98 55 126 98 55 126 98 55 150 116 65 126 98 55 25 20 12 
25 20 12 194 157 98 194 157 98 216 216 216 175 143 85 216 216 216 194 157 98 75 43 24 75 43 24 194 157 98 194 157 98 194 157 98 194 157 98 194 157 98 184 148 95 25 20 12 
25 20 12 175 143 85 184 148 95 181 181 181 184 148 95 181 181 181 175 143 85 56 33 22 56 33 22 159 132 77 175 143 85 159 132 77 175 143 85 159 132 77 159 132 77 25 20 12 
25 20 12 184 148 95 175 143 85 175 143 85 159 132 77 159 132 77 159 132 77 56 33 22 56 33 22 175 143 85 175 143 85 175 143 85 159 132 77 159 132 77 184 148 95 25 20 12 
25 20 12 103 80 44 126 98 55 150 116 65 150 116 65 126 98 55 103 80 44 17 14 8 17 14 8 126 98 55 150 116 65 126 98 55 126 98 55 103 80 44 103 80 44 25 20 12 
25 20 12 159 132 77 184 148 95 194 157 98 194 157 98 184 148 95 184 148 95 75 43 24 75 43 24 194 157 98 194 157 98 159 132 77 194 157 98 184 148 95 194 157 98 25 20 12 
25 20 12 175 143 85 184 148 95 184 148 95 159 132 77 159 132 77 175 143 85 56 33 22 56 33 22 184 148 95 184 148 95 175 143 85 184 148 95 175 143 85 175 143 85 25 20 12 
25 20 12 159 132 77 159 132 77 175 143 85 184 148 95 175 143 85 159 132 77 56 33 22 56 33 22 184 148 95 175 143 85 159 132 77 159 132 77 159 132 77 159 132 77 25 20 12 
27 22 13 126 98 55 126 98 55 103 80 44 103 80 44 126 98 55 150 116 65 25 20 12 27 22 13 126 98 55 103 80 44 126 98 55 103 80 44 103 80 44 103 80 44 27 22 13 
