P3
16 16
255
183 180 53 183 180 53 183 180 53 183 180 53 183 180 53 183 180 53 183 180 53 183 180 53 183 180 53 183 180 53 183 180 53 183 180 53 183 180 53 183 180 53 183 180 53 183 180 53 
183 180 53 183 180 53 183 180 53 183 180 53 183 180 53 183 180 53 183 180 53 183 180 53 183 180 53 183 180 53 183 180 53 183 180 53 183 180 53 183 180 53 183 180 53 183 180 53 
183 180 53 183 180 53 183 180 53 183 180 53 183 180 53 183 180 53 183 180 53 183 180 53 183 180 53 183 180 53 183 180 53 183 180 53 183 180 53 183 180 53 183 180 53 183 180 53 
183 180 53 183 180 53 183 180 53 183 180 53 183 180 53 183 180 53 183 180 53 183 180 53 183 180 53 183 180 53 183 180 53 183 180 53 183 180 53 183 180 53 183 180 53 183 180 53 
183 180 53 183 180 53 183 180 53 183 180 53 183 180 53 183 180 53 183 180 53 183 180 53 183 180 53 183 180 53 183 180 53 183 180 53 183 180 53 183 180 53 183 180 53 183 180 53 
183 180 53 183 180 53 183 180 53 183 180 53 183 180 53 183 180 53 183 180 53 183 180 53 183 180 53 183 180 53 183 180 53 183 180 53 183 180 53 183 180 53 183 180 53 183 180 53 
183 180 53 183 180 53 183 180 53 183 180 53 183 180 53 183 180 53 255 236 79 255 236 79 255 236 79 255 236 79 183 180 53 183 180 53 183 180 53 183 180 53 183 180 53 183 180 53 
183 180 53 183 180 53 183 180 53 183 180 53 183 180 53 255 236 79 255 236 79 255 236 79 255 236 79 255 236 79 255 236 79 183 180 53 183 180 53 183 180 53 183 180 53 183 180 53 
183 180 53 183 180 53 183 180 53 183 180 53 255 236 79 255 236 79 255 236 79 254 214 57 241 157 37 255 236 79 255 236 79 255 236 79 183 180 53 183 180 53 183 180 53 183 180 53 
183 180 53 183 180 53 183 180 53 183 180 53 255 236 79 255 236 79 241 157 37 255 236 79 189 106 34 254 214 57 255 236 79 255 236 79 183 180 53 183 180 53 183 180 53 183 180 53 
183 180 53 183 180 53 183 180 53 183 180 53 255 236 79 255 236 79 255 236 79 189 106 34 254 214 57 255 236 79 255 236 79 255 236 79 183 180 53 183 180 53 183 180 53 183 180 53 
183 180 53 183 180 53 183 180 53 183 180 53 23 124 4 23 124 4 117 167 41 23 124 4 23 124 4 139 180 41 255 236 79 183 180 53 183 180 53 183 180 53 183 180 53 183 180 53 
183 180 53 183 180 53 183 180 53 183 180 53 23 124 4 23 124 4 74 143 40 85 171 45 74 143 40 74 143 40 23 124 4 23 124 4 183 180 53 183 180 53 183 180 53 183 180 53 
183 180 53 183 180 53 183 180 53 183 180 53 23 124 4 23 124 4 23 124 4 85 171 45 74 143 40 74 143 40 23 124 4 23 124 4 183 180 53 183 180 53 183 180 53 183 180 53 
183 180 53 183 180 53 183 180 53 183 180 53 183 180 53 23 124 4 54 147 24 85 171 45 23 124 4 23 124 4 23 124 4 23 124 4 183 180 53 183 180 53 183 180 53 183 180 53 
183 180 53 183 180 53 183 180 53 183 180 53 183 180 53 183 180 53 74 143 40 74 143 40 23 124 4 23 124 4 23 124 4 183 180 53 183 180 53 183 180 53 183 180 53 183 180 53 
