P3
16 16
255
75 237 230 75 237 230 75 237 230 75 237 230 61 224 229 61 224 229 75 237 230 75 237 230 75 237 230 61 224 229 61 224 229 61 224 229 61 224 229 75 237 230 75 237 230 21 194 198 
75 237 230 213 255 246 255 255 255 255 255 255 158 254 235 158 254 235 213 255 246 213 255 246 213 255 246 158 254 235 158 254 235 101 245 227 101 245 227 213 255 246 213 255 246 21 194 198 
75 237 230 255 255 255 101 245 227 101 245 227 112 251 240 213 255 246 158 254 235 158 254 235 101 245 227 75 237 230 61 224 229 61 224 229 75 237 230 112 251 240 213 255 246 21 194 198 
75 237 230 255 255 255 101 245 227 112 251 240 213 255 246 158 254 235 158 254 235 112 251 240 101 245 227 75 237 230 75 237 230 75 237 230 112 251 240 112 251 240 158 254 235 21 194 198 
61 224 229 158 254 235 112 251 240 158 254 235 158 254 235 158 254 235 112 251 240 101 245 227 75 237 230 75 237 230 101 245 227 112 251 240 112 251 240 101 245 227 158 254 235 21 194 198 
61 224 229 158 254 235 158 254 235 158 254 235 158 254 235 112 251 240 101 245 227 75 237 230 75 237 230 101 245 227 158 254 235 158 254 235 101 245 227 75 237 230 61 224 229 14 186 189 
75 237 230 213 255 246 158 254 235 158 254 235 112 251 240 112 251 240 112 251 240 101 245 227 101 245 227 158 254 235 158 254 235 101 245 227 75 237 230 61 224 229 61 224 229 14 186 189 
75 237 230 213 255 246 158 254 235 112 251 240 112 251 240 112 251 240 101 245 227 101 245 227 112 251 240 112 251 240 101 245 227 75 237 230 75 237 230 61 224 229 75 237 230 14 186 189 
61 224 229 158 254 235 112 251 240 112 251 240 112 251 240 101 245 227 101 245 227 112 251 240 112 251 240 101 245 227 101 245 227 75 237 230 75 237 230 75 237 230 101 245 227 21 194 198 
61 224 229 158 254 235 112 251 240 112 251 240 101 245 227 101 245 227 112 251 240 112 251 240 101 245 227 101 245 227 101 245 227 101 245 227 75 237 230 112 251 240 101 245 227 21 194 198 
61 224 229 101 245 227 112 251 240 101 245 227 101 245 227 158 254 235 158 254 235 101 245 227 101 245 227 101 245 227 101 245 227 101 245 227 158 254 235 112 251 240 75 237 230 14 186 189 
61 224 229 75 237 230 101 245 227 101 245 227 158 254 235 158 254 235 101 245 227 75 237 230 75 237 230 101 245 227 75 237 230 158 254 235 158 254 235 101 245 227 75 237 230 14 186 189 
61 224 229 75 237 230 101 245 227 158 254 235 158 254 235 101 245 227 75 237 230 61 224 229 61 224 229 75 237 230 112 251 240 112 251 240 101 245 227 75 237 230 101 245 227 21 194 198 
61 224 229 61 224 229 112 251 240 112 251 240 101 245 227 75 237 230 61 224 229 61 224 229 75 237 230 101 245 227 101 245 227 101 245 227 75 237 230 75 237 230 112 251 240 21 194 198 
61 224 229 75 237 230 61 224 229 75 237 230 75 237 230 61 224 229 61 224 229 75 237 230 101 245 227 101 245 227 75 237 230 75 237 230 101 245 227 112 251 240 158 254 235 14 186 189 
21 194 198 21 194 198 14 186 189 21 194 198 21 194 198 14 186 189 14 186 189 14 186 189 21 194 198 21 194 198 14 186 189 14 186 189 21 194 198 21 194 198 14 186 189 14 186 189 
