P3
16 16
255
245 204 39 245 204 39 245 204 39 245 204 39 249 189 35 249 189 35 245 204 39 245 204 39 245 204 39 249 189 35 249 189 35 249 189 35 249 189 35 245 204 39 245 204 39 211 150 50 
245 204 39 255 253 144 254 255 189 254 255 189 255 236 79 255 236 79 255 253 144 255 253 144 255 253 144 255 236 79 255 236 79 255 216 62 255 216 62 255 253 144 255 253 144 211 150 50 
245 204 39 254 255 189 255 216 62 255 216 62 254 224 72 255 253 144 255 236 79 255 236 79 255 216 62 245 204 39 249 189 35 249 189 35 245 204 39 254 224 72 255 253 144 211 150 50 
245 204 39 254 255 189 255 216 62 254 224 72 255 253 144 255 236 79 255 236 79 254 224 72 255 216 62 245 204 39 245 204 39 245 204 39 254 224 72 254 224 72 255 236 79 211 150 50 
249 189 35 255 236 79 254 224 72 255 236 79 255 236 79 255 236 79 254 224 72 255 216 62 245 204 39 245 204 39 255 216 62 254 224 72 254 224 72 255 216 62 255 236 79 211 150 50 
249 189 35 255 236 79 255 236 79 255 236 79 255 236 79 254 224 72 255 216 62 245 204 39 245 204 39 255 216 62 255 236 79 255 236 79 255 216 62 245 204 39 249 189 35 204 142 39 
245 204 39 255 253 144 255 236 79 255 236 79 254 224 72 254 224 72 254 224 72 255 216 62 255 216 62 255 236 79 255 236 79 255 216 62 245 204 39 249 189 35 249 189 35 204 142 39 
245 204 39 255 253 144 255 236 79 254 224 72 254 224 72 254 224 72 255 216 62 255 216 62 254 224 72 254 224 72 255 216 62 245 204 39 245 204 39 249 189 35 245 204 39 204 142 39 
249 189 35 255 236 79 254 224 72 254 224 72 254 224 72 255 216 62 255 216 62 254 224 72 254 224 72 255 216 62 255 216 62 245 204 39 245 204 39 245 204 39 255 216 62 211 150 50 
249 189 35 255 236 79 254 224 72 254 224 72 255 216 62 255 216 62 254 224 72 254 224 72 255 216 62 255 216 62 255 216 62 255 216 62 245 204 39 254 224 72 255 216 62 211 150 50 
249 189 35 255 216 62 254 224 72 255 216 62 255 216 62 255 236 79 255 236 79 255 216 62 255 216 62 255 216 62 255 216 62 255 216 62 255 236 79 254 224 72 245 204 39 204 142 39 
249 189 35 245 204 39 255 216 62 255 216 62 255 236 79 255 236 79 255 216 62 245 204 39 245 204 39 255 216 62 245 204 39 255 236 79 255 236 79 255 216 62 245 204 39 204 142 39 
249 189 35 245 204 39 255 216 62 255 236 79 255 236 79 255 216 62 245 204 39 249 189 35 249 189 35 245 204 39 254 224 72 254 224 72 255 216 62 245 204 39 255 216 62 211 150 50 
249 189 35 249 189 35 254 224 72 254 224 72 255 216 62 245 204 39 249 189 35 249 189 35 245 204 39 255 216 62 255 216 62 255 216 62 245 204 39 245 204 39 254 224 72 211 150 50 
249 189 35 245 204 39 249 189 35 245 204 39 245 204 39 249 189 35 249 189 35 245 204 39 255 216 62 255 216 62 245 204 39 245 204 39 255 216 62 254 224 72 255 236 79 204 142 39 
211 150 50 211 150 50 204 142 39 211 150 50 211 150 50 204 142 39 204 142 39 204 142 39 211 150 50 211 150 50 204 142 39 204 142 39 211 150 50 211 150 50 204 142 39 204 142 39 
