P3
16 16
255
108 146 67 143 193 88 107 145 66 98 132 60 98 132 60 104 141 65 93 126 57 102 138 63 115 156 71 110 148 68 101 136 62 99 133 61 100 135 62 122 165 75 82 111 50 103 139 64 
109 147 67 102 138 63 117 158 72 110 149 68 112 151 69 93 126 58 112 151 69 95 128 59 93 126 57 123 167 76 121 164 75 107 145 66 143 193 88 102 138 63 99 133 61 101 137 63 
119 161 74 103 139 64 91 124 56 96 130 60 100 135 62 99 134 61 105 142 65 105 142 65 108 146 67 116 157 72 123 166 76 126 171 78 99 133 61 87 118 54 93 126 58 133 180 82 
86 117 53 97 131 60 101 136 62 110 149 68 106 143 65 112 151 69 91 124 56 107 144 66 93 126 57 96 129 59 103 139 64 110 149 68 104 141 65 101 137 63 122 165 75 91 124 56 
118 160 73 96 129 59 126 171 78 96 129 59 126 170 78 127 172 79 99 134 61 126 170 78 136 184 84 85 116 53 93 126 58 122 165 75 125 169 77 92 125 57 99 134 61 103 139 64 
112 151 69 111 150 69 88 119 54 121 164 75 94 127 58 110 148 68 109 147 67 113 153 70 99 133 61 109 147 67 99 134 61 96 129 59 88 119 54 99 134 61 104 140 64 108 146 67 
92 125 57 114 154 70 121 163 75 105 142 65 107 144 66 96 129 59 101 136 62 93 126 57 96 130 60 99 133 61 132 179 82 126 170 78 106 143 65 122 165 75 110 149 68 104 141 65 
104 141 65 99 133 61 115 155 71 101 137 63 105 142 65 90 123 56 120 162 74 96 130 60 110 149 68 126 171 78 99 133 61 94 127 58 104 141 65 117 158 72 93 126 57 123 167 76 
122 165 75 113 153 70 133 180 82 124 168 77 126 170 78 94 127 58 126 171 78 114 154 70 131 177 81 124 168 77 95 128 59 107 144 66 97 131 60 107 145 66 115 156 71 92 125 57 
110 149 68 95 128 59 134 181 83 103 139 64 102 138 63 111 150 69 124 168 77 93 126 58 99 133 61 106 143 65 107 144 66 123 167 76 104 140 64 131 177 81 104 141 65 94 127 58 
113 153 70 115 156 71 110 149 68 121 163 75 95 128 59 133 180 82 104 140 64 107 145 66 140 190 87 88 120 55 122 165 75 96 129 59 104 141 65 99 134 61 110 149 68 104 141 65 
96 130 60 126 171 78 98 132 60 119 161 74 110 149 68 96 130 60 107 144 66 100 135 62 110 149 68 107 144 66 102 138 63 90 122 55 131 177 81 93 126 57 91 124 56 101 136 62 
136 184 84 110 149 68 94 127 58 101 136 62 112 151 69 106 143 65 97 131 60 89 121 55 101 136 62 106 143 65 101 136 62 91 124 56 116 157 72 121 163 75 88 120 55 110 149 68 
94 127 58 123 166 76 86 117 53 107 144 66 91 124 56 112 151 69 94 127 58 143 193 88 118 159 73 107 145 66 123 166 76 113 153 70 117 158 72 99 134 61 123 166 76 127 172 79 
119 161 74 118 159 73 140 190 87 90 122 55 131 177 81 125 169 77 108 146 67 107 145 66 92 125 57 109 147 67 109 147 67 99 133 61 123 167 76 115 155 71 101 137 63 88 120 55 
97 131 60 110 148 68 99 134 61 100 135 62 120 162 74 111 150 69 108 146 67 107 145 66 104 140 64 140 189 86 90 123 56 123 167 76 96 130 60 105 142 65 99 134 61 115 156 71 
