P3
16 16
255
209 207 207 193 193 193 193 193 193 209 207 207 209 207 207 209 207 207 209 207 207 209 207 207 209 207 207 209 207 207 209 207 207 193 193 193 193 193 193 193 193 193 193 193 193 209 207 207 
193 193 193 242 242 242 242 242 242 242 242 242 242 242 242 242 242 242 236 236 236 236 236 236 236 236 236 234 234 234 230 230 230 230 230 230 230 230 230 230 230 230 230 230 230 193 193 193 
193 193 193 230 230 230 230 230 230 230 230 230 230 230 230 230 230 230 230 230 230 230 230 230 230 230 230 230 230 230 230 230 230 230 230 230 230 230 230 230 230 230 230 230 230 185 185 185 
177 176 176 220 220 220 220 220 220 220 220 220 220 220 220 220 220 220 220 220 220 220 220 220 224 224 224 224 224 224 224 224 224 214 214 214 214 214 214 214 214 214 214 214 214 177 176 176 
193 193 193 242 242 242 242 242 242 242 242 242 242 242 242 242 242 242 242 242 242 236 236 236 236 236 236 236 236 236 230 230 230 230 230 230 230 230 230 230 230 230 230 230 230 185 185 185 
193 193 193 230 230 230 230 230 230 230 230 230 230 230 230 230 230 230 230 230 230 230 230 230 230 230 230 230 230 230 230 230 230 230 230 230 230 230 230 230 230 230 230 230 230 185 185 185 
177 176 176 220 220 220 220 220 220 220 220 220 220 220 220 220 220 220 224 224 224 224 224 224 224 224 224 224 224 224 214 214 214 214 214 214 214 214 214 214 214 214 214 214 214 177 176 176 
193 193 193 242 242 242 242 242 242 236 236 236 236 236 236 236 236 236 236 236 236 236 236 236 230 230 230 230 230 230 230 230 230 230 230 230 230 230 230 230 230 230 230 230 230 185 185 185 
193 193 193 230 230 230 230 230 230 230 230 230 230 230 230 230 230 230 230 230 230 230 230 230 230 230 230 230 230 230 230 230 230 230 230 230 230 230 230 230 230 230 230 230 230 185 185 185 
177 176 176 220 220 220 220 220 220 220 220 220 220 220 220 220 220 220 220 220 220 220 220 220 220 220 220 224 224 224 224 224 224 224 224 224 214 214 214 214 214 214 214 214 214 177 176 176 
193 193 193 242 242 242 242 242 242 242 242 242 242 242 242 242 242 242 242 242 242 236 236 236 236 236 236 236 236 236 236 236 236 230 230 230 230 230 230 230 230 230 230 230 230 185 185 185 
193 193 193 230 230 230 230 230 230 230 230 230 230 230 230 230 230 230 230 230 230 230 230 230 230 230 230 230 230 230 230 230 230 230 230 230 230 230 230 230 230 230 230 230 230 185 185 185 
177 176 176 220 220 220 220 220 220 220 220 220 220 220 220 220 220 220 220 220 220 224 224 224 224 224 224 224 224 224 224 224 224 214 214 214 214 214 214 214 214 214 214 214 214 177 176 176 
193 193 193 242 242 242 242 242 242 242 242 242 242 242 242 236 236 236 236 236 236 236 236 236 236 236 236 230 230 230 230 230 230 230 230 230 230 230 230 230 230 230 230 230 230 185 185 185 
193 193 193 230 230 230 230 230 230 230 230 230 230 230 230 230 230 230 230 230 230 230 230 230 230 230 230 230 230 230 230 230 230 230 230 230 230 230 230 230 230 230 230 230 230 185 185 185 
193 193 193 193 193 193 193 193 193 193 193 193 193 193 193 193 193 193 193 193 193 185 185 185 185 185 185 193 193 193 185 185 185 185 185 185 185 185 185 185 185 185 185 185 185 185 185 185 
