P3
16 16
255
60 50 50 49 41 42 60 50 50 60 50 50 60 50 50 60 50 50 60 50 50 60 50 50 60 50 50 60 50 50 60 50 50 49 41 42 60 50 50 60 50 50 49 41 42 36 30 31 
49 41 42 72 69 72 90 87 90 90 87 90 90 87 90 90 87 90 90 87 90 90 87 90 90 87 90 90 87 90 90 87 90 77 73 77 90 87 90 90 87 90 77 73 77 36 30 31 
60 50 50 90 87 90 59 57 59 72 69 72 72 69 72 77 73 77 77 73 77 77 73 77 67 64 67 72 69 72 76 65 67 76 65 67 72 69 72 72 69 72 77 73 77 36 30 31 
60 50 50 90 87 90 67 64 67 72 69 72 76 65 67 76 65 67 77 73 77 77 73 77 72 69 72 77 73 77 77 73 77 76 65 67 67 64 67 59 57 59 77 73 77 36 30 31 
60 50 50 90 87 90 72 69 72 67 64 67 76 65 67 77 73 77 76 65 67 77 73 77 77 73 77 77 73 77 77 73 77 72 69 72 67 64 67 60 50 50 72 69 72 36 30 31 
60 50 50 90 87 90 67 64 67 72 69 72 67 64 67 76 65 67 72 69 72 77 73 77 90 87 90 77 73 77 77 73 77 77 73 77 67 64 67 60 50 50 72 69 72 49 41 42 
60 50 50 90 87 90 67 64 67 67 64 67 67 64 67 72 69 72 77 73 77 77 73 77 77 73 77 90 87 90 72 69 72 72 69 72 72 69 72 59 57 59 72 69 72 36 30 31 
60 50 50 90 87 90 72 69 72 67 64 67 59 57 59 77 73 77 77 73 77 77 73 77 77 73 77 77 73 77 72 69 72 67 64 67 72 69 72 59 57 59 77 73 77 36 30 31 
60 50 50 90 87 90 72 69 72 77 73 77 77 73 77 77 73 77 77 73 77 72 69 72 72 69 72 77 73 77 67 64 67 72 69 72 67 64 67 59 57 59 72 69 72 49 41 42 
60 50 50 90 87 90 77 73 77 77 73 77 90 87 90 77 73 77 67 64 67 67 64 67 67 64 67 72 69 72 67 64 67 67 64 67 72 69 72 59 57 59 72 69 72 49 41 42 
49 41 42 77 73 77 77 73 77 77 73 77 76 65 67 77 73 77 67 64 67 67 64 67 67 64 67 67 64 67 59 57 59 59 57 59 60 50 50 60 50 50 77 73 77 36 30 31 
60 50 50 90 87 90 77 73 77 76 65 67 77 73 77 76 65 67 72 69 72 59 57 59 59 57 59 67 64 67 59 57 59 59 57 59 60 50 50 47 40 41 77 73 77 36 30 31 
49 41 42 77 73 77 59 57 59 72 69 72 72 69 72 72 69 72 67 64 67 59 57 59 59 57 59 67 64 67 59 57 59 60 50 50 47 40 41 47 40 41 77 73 77 36 30 31 
49 41 42 77 73 77 59 57 59 60 50 50 59 57 59 59 57 59 59 57 59 60 50 50 47 40 41 47 40 41 47 40 41 47 40 41 47 40 41 60 50 50 77 73 77 49 41 42 
49 41 42 77 73 77 72 69 72 72 69 72 72 69 72 77 73 77 77 73 77 77 73 77 72 69 72 77 73 77 77 73 77 77 73 77 77 73 77 77 73 77 72 69 72 36 30 31 
49 41 42 36 30 31 36 30 31 36 30 31 36 30 31 49 41 42 49 41 42 36 30 31 36 30 31 36 30 31 49 41 42 49 41 42 36 30 31 36 30 31 36 30 31 36 30 31 
