P3
16 16
255
184 148 95 175 143 85 184 148 95 194 157 98 194 157 98 194 157 98 194 157 98 194 157 98 184 148 95 194 157 98 194 157 98 194 157 98 194 157 98 194 157 98 184 148 95 150 116 65 
184 148 95 184 148 95 175 143 85 175 143 85 150 116 65 159 132 77 175 143 85 184 148 95 184 148 95 184 148 95 175 143 85 175 143 85 184 148 95 184 148 95 159 132 77 159 132 77 
175 143 85 184 148 95 184 148 95 184 148 95 175 143 85 184 148 95 175 143 85 159 132 77 159 132 77 159 132 77 159 132 77 175 143 85 175 143 85 184 148 95 184 148 95 150 116 65 
150 116 65 126 98 55 126 98 55 150 116 65 150 116 65 126 98 55 103 80 44 103 80 44 126 98 55 126 98 55 103 80 44 126 98 55 103 80 44 103 80 44 126 98 55 103 80 44 
184 148 95 194 157 98 159 132 77 194 157 98 194 157 98 194 157 98 194 157 98 159 132 77 194 157 98 194 157 98 194 157 98 184 148 95 175 143 85 175 143 85 159 132 77 184 148 95 
175 143 85 184 148 95 184 148 95 175 143 85 159 132 77 175 143 85 159 132 77 150 116 65 159 132 77 175 143 85 175 143 85 184 148 95 184 148 95 184 148 95 184 148 95 175 143 85 
159 132 77 159 132 77 175 143 85 184 148 95 175 143 85 175 143 85 175 143 85 150 116 65 184 148 95 184 148 95 184 148 95 175 143 85 175 143 85 159 132 77 159 132 77 159 132 77 
103 80 44 103 80 44 126 98 55 126 98 55 150 116 65 126 98 55 103 80 44 103 80 44 103 80 44 103 80 44 126 98 55 126 98 55 126 98 55 150 116 65 126 98 55 103 80 44 
184 148 95 194 157 98 194 157 98 184 148 95 175 143 85 175 143 85 194 157 98 194 157 98 194 157 98 194 157 98 194 157 98 194 157 98 194 157 98 194 157 98 184 148 95 159 132 77 
184 148 95 175 143 85 184 148 95 184 148 95 184 148 95 184 148 95 175 143 85 159 132 77 159 132 77 159 132 77 175 143 85 159 132 77 175 143 85 159 132 77 159 132 77 150 116 65 
194 157 98 184 148 95 175 143 85 175 143 85 159 132 77 159 132 77 159 132 77 159 132 77 175 143 85 175 143 85 175 143 85 175 143 85 159 132 77 159 132 77 184 148 95 159 132 77 
103 80 44 103 80 44 126 98 55 150 116 65 150 116 65 126 98 55 103 80 44 103 80 44 103 80 44 126 98 55 150 116 65 126 98 55 126 98 55 103 80 44 103 80 44 103 80 44 
194 157 98 159 132 77 184 148 95 194 157 98 194 157 98 184 148 95 184 148 95 159 132 77 194 157 98 194 157 98 194 157 98 159 132 77 194 157 98 184 148 95 194 157 98 194 157 98 
175 143 85 175 143 85 184 148 95 184 148 95 159 132 77 159 132 77 175 143 85 159 132 77 159 132 77 184 148 95 184 148 95 175 143 85 184 148 95 175 143 85 175 143 85 175 143 85 
175 143 85 159 132 77 159 132 77 175 143 85 184 148 95 175 143 85 159 132 77 150 116 65 184 148 95 184 148 95 175 143 85 159 132 77 159 132 77 159 132 77 159 132 77 159 132 77 
103 80 44 126 98 55 126 98 55 103 80 44 103 80 44 126 98 55 150 116 65 150 116 65 150 116 65 126 98 55 103 80 44 126 98 55 103 80 44 103 80 44 103 80 44 103 80 44 
