P3
16 16
255
95 74 43 76 61 38 95 74 43 116 90 54 95 74 43 76 61 38 95 74 43 95 74 43 116 90 54 76 61 38 95 74 43 95 74 43 76 61 38 95 74 43 95 74 43 95 74 43 
76 61 38 184 148 95 184 148 95 184 148 95 184 148 95 175 143 85 184 148 95 175 143 85 194 157 98 175 143 85 175 143 85 184 148 95 184 148 95 184 148 95 184 148 95 76 61 38 
95 74 43 184 148 95 126 98 55 126 98 55 150 116 65 150 116 65 159 132 77 150 116 65 159 132 77 159 132 77 159 132 77 159 132 77 150 116 65 150 116 65 194 157 98 95 74 43 
95 74 43 184 148 95 126 98 55 194 157 98 194 157 98 184 148 95 184 148 95 184 148 95 184 148 95 175 143 85 184 148 95 184 148 95 184 148 95 150 116 65 184 148 95 95 74 43 
95 74 43 175 143 85 150 116 65 184 148 95 175 143 85 175 143 85 175 143 85 175 143 85 175 143 85 175 143 85 175 143 85 175 143 85 184 148 95 159 132 77 175 143 85 95 74 43 
76 61 38 184 148 95 159 132 77 184 148 95 175 143 85 150 116 65 150 116 65 159 132 77 159 132 77 150 116 65 150 116 65 175 143 85 184 148 95 150 116 65 175 143 85 76 61 38 
95 74 43 175 143 85 150 116 65 175 143 85 175 143 85 126 98 55 175 143 85 175 143 85 175 143 85 175 143 85 150 116 65 175 143 85 175 143 85 150 116 65 184 148 95 95 74 43 
95 74 43 175 143 85 159 132 77 184 148 95 175 143 85 150 116 65 175 143 85 159 132 77 159 132 77 175 143 85 159 132 77 175 143 85 184 148 95 159 132 77 175 143 85 95 74 43 
95 74 43 175 143 85 159 132 77 184 148 95 175 143 85 150 116 65 175 143 85 159 132 77 150 116 65 175 143 85 150 116 65 175 143 85 184 148 95 150 116 65 175 143 85 95 74 43 
76 61 38 175 143 85 159 132 77 184 148 95 175 143 85 150 116 65 175 143 85 175 143 85 175 143 85 175 143 85 159 132 77 175 143 85 175 143 85 150 116 65 175 143 85 76 61 38 
95 74 43 175 143 85 150 116 65 184 148 95 175 143 85 150 116 65 150 116 65 126 98 55 150 116 65 159 132 77 159 132 77 175 143 85 184 148 95 159 132 77 175 143 85 95 74 43 
95 74 43 175 143 85 159 132 77 184 148 95 175 143 85 175 143 85 175 143 85 175 143 85 175 143 85 175 143 85 175 143 85 175 143 85 184 148 95 150 116 65 175 143 85 95 74 43 
76 61 38 184 148 95 159 132 77 184 148 95 184 148 95 175 143 85 184 148 95 184 148 95 184 148 95 184 148 95 184 148 95 194 157 98 184 148 95 150 116 65 175 143 85 76 61 38 
95 74 43 184 148 95 159 132 77 150 116 65 159 132 77 150 116 65 150 116 65 150 116 65 150 116 65 150 116 65 150 116 65 150 116 65 150 116 65 150 116 65 184 148 95 95 74 43 
95 74 43 184 148 95 184 148 95 184 148 95 175 143 85 175 143 85 184 148 95 175 143 85 175 143 85 194 157 98 175 143 85 175 143 85 184 148 95 184 148 95 184 148 95 95 74 43 
95 74 43 76 61 38 95 74 43 95 74 43 95 74 43 76 61 38 95 74 43 95 74 43 116 90 54 76 61 38 95 74 43 95 74 43 76 61 38 116 90 54 95 74 43 95 74 43 
