P3
16 16
255
60 90 23 60 90 23 83 129 32 107 169 42 85 132 33 88 138 34 88 138 34 81 127 31 69 105 27 69 105 27 60 90 23 88 138 34 88 138 34 107 169 42 107 169 42 69 105 27 
88 138 34 74 114 28 69 105 27 78 121 30 60 90 23 60 90 23 69 105 27 88 138 34 88 137 34 88 138 34 69 105 27 88 138 34 97 153 38 107 169 42 88 138 34 107 169 42 
88 138 34 78 121 30 69 105 27 69 105 27 69 105 26 88 138 34 88 138 34 69 105 27 107 169 42 85 133 33 88 138 34 88 138 34 107 169 42 107 169 42 107 169 42 107 169 42 
88 138 34 88 138 34 69 105 27 60 90 23 60 90 23 85 132 33 107 169 42 88 138 34 107 169 42 60 90 23 74 114 28 60 90 23 88 138 34 100 158 39 107 169 42 107 169 42 
88 138 34 69 105 27 88 138 34 69 105 27 64 97 25 97 153 38 88 138 34 107 169 42 91 142 35 60 90 23 60 90 23 60 90 23 88 138 34 88 138 34 94 148 36 97 153 38 
88 138 34 88 138 34 69 105 27 66 100 25 107 169 42 107 169 42 69 105 27 60 90 23 60 90 23 60 90 23 64 97 25 60 90 23 60 90 23 69 105 27 88 138 34 97 153 38 
69 105 27 69 105 27 64 97 25 60 90 23 107 169 42 88 138 34 107 169 42 88 138 34 69 105 26 69 105 27 69 105 27 81 127 31 88 138 34 88 138 34 69 105 27 107 169 42 
69 105 27 60 90 23 60 90 23 71 109 27 107 169 42 107 169 42 107 169 42 85 133 33 60 90 23 60 90 23 69 105 27 88 138 34 92 145 36 107 169 42 69 105 27 88 138 34 
107 169 42 88 138 34 69 106 26 60 90 23 60 90 23 107 169 42 88 138 34 88 138 34 76 117 29 69 105 27 88 138 34 69 105 27 88 138 34 94 148 36 88 138 34 69 105 27 
107 169 42 94 148 36 88 138 34 60 90 23 60 90 23 60 90 23 60 90 23 69 105 27 88 138 34 88 137 34 88 138 34 88 138 34 88 138 34 97 153 38 107 169 42 88 138 34 
100 158 39 88 138 34 88 138 34 69 106 26 60 90 23 69 106 26 88 138 34 88 138 34 69 105 27 107 169 42 94 148 36 88 138 34 88 138 34 94 148 36 107 169 42 107 169 42 
107 169 42 69 105 27 60 90 23 60 90 23 69 106 26 88 138 34 97 153 38 107 169 42 88 138 34 107 169 42 78 121 30 69 105 27 88 138 34 97 153 38 107 169 42 107 169 42 
69 105 27 88 138 34 88 138 34 85 133 33 88 138 34 88 138 34 74 114 28 107 169 42 107 169 42 83 129 32 60 90 23 60 90 23 69 105 27 107 169 42 100 158 39 107 169 42 
88 138 34 107 169 42 102 161 40 107 169 42 69 105 27 60 90 23 60 90 23 60 90 23 78 121 30 60 90 23 69 106 26 88 138 34 107 169 42 69 105 27 88 138 34 107 169 42 
107 169 42 107 169 42 107 169 42 88 138 34 107 169 42 88 138 34 74 114 28 64 97 25 69 105 27 69 105 27 69 105 27 97 153 38 107 169 42 88 138 34 107 169 42 100 158 39 
88 138 34 97 153 38 107 169 42 107 169 42 107 169 42 97 153 38 60 90 23 60 90 23 60 90 23 60 90 23 69 105 27 69 105 27 107 169 42 107 169 42 100 158 39 88 138 34 
