P3
16 16
255
85 58 31 68 51 33 85 58 31 90 68 36 85 58 31 68 51 33 85 58 31 85 58 31 90 68 36 68 51 33 85 58 31 85 58 31 68 51 33 85 58 31 85 58 31 85 58 31 
68 51 33 130 97 58 130 97 58 130 97 58 130 97 58 122 90 52 130 97 58 122 90 52 136 101 57 122 90 52 122 90 52 130 97 58 130 97 58 130 97 58 130 97 58 68 51 33 
85 58 31 130 97 58 90 68 36 90 68 36 97 75 46 97 75 46 112 82 46 97 75 46 112 82 46 112 82 46 112 82 46 112 82 46 97 75 46 97 75 46 136 101 57 85 58 31 
85 58 31 130 97 58 90 68 36 136 101 57 136 101 57 130 97 58 130 97 58 130 97 58 130 97 58 122 90 52 130 97 58 130 97 58 130 97 58 97 75 46 130 97 58 85 58 31 
85 58 31 122 90 52 97 75 46 130 97 58 122 90 52 122 90 52 122 90 52 122 90 52 122 90 52 122 90 52 122 90 52 122 90 52 130 97 58 112 82 46 122 90 52 85 58 31 
68 51 33 130 97 58 112 82 46 130 97 58 122 90 52 97 75 46 97 75 46 112 82 46 112 82 46 97 75 46 97 75 46 122 90 52 130 97 58 97 75 46 122 90 52 68 51 33 
85 58 31 122 90 52 97 75 46 122 90 52 122 90 52 90 68 36 122 90 52 122 90 52 122 90 52 122 90 52 97 75 46 122 90 52 122 90 52 97 75 46 130 97 58 85 58 31 
85 58 31 122 90 52 112 82 46 130 97 58 122 90 52 97 75 46 122 90 52 97 75 46 97 75 46 122 90 52 112 82 46 122 90 52 130 97 58 112 82 46 122 90 52 85 58 31 
85 58 31 122 90 52 112 82 46 130 97 58 122 90 52 97 75 46 122 90 52 97 75 46 97 75 46 122 90 52 97 75 46 122 90 52 130 97 58 97 75 46 122 90 52 85 58 31 
68 51 33 122 90 52 112 82 46 130 97 58 122 90 52 97 75 46 122 90 52 122 90 52 122 90 52 122 90 52 112 82 46 122 90 52 122 90 52 97 75 46 122 90 52 68 51 33 
85 58 31 122 90 52 97 75 46 130 97 58 122 90 52 97 75 46 97 75 46 90 68 36 97 75 46 112 82 46 112 82 46 122 90 52 130 97 58 112 82 46 122 90 52 85 58 31 
85 58 31 122 90 52 112 82 46 130 97 58 122 90 52 122 90 52 122 90 52 122 90 52 122 90 52 122 90 52 122 90 52 122 90 52 130 97 58 97 75 46 122 90 52 85 58 31 
68 51 33 130 97 58 112 82 46 130 97 58 130 97 58 122 90 52 130 97 58 130 97 58 130 97 58 130 97 58 130 97 58 136 101 57 130 97 58 97 75 46 122 90 52 68 51 33 
85 58 31 130 97 58 112 82 46 97 75 46 112 82 46 97 75 46 97 75 46 97 75 46 97 75 46 97 75 46 97 75 46 97 75 46 97 75 46 97 75 46 130 97 58 85 58 31 
85 58 31 130 97 58 130 97 58 130 97 58 122 90 52 122 90 52 130 97 58 122 90 52 122 90 52 136 101 57 122 90 52 122 90 52 130 97 58 130 97 58 130 97 58 85 58 31 
85 58 31 68 51 33 85 58 31 85 58 31 85 58 31 68 51 33 85 58 31 85 58 31 90 68 36 68 51 33 85 58 31 85 58 31 68 51 33 90 68 36 85 58 31 85 58 31 
