P3
16 16
255
43 70 43 44 72 44 43 70 43 25 40 25 43 70 43 46 75 46 48 79 48 48 78 48 37 60 37 43 70 43 37 60 37 48 78 48 48 78 48 45 74 45 43 70 43 48 79 48 
27 43 27 48 78 48 38 62 38 43 70 43 38 62 38 48 78 48 48 78 48 38 63 38 20 33 20 43 70 43 20 33 20 39 64 39 48 78 48 48 79 48 27 43 27 48 79 48 
48 78 48 38 63 38 20 33 20 43 70 43 20 33 20 38 63 38 48 78 48 46 75 46 43 70 43 48 79 48 43 70 43 43 70 43 25 40 25 43 70 43 41 67 41 48 79 48 
48 78 48 45 74 45 43 70 43 48 79 48 43 70 43 45 74 45 46 75 46 48 79 48 27 43 27 48 79 48 27 43 27 48 79 48 43 70 43 38 62 38 48 78 48 48 78 48 
48 79 48 48 79 48 27 43 27 48 79 48 27 43 27 48 79 48 43 70 43 25 40 25 43 70 43 48 79 48 31 51 31 20 33 20 43 70 43 20 33 20 38 63 38 48 78 48 
34 56 34 34 56 34 37 61 37 48 79 48 42 69 42 48 78 48 38 62 38 43 70 43 38 62 38 48 78 48 46 75 46 43 70 43 48 79 48 43 70 43 45 74 45 48 78 48 
31 51 31 20 33 20 31 51 31 48 78 48 48 78 48 38 63 38 20 33 20 43 70 43 20 33 20 38 63 38 48 79 48 27 43 27 48 79 48 27 43 27 48 79 48 48 79 48 
43 70 43 25 40 25 43 70 43 45 74 45 48 78 48 45 74 45 43 70 43 48 79 48 43 70 43 45 74 45 48 79 48 31 51 31 48 79 48 37 61 37 48 79 48 48 78 48 
35 57 35 43 70 43 38 62 38 48 78 48 48 78 48 48 79 48 27 43 27 48 79 48 27 43 27 48 79 48 37 60 37 20 33 20 37 60 37 46 75 46 48 78 48 48 78 48 
20 33 20 43 70 43 20 33 20 38 63 38 48 78 48 48 78 48 31 51 31 48 79 48 37 61 37 46 75 46 43 70 43 25 40 25 43 70 43 46 75 46 48 78 48 48 78 48 
43 70 43 48 79 48 43 70 43 45 74 45 48 78 48 31 51 31 20 33 20 37 60 37 48 78 48 48 78 48 38 62 38 43 70 43 38 62 38 48 78 48 48 78 48 48 79 48 
27 43 27 48 79 48 27 43 27 48 79 48 46 75 46 43 70 43 25 40 25 43 70 43 48 78 48 38 63 38 20 33 20 43 70 43 20 33 20 38 63 38 48 78 48 48 79 48 
39 64 39 48 79 48 37 61 37 48 78 48 48 78 48 38 62 38 43 70 43 38 62 38 48 78 48 46 75 46 43 70 43 48 79 48 43 70 43 45 74 45 37 60 37 20 33 20 
43 70 43 46 75 46 48 78 48 48 78 48 38 63 38 20 33 20 43 70 43 20 33 20 38 63 38 48 79 48 27 43 27 48 79 48 27 43 27 48 79 48 43 70 43 25 40 25 
37 60 37 48 78 48 48 78 48 34 55 34 45 74 45 43 70 43 48 79 48 43 70 43 35 57 35 20 33 20 34 56 34 48 79 48 42 69 42 48 78 48 38 62 38 43 70 43 
20 33 20 38 63 38 48 78 48 20 33 20 48 79 48 27 43 27 48 79 48 27 43 27 43 70 43 25 40 25 43 70 43 46 75 46 48 78 48 38 63 38 20 33 20 43 70 43 
