P3
16 16
255
96 127 59 96 127 59 96 127 59 96 127 59 96 127 59 96 127 59 112 149 69 112 149 69 112 149 69 126 168 78 126 168 78 126 168 78 112 149 69 112 149 69 112 149 69 112 149 69 
96 127 59 96 127 59 96 127 59 96 127 59 96 127 59 96 127 59 112 149 69 112 149 69 112 149 69 126 168 78 126 168 78 126 168 78 96 127 59 96 127 59 96 127 59 112 149 69 
112 149 69 96 127 59 96 127 59 102 135 63 108 143 67 108 143 67 108 143 67 112 149 69 112 149 69 126 168 78 126 168 78 126 168 78 96 127 59 96 127 59 96 127 59 112 149 69 
112 149 69 108 143 67 108 143 67 110 146 68 96 127 59 108 143 67 108 143 67 112 149 69 108 143 67 108 143 67 108 143 67 102 135 63 96 127 59 96 127 59 96 127 59 112 149 69 
112 149 69 108 143 67 117 155 72 126 168 78 110 146 68 108 143 67 108 143 67 112 149 69 108 143 67 108 143 67 96 127 59 102 135 63 108 143 67 108 143 67 112 149 69 112 149 69 
112 149 69 112 149 69 126 168 78 126 168 78 117 155 72 108 143 67 108 143 67 112 149 69 108 143 67 108 143 67 102 135 63 108 143 67 108 143 67 108 143 67 112 149 69 112 149 69 
112 149 69 112 149 69 108 143 67 108 143 67 117 155 72 126 168 78 126 168 78 84 116 52 126 168 78 126 168 78 126 168 78 126 168 78 126 168 78 126 168 78 112 149 69 112 149 69 
112 149 69 112 149 69 108 143 67 108 143 67 117 155 72 126 168 78 105 142 65 84 116 52 105 142 65 126 168 78 126 168 78 117 155 72 126 168 78 126 168 78 84 116 52 84 116 52 
112 149 69 112 149 69 126 168 78 126 168 78 126 168 78 126 168 78 105 142 65 84 116 52 98 133 60 126 168 78 117 155 72 108 143 67 126 168 78 95 129 58 84 116 52 84 116 52 
112 149 69 112 149 69 126 168 78 126 168 78 126 168 78 126 168 78 117 155 72 84 116 52 84 116 52 126 168 78 126 168 78 126 168 78 75 104 46 75 104 46 79 110 49 84 116 52 
108 143 67 108 143 67 126 168 78 126 168 78 120 159 74 126 168 78 108 143 67 108 143 67 108 143 67 126 168 78 126 168 78 126 168 78 108 143 67 91 123 56 75 104 46 112 149 69 
108 143 67 108 143 67 106 142 65 126 168 78 108 143 67 126 168 78 108 143 67 117 155 72 126 168 78 108 143 67 117 155 72 126 168 78 84 116 52 84 116 52 112 149 69 112 149 69 
108 143 67 96 129 59 84 116 52 126 168 78 108 143 67 96 127 59 126 168 78 126 168 78 126 168 78 108 143 67 117 155 72 126 168 78 84 116 52 84 116 52 112 149 69 112 149 69 
112 149 69 84 116 52 105 142 65 126 168 78 108 143 67 110 146 68 126 168 78 126 168 78 126 168 78 108 143 67 100 134 62 108 143 67 96 129 59 90 121 55 96 127 59 96 127 59 
96 127 59 96 127 59 84 116 52 84 116 52 126 168 78 126 168 78 126 168 78 117 155 72 108 143 67 100 134 62 84 116 52 108 143 67 108 143 67 96 127 59 96 127 59 96 127 59 
96 127 59 96 127 59 96 127 59 105 142 65 126 168 78 126 168 78 126 168 78 117 155 72 108 143 67 96 129 59 84 116 52 126 168 78 111 147 68 96 127 59 96 127 59 96 127 59 
