# Wavefront OBJ file made by Mineways version 11.03, http://mineways.com
# World: New World
# Terrain file name: C:\Cours\TIPE\mineways\terrainExt.png
# Color scheme: Standard
# Tue Oct 10 18:26:34 2023

# Selection location min to max: 259, 105, 0 to 265, 319, 7
#   Non-empty selection location min to max: 259, 105, 0 to 265, 123, 7

# Set render type: Wavefront OBJ absolute indices
# Units for the model vertex data itself: meters

# 357 vertices, 303 faces (606 triangles), 294 blocks, 0 billboards/bits. Simplification saved 367 faces.
# block dimensions: X=7 by Y=16 (height) by Z=8 blocks
# Elevation shading: no
# Lighting: no
# Transparent water: no
# Map grid: no
# File type: Export individual textures to directory tex
# Texture output RGB: YES
# Texture output A: YES
# Texture output RGBA: YES
# Export separate types: no
# Export individual blocks: no
#   Split by block type: no
# Make groups objects: no
# Custom material: YES
# Export lesser blocks: YES
# Fatten lesser blocks: no
# Simplify mesh: YES
# Double all billboard faces: no
# Create composite overlay faces: no
# Center model: YES
# Use biomes: no
# Create block faces at the borders: YES
# Tree leaves solid: no
# Rotate model 0.000000 degrees
# Make Z the up direction instead of Y: no
# Scale model by making each block 150 mm high
# Data operation options:
#   Fill air bubbles: no; Seal off entrances: no; Fill in isolated tunnels in base of model: no
#   Connect parts sharing an edge: no; Connect corner tips: no; Weld all shared edges: no
#   Delete floating objects: trees and parts smaller than 16 blocks: YES
#   Hollow out bottom of model, making the walls 1000 mm thick: no; Superhollow: no
# Melt snow blocks: no
#   Debug: show separate parts as colors: no
#   Debug: show weld blocks in bright colors: no

# Cleanup processing summary:
#   Solid parts: 1
#   Floating parts removed: 1
#     In these floaters, total blocks removed: 17

# Full world path: C:\Users\Florian\AppData\Roaming\.minecraft\saves\New World
# Full terrainExt.png path: C:\Cours\TIPE\mineways\terrainExt.png
# Full current path: C:\Cours\TIPE\mineways

mtllib mineways.mtl

o New_World__259_105_0_to_265_319_7
vn -1 0 0
vn 0 -1 0
vn 0 0 -1
vn 1 0 0
vn 0 1 0
vn 0 0 1
vn -0.707107 0 -0.707107
vn -0.707107 0 0.707107
vn 0.707107 0 -0.707107
vn 0.707107 0 0.707107
vn -0.707107 -0.707107 0
vn 0 -0.707107 -0.707107
vn 0.707107 -0.707107 0
vn 0 -0.707107 0.707107
vn -0.707107 0.707107 0
vn 0 0.707107 -0.707107
vn 0.707107 0.707107 0
vn 0 0.707107 0.707107
vn -0.92388 0 -0.382683
vn -0.92388 0 0.382683
vn 0.92388 0 -0.382683
vn 0.92388 0 0.382683
vn -0.382683 0 -0.92388
vn -0.382683 0 0.92388
vn 0.382683 0 -0.92388
vn 0.382683 0 0.92388
vn -0.397273 0.9177 0
vn 0.397273 -0.9177 0
vn 0.397273 0.9177 0
vn -0.397273 -0.9177 0
vn 0 0.9177 -0.397273
vn 0 -0.9177 0.397273
vn 0 0.9177 0.397273
vn 0 -0.9177 -0.397273
vn -0.440932 0.897541 0
vn 0.440932 -0.897541 0
vn 0.440932 0.897541 0
vn -0.440932 -0.897541 0
vn 0 0.897541 -0.440932
vn 0 -0.897541 0.440932
vn 0 0.897541 0.440932
vn 0 -0.897541 -0.440932
vn 0.0521821 0.939272 -0.339182
vn 0 0.948683 -0.316228
vn 0.207879 0.93546 -0.285835
vn 0.309427 0.928279 -0.206284
vn -0.171593 0.926604 -0.334607
vn 0 0.803557 -0.595228
vn 0.242891 0.936866 -0.251566
vn 0 0.963518 -0.267644
vn 0.0510458 0.918825 -0.391351
vn 0.266123 0.958043 -0.10645
vt 0.000000000 0.000000000
vt 1.000000000 0.000000000
vt 0.000000000 0.187500000
vt 1.000000000 0.187500000
vt 1.000000000 0.250000000
vt 0.000000000 0.312500000
vt 1.000000000 0.312500000
vt 1.000000000 0.375000000
vt 0.000000000 0.437500000
vt 0.000000000 0.500000000
vt 1.000000000 0.500000000
vt 0.000000000 0.687500000
vt 1.000000000 0.687500000
vt 0.000000000 1.000000000
vt 1.000000000 1.000000000
vt 2.000000000 0.000000000
vt 3.000000000 0.000000000
vt 4.000000000 0.000000000
vt 5.000000000 0.000000000
vt 6.000000000 0.000000000
vt 8.000000000 0.000000000
vt 2.000000000 1.000000000
vt 3.000000000 1.000000000
vt 4.000000000 1.000000000
vt 5.000000000 1.000000000
vt 6.000000000 1.000000000
vt 0.000000000 2.000000000
vt 1.000000000 2.000000000
vt 2.000000000 2.000000000
vt 3.000000000 2.000000000
vt 4.000000000 2.000000000
vt 5.000000000 2.000000000
vt 0.000000000 3.000000000
vt 1.000000000 3.000000000
vt 2.000000000 3.000000000
vt 3.000000000 3.000000000
vt 0.000000000 4.000000000
vt 1.000000000 4.000000000
vt 8.000000000 4.000000000
vt 0.000000000 5.000000000
vt 1.000000000 5.000000000
vt 0.000000000 6.000000000
vt 1.000000000 6.000000000
vt 0.000000000 7.000000000
vt 1.000000000 7.000000000
vt 0.000000000 8.000000000
vt 1.000000000 8.000000000
v -0.45 0 -0.6
v -0.3 0 -0.45
v -0.3 0 -0.6
v -0.3 0.15 -0.6
v -0.3 0.3 -0.6
v -0.3 0.45 -0.6
v -0.45 0.6 -0.45
v -0.45 0.6 -0.6
v -0.3 0.6 -0.6
v -0.3 0.45 -0.45
v -0.3 0.6 -0.45
v -0.45 0.75 -0.45
v -0.3 0.75 -0.45
v -0.45 0.9 -0.45
v -0.45 0.9 -0.6
v -0.3 0.9 -0.6
v -0.3 0.9 -0.45
v -0.45 1.05 -0.45
v -0.45 1.05 -0.6
v -0.3 1.05 -0.6
v -0.3 1.05 -0.45
v -0.45 1.2 -0.45
v -0.45 1.2 -0.6
v -0.3 1.2 -0.45
v -0.45 1.35 -0.45
v -0.45 1.35 -0.6
v -0.3 1.35 -0.6
v -0.3 1.35 -0.45
v -0.3 1.05 -0.3
v -0.45 1.2 -0.3
v -0.3 1.2 -0.3
v -0.45 1.35 -0.3
v -0.3 1.35 -0.3
v -0.45 0.75 -0.15
v -0.3 0.75 -0.15
v -0.45 0.9 -0.15
v -0.3 0.9 -0.15
v -0.45 1.05 -0.15
v -0.3 1.05 -0.15
v -0.45 1.2 -0.15
v -0.3 1.2 -0.15
v -0.45 1.35 -0.15
v -0.3 1.35 -0.15
v -0.3 0.6 0
v -0.3 0.75 0
v -0.3 1.05 0
v -0.3 1.2 0
v -0.3 1.35 0
v -0.45 0.9 0.15
v -0.3 0.9 0.15
v -0.45 1.05 0.15
v -0.3 1.05 0.15
v -0.45 1.2 0.15
v -0.3 1.2 0.15
v -0.45 1.35 0.15
v -0.3 1.35 0.15
v -0.45 1.05 0.3
v -0.3 1.05 0.3
v -0.45 1.35 0.3
v -0.3 1.35 0.3
v -0.45 1.5 0.3
v -0.45 1.5 0.15
v -0.3 1.5 0.15
v -0.3 1.5 0.3
v -0.45 0.6 0.45
v -0.45 0.75 0.45
v -0.45 1.35 0.45
v -0.3 1.35 0.45
v -0.45 1.65 0.45
v -0.45 1.65 0.3
v -0.3 1.65 0.3
v -0.3 1.65 0.45
v -0.45 1.8 0.45
v -0.45 1.8 0.3
v -0.3 1.8 0.3
v -0.3 1.8 0.45
v -0.45 0 0.6
v -0.3 0 0.6
v -0.45 0.3 0.6
v -0.3 0.3 0.6
v -0.45 0.6 0.6
v -0.3 0.6 0.6
v -0.45 0.75 0.6
v -0.3 0.75 0.6
v -0.45 0.9 0.6
v -0.3 0.9 0.6
v -0.45 1.05 0.6
v -0.3 1.05 0.6
v -0.45 1.35 0.6
v -0.3 1.35 0.6
v -0.45 1.65 0.6
v -0.3 1.65 0.6
v -0.45 1.95 0.6
v -0.45 1.95 0.45
v -0.3 1.95 0.45
v -0.3 1.95 0.6
v -0.45 2.25 0.6
v -0.45 2.25 0.45
v -0.3 2.25 0.45
v -0.3 2.25 0.6
v -0.45 2.4 0.6
v -0.45 2.4 0.45
v -0.3 2.4 0.45
v -0.3 2.4 0.6
v -0.15 0 -0.45
v -0.15 0.15 -0.6
v -0.15 0.3 -0.6
v -0.15 0.45 -0.6
v -0.15 0.3 -0.45
v -0.15 0.45 -0.45
v -0.15 1.05 -0.45
v -0.15 1.05 -0.6
v -0.15 1.2 -0.45
v -0.15 1.35 -0.6
v -0.15 1.35 -0.45
v -0.3 1.5 -0.45
v -0.3 1.5 -0.6
v -0.15 1.5 -0.6
v -0.15 1.5 -0.45
v -0.15 0.6 -0.45
v -0.15 0.6 -0.3
v -0.15 1.05 -0.3
v -0.15 1.2 -0.3
v -0.15 1.35 -0.3
v -0.3 1.5 -0.3
v -0.15 1.5 -0.3
v -0.3 1.65 -0.3
v -0.3 1.65 -0.45
v -0.15 1.65 -0.45
v -0.15 1.65 -0.3
v -0.15 0.45 -0.3
v -0.15 1.35 -0.15
v -0.15 0 0
v -0.15 0.45 0
v -0.15 0.6 0
v -0.15 1.05 0
v -0.15 1.2 0
v -0.15 1.35 0
v -0.15 0.75 0
v -0.15 0.6 0.3
v -0.15 0 0.6
v -0.15 0.15 0.6
v -0.15 0.3 0.6
v -0.15 0.45 0.6
v -0.15 0.6 0.6
v -0.15 0.75 0.6
v 0 0.3 -0.45
v 0 1.05 -0.45
v 0 1.05 -0.6
v 0 1.2 -0.45
v 0 1.35 -0.45
v 0 1.5 -0.6
v 0 1.5 -0.45
v -0.15 1.65 -0.6
v 0 1.65 -0.6
v 0 1.65 -0.45
v 0 0.45 -0.45
v 0 0.3 -0.3
v 0 0.45 -0.3
v 0 0.6 -0.45
v 0 0.6 -0.3
v -0.15 0.75 -0.3
v -0.15 0.75 -0.45
v 0 0.75 -0.45
v 0 0.75 -0.3
v -0.15 0.9 -0.3
v -0.15 0.9 -0.45
v 0 0.9 -0.45
v 0 0.9 -0.3
v 0 1.05 -0.3
v 0 1.2 -0.3
v 0 1.35 -0.3
v 0 1.5 -0.3
v 0 1.65 -0.3
v 0 0.3 -0.15
v 0 0.45 -0.15
v 0 1.2 -0.15
v 0 1.35 -0.15
v -0.15 1.5 -0.15
v 0 1.5 -0.15
v -0.15 1.65 -0.15
v 0 1.65 -0.15
v 0 0 0
v 0 0.45 0
v 0 1.05 0
v 0 1.2 0
v 0 1.35 0
v 0 0.6 0
v 0 0.6 0.3
v 0 0 0.45
v 0 0.45 0.45
v 0 0.6 0.45
v -0.15 0.65 0.3
v 0 0.645833 0.3
v -0.15 0.708333 0.45
v 0 0.7 0.45
v 0 0 0.6
v 0 0.6 0.6
v 0 0.75 0.6
v 0 0.7 0.45
v -0.15 0.708333 0.45
v 0.15 0 -0.45
v 0.15 0 -0.6
v 0.15 0.15 -0.6
v 0.15 0.3 -0.6
v 0.15 0.15 -0.45
v 0.15 0.3 -0.45
v 0.15 1.05 -0.6
v 0.15 1.35 -0.6
v 0.15 1.35 -0.45
v 0.15 1.5 -0.6
v 0.15 1.5 -0.45
v 0.15 0.3 -0.3
v 0.15 1.35 -0.3
v 0.15 1.5 -0.3
v 0.15 1.65 -0.45
v 0.15 1.65 -0.3
v 0.15 0.3 -0.15
v 0.15 1.05 -0.15
v 0.15 1.2 -0.15
v 0.15 1.35 -0.15
v 0.15 0.45 -0.15
v 0.15 0.45 0
v 0.15 1.05 0
v 0.15 1.2 0
v 0.15 1.35 0
v 0.15 0.3 0.15
v 0.15 0.45 0.15
v 0 0.483333 0
v 0.15 0.495833 0
v 0 0.558333 0.15
v 0.15 0.55 0.15
v 0.15 0.6 0.3
v 0.15 0.55 0.15
v 0 0.558333 0.15
v 0.15 0 0.45
v 0.15 0.45 0.45
v 0 0.645833 0.3
v 0.15 0.620833 0.3
v 0.15 0.6 0.45
v 0.15 0.666667 0.45
v 0 0.7 0.45
v 0.15 0 0.6
v 0.15 0.15 0.6
v 0.15 0.3 0.6
v 0.15 0.45 0.6
v 0.15 0.6 0.6
v 0.15 0.7 0.6
v 0.15 0.666667 0.45
v 0 0.7 0.45
v 0.3 0 -0.45
v 0.3 0.15 -0.45
v 0.3 1.05 -0.45
v 0.3 1.05 -0.6
v 0.3 1.2 -0.6
v 0.3 1.2 -0.45
v 0.3 1.35 -0.6
v 0.3 1.35 -0.45
v 0.3 0.3 -0.45
v 0.3 0.3 -0.3
v 0.3 1.05 -0.3
v 0.3 1.35 -0.3
v 0.3 0 -0.15
v 0.3 0.15 -0.15
v 0.3 0.3 -0.15
v 0.15 0.372222 -0.15
v 0.15 0.325 -0.3
v 0.3 0.345833 -0.3
v 0.3 0.4 -0.15
v 0.3 1.05 -0.15
v 0.3 1.2 -0.15
v 0.3 1.35 -0.15
v 0.3 0 0
v 0.3 0.45 0
v 0.3 0.4 -0.15
v 0.15 0.372222 -0.15
v 0.3 1.05 0
v 0.3 1.2 0
v 0.3 0.3 0.15
v 0.15 0.495833 0
v 0.3 0.470833 0
v 0.3 0.45 0.15
v 0.3 0.516667 0.15
v 0.15 0.55 0.15
v 0.3 0.3 0.3
v 0.3 0.45 0.3
v 0.3 0.55 0.3
v 0.3 0.516667 0.15
v 0.15 0.55 0.15
v 0.3 0 0.45
v 0.3 0.6 0.45
v 0.3 0.55 0.3
v 0.3 0 0.6
v 0.3 0.45 0.6
v 0.3 0.6 0.6
v 0.15 0.666667 0.45
v 0.3 0.620833 0.45
v 0.3 0.666667 0.6
v 0.15 0.7 0.6
v 0.45 0 -0.45
v 0.45 0.15 -0.45
v 0.3 0.188889 -0.45
v 0.45 0.188889 -0.45
v 0.45 0.3 -0.3
v 0.45 0 -0.15
v 0.45 0.15 -0.15
v 0.3 0.345833 -0.3
v 0.45 0.320833 -0.3
v 0.45 0.3 -0.15
v 0.45 0.361111 -0.15
v 0.3 0.4 -0.15
v 0.45 0.408333 0
v 0.45 0.361111 -0.15
v 0.3 0.4 -0.15
v 0.45 0 0.15
v 0.45 0.3 0.15
v 0.45 0.45 0.15
v 0.45 0.408333 0
v 0.45 0.3 0.3
v 0.3 0.516667 0.15
v 0.45 0.477778 0.15
v 0.3 0.55 0.3
v 0.45 0.541667 0.3
v 0.45 0 0.45
v 0.45 0.45 0.3
v 0.45 0.558333 0.45
v 0.45 0.541667 0.3
v 0.3 0.55 0.3
v 0.45 0 0.6
v 0.45 0.15 0.6
v 0.45 0.3 0.6
v 0.45 0.45 0.6
v 0.45 0.6 0.6
v 0.45 0.558333 0.45
v 0.6 0 -0.45
v 0.6 0 -0.6
v 0.6 0.15 -0.6
v 0.6 0.15 -0.45
v 0.45 0.3 -0.45
v 0.6 0.3 -0.45
v 0.6 0.15 -0.15
v 0.6 0.3 -0.15
v 0.45 0.45 -0.15
v 0.6 0.45 -0.15
v 0.6 0 0.15
v 0.6 0.15 0.15
v 0.6 0.3 0.15
v 0.6 0.45 0.15
v 0.45 0.6 0.15
v 0.6 0.6 0.15
v 0.6 0 0.45
v 0.6 0.15 0.45
v 0.6 0 0.6
v 0.6 0.15 0.6
v 0.6 0.3 0.6
v 0.6 0.45 0.6
v 0.6 0.6 0.6

usemtl stone
f 77/21/1 81/39/1 8/37/1 1/1/1
f 3/2/2 78/47/2 77/46/2 1/1/2
f 1/2/3 8/38/3 9/37/3 3/1/3
f 10/1/4 6/2/4 9/15/4 11/14/4
f 65/20/1 66/26/1 12/14/1 7/1/1
f 44/1/4 11/17/4 13/23/4 45/14/4
f 83/19/1 85/25/1 36/14/1 34/1/1
f 84/1/4 35/19/4 37/25/4 86/14/4
f 85/17/1 87/23/1 51/14/1 49/1/1
f 86/1/4 50/17/4 52/23/4 88/14/4
f 87/16/1 89/29/1 59/27/1 57/1/1
f 88/1/4 58/16/4 60/29/4 90/27/4
f 77/1/6 141/16/6 143/29/6 79/27/6
f 79/1/6 80/2/6 82/28/6 81/27/6
f 83/1/6 84/2/6 92/43/6 91/42/6
f 89/2/1 91/28/1 69/27/1 67/1/1
f 90/1/4 68/2/4 72/28/4 92/27/4
f 105/2/2 141/45/2 78/44/2 2/1/2
f 183/2/2 197/38/2 141/37/2 133/1/2
f 141/1/6 243/16/6 244/22/6 142/14/6
f 197/14/2 190/1/2 236/2/2 243/15/2
f 329/14/2 324/1/2 351/2/2 353/15/2
f 353/1/4 351/2/4 352/15/4 354/14/4
f 329/1/6 353/2/6 354/15/6 330/14/6

usemtl granite
f 91/2/1 93/28/1 94/27/1 69/1/1
f 92/1/4 72/2/4 95/28/4 96/27/4
f 91/1/6 92/2/6 96/28/6 93/27/6
f 73/2/3 94/15/3 95/14/3 76/1/3

usemtl grass_block_top
f 18/1/5 21/2/5 20/15/5 19/14/5
f 40/1/5 41/2/5 24/28/5 22/27/5
f 55/1/5 56/2/5 43/28/5 42/27/5
f 61/1/5 64/2/5 63/15/5 62/14/5
f 73/1/5 76/2/5 75/15/5 74/14/5
f 101/1/5 104/2/5 103/15/5 102/14/5
f 10/1/5 110/2/5 108/15/5 6/14/5
f 44/1/5 135/2/5 120/34/5 11/33/5
f 84/1/5 146/2/5 139/38/5 45/37/5
f 109/1/5 207/16/5 205/22/5 107/14/5
f 134/1/5 184/2/5 159/28/5 131/27/5
f 145/1/5 198/2/5 188/38/5 135/37/5
f 175/1/5 265/16/5 259/29/5 147/27/5
f 191/1/5 237/2/5 222/38/5 176/37/5
f 198/1/5 247/2/5 240/15/5 192/14/5
f 206/1/5 338/17/5 337/23/5 204/14/5
f 227/1/5 316/16/5 309/29/5 218/27/5
f 246/1/5 294/2/5 282/34/5 228/33/5
f 264/1/5 306/2/5 301/28/5 252/27/5
f 285/1/5 319/2/5 316/15/5 279/14/5
f 294/1/5 332/2/5 325/28/5 286/27/5
f 309/1/5 342/2/5 340/28/5 339/27/5
f 317/1/5 348/2/5 344/28/5 343/27/5
f 333/1/5 357/2/5 350/34/5 349/33/5

usemtl dirt
f 336/17/2 335/23/2 202/14/2 203/1/2
f 300/2/2 305/28/2 263/27/2 251/1/2

usemtl grass_block_side
f 14/2/1 18/15/1 19/14/1 15/1/1
f 15/2/3 19/15/3 20/14/3 16/1/3
f 17/1/4 16/2/4 20/15/4 21/14/4
f 38/16/1 40/22/1 22/14/1 18/1/1
f 18/2/3 22/15/3 24/14/3 21/1/3
f 39/1/4 21/16/4 24/22/4 41/14/4
f 53/16/1 55/22/1 42/14/1 40/1/1
f 40/2/3 42/15/3 43/14/3 41/1/3
f 54/1/4 41/16/4 43/22/4 56/14/4
f 59/2/1 61/15/1 62/14/1 55/1/1
f 55/2/3 62/15/3 63/14/3 56/1/3
f 60/1/4 56/2/4 63/15/4 64/14/4
f 69/2/1 73/15/1 74/14/1 70/1/1
f 70/2/3 74/15/3 75/14/3 71/1/3
f 72/1/4 71/2/4 75/15/4 76/14/4
f 97/2/1 101/15/1 102/14/1 98/1/1
f 98/2/3 102/15/3 103/14/3 99/1/3
f 100/1/4 99/2/4 103/15/4 104/14/4
f 97/1/6 100/2/6 104/15/6 101/14/6
f 5/2/3 6/15/3 108/14/3 107/1/3
f 109/1/4 107/2/4 108/15/4 110/14/4
f 10/2/3 11/15/3 120/14/3 110/1/3
f 134/1/4 131/16/4 121/22/4 135/14/4
f 44/2/3 45/15/3 139/14/3 135/1/3
f 145/1/4 135/18/4 139/24/4 146/14/4
f 82/1/6 145/2/6 146/15/6 84/14/6
f 106/16/3 107/22/3 205/14/3 204/1/3
f 175/1/4 158/2/4 159/15/4 176/14/4
f 134/2/3 135/15/3 188/14/3 184/1/3
f 191/1/4 184/17/4 188/23/4 192/14/4
f 144/1/6 246/16/6 247/22/6 145/14/6
f 206/1/4 204/2/4 205/15/4 207/14/4
f 175/2/3 176/15/3 222/14/3 218/1/3
f 227/1/4 218/16/4 222/22/4 228/14/4
f 191/2/3 192/15/3 240/14/3 237/1/3
f 246/1/4 237/2/4 240/15/4 247/14/4
f 203/17/3 204/23/3 337/14/3 336/1/3
f 206/2/3 207/15/3 259/14/3 252/1/3
f 264/1/4 252/16/4 259/22/4 265/14/4
f 227/2/3 228/15/3 282/14/3 279/1/3
f 285/1/4 279/2/4 282/15/4 286/14/4
f 245/1/6 331/16/6 332/22/6 246/14/6
f 264/2/3 265/15/3 309/14/3 306/1/3
f 285/2/3 286/15/3 325/14/3 319/1/3
f 335/1/4 336/2/4 337/15/4 338/14/4
f 306/16/1 309/22/1 339/14/1 301/1/1
f 301/2/3 339/15/3 340/14/3 338/1/3
f 341/1/4 338/16/4 340/22/4 342/14/4
f 316/16/1 317/22/1 343/14/1 309/1/1
f 309/2/3 343/15/3 344/14/3 342/1/3
f 347/1/4 342/16/4 344/22/4 348/14/4
f 332/17/1 333/23/1 349/14/1 317/1/1
f 317/2/3 349/15/3 350/14/3 348/1/3
f 356/1/4 348/17/4 350/23/4 357/14/4
f 332/1/6 356/2/6 357/15/6 333/14/6

usemtl dirt
f 7/2/1 14/28/1 15/27/1 8/1/1
f 8/2/3 15/28/3 16/27/3 9/1/3
f 11/1/4 9/2/4 16/28/4 17/27/4
f 34/16/1 38/29/1 18/27/1 12/1/1
f 35/1/4 13/16/4 21/29/4 39/27/4
f 49/16/1 53/29/1 40/27/1 36/1/1
f 50/1/4 37/16/4 41/29/4 54/27/4
f 57/2/1 59/28/1 55/27/1 51/1/1
f 58/1/4 52/2/4 56/28/4 60/27/4
f 67/2/1 69/28/1 70/27/1 59/1/1
f 68/1/4 60/2/4 71/28/4 72/27/4
f 61/2/3 70/15/3 71/14/3 64/1/3
f 93/2/1 97/28/1 98/27/1 94/1/1
f 94/2/3 98/28/3 99/27/3 95/1/3
f 96/1/4 95/2/4 99/28/4 100/27/4
f 93/1/6 96/2/6 100/28/6 97/27/6
f 203/17/2 202/23/2 2/14/2 3/1/2
f 3/17/3 4/23/3 204/14/3 203/1/3
f 4/2/3 5/15/3 107/14/3 106/1/3
f 80/1/6 143/2/6 145/28/6 82/27/6
f 251/17/2 273/36/2 133/33/2 105/1/2
f 109/2/3 110/15/3 157/14/3 147/1/3
f 158/1/4 147/2/4 157/15/4 159/14/4
f 142/1/6 244/16/6 246/29/6 144/27/6
f 273/16/2 290/35/2 190/33/2 183/1/2
f 243/14/2 236/1/2 290/2/2 293/15/2
f 243/1/6 329/16/6 331/29/6 245/27/6
f 305/2/2 329/41/2 293/40/2 263/1/2
f 335/2/2 345/38/2 315/37/2 300/1/2
f 345/1/4 335/18/4 338/24/4 346/14/4
f 354/1/4 341/19/4 342/25/4 355/14/4
f 319/2/1 325/15/1 317/14/1 316/1/1
f 355/1/4 347/17/4 348/23/4 356/14/4
f 330/1/6 354/2/6 356/28/6 332/27/6

usemtl water_still
f 195/1/43 196/2/43 194/15/43 193/14/43
f 146/1/44 199/2/44 200/15/44 201/14/44
f 231/1/43 232/2/43 230/15/43 229/14/43
f 189/1/44 233/2/44 234/15/44 235/14/44
f 242/1/45 241/2/45 239/15/45 238/14/45
f 199/1/46 248/2/46 249/15/46 250/14/46
f 266/1/47 269/2/47 268/15/47 267/14/47
f 223/1/44 274/2/44 275/15/44 276/14/44
f 284/1/45 283/2/45 281/15/45 280/14/45
f 233/1/46 287/2/46 288/15/46 289/14/46
f 240/1/44 291/2/44 292/15/44 233/14/44
f 299/1/45 298/2/45 297/15/45 296/14/45
f 260/1/48 304/2/48 303/15/48 302/14/48
f 311/1/49 310/2/49 308/15/49 307/14/49
f 274/1/49 312/2/49 313/15/49 314/14/49
f 282/1/50 317/2/50 318/15/50 274/14/50
f 322/1/51 323/2/51 321/15/51 320/14/51
f 291/1/52 326/2/52 327/15/52 328/14/52
f 295/1/50 333/2/50 334/15/50 291/14/50

usemtl water_flow
f 140/2/3 193/8/3 194/6/3 189/1/3
f 145/1/6 198/2/6 199/15/6 146/14/6
f 184/2/3 229/5/3 230/6/3 223/1/3
f 189/2/3 238/7/3 239/3/3 233/1/3
f 240/1/4 233/2/4 239/4/4 241/10/4
f 198/1/6 247/2/6 248/13/6 199/14/6
f 218/2/1 266/11/1 267/3/1 213/1/1
f 213/2/3 267/4/3 268/6/3 260/1/3
f 223/2/3 280/7/3 281/3/3 274/1/3
f 282/1/4 274/2/4 281/4/4 283/10/4
f 246/1/6 294/2/6 295/15/6 247/14/6
f 240/2/3 296/11/3 297/3/3 291/1/3
f 295/1/4 291/2/4 297/4/4 298/10/4
f 247/1/6 295/2/6 298/11/6 299/12/6
f 252/2/3 302/7/3 303/6/3 301/1/3
f 260/2/3 307/7/3 308/3/3 304/1/3
f 309/1/4 304/2/4 308/4/4 310/9/4
f 282/2/3 320/11/3 321/3/3 317/1/3
f 294/1/6 332/2/6 333/15/6 295/14/6

usemtl coal_ore
f 81/2/1 83/15/1 66/14/1 65/1/1
f 81/1/6 82/2/6 84/15/6 83/14/6
f 345/2/2 351/28/2 324/27/2 315/1/2
f 351/1/4 345/16/4 346/22/4 352/14/4

usemtl birch_log
f 110/2/3 120/15/3 160/14/3 157/1/3
f 159/1/4 157/2/4 160/15/4 161/14/4
f 131/1/6 159/2/6 161/15/6 121/14/6
f 121/2/1 162/15/1 163/14/1 120/1/1
f 120/2/3 163/15/3 164/14/3 160/1/3
f 161/1/4 160/2/4 164/15/4 165/14/4
f 121/1/6 161/2/6 165/15/6 162/14/6
f 162/2/1 166/15/1 167/14/1 163/1/1
f 163/2/3 167/15/3 168/14/3 164/1/3
f 165/1/4 164/2/4 168/15/4 169/14/4
f 162/1/6 165/2/6 169/15/6 166/14/6
f 166/2/1 122/15/1 111/14/1 167/1/1
f 167/2/3 111/15/3 148/14/3 168/1/3
f 169/1/4 168/2/4 148/15/4 170/14/4
f 166/1/6 169/2/6 170/15/6 122/14/6
f 122/2/1 123/15/1 113/14/1 111/1/1
f 111/2/3 113/15/3 150/14/3 148/1/3
f 170/1/4 148/2/4 150/15/4 171/14/4
f 122/1/6 170/2/6 171/15/6 123/14/6
f 123/2/1 124/15/1 115/14/1 113/1/1
f 113/2/3 115/15/3 151/14/3 150/1/3
f 171/1/4 150/2/4 151/15/4 172/14/4
f 123/1/6 171/2/6 172/15/6 124/14/6
f 124/2/1 126/15/1 119/14/1 115/1/1
f 115/2/3 119/15/3 153/14/3 151/1/3
f 172/1/4 151/2/4 153/15/4 173/14/4
f 124/1/6 172/2/6 173/15/6 126/14/6

usemtl birch_log_top
f 126/1/5 173/2/5 153/15/5 119/14/5

usemtl birch_leaves
f 18/2/1 25/28/1 26/27/1 19/1/1
f 19/19/3 26/32/3 257/27/3 254/1/3
f 21/1/4 20/2/4 27/28/4 28/27/4
f 22/1/5 256/19/5 255/25/5 23/14/5
f 255/19/2 256/25/2 22/14/2 23/1/2
f 42/1/5 132/16/5 114/35/5 26/33/5
f 22/1/6 24/2/6 28/15/6 25/14/6
f 40/16/1 42/22/1 25/14/1 22/1/1
f 22/2/3 25/15/3 28/14/3 24/1/3
f 41/1/4 24/16/4 28/22/4 43/14/4
f 30/1/6 31/2/6 33/15/6 32/14/6
f 30/2/3 32/15/3 33/14/3 31/1/3
f 21/2/1 116/34/1 117/33/1 20/1/1
f 254/18/2 253/24/2 21/14/2 20/1/2
f 111/1/4 112/2/4 118/34/4 119/33/4
f 21/1/6 111/2/6 119/34/6 116/33/6
f 209/17/2 210/23/2 28/14/2 27/1/2
f 27/17/3 117/23/3 211/14/3 209/1/3
f 116/1/5 212/17/5 211/23/5 117/14/5
f 111/2/2 136/34/2 46/33/2 21/1/2
f 21/2/3 128/38/3 129/37/3 111/1/3
f 47/1/5 137/2/5 113/34/5 24/33/5
f 29/1/6 122/2/6 130/38/6 127/37/6
f 41/16/1 43/22/1 28/14/1 24/1/1
f 113/2/2 137/34/2 47/33/2 24/1/2
f 33/2/1 127/28/1 128/27/1 28/1/1
f 33/14/2 28/1/2 115/2/2 124/15/2
f 125/1/5 126/2/5 119/15/5 116/14/5
f 125/14/2 116/1/2 119/2/2 126/15/2
f 126/1/4 119/2/4 129/15/4 130/14/4
f 127/1/5 130/2/5 129/15/5 128/14/5
f 29/2/3 33/28/3 124/27/3 122/1/3
f 136/1/4 122/16/4 124/29/4 138/27/4
f 39/1/6 270/18/6 272/31/6 43/27/6
f 39/17/3 43/30/3 221/27/3 219/1/3
f 46/1/6 224/17/6 226/30/6 48/27/6
f 48/1/5 138/2/5 132/15/5 43/14/5
f 111/2/1 129/38/1 154/37/1 112/1/1
f 148/1/4 149/2/4 155/38/4 156/37/4
f 115/1/5 258/17/5 257/23/5 114/14/5
f 119/14/2 118/1/2 152/2/2 153/15/2
f 118/2/3 154/15/3 155/14/3 152/1/3
f 181/1/5 182/2/5 155/34/5 154/33/5
f 119/1/6 153/2/6 156/15/6 129/14/6
f 126/2/1 130/15/1 129/14/1 119/1/1
f 119/2/3 129/15/3 156/14/3 153/1/3
f 173/1/4 153/2/4 156/15/4 174/14/4
f 126/1/6 173/2/6 174/15/6 130/14/6
f 136/16/1 138/29/1 124/27/1 122/1/1
f 170/2/2 185/28/2 136/27/2 122/1/2
f 185/1/4 170/16/4 172/29/4 187/27/4
f 137/1/5 186/2/5 171/28/5 123/27/5
f 171/2/2 186/28/2 137/27/2 123/1/2
f 138/1/5 187/2/5 172/28/5 124/27/5
f 132/2/1 181/28/1 130/27/1 124/1/1
f 132/14/2 124/1/2 172/2/2 178/15/2
f 178/1/4 172/2/4 174/28/4 182/27/4
f 179/1/5 180/2/5 173/15/5 126/14/5
f 132/1/6 178/2/6 182/28/6 181/27/6
f 179/14/2 126/1/2 173/2/2 180/15/2
f 126/2/3 130/15/3 174/14/3 173/1/3
f 148/2/1 153/34/1 152/33/1 149/1/1
f 224/1/4 208/18/4 209/31/4 226/27/4
f 148/1/6 253/16/6 258/29/6 151/27/6
f 214/1/4 209/16/4 211/22/4 215/14/4
f 151/1/6 210/2/6 212/15/6 153/14/6
f 253/16/2 277/35/2 185/33/2 148/1/2
f 148/16/3 151/29/3 258/27/3 253/1/3
f 186/1/5 278/16/5 256/35/5 150/33/5
f 170/1/6 261/16/6 262/29/6 172/27/6
f 256/16/2 271/29/2 177/27/2 150/1/2
f 178/1/5 272/16/5 258/29/5 151/27/5
f 172/14/2 151/1/2 210/2/2 214/15/2
f 151/2/3 156/28/3 216/27/3 210/1/3
f 173/1/5 215/2/5 212/15/5 153/14/5
f 172/1/6 214/2/6 217/28/6 174/27/6
f 173/2/1 174/15/1 156/14/1 153/1/1
f 173/14/2 153/1/2 212/2/2 215/15/2
f 215/1/4 212/2/4 216/15/4 217/14/4
f 174/1/5 217/2/5 216/15/5 156/14/5
f 185/16/1 187/29/1 172/27/1 170/1/1
f 170/16/3 172/29/3 262/27/3 261/1/3
f 186/14/2 177/1/2 220/2/2 225/15/2
f 187/1/5 226/2/5 221/15/5 178/14/5
f 219/17/1 221/30/1 209/27/1 208/1/1
f 270/1/4 254/17/4 257/30/4 272/27/4
f 224/2/1 225/15/1 220/14/1 219/1/1
f 219/2/3 220/15/3 271/14/3 270/1/3
f 277/1/4 270/2/4 271/15/4 278/14/4
f 224/1/6 277/2/6 278/15/6 225/14/6
