P3
16 16
255
46 46 46 205 202 202 177 177 177 205 202 202 205 202 202 190 190 190 190 190 190 230 230 230 177 177 177 205 202 202 205 202 202 177 177 177 177 177 177 230 230 230 205 202 202 161 161 161 
210 210 210 205 202 202 190 190 190 210 210 210 230 230 230 230 230 230 230 230 230 210 210 210 190 190 190 210 210 210 230 230 230 230 230 230 230 230 230 210 210 210 205 202 202 161 161 161 
210 210 210 205 202 202 210 210 210 210 210 210 205 202 202 205 202 202 190 190 190 190 190 190 205 202 202 205 202 202 205 202 202 190 190 190 190 190 190 205 202 202 205 202 202 161 161 161 
219 218 218 205 202 202 161 161 161 177 177 177 177 177 177 177 177 177 177 177 177 205 202 202 161 161 161 177 177 177 177 177 177 177 177 177 177 177 177 210 210 210 205 202 202 161 161 161 
219 218 218 205 202 202 177 177 177 205 202 202 205 202 202 205 202 202 205 202 202 210 210 210 177 177 177 205 202 202 205 202 202 205 202 202 205 202 202 210 210 210 205 202 202 161 161 161 
219 218 218 205 202 202 177 177 177 205 202 202 205 202 202 205 202 202 190 190 190 230 230 230 177 177 177 205 202 202 205 202 202 205 202 202 190 190 190 230 230 230 205 202 202 161 161 161 
219 218 218 205 202 202 177 177 177 205 202 202 205 202 202 190 190 190 190 190 190 230 230 230 177 177 177 205 202 202 205 202 202 190 190 190 190 190 190 230 230 230 205 202 202 161 161 161 
219 218 218 205 202 202 190 190 190 210 210 210 230 230 230 230 230 230 230 230 230 210 210 210 190 190 190 210 210 210 230 230 230 230 230 230 230 230 230 210 210 210 190 190 190 161 161 161 
210 210 210 205 202 202 210 210 210 210 210 210 210 210 210 205 202 202 190 190 190 190 190 190 205 202 202 210 210 210 210 210 210 205 202 202 190 190 190 190 190 190 190 190 190 166 166 166 
219 218 218 205 202 202 161 161 161 177 177 177 177 177 177 177 177 177 177 177 177 205 202 202 190 190 190 177 177 177 177 177 177 177 177 177 177 177 177 210 210 210 205 202 202 161 161 161 
67 67 67 205 202 202 177 177 177 205 202 202 205 202 202 205 202 202 205 202 202 210 210 210 177 177 177 205 202 202 205 202 202 205 202 202 205 202 202 210 210 210 205 202 202 166 166 166 
46 46 46 205 202 202 177 177 177 205 202 202 205 202 202 205 202 202 190 190 190 230 230 230 177 177 177 205 202 202 205 202 202 205 202 202 190 190 190 230 230 230 205 202 202 161 161 161 
210 210 210 205 202 202 177 177 177 205 202 202 205 202 202 190 190 190 190 190 190 230 230 230 177 177 177 205 202 202 205 202 202 190 190 190 190 190 190 230 230 230 205 202 202 161 161 161 
210 210 210 205 202 202 190 190 190 210 210 210 230 230 230 230 230 230 230 230 230 210 210 210 190 190 190 210 210 210 230 230 230 230 230 230 230 230 230 210 210 210 190 190 190 166 166 166 
219 218 218 190 190 190 190 190 190 205 202 202 210 210 210 210 210 210 205 202 202 190 190 190 190 190 190 205 202 202 210 210 210 210 210 210 205 202 202 190 190 190 161 161 161 166 166 166 
177 177 177 161 161 161 166 166 166 166 166 166 166 166 166 166 166 166 166 166 166 166 166 166 166 166 166 166 166 166 166 166 166 166 166 166 166 166 166 166 166 166 166 166 166 166 166 166 
