P3
16 16
255
219 218 218 210 210 210 210 210 210 219 218 218 219 218 218 219 218 218 219 218 218 210 210 210 219 218 218 219 218 218 219 218 218 219 218 218 210 210 210 219 218 218 219 218 218 205 202 202 
210 210 210 205 202 202 205 202 202 205 202 202 205 202 202 205 202 202 205 202 202 205 202 202 205 202 202 205 202 202 205 202 202 205 202 202 205 202 202 205 202 202 205 202 202 161 161 161 
219 218 218 205 202 202 161 161 161 177 177 177 177 177 177 177 177 177 177 177 177 205 202 202 161 161 161 177 177 177 177 177 177 177 177 177 177 177 177 205 202 202 205 202 202 161 161 161 
219 218 218 205 202 202 177 177 177 177 177 177 177 177 177 177 177 177 193 193 193 210 210 210 177 177 177 177 177 177 177 177 177 177 177 177 193 193 193 210 210 210 205 202 202 161 161 161 
79 79 79 205 202 202 177 177 177 177 177 177 196 195 195 196 195 195 230 230 230 230 230 230 177 177 177 177 177 177 196 195 195 196 195 195 230 230 230 230 230 230 205 202 202 161 161 161 
129 129 129 205 202 202 177 177 177 193 193 193 230 230 230 230 230 230 210 210 210 210 210 210 177 177 177 193 193 193 230 230 230 230 230 230 210 210 210 210 210 210 205 202 202 161 161 161 
210 210 210 205 202 202 190 190 190 210 210 210 230 230 230 230 230 230 210 210 210 210 210 210 190 190 190 210 210 210 230 230 230 230 230 230 210 210 210 210 210 210 205 202 202 161 161 161 
219 218 218 205 202 202 161 161 161 177 177 177 177 177 177 177 177 177 177 177 177 205 202 202 161 161 161 177 177 177 177 177 177 177 177 177 177 177 177 205 202 202 205 202 202 161 161 161 
219 218 218 205 202 202 177 177 177 177 177 177 177 177 177 177 177 177 193 193 193 210 210 210 177 177 177 177 177 177 177 177 177 177 177 177 193 193 193 210 210 210 205 202 202 161 161 161 
210 210 210 205 202 202 177 177 177 177 177 177 196 195 195 196 195 195 230 230 230 230 230 230 177 177 177 177 177 177 196 195 195 196 195 195 230 230 230 230 230 230 205 202 202 161 161 161 
219 218 218 205 202 202 177 177 177 193 193 193 230 230 230 230 230 230 210 210 210 210 210 210 177 177 177 193 193 193 230 230 230 230 230 230 210 210 210 210 210 210 205 202 202 161 161 161 
219 218 218 205 202 202 190 190 190 210 210 210 230 230 230 230 230 230 210 210 210 210 210 210 190 190 190 210 210 210 230 230 230 230 230 230 210 210 210 210 210 210 205 202 202 161 161 161 
219 218 218 205 202 202 210 210 210 210 210 210 210 210 210 205 202 202 190 190 190 190 190 190 210 210 210 210 210 210 210 210 210 205 202 202 190 190 190 190 190 190 205 202 202 161 161 161 
219 218 218 205 202 202 161 161 161 177 177 177 177 177 177 177 177 177 177 177 177 205 202 202 161 161 161 177 177 177 177 177 177 177 177 177 177 177 177 205 202 202 205 202 202 161 161 161 
210 210 210 205 202 202 177 177 177 205 202 202 205 202 202 205 202 202 205 202 202 210 210 210 177 177 177 205 202 202 205 202 202 67 67 67 129 129 129 129 129 129 205 202 202 161 161 161 
79 79 79 205 202 202 177 177 177 205 202 202 205 202 202 205 202 202 177 177 177 210 210 210 177 177 177 205 202 202 205 202 202 67 67 67 161 161 161 190 190 190 205 202 202 161 161 161 
