P3
16 16
255
225 99 2 223 96 0 225 98 1 225 97 0 225 97 0 225 98 1 223 96 0 225 97 0 225 97 0 224 97 0 225 98 2 223 96 0 225 97 0 225 97 0 224 96 0 225 97 0 
224 96 0 225 97 0 225 97 0 222 96 0 225 98 2 225 99 3 225 98 2 225 98 2 224 96 0 225 97 0 225 98 1 223 96 0 223 96 0 223 96 0 223 96 0 224 97 0 
225 98 2 224 96 0 224 97 0 223 96 0 225 98 1 225 97 0 225 97 0 223 96 0 224 97 0 222 96 0 223 96 0 225 97 0 225 97 0 224 97 0 225 98 1 225 98 2 
225 99 3 225 98 2 224 97 0 223 96 0 223 96 0 225 98 2 225 98 2 225 97 0 225 97 0 225 97 0 223 96 0 224 97 0 225 99 3 222 96 0 223 96 0 225 99 2 
223 96 0 223 96 0 224 96 0 225 99 3 223 96 0 225 97 0 224 97 0 225 99 2 223 96 0 225 99 3 225 97 0 223 96 0 225 97 0 225 98 1 225 97 0 225 98 2 
225 97 0 225 97 1 225 98 2 225 98 1 225 99 2 225 98 1 224 96 0 222 96 0 225 98 1 225 98 1 225 97 0 225 98 1 225 98 2 225 97 0 223 96 0 225 99 3 
225 97 0 225 97 0 225 97 0 225 98 1 225 99 3 223 96 0 225 98 2 224 97 0 224 97 0 222 96 0 225 98 2 224 97 0 225 98 1 225 97 0 225 97 0 224 96 0 
225 99 3 225 97 0 223 96 0 225 99 3 225 98 1 225 97 0 225 97 0 225 97 0 225 99 3 225 97 0 225 98 1 225 98 1 225 98 1 225 98 1 224 96 0 224 97 0 
225 97 0 224 96 0 223 96 0 225 97 0 225 98 1 225 98 2 224 97 0 223 96 0 225 98 1 225 97 0 225 97 0 225 97 1 222 96 0 224 97 0 225 97 0 225 98 2 
225 97 0 223 96 0 225 98 1 224 97 0 224 97 0 223 96 0 225 98 1 225 97 0 222 96 0 225 98 2 225 98 1 222 96 0 225 97 1 224 97 0 224 97 0 224 97 0 
223 96 0 225 97 1 223 96 0 222 96 0 224 97 0 223 96 0 225 97 0 225 98 1 224 96 0 224 96 0 225 98 2 224 96 0 225 97 0 225 97 0 223 96 0 225 98 1 
225 97 0 223 96 0 225 99 3 223 96 0 224 97 0 225 99 2 225 97 0 223 96 0 223 96 0 225 98 1 223 96 0 223 96 0 225 98 2 225 98 2 225 98 2 222 96 0 
225 97 0 225 97 0 225 98 2 225 99 3 225 98 2 225 97 0 225 99 2 223 96 0 225 99 3 223 96 0 225 97 0 223 96 0 224 96 0 223 96 0 223 96 0 224 97 0 
225 97 0 223 96 0 225 98 1 224 96 0 224 96 0 225 98 2 224 97 0 225 97 0 225 99 3 223 96 0 224 96 0 225 97 0 225 97 0 225 97 0 224 97 0 225 97 0 
225 97 0 223 96 0 225 99 3 225 98 2 225 99 3 225 97 0 225 97 0 225 98 2 225 98 2 225 98 2 225 98 1 223 96 0 223 96 0 224 96 0 225 98 1 225 97 0 
225 98 1 224 97 0 225 97 0 225 97 0 225 99 3 222 96 0 225 97 0 224 97 0 225 97 0 225 97 0 225 97 0 225 98 2 225 99 3 225 97 0 225 98 2 225 98 2 
