P3
16 16
255
78 75 84 78 75 84 60 57 71 78 75 84 78 75 84 78 75 84 60 57 71 78 75 84 78 75 84 60 57 71 78 75 84 78 75 84 78 75 84 60 57 71 60 57 71 49 44 54 
78 75 84 60 57 71 49 44 54 60 57 71 60 57 71 78 75 84 49 44 54 60 57 71 49 44 54 49 44 54 60 57 71 49 44 54 60 57 71 49 44 54 49 44 54 22 15 16 
60 57 71 49 44 54 78 75 84 60 57 71 60 57 71 49 44 54 49 44 54 49 44 54 39 34 28 49 44 54 60 57 71 78 75 84 60 57 71 60 57 71 49 44 54 31 18 27 
78 75 84 78 75 84 49 44 54 60 57 71 60 57 71 49 44 54 49 44 54 60 57 71 60 57 71 49 44 54 49 44 54 60 57 71 49 44 54 60 57 71 39 34 28 31 18 27 
78 75 84 78 75 84 60 57 71 49 44 54 39 34 28 49 44 54 39 34 28 49 44 54 60 57 71 49 44 54 60 57 71 49 44 54 39 34 28 49 44 54 39 34 28 49 44 54 
78 75 84 49 44 54 78 75 84 78 75 84 60 57 71 60 57 71 60 57 71 49 44 54 39 34 28 49 44 54 60 57 71 78 75 84 60 57 71 60 57 71 49 44 54 49 44 54 
60 57 71 60 57 71 49 44 54 60 57 71 60 57 71 49 44 54 49 44 54 60 57 71 60 57 71 49 44 54 49 44 54 60 57 71 49 44 54 60 57 71 39 34 28 49 44 54 
60 57 71 78 75 84 49 44 54 78 75 84 60 57 71 60 57 71 49 44 54 39 34 28 78 75 84 60 57 71 60 57 71 39 34 28 49 44 54 39 34 28 39 34 28 31 18 27 
78 75 84 78 75 84 60 57 71 78 75 84 49 44 54 60 57 71 39 34 28 39 34 28 60 57 71 60 57 71 49 44 54 39 34 28 49 44 54 39 34 28 60 57 71 22 15 16 
60 57 71 60 57 71 49 44 54 60 57 71 49 44 54 78 75 84 60 57 71 60 57 71 49 44 54 39 34 28 39 34 28 49 44 54 49 44 54 49 44 54 60 57 71 31 18 27 
78 75 84 60 57 71 78 75 84 60 57 71 60 57 71 60 57 71 39 34 28 49 44 54 39 34 28 31 18 27 60 57 71 60 57 71 39 34 28 60 57 71 60 57 71 39 34 28 
78 75 84 49 44 54 60 57 71 49 44 54 60 57 71 49 44 54 49 44 54 60 57 71 49 44 54 39 34 28 60 57 71 49 44 54 39 34 28 31 18 27 49 44 54 39 34 28 
78 75 84 60 57 71 49 44 54 49 44 54 49 44 54 49 44 54 60 57 71 49 44 54 60 57 71 39 34 28 49 44 54 39 34 28 31 18 27 49 44 54 49 44 54 31 18 27 
78 75 84 49 44 54 60 57 71 60 57 71 31 18 27 39 34 28 49 44 54 49 44 54 60 57 71 49 44 54 49 44 54 60 57 71 31 18 27 60 57 71 60 57 71 31 18 27 
60 57 71 49 44 54 60 57 71 49 44 54 39 34 28 49 44 54 39 34 28 39 34 28 39 34 28 31 18 27 31 18 27 49 44 54 49 44 54 60 57 71 49 44 54 39 34 28 
49 44 54 39 34 28 39 34 28 39 34 28 39 34 28 39 34 28 31 18 27 39 34 28 39 34 28 39 34 28 39 34 28 39 34 28 39 34 28 39 34 28 31 18 27 39 34 28 
