P3
16 16
255
224 226 226 230 232 232 228 230 230 221 224 224 226 228 228 223 224 225 224 226 226 232 233 233 223 226 226 218 221 222 217 220 220 216 220 221 238 238 238 240 241 241 216 218 219 228 229 229 
231 232 232 225 226 227 234 235 235 238 239 239 203 206 207 233 233 233 212 216 216 214 217 218 226 228 229 220 223 223 249 249 249 220 223 223 236 237 237 223 224 225 220 223 223 242 242 242 
243 243 243 240 241 241 243 244 245 223 225 225 223 224 225 232 232 233 227 228 229 226 228 228 230 231 231 227 229 230 228 230 230 241 241 242 219 221 221 225 227 227 230 231 231 233 235 236 
216 217 218 230 231 232 216 218 218 230 231 231 224 226 226 218 221 221 223 225 225 237 237 238 202 205 206 217 220 220 234 234 234 224 226 226 238 239 239 233 235 235 225 227 228 210 212 212 
237 237 237 219 221 222 234 236 236 232 233 233 232 234 234 225 228 228 241 242 242 232 234 234 223 225 225 226 226 227 224 226 226 242 243 243 236 237 237 231 231 231 240 241 241 219 220 221 
216 218 218 224 226 226 220 223 223 246 247 247 219 220 221 228 229 230 228 229 230 219 221 222 224 226 226 225 227 228 231 232 232 216 218 218 214 216 217 211 214 215 218 221 221 226 227 227 
206 210 210 230 231 231 220 222 222 231 233 233 225 226 226 234 235 235 216 218 219 228 229 229 226 228 228 225 226 227 226 229 230 245 246 246 224 226 226 224 226 227 238 239 239 231 232 232 
223 224 225 223 226 226 227 230 230 216 219 220 233 234 234 229 230 230 242 243 243 230 232 233 225 226 227 221 223 223 220 222 223 214 217 218 222 224 224 223 225 225 231 234 234 242 242 242 
224 226 226 239 240 240 237 238 238 229 231 232 236 237 237 219 222 222 231 233 233 218 221 222 216 218 219 246 247 248 214 216 216 222 224 225 225 226 227 232 234 234 226 228 228 223 224 225 
215 217 217 223 225 226 235 237 237 230 231 231 240 240 240 220 222 223 224 226 226 216 218 219 226 228 228 221 223 224 240 240 240 235 237 237 232 233 233 234 235 236 225 227 227 231 232 232 
226 228 228 226 228 228 218 218 218 228 230 230 211 213 214 230 232 232 220 222 223 226 228 229 227 230 230 227 230 230 235 235 235 220 223 223 228 230 230 253 253 253 226 228 228 222 223 224 
212 216 216 230 231 232 228 230 230 230 231 231 220 223 223 223 226 226 233 234 234 219 221 221 223 224 225 232 234 234 232 233 233 243 244 244 216 218 219 224 226 226 225 226 226 216 218 218 
236 238 238 223 225 226 214 216 217 231 233 234 225 226 227 223 225 226 223 226 226 207 209 210 218 220 220 226 228 228 224 226 226 216 219 220 227 229 230 235 236 237 213 215 216 221 223 224 
220 223 224 225 227 228 210 212 213 202 206 206 217 219 220 228 230 230 220 223 223 230 232 233 230 231 231 232 234 234 223 226 226 226 228 228 223 226 226 216 218 219 235 237 237 238 238 238 
223 226 226 224 226 227 219 220 221 224 226 226 219 222 223 216 219 219 234 235 235 225 227 227 219 221 221 241 241 241 214 216 216 220 222 223 228 229 230 212 215 215 216 218 218 226 228 228 
223 225 225 225 227 228 225 227 227 212 215 215 241 243 243 233 234 234 212 214 214 228 230 230 223 225 226 228 230 231 215 218 218 222 223 224 223 225 226 220 223 224 230 231 232 211 213 213 
