# Wavefront OBJ file made by Mineways version 11.03, http://mineways.com
# World: __RTX__ Test Map 2_0
# Terrain file name: C:\Cours\TIPE\mineways\terrainExt.png
# Color scheme: Standard
# Mon Oct 23 20:18:57 2023

# Selection location min to max: 166, 0, -205 to 209, 319, -195
#   Non-empty selection location min to max: 166, 3, -205 to 209, 18, -196

# Set render type: Wavefront OBJ absolute indices
# Units for the model vertex data itself: meters

# 253 vertices, 166 faces (332 triangles), 1544 blocks, 3 billboards/bits. Simplification saved 3097 faces.
# block dimensions: X=44 by Y=16 (height) by Z=10 blocks
# Elevation shading: no
# Lighting: no
# Transparent water: no
# Map grid: no
# File type: Export individual textures to directory tex
# Texture output RGB: YES
# Texture output A: YES
# Texture output RGBA: YES
# Export separate types: YES
# Export individual blocks: no
#   Material per family: YES
#   Split by block type: YES
# Make groups objects: no
# Custom material: YES
# Export lesser blocks: YES
# Fatten lesser blocks: no
# Simplify mesh: YES
# Double all billboard faces: no
# Create composite overlay faces: no
# Center model: YES
# Use biomes: no
# Create block faces at the borders: YES
# Tree leaves solid: no
# Rotate model 0.000000 degrees
# Make Z the up direction instead of Y: no
# Scale model by making each block 150 mm high
# Data operation options:
#   Fill air bubbles: no; Seal off entrances: no; Fill in isolated tunnels in base of model: no
#   Connect parts sharing an edge: no; Connect corner tips: no; Weld all shared edges: no
#   Delete floating objects: trees and parts smaller than 16 blocks: no
#   Hollow out bottom of model, making the walls 1000 mm thick: no; Superhollow: no
# Melt snow blocks: no
#   Debug: show separate parts as colors: no
#   Debug: show weld blocks in bright colors: no

# Full world path: C:\Users\Florian\AppData\Roaming\.minecraft\saves\__RTX__ Test Map 2_0
# Full terrainExt.png path: C:\Cours\TIPE\mineways\terrainExt.png
# Full current path: C:\Cours\TIPE\mineways

mtllib go_ciel_laine.mtl

o __RTX___Test_Map_2_0__166_0_-205_to_209_319_-195
vn -1 0 0
vn 0 -1 0
vn 0 0 -1
vn 1 0 0
vn 0 1 0
vn 0 0 1
vn -0.707107 0 -0.707107
vn -0.707107 0 0.707107
vn 0.707107 0 -0.707107
vn 0.707107 0 0.707107
vn -0.707107 -0.707107 0
vn 0 -0.707107 -0.707107
vn 0.707107 -0.707107 0
vn 0 -0.707107 0.707107
vn -0.707107 0.707107 0
vn 0 0.707107 -0.707107
vn 0.707107 0.707107 0
vn 0 0.707107 0.707107
vn -0.92388 0 -0.382683
vn -0.92388 0 0.382683
vn 0.92388 0 -0.382683
vn 0.92388 0 0.382683
vn -0.382683 0 -0.92388
vn -0.382683 0 0.92388
vn 0.382683 0 -0.92388
vn 0.382683 0 0.92388
vn -0.397273 0.9177 0
vn 0.397273 -0.9177 0
vn 0.397273 0.9177 0
vn -0.397273 -0.9177 0
vn 0 0.9177 -0.397273
vn 0 -0.9177 0.397273
vn 0 0.9177 0.397273
vn 0 -0.9177 -0.397273
vn -0.440932 0.897541 0
vn 0.440932 -0.897541 0
vn 0.440932 0.897541 0
vn -0.440932 -0.897541 0
vn 0 0.897541 -0.440932
vn 0 -0.897541 0.440932
vn 0 0.897541 0.440932
vn 0 -0.897541 -0.440932
vt 0.000000000 0.000000000
vt 0.250000000 0.000000000
vt 0.437500000 0.000000000
vt 0.562500000 0.000000000
vt 0.750000000 0.000000000
vt 1.000000000 0.000000000
vt 0.250000000 0.250000000
vt 0.750000000 0.250000000
vt 0.000000000 0.437500000
vt 1.000000000 0.437500000
vt 0.000000000 0.562500000
vt 1.000000000 0.562500000
vt 0.000000000 0.750000000
vt 0.250000000 0.750000000
vt 0.437500000 0.750000000
vt 0.562500000 0.750000000
vt 0.750000000 0.750000000
vt 1.000000000 0.750000000
vt 0.000000000 1.000000000
vt 0.250000000 1.000000000
vt 0.750000000 1.000000000
vt 1.000000000 1.000000000
vt 2.000000000 0.000000000
vt 3.000000000 0.000000000
vt 4.000000000 0.000000000
vt 5.000000000 0.000000000
vt 6.000000000 0.000000000
vt 7.000000000 0.000000000
vt 8.000000000 0.000000000
vt 9.000000000 0.000000000
vt 10.000000000 0.000000000
vt 11.000000000 0.000000000
vt 12.000000000 0.000000000
vt 14.000000000 0.000000000
vt 18.000000000 0.000000000
vt 20.000000000 0.000000000
vt 21.000000000 0.000000000
vt 23.000000000 0.000000000
vt 31.000000000 0.000000000
vt 32.000000000 0.000000000
vt 2.000000000 1.000000000
vt 3.000000000 1.000000000
vt 4.000000000 1.000000000
vt 5.000000000 1.000000000
vt 7.000000000 1.000000000
vt 9.000000000 1.000000000
vt 10.000000000 1.000000000
vt 11.000000000 1.000000000
vt 12.000000000 1.000000000
vt 14.000000000 1.000000000
vt 23.000000000 1.000000000
vt 32.000000000 1.000000000
vt 0.000000000 2.000000000
vt 1.000000000 2.000000000
vt 2.000000000 2.000000000
vt 3.000000000 2.000000000
vt 4.000000000 2.000000000
vt 9.000000000 2.000000000
vt 11.000000000 2.000000000
vt 14.000000000 2.000000000
vt 18.000000000 2.000000000
vt 0.000000000 3.000000000
vt 1.000000000 3.000000000
vt 3.000000000 3.000000000
vt 20.000000000 3.000000000
vt 21.000000000 3.000000000
vt 0.000000000 4.000000000
vt 1.000000000 4.000000000
vt 7.000000000 4.000000000
vt 31.000000000 4.000000000
vt 32.000000000 4.000000000
vt 0.000000000 5.000000000
vt 1.000000000 5.000000000
vt 2.000000000 5.000000000
vt 4.000000000 5.000000000
vt 6.000000000 5.000000000
vt 7.000000000 5.000000000
vt 9.000000000 5.000000000
vt 12.000000000 5.000000000
vt 31.000000000 5.000000000
vt 32.000000000 5.000000000
vt 0.000000000 6.000000000
vt 1.000000000 6.000000000
vt 2.000000000 6.000000000
vt 3.000000000 6.000000000
vt 8.000000000 6.000000000
vt 10.000000000 6.000000000
vt 0.000000000 7.000000000
vt 1.000000000 7.000000000
vt 3.000000000 7.000000000
vt 6.000000000 7.000000000
vt 31.000000000 7.000000000
vt 0.000000000 8.000000000
vt 1.000000000 8.000000000
vt 0.000000000 9.000000000
vt 2.000000000 9.000000000
vt 0.000000000 10.000000000
vt 2.000000000 10.000000000
vt 0.000000000 12.000000000
vt 2.000000000 12.000000000
vt 4.000000000 12.000000000
vt 14.000000000 12.000000000
vt 0.000000000 13.000000000
vt 1.000000000 13.000000000
vt 2.000000000 13.000000000
v 3.01563 0.942188 0.15
v 3.00312 0.942188 0.15
v 3.01563 1.01719 0.15
v 3.00312 1.01719 0.15
v 3.01563 0.942188 0.3
v 3.00312 0.942188 0.3
v 3.01563 1.01719 0.3
v 3.00312 1.01719 0.3
v -1.3125 0.75 -0.7125
v -1.3125 0.75 -0.6375
v -1.3125 0.9 -0.7125
v -1.3125 0.9 -0.6375
v -1.2375 0.75 -0.7125
v -1.2375 0.75 -0.6375
v -1.2375 0.9 -0.7125
v -1.2375 0.9 -0.6375
v -1.3125 0.9 -0.7125
v -1.3125 0.9 -0.6375
v -1.3125 1.05 -0.7125
v -1.3125 1.05 -0.6375
v -1.2375 0.9 -0.7125
v -1.2375 0.9 -0.6375
v -1.2375 1.05 -0.7125
v -1.2375 1.05 -0.6375
v -3.3 0.6 -0.75
v -3.3 0.75 -0.75
v -3.3 0.75 -0.45
v -3.15 0.75 -0.45
v -3.3 0.6 -0.3
v -3.3 0.6 0
v -3.15 0.6 0
v -3.15 0.6 0.15
v -3.3 0.6 0.75
v -3.3 0.75 0.75
v -3.15 0.6 0.75
v -3.15 0.75 0.75
v -3 0.6 -0.3
v -3.15 1.65 -0.45
v -3 0.75 -0.3
v -3 1.5 -0.3
v -3 0.6 0
v -3 0.6 0.15
v -3 1.5 0.45
v -3.15 1.65 0.45
v -3 1.65 0.45
v -3 0.6 0.6
v -3 0.75 0.6
v -3 1.35 0.6
v -3 1.5 0.6
v -3 1.65 0.6
v -3 0.6 0.75
v -3.15 1.35 0.75
v -3 1.35 0.75
v -3.15 1.65 0.75
v -3 1.65 0.75
v -2.55 0.6 -0.3
v -2.55 0.75 -0.3
v -2.55 0.6 0.6
v -2.55 0.75 0.6
v -2.1 0.6 -0.3
v -2.1 0.75 -0.3
v -2.1 0.6 0.6
v -2.1 0.75 0.6
v -1.65 0.75 -0.75
v -1.65 0.75 -0.45
v -1.65 0.6 -0.3
v -1.65 0.75 -0.3
v -1.65 1.65 -0.45
v -1.65 1.65 -0.3
v -1.65 1.65 0.45
v -1.65 0.6 0.6
v -1.65 0.75 0.6
v -1.5 0.75 -0.75
v -1.5 1.5 -0.75
v -1.5 1.65 -0.75
v -1.5 2.55 -0.75
v -1.65 2.7 -0.75
v -1.5 2.7 -0.75
v -1.5 0.75 -0.45
v -1.5 1.5 -0.45
v -1.5 1.65 -0.45
v -1.5 2.55 -0.45
v -1.65 2.7 -0.45
v -1.65 2.7 -0.3
v -1.35 1.05 -0.75
v -1.35 1.05 -0.6
v -1.35 1.2 -0.6
v -1.35 1.2 -0.75
v -1.2 1.05 -0.6
v -1.2 1.05 -0.75
v -1.2 1.2 -0.75
v -1.2 1.2 -0.6
v -1.2 0.6 -0.3
v -1.2 0.75 -0.3
v -1.2 0.6 0.6
v -1.2 0.75 0.6
v -1.05 1.5 -0.75
v -1.05 1.65 -0.75
v -1.05 1.5 -0.45
v -1.05 1.65 -0.45
v -1.05 2.55 -0.45
v -0.75 0.6 -0.3
v -0.75 0.75 -0.3
v -0.75 0.6 0.6
v -0.75 0.75 0.6
v -0.3 0.6 -0.3
v -0.3 0.75 -0.3
v -0.3 0.6 0.6
v -0.3 0.75 0.6
v -0.15 0.6 -0.6
v -0.15 0.6 -0.75
v -0.15 0.75 -0.75
v -0.15 2.55 -0.75
v -0.15 2.7 -0.75
v -0.15 0.6 -0.45
v -0.15 0.75 -0.45
v -0.15 2.55 -0.45
v -0.15 0.6 -0.3
v -0.15 1.5 -0.45
v 0 0.75 -0.75
v 0 0.75 -0.6
v 0 2.55 -0.75
v 0 2.7 -0.75
v -0.15 0.45 -0.6
v -0.15 0.45 -0.45
v 0 0.75 -0.45
v 0 2.55 -0.45
v 0.15 0.6 -0.3
v 0.15 0.75 -0.3
v 0.15 0.6 0.6
v 0.15 0.75 0.6
v 0.6 0.6 -0.6
v 0.6 0.75 -0.75
v 0.6 0.75 -0.6
v 0.6 2.55 -0.75
v 0.6 2.7 -0.75
v 0.6 0.45 -0.45
v 0.6 0.45 -0.6
v 0.6 0.6 -0.45
v 0.6 0.75 -0.45
v 0.6 2.55 -0.45
v 0.6 0.6 -0.3
v 0.6 0.75 -0.3
v 0.6 0.6 0.6
v 0.6 0.75 0.6
v 0.75 0.75 -0.75
v 0.75 2.55 -0.75
v 0.75 2.7 -0.75
v 0.75 0.75 -0.45
v 0.75 2.55 -0.45
v 1.05 0.6 -0.3
v 1.05 0.75 -0.3
v 1.05 0.6 0.6
v 1.05 0.75 0.6
v 1.35 0.75 -0.75
v 1.35 0.75 -0.6
v 1.35 2.55 -0.6
v 1.35 2.55 -0.75
v 1.35 2.7 -0.75
v 1.35 2.7 -0.6
v 1.35 2.55 -0.45
v 1.35 2.7 -0.45
v 1.35 2.7 -0.3
v 1.5 0.6 -0.75
v 1.5 0.75 -0.75
v 1.5 0.75 -0.6
v 1.35 1.05 -0.6
v 1.35 1.05 -0.75
v 1.5 1.05 -0.75
v 1.5 1.05 -0.6
v 1.35 2.85 -0.45
v 1.35 2.85 -0.6
v 1.5 0.6 -0.3
v 1.5 0.75 -0.3
v 1.5 0.6 0.6
v 1.5 0.75 0.6
v 1.5 0.6 0.75
v 1.5 0.75 0.75
v 1.5 1.35 0.75
v 1.8 0.75 -0.3
v 1.8 1.5 -0.3
v 1.8 1.5 0.45
v 1.8 1.65 0.45
v 1.8 0.6 0.6
v 1.8 0.75 0.6
v 1.8 0.6 0.75
v 1.8 1.35 0.6
v 1.8 1.35 0.75
v 1.95 0.6 -0.3
v 1.95 0.75 -0.3
v 1.95 0.6 0.6
v 1.95 0.75 0.6
v 2.4 0.6 -0.3
v 2.4 0.75 -0.3
v 2.4 0.6 0.6
v 2.4 0.75 0.6
v 2.85 0.75 -0.75
v 2.85 2.55 -0.6
v 2.85 2.55 -0.75
v 2.85 2.7 -0.75
v 2.85 2.7 -0.6
v 2.85 0.75 -0.45
v 2.85 2.55 -0.45
v 2.85 2.7 -0.45
v 2.85 2.85 -0.6
v 2.85 2.85 -0.45
v 2.85 0.6 -0.3
v 2.85 0.75 -0.3
v 2.85 1.5 -0.3
v 2.85 2.7 -0.3
v 2.85 0.75 0.3
v 2.85 1.5 0.3
v 2.85 1.5 0.45
v 2.85 1.65 0.45
v 2.85 0.6 0.6
v 2.85 0.75 0.6
v 2.85 0.6 0.75
v 2.85 1.2 0.6
v 2.85 1.35 0.6
v 2.85 1.35 0.75
v 3 0.75 -0.75
v 3 1.5 -0.75
v 3 1.65 -0.75
v 3 2.7 -0.75
v 3 2.7 -0.6
v 3 1.65 -0.3
v 3 2.7 -0.3
v 3 0.75 0.3
v 2.85 1.2 0.3
v 3 1.2 0.3
v 3 1.5 0.3
v 3 1.65 0.45
v 3 0.75 0.6
v 3 1.2 0.6
v 2.85 1.5 0.6
v 3 1.5 0.6
v 2.85 1.65 0.6
v 2.85 1.65 0.75
v 3 1.65 0.75
v 3.3 0.6 -0.6
v 3.3 0.6 -0.75
v 3.3 0.75 -0.75
v 3.3 1.5 -0.75
v 3.3 1.65 -0.75
v 3.3 0.6 -0.3
v 3.3 0.75 0.6
v 3.3 1.5 0.6
v 3.3 1.65 0.6
v 3.3 0.6 0.75
v 3.3 0.75 0.75
v 3.3 1.2 0.6
v 3.3 1.35 0.75
v 3.3 1.65 0.75

g Orange_Wool
usemtl orange_wool
f 173/24/2 175/85/2 153/82/2 151/1/2
f 154/1/5 176/24/5 174/85/5 152/82/5

g Magenta_Wool
usemtl magenta_wool
f 128/24/2 130/85/2 108/82/2 106/1/2
f 109/1/5 131/24/5 129/85/5 107/82/5

g Light_Wool
usemtl light_blue_wool
f 93/24/2 95/85/2 71/82/2 66/1/2
f 72/1/5 96/24/5 94/85/5 67/82/5

g Yellow_Wool
usemtl yellow_wool
f 189/24/2 191/85/2 175/82/2 173/1/2
f 176/1/5 192/24/5 190/85/5 174/82/5

g Lime_Wool
usemtl lime_wool
f 60/24/2 62/85/2 58/82/2 56/1/2
f 59/1/5 63/24/5 61/85/5 57/82/5
f 193/24/2 195/85/2 191/82/2 189/1/2
f 192/1/5 196/24/5 194/85/5 190/82/5

g Pink_Wool
usemtl pink_wool
f 142/24/2 144/85/2 130/82/2 128/1/2
f 131/1/5 145/24/5 143/85/5 129/82/5

g Cyan_Wool
usemtl cyan_wool
f 66/24/2 71/85/2 62/82/2 60/1/2
f 63/1/5 72/24/5 67/85/5 61/82/5

g Purple_Wool
usemtl purple_wool
f 106/24/2 108/85/2 104/82/2 102/1/2
f 105/1/5 109/24/5 107/85/5 103/82/5

g Blue_Wool
usemtl blue_wool
f 102/24/2 104/85/2 95/82/2 93/1/2
f 96/1/5 105/24/5 103/85/5 94/82/5

g Green_Wool
usemtl green_wool
f 32/19/2 31/1/2 41/6/2 42/22/2
f 56/24/2 58/85/2 46/82/2 37/1/2
f 47/1/5 59/24/5 57/85/5 39/82/5
f 207/24/2 215/85/2 195/82/2 193/1/2
f 196/1/5 216/24/5 208/85/5 194/82/5

g Red_Wool
usemtl red_wool
f 151/24/2 153/85/2 144/82/2 142/1/2
f 145/1/5 154/24/5 152/85/5 143/82/5

g Birch_Wall_Sign
usemtl birch_planks
f 3/15/3 1/3/3 2/4/3 4/16/3
f 2/11/2 1/9/2 5/10/2 6/12/2
f 3/18/4 7/13/4 5/1/4 1/6/4
f 7/16/6 8/15/6 6/3/6 5/4/6
f 7/12/5 3/11/5 4/9/5 8/10/5
f 4/13/1 2/1/1 6/6/1 8/18/1

g White_Stained_Glass
usemtl white_stained_glass
f 198/31/2 203/47/2 161/19/2 157/1/2

g Light_Stained_Glass
usemtl light_blue_stained_glass
f 156/6/1 167/54/1 168/53/1 155/1/1
f 155/6/3 168/54/3 169/53/3 165/1/3
f 166/1/4 165/6/4 169/54/4 170/53/4
f 156/1/6 166/6/6 170/54/6 167/53/6
f 167/1/5 170/6/5 169/22/5 168/19/5

g Stone_Brick_Wall
usemtl stone_bricks
f 11/20/1 9/2/1 10/5/1 12/21/1
f 15/20/3 13/2/3 9/5/3 11/21/3
f 15/21/4 16/20/4 14/2/4 13/5/4
f 15/17/5 11/14/5 12/7/5 16/8/5
f 16/21/6 12/20/6 10/2/6 14/5/6
f 19/20/1 17/2/1 18/5/1 20/21/1
f 18/14/2 17/7/2 21/8/2 22/17/2
f 23/20/3 21/2/3 17/5/3 19/21/3
f 23/21/4 24/20/4 22/2/4 21/5/4
f 24/21/6 20/20/6 18/2/6 22/5/6

g White_Concrete
usemtl white_concrete
f 33/31/1 34/47/1 26/19/1 25/1/1
f 111/37/2 118/66/2 29/62/2 25/1/2
f 25/40/3 26/52/3 165/19/3 164/1/3
f 27/1/5 65/32/5 64/59/5 26/53/5
f 34/1/5 36/6/5 28/94/5 27/93/5
f 37/23/2 41/55/2 30/53/2 29/1/2
f 31/6/2 35/73/2 33/72/2 30/1/2
f 33/1/6 177/40/6 178/52/6 34/19/6
f 36/29/1 54/86/1 38/82/1 28/1/1
f 28/31/3 38/87/3 68/82/3 65/1/3
f 44/1/5 70/31/5 68/87/5 38/82/5
f 47/1/4 39/27/4 40/76/4 49/72/4
f 42/6/2 51/68/2 35/67/2 32/1/2
f 49/1/4 43/6/4 45/22/4 50/19/4
f 54/1/5 55/6/5 45/54/5 44/53/5
f 36/1/6 178/39/6 179/70/6 52/67/6
f 53/1/4 48/6/4 50/54/4 55/53/4
f 52/1/6 53/6/6 55/54/6 54/53/6
f 39/1/6 180/40/6 181/81/6 40/72/6
f 181/40/2 182/81/2 43/72/2 40/1/2
f 43/1/6 182/40/6 183/52/6 45/19/6
f 184/40/2 186/52/2 51/19/2 46/1/2
f 47/40/3 48/71/3 187/67/3 185/1/3
f 53/1/5 188/40/5 187/52/5 48/19/5
f 65/23/1 83/105/1 77/103/1 64/1/1
f 64/6/3 77/104/3 78/103/3 73/1/3
f 79/1/4 73/23/4 74/74/4 80/72/4
f 81/1/4 75/23/4 76/84/4 82/82/4
f 84/1/5 163/36/5 159/65/5 77/62/5
f 69/6/1 84/89/1 83/88/1 68/1/1
f 69/1/6 226/39/6 227/92/6 84/88/6
f 70/1/5 232/39/5 226/80/5 69/72/5
f 79/1/5 116/30/5 112/58/5 73/53/5
f 97/24/2 99/56/2 80/53/2 74/1/2
f 74/24/3 75/42/3 98/19/3 97/1/3
f 81/1/5 100/24/5 98/56/5 75/53/5
f 113/30/2 117/58/2 82/53/2 76/1/2
f 76/30/3 78/46/3 114/19/3 113/1/3
f 79/30/3 80/78/3 119/72/3 116/1/3
f 81/24/3 82/85/3 101/82/3 100/1/3
f 99/1/4 97/23/4 98/41/4 100/19/4
f 99/27/3 101/91/3 117/88/3 119/1/3
f 241/38/2 240/51/2 110/19/2 111/1/2
f 116/23/1 117/100/1 113/99/1 112/1/1
f 112/6/3 114/104/3 123/103/3 120/1/3
f 126/1/4 120/23/4 122/100/4 127/99/4
f 125/6/1 115/22/1 110/19/1 124/1/1
f 138/26/2 137/44/2 125/19/2 124/1/2
f 124/26/3 110/44/3 132/19/3 138/1/3
f 125/1/6 137/26/6 139/44/6 115/19/6
f 139/26/2 142/44/2 118/19/2 115/1/2
f 121/1/5 134/25/5 133/43/5 120/19/5
f 135/25/2 141/57/2 127/53/2 122/1/2
f 122/25/3 123/43/3 136/19/3 135/1/3
f 126/25/3 127/101/3 141/99/3 140/1/3
f 137/1/4 138/6/4 132/22/4 139/19/4
f 140/23/1 141/100/1 135/99/1 133/1/1
f 133/6/3 136/104/3 148/103/3 146/1/3
f 149/1/4 146/23/4 147/100/4 150/99/4
f 240/35/2 245/61/2 142/53/2 132/1/2
f 149/1/5 202/34/5 197/60/5 146/53/5
f 158/25/2 161/57/2 150/53/2 147/1/2
f 147/34/3 148/50/3 200/19/3 199/1/3
f 149/34/3 150/102/3 203/99/3 202/1/3
f 161/1/4 157/6/4 160/22/4 162/19/4
f 199/31/2 198/47/2 157/19/2 158/1/2
f 160/1/5 225/32/5 224/48/5 159/19/5
f 157/1/6 198/31/6 201/47/6 160/19/6
f 161/31/3 162/47/3 204/19/3 203/1/3
f 163/1/5 210/31/5 204/47/5 162/19/5
f 164/33/3 165/49/3 242/19/3 241/1/3
f 177/1/6 249/33/6 252/79/6 179/72/6
f 180/1/6 208/28/6 209/77/6 181/72/6
f 209/28/2 213/77/2 182/72/2 181/1/2
f 182/1/6 213/28/6 214/45/6 183/19/6
f 215/28/2 217/45/2 186/19/2 184/1/2
f 185/28/3 187/69/3 219/67/3 216/1/3
f 188/1/5 220/28/5 219/45/5 187/19/5
f 202/23/1 203/100/1 199/99/1 197/1/1
f 197/6/3 200/104/3 224/103/3 221/1/3
f 228/1/4 221/28/4 222/77/4 231/72/4
f 226/1/4 223/24/4 224/90/4 227/88/4
f 203/6/1 204/22/1 201/19/1 198/1/1
f 210/1/5 227/6/5 225/54/5 201/53/5
f 245/24/2 249/90/2 217/88/2 207/1/2
f 211/25/1 212/75/1 209/72/1 208/1/1
f 211/1/6 228/6/6 230/63/6 229/62/6
f 216/1/5 233/6/5 228/54/5 211/53/5
f 218/23/1 235/55/1 212/53/1 229/1/1
f 230/6/2 234/54/2 218/53/2 229/1/2
f 234/1/4 230/23/4 231/55/4 236/53/4
f 235/6/1 237/22/1 214/19/1 213/1/1
f 238/1/5 239/6/5 232/54/5 214/53/5
f 216/24/3 218/64/3 251/62/3 246/1/3
f 220/6/1 238/54/1 237/53/1 219/1/1
f 220/1/6 252/24/6 253/56/6 238/53/6
f 233/1/5 246/23/5 242/96/5 221/95/5
f 243/23/2 247/96/2 236/95/2 222/1/2
f 222/23/3 223/41/3 244/19/3 243/1/3
f 239/1/5 253/23/5 244/98/5 223/97/5
f 234/23/3 236/55/3 247/53/3 251/1/3
f 249/1/4 241/31/4 242/47/4 250/19/4
f 247/1/4 243/30/4 244/46/4 248/19/4
f 250/1/4 246/6/4 248/83/4 253/82/4

g White_Concrete_Powder
usemtl white_concrete_powder
f 86/6/1 87/22/1 88/19/1 85/1/1
f 86/19/2 85/1/2 90/6/2 89/22/2
f 85/6/3 88/22/3 91/19/3 90/1/3
f 89/1/4 90/6/4 91/22/4 92/19/4
f 87/1/5 92/6/5 91/22/5 88/19/5
f 86/1/6 89/6/6 92/22/6 87/19/6
f 162/6/1 171/22/1 172/19/1 160/1/1
f 201/31/2 204/47/2 162/19/2 160/1/2
f 160/31/3 172/47/3 205/19/3 201/1/3
f 171/1/5 206/31/5 205/47/5 172/19/5
f 162/1/6 204/31/6 206/47/6 171/19/6
f 204/1/4 201/6/4 205/22/4 206/19/4

g Red_Concrete_Powder
usemtl red_concrete_powder
f 126/1/5 140/25/5 134/43/5 121/19/5
