# WaveFront *.obj file (generated by Cinema 4D)

mtllib ./scene.mtl

v 316.742983 799.162836 502.969388
v 316.742983 799.162836 -497.030612
v 316.742983 -200.837164 502.969388
v 316.742983 -200.837164 -497.030612
v -490.945481 799.162836 -411.814553
v -490.945481 799.162836 588.185447
v -490.945481 -200.837164 -411.814553
v -490.945481 -200.837164 588.185447
v -100.600000 399.314412 100.600000
v 100.600000 399.314412 100.600000
v -100.600000 399.314412 -100.600000
v 100.600000 399.314412 -100.600000
v 1684.281013 411.205085 1684.281013
v -1684.281013 411.205085 1684.281013
v 1684.281013 411.205085 -1684.281013
v -1684.281013 411.205085 -1684.281013
v -500.000000 799.162836 495.000000
v 500.000000 799.162836 495.000000
v -500.000000 -200.837164 495.000000
v 500.000000 -200.837164 495.000000
v 100.000000 0.000000 -100.000000
v -100.000000 0.000000 -100.000000
v -100.000000 0.000000 100.000000
v 100.000000 0.000000 100.000000
v 0.000000 200.000000 0.000000
v 1813.633920 0.000000 -1813.633920
v -1813.633920 0.000000 -1813.633920
v 1813.633920 0.000000 1813.633920
v -1813.633920 0.000000 1813.633920
v 83.550000 16.450000 -83.550000
v -83.550000 16.450000 -83.550000
v -83.550000 16.450000 83.550000
v 83.550000 16.450000 83.550000
v -50.620418 82.309164 -50.620418
v -50.620418 82.309164 50.620418
v 50.620418 82.309164 50.620418
v 50.620418 82.309164 -50.620418
v 83.300000 16.700000 -83.300000
v -83.300000 16.700000 -83.300000
v -83.300000 16.700000 83.300000
v 83.300000 16.700000 83.300000
v 0.000000 183.300000 0.000000
# 42 vertices

vn -1.000000 0.000000 0.000000
vn 1.000000 0.000000 0.000000
vn 0.000000 1.000000 0.000000
vn 0.000000 -1.000000 0.000000
vn 0.000000 0.000000 -1.000000
vn 0.000000 0.000000 -1.000000
vn -0.894427 0.447214 0.000000
vn 0.000000 0.447214 0.894427
vn 0.894427 0.447214 0.000000
vn 0.000000 0.447214 -0.894427
vn 0.000000 0.447214 -0.894427
vn 0.894427 0.447214 0.000000
vn 0.000000 0.447214 0.894427
vn -0.894427 0.447214 0.000000
vn 0.000000 0.447214 -0.894427
vn 0.894427 0.447214 0.000000
vn 0.000000 0.447214 0.894427
vn -0.894427 0.447214 0.000000
vn 0.000000 1.000000 0.000000
vn 0.000000 0.000000 -1.000000
# 20 normals

vt 0.000000 0.000000 0.000000
vt 0.000000 1.000000 0.000000
vt 1.000000 1.000000 0.000000
vt 0.200000 0.500000 0.000000
vt 0.500000 0.800000 0.000000
vt 0.800000 0.500000 0.000000
vt 1.000000 0.000000 0.000000
vt 0.500000 0.200000 0.000000
vt 0.302935 0.878826 0.000000
vt 0.121174 0.302935 0.000000
vt 0.697065 0.121174 0.000000
vt 0.878826 0.697065 0.000000
vt 0.697065 0.878826 0.000000
vt 0.121174 0.697065 0.000000
vt 0.302935 0.121174 0.000000
vt 0.878826 0.302935 0.000000
# 16 texture coordinates

o Plan.6
usemtl murs_1
f 4/3/1 3/2/1 1/1/1
f 8/3/2 7/2/2 5/1/2
f 20/3/5 19/2/6 17/1/5
f 2/7/1 4/3/1 1/1/1
f 6/7/2 8/3/2 5/1/2
f 18/7/20 20/3/5 17/1/5

usemtl lumiere_1
f 12/3/3 11/2/3 9/1/3
f 10/7/3 12/3/3 9/1/3

usemtl plafond_sol_1
f 16/3/4 15/2/4 13/1/4
f 29/3/3 28/2/3 26/1/3
f 14/7/4 16/3/4 13/1/4
f 27/7/3 29/3/3 26/1/3

usemtl vitre_1
f 23/6/4 22/5/4 21/4/4
f 22/5/7 23/6/7 25/3/7
f 23/6/8 24/8/8 25/7/8
f 24/8/9 21/4/9 25/1/9
f 21/4/10 22/5/10 25/2/10
f 24/8/4 23/6/4 21/4/4
f 39/5/7 40/6/7 42/3/7
f 40/6/8 41/8/8 42/7/8
f 41/8/9 38/4/9 42/1/9
f 38/4/10 39/5/10 42/2/10

usemtl eau_1
f 32/6/4 31/5/4 30/4/4
f 30/4/11 31/5/11 34/9/11
f 33/8/12 30/4/12 37/10/12
f 32/6/13 33/8/13 36/11/13
f 31/5/14 32/6/14 35/12/14
f 33/8/4 32/6/4 30/4/4
f 36/11/3 37/10/3 34/13/3
f 37/14/15 30/4/11 34/9/11
f 36/15/16 33/8/12 37/10/12
f 35/16/17 32/6/13 36/11/13
f 34/13/18 31/5/14 35/12/14
f 35/16/19 36/11/3 34/13/3

