P3
16 16
255
215 193 133 200 183 122 215 193 133 215 203 141 215 203 141 215 203 141 215 203 141 215 203 141 215 193 133 215 203 141 215 203 141 215 203 141 215 203 141 215 203 141 215 193 133 174 159 118 
215 193 133 215 193 133 200 183 122 200 183 122 174 159 118 184 168 117 200 183 122 215 193 133 215 193 133 215 193 133 200 183 122 200 183 122 215 193 133 215 193 133 184 168 117 184 168 117 
200 183 122 215 193 133 215 193 133 215 193 133 200 183 122 215 193 133 200 183 122 184 168 117 184 168 117 184 168 117 184 168 117 200 183 122 200 183 122 215 193 133 215 193 133 174 159 118 
174 159 118 165 148 103 165 148 103 174 159 118 174 159 118 165 148 103 158 139 97 158 139 97 165 148 103 165 148 103 158 139 97 165 148 103 158 139 97 158 139 97 165 148 103 158 139 97 
215 193 133 215 203 141 184 168 117 215 203 141 215 203 141 215 203 141 215 203 141 184 168 117 215 203 141 215 203 141 215 203 141 215 193 133 200 183 122 200 183 122 184 168 117 215 193 133 
200 183 122 215 193 133 215 193 133 200 183 122 184 168 117 200 183 122 184 168 117 174 159 118 184 168 117 200 183 122 200 183 122 215 193 133 215 193 133 215 193 133 215 193 133 200 183 122 
184 168 117 184 168 117 200 183 122 215 193 133 200 183 122 200 183 122 200 183 122 174 159 118 215 193 133 215 193 133 215 193 133 200 183 122 200 183 122 184 168 117 184 168 117 184 168 117 
158 139 97 158 139 97 165 148 103 165 148 103 174 159 118 165 148 103 158 139 97 158 139 97 158 139 97 158 139 97 165 148 103 165 148 103 165 148 103 174 159 118 165 148 103 158 139 97 
215 193 133 215 203 141 215 203 141 215 193 133 200 183 122 200 183 122 215 203 141 215 203 141 215 203 141 215 203 141 215 203 141 215 203 141 215 203 141 215 203 141 215 193 133 184 168 117 
215 193 133 200 183 122 215 193 133 215 193 133 215 193 133 215 193 133 200 183 122 184 168 117 184 168 117 184 168 117 200 183 122 184 168 117 200 183 122 184 168 117 184 168 117 174 159 118 
215 203 141 215 193 133 200 183 122 200 183 122 184 168 117 184 168 117 184 168 117 184 168 117 200 183 122 200 183 122 200 183 122 200 183 122 184 168 117 184 168 117 215 193 133 184 168 117 
158 139 97 158 139 97 165 148 103 174 159 118 174 159 118 165 148 103 158 139 97 158 139 97 158 139 97 165 148 103 174 159 118 165 148 103 165 148 103 158 139 97 158 139 97 158 139 97 
215 203 141 184 168 117 215 193 133 215 203 141 215 203 141 215 193 133 215 193 133 184 168 117 215 203 141 215 203 141 215 203 141 184 168 117 215 203 141 215 193 133 215 203 141 215 203 141 
200 183 122 200 183 122 215 193 133 215 193 133 184 168 117 184 168 117 200 183 122 184 168 117 184 168 117 215 193 133 215 193 133 200 183 122 215 193 133 200 183 122 200 183 122 200 183 122 
200 183 122 184 168 117 184 168 117 200 183 122 215 193 133 200 183 122 184 168 117 174 159 118 215 193 133 215 193 133 200 183 122 184 168 117 184 168 117 184 168 117 184 168 117 184 168 117 
158 139 97 165 148 103 165 148 103 158 139 97 158 139 97 165 148 103 174 159 118 174 159 118 174 159 118 165 148 103 158 139 97 165 148 103 158 139 97 158 139 97 158 139 97 158 139 97 
