P3
16 16
255
47 50 148 49 52 151 46 49 147 47 50 148 52 55 155 57 61 163 48 50 149 49 51 150 55 58 160 56 60 162 45 47 145 47 49 147 53 56 157 53 56 157 47 49 147 46 48 145 
53 55 156 55 58 159 62 77 178 62 77 178 58 63 165 56 60 162 51 53 153 50 53 152 47 50 148 46 48 145 49 51 150 50 53 152 44 46 143 46 48 146 49 52 151 51 54 154 
58 63 165 59 64 166 50 53 152 52 54 154 60 67 169 59 64 166 54 56 157 50 53 152 56 60 162 59 64 166 56 59 161 56 59 161 60 68 170 62 77 178 56 60 162 55 58 159 
53 55 156 49 52 151 57 61 163 59 64 166 50 53 152 50 52 151 52 55 155 59 64 166 48 50 149 51 53 153 59 64 166 59 64 166 53 55 156 49 52 151 62 77 178 58 64 166 
55 58 159 51 54 154 48 50 149 53 55 156 57 61 163 57 61 163 45 47 145 44 47 144 49 51 150 53 56 157 49 51 150 46 48 146 57 61 163 57 61 163 47 49 147 45 47 145 
46 48 146 45 47 144 48 50 149 59 64 166 48 50 149 44 47 144 47 50 148 49 52 151 48 50 149 44 47 144 49 52 151 50 53 152 45 48 145 49 51 150 47 50 148 50 52 152 
62 77 178 62 77 178 58 62 164 57 61 163 52 55 155 52 55 155 51 54 154 53 56 157 58 63 165 62 77 178 55 58 160 51 53 153 62 77 178 62 77 178 56 60 162 54 56 157 
49 52 151 49 52 151 62 77 178 62 77 178 56 60 162 55 58 160 59 64 166 58 64 166 47 50 148 49 51 150 57 61 163 59 64 166 55 58 160 55 58 159 59 65 167 58 64 166 
56 60 162 56 59 161 46 48 146 49 51 150 58 64 166 55 58 160 48 50 149 50 52 151 49 51 150 50 53 152 49 51 150 45 48 145 52 55 155 51 53 153 46 49 147 46 48 146 
49 51 150 51 53 153 50 52 152 58 63 165 45 47 144 45 47 145 51 53 153 54 57 159 48 50 149 55 58 159 62 77 178 62 77 178 52 54 154 56 59 161 62 77 178 62 77 178 
58 64 166 59 65 167 56 60 162 56 60 162 62 77 178 59 64 166 56 60 162 55 58 160 59 65 167 58 63 165 50 53 152 53 56 157 55 58 159 52 55 155 47 49 147 53 55 156 
47 49 147 48 50 149 54 57 159 54 57 159 49 52 151 50 52 151 57 61 163 56 59 161 47 50 148 48 50 149 49 51 150 55 58 159 45 47 144 45 47 144 50 52 152 55 58 159 
50 52 151 49 52 151 45 47 144 45 47 145 58 64 166 60 67 169 46 48 146 44 47 144 52 55 155 57 61 163 53 56 157 56 59 161 62 77 178 62 77 178 55 58 159 45 48 145 
56 59 161 55 58 160 60 68 170 62 77 178 58 64 166 56 60 162 53 56 157 50 53 152 45 47 144 52 54 154 56 59 161 59 64 166 51 54 154 52 54 154 59 64 166 62 77 178 
60 67 169 59 66 168 53 55 156 51 53 153 59 64 166 53 56 157 55 58 159 57 61 163 62 77 178 58 63 165 49 51 150 49 51 150 54 56 157 56 59 161 50 52 151 47 50 148 
46 48 145 48 50 149 58 64 166 54 56 157 47 50 148 50 52 151 59 64 166 60 68 170 51 54 154 49 52 151 55 58 160 58 64 166 47 50 148 48 50 149 58 63 165 59 64 166 
