P3
16 16
255
21 126 139 21 130 141 21 124 138 21 126 139 21 136 144 21 146 149 21 127 140 21 128 140 21 142 147 21 144 148 21 121 137 21 125 139 21 138 145 21 138 145 21 125 139 21 122 138 
21 137 144 21 141 147 22 155 156 22 155 156 22 148 151 21 144 148 21 133 142 21 132 142 21 126 139 21 122 138 21 128 140 21 132 142 21 119 136 21 123 138 21 130 141 21 134 143 
22 148 151 22 150 152 21 132 142 21 135 143 22 154 154 22 150 152 21 139 145 21 132 142 21 144 148 22 150 152 21 143 148 21 143 148 22 154 155 22 155 156 21 144 148 21 141 147 
21 137 144 21 130 141 21 146 149 22 150 152 21 132 142 21 131 141 21 136 144 22 150 152 21 127 140 21 133 142 22 150 152 22 150 152 21 137 144 21 130 141 22 155 156 22 150 152 
21 141 147 21 134 143 21 127 140 21 137 144 21 146 149 21 146 149 21 121 137 21 120 137 21 129 141 21 138 145 21 128 140 21 123 138 21 146 149 21 146 149 21 125 139 21 121 137 
21 123 138 21 121 137 21 127 140 22 150 152 21 127 140 21 120 137 21 126 139 21 130 141 21 127 140 21 120 137 21 130 141 21 132 142 21 122 138 21 128 140 21 126 139 21 131 142 
22 155 156 22 155 156 21 148 150 21 146 149 21 136 144 21 136 144 21 134 143 21 138 145 22 148 151 22 155 156 21 142 147 21 133 142 22 155 156 22 155 156 21 144 148 21 139 145 
21 130 141 21 130 141 22 155 156 22 155 156 21 144 148 21 142 147 22 150 152 22 150 152 21 126 139 21 128 140 21 146 149 22 150 152 21 142 147 21 141 147 22 151 152 22 150 152 
21 144 148 21 143 148 21 123 138 21 129 141 22 150 152 21 142 147 21 127 140 21 131 141 21 129 141 21 132 142 21 128 140 21 122 138 21 136 144 21 133 142 21 124 138 21 123 138 
21 129 141 21 133 142 21 131 142 22 148 151 21 120 137 21 121 137 21 133 142 21 140 146 21 127 140 21 141 147 22 155 156 22 155 156 21 135 143 21 143 148 22 155 156 22 155 156 
22 150 152 22 151 152 21 144 148 21 144 148 22 155 156 22 150 152 21 144 148 21 142 147 22 151 152 22 148 151 21 132 142 21 138 145 21 141 147 21 136 144 21 125 139 21 137 144 
21 125 139 21 127 140 21 140 146 21 140 146 21 130 141 21 131 141 21 146 149 21 143 148 21 126 139 21 127 140 21 129 141 21 141 147 21 121 137 21 121 137 21 131 142 21 141 147 
21 131 141 21 130 141 21 120 137 21 121 137 22 150 152 22 154 154 21 123 138 21 120 137 21 136 144 21 146 149 21 138 145 21 143 148 22 155 156 22 155 156 21 141 147 21 122 138 
21 143 148 21 142 147 22 154 155 22 155 156 22 150 152 21 144 148 21 138 145 21 132 142 21 120 137 21 135 143 21 143 148 22 150 152 21 134 143 21 135 143 22 150 152 22 155 156 
22 154 154 22 153 153 21 137 144 21 133 142 22 150 152 21 138 145 21 141 147 21 146 149 22 155 156 22 148 151 21 128 140 21 129 141 21 139 145 21 143 148 21 131 141 21 126 139 
21 122 138 21 127 140 22 150 152 21 139 145 21 126 139 21 131 141 22 150 152 22 154 155 21 134 143 21 130 141 21 142 147 22 150 152 21 126 139 21 127 140 22 148 151 22 150 152 
