P3
16 16
255
77 98 32 80 102 30 76 96 33 77 97 33 83 107 27 89 117 23 78 99 32 79 100 31 87 113 25 88 115 24 74 93 35 77 97 33 85 109 26 85 109 26 77 97 33 75 94 34 
84 108 27 86 112 25 101 134 25 101 134 25 91 119 23 88 115 24 81 104 29 81 104 29 77 97 33 75 94 34 79 100 31 81 104 29 73 91 36 75 95 34 80 102 30 82 105 28 
91 119 23 92 120 22 81 104 29 82 106 28 93 123 22 92 120 22 85 110 26 81 104 29 88 115 24 92 120 22 88 114 24 88 114 24 94 124 22 101 134 25 88 115 24 86 112 25 
84 108 27 80 102 30 89 116 23 92 120 22 81 104 29 80 102 30 83 107 27 92 120 22 78 99 32 81 104 29 92 120 22 92 120 22 84 108 27 80 102 30 101 134 25 91 120 22 
86 112 25 82 105 28 78 99 32 84 108 27 89 117 23 89 116 23 74 93 35 74 92 36 79 101 31 85 109 26 79 100 31 76 95 34 89 117 23 89 117 23 77 97 33 74 93 35 
75 95 34 74 93 35 78 99 32 92 120 22 78 99 32 74 92 36 77 98 32 80 102 30 78 99 32 74 92 36 80 102 30 81 104 29 75 94 35 79 100 31 77 97 33 80 103 30 
101 134 25 101 134 25 90 118 23 89 116 23 83 107 27 83 107 27 82 105 28 85 109 26 91 119 23 101 134 25 87 113 25 81 104 29 101 134 25 101 134 25 88 115 24 85 110 26 
80 102 30 80 102 30 101 134 25 101 134 25 88 115 24 87 113 25 92 120 22 91 120 22 77 97 33 79 100 31 89 116 23 92 120 22 87 113 25 86 112 25 92 121 22 91 120 22 
88 115 24 88 114 24 75 95 34 79 101 31 91 120 22 87 113 25 78 99 32 80 102 30 79 101 31 81 104 29 79 100 31 75 94 35 83 107 27 81 104 29 76 96 33 76 95 34 
79 101 31 81 104 29 80 103 30 91 119 23 74 92 36 74 93 35 81 104 29 86 111 25 78 99 32 86 112 25 101 134 25 101 134 25 82 106 28 88 114 24 101 134 25 101 134 25 
91 120 22 92 121 22 88 115 24 88 115 24 101 134 25 92 120 22 88 115 24 87 113 25 92 121 22 91 119 23 81 104 29 85 109 26 86 112 25 83 107 27 77 97 33 84 108 27 
77 97 33 78 99 32 86 111 25 86 111 25 80 102 30 80 102 30 89 117 23 88 114 24 77 97 33 78 99 32 79 101 31 86 112 25 74 93 35 74 92 35 80 103 30 86 112 25 
80 102 30 80 102 30 74 92 36 74 93 35 91 120 22 93 123 22 76 95 34 74 92 36 83 107 27 89 117 23 85 109 26 88 114 24 101 134 25 101 134 25 86 112 25 75 94 35 
88 114 24 87 113 25 94 124 22 101 134 25 91 120 22 88 115 24 85 109 26 81 104 29 74 92 36 82 106 28 88 114 24 92 120 22 82 105 28 82 106 28 92 120 22 101 134 25 
93 123 22 93 122 22 84 108 27 81 104 29 92 120 22 85 109 26 86 112 25 89 116 23 101 134 25 91 119 23 79 100 31 79 101 31 85 110 26 88 114 24 80 102 30 77 97 33 
75 94 34 78 99 32 91 120 22 85 110 26 77 97 33 80 102 30 92 120 22 94 124 22 82 105 28 80 102 30 87 113 25 91 120 22 77 97 33 78 99 32 91 119 23 92 120 22 
