P3
16 16
255
44 155 207 49 165 211 42 150 205 44 154 206 56 176 217 68 190 225 46 158 208 47 161 210 63 185 222 66 188 223 38 142 201 43 152 205 58 179 218 58 179 218 43 152 205 39 145 203 
57 177 217 62 184 221 78 197 231 78 197 231 71 192 227 66 188 223 53 171 214 52 169 213 44 154 206 39 145 203 47 161 210 52 169 213 35 138 199 40 147 203 49 165 211 54 173 215 
71 192 227 73 194 228 52 169 213 55 174 215 76 196 230 73 194 228 59 181 219 52 169 213 66 188 223 73 194 228 65 187 223 65 187 223 77 196 231 78 197 231 66 188 223 62 184 221 
57 177 217 49 165 211 67 189 225 73 194 228 52 169 213 50 166 212 56 176 217 73 194 228 46 158 208 53 171 214 73 194 228 73 194 228 57 177 217 49 165 211 78 197 231 72 193 228 
62 184 221 54 173 215 46 158 208 57 177 217 68 190 225 67 189 225 38 142 201 36 139 200 48 162 210 58 179 218 47 161 210 41 148 204 68 190 225 68 190 225 43 152 205 38 142 201 
40 147 203 37 141 201 46 159 208 73 194 228 46 158 208 36 139 200 44 155 207 49 165 211 46 158 208 36 139 200 49 165 211 52 169 213 39 145 202 47 161 210 44 154 206 51 167 212 
78 197 231 78 197 231 70 191 226 67 189 225 56 176 217 56 176 217 54 173 215 58 179 218 71 192 227 78 197 231 63 185 222 53 171 214 78 197 231 78 197 231 66 188 223 59 181 219 
49 165 211 49 165 211 78 197 231 78 197 231 66 188 223 63 185 222 73 194 228 72 193 228 44 154 206 47 161 210 67 189 225 73 194 228 63 185 222 62 184 221 74 194 229 72 193 228 
66 188 223 65 187 223 40 147 203 48 162 210 72 193 228 63 185 222 46 158 208 50 166 212 48 162 210 52 169 213 47 161 210 39 145 202 56 176 217 53 171 214 42 150 205 41 148 204 
48 162 210 53 171 214 51 167 212 71 192 227 36 140 200 38 142 201 53 171 214 61 183 220 46 158 208 62 184 221 78 197 231 78 197 231 55 174 215 65 187 223 78 197 231 78 197 231 
72 193 228 74 194 229 66 188 223 66 188 223 78 197 231 73 194 228 66 188 223 63 185 222 74 194 229 71 192 227 52 169 213 58 179 218 62 184 221 56 176 217 43 152 205 57 177 217 
43 152 205 46 158 208 61 183 220 61 183 220 49 165 211 50 166 212 68 190 225 65 187 223 44 154 206 46 158 208 48 162 210 62 184 221 37 141 201 37 141 201 51 167 212 62 184 221 
50 166 212 49 165 211 36 140 200 38 142 201 72 193 228 76 196 230 41 148 204 36 139 200 56 176 217 68 190 225 58 179 218 65 187 223 78 197 231 78 197 231 62 184 221 39 145 202 
65 187 223 63 185 222 77 196 231 78 197 231 72 193 228 66 188 223 58 179 218 52 169 213 36 140 200 55 174 215 65 187 223 73 194 228 54 173 215 55 174 215 73 194 228 78 197 231 
76 196 230 75 195 230 57 177 217 53 171 214 73 194 228 58 179 218 62 184 221 67 189 225 78 197 231 71 192 227 47 161 210 48 162 210 59 181 219 65 187 223 50 166 212 44 154 206 
39 145 203 46 158 208 72 193 228 59 181 219 44 154 206 50 166 212 73 194 228 77 196 231 54 173 215 49 165 211 63 185 222 72 193 228 44 154 206 46 158 208 71 192 227 73 194 228 
