P3
16 16
255
101 175 24 104 178 24 99 173 24 100 175 24 110 183 24 120 192 25 102 176 24 103 177 24 116 188 24 118 190 25 96 171 24 99 174 24 112 185 24 112 185 24 99 174 24 97 172 24 
110 184 24 115 188 24 134 204 38 134 204 38 122 194 26 118 190 25 107 181 24 106 180 24 100 175 24 97 172 24 103 177 24 106 180 24 94 169 24 98 172 24 104 178 24 108 182 24 
122 194 26 124 195 27 106 180 24 109 182 24 127 198 30 124 195 27 113 186 24 106 180 24 118 190 25 124 195 27 117 190 24 117 190 24 127 198 30 134 204 38 118 190 25 115 188 24 
110 184 24 104 178 24 119 191 25 124 195 27 106 180 24 105 179 24 110 183 24 124 195 27 102 176 24 107 181 24 124 195 27 124 195 27 110 184 24 104 178 24 134 204 38 123 195 27 
115 188 24 108 182 24 102 176 24 110 184 24 120 192 25 119 191 25 96 171 24 95 170 24 103 177 24 112 185 24 103 177 24 98 173 24 120 192 25 120 192 25 99 174 24 96 171 24 
98 172 24 96 171 24 102 176 24 124 195 27 102 176 24 95 170 24 101 175 24 104 178 24 102 176 24 95 170 24 104 178 24 106 180 24 97 172 24 103 177 24 100 175 24 105 179 24 
134 204 38 134 204 38 121 193 26 119 191 25 110 183 24 110 183 24 108 182 24 112 185 24 122 194 26 134 204 38 116 188 24 107 181 24 134 204 38 134 204 38 118 190 25 113 186 24 
104 178 24 104 178 24 134 204 38 134 204 38 118 190 25 116 188 24 124 195 27 123 195 27 100 175 24 103 177 24 119 191 25 124 195 27 116 188 24 115 188 24 124 196 28 123 195 27 
118 190 25 117 190 24 98 172 24 103 177 24 123 195 27 116 188 24 102 176 24 105 179 24 103 177 24 106 180 24 103 177 24 97 172 24 110 183 24 107 181 24 99 173 24 98 173 24 
103 177 24 107 181 24 105 179 24 122 194 26 95 170 24 96 171 24 107 181 24 114 187 24 102 176 24 115 188 24 134 204 38 134 204 38 109 182 24 117 190 24 134 204 38 134 204 38 
123 195 27 124 196 28 118 190 25 118 190 25 134 204 38 124 195 27 118 190 25 116 188 24 124 196 28 122 194 26 106 180 24 112 185 24 115 188 24 110 183 24 99 174 24 110 184 24 
99 174 24 102 176 24 114 187 24 114 187 24 104 178 24 105 179 24 120 192 25 117 190 24 100 175 24 102 176 24 103 177 24 115 188 24 96 171 24 95 170 24 105 179 24 115 188 24 
105 179 24 104 178 24 95 170 24 96 171 24 123 195 27 127 198 30 98 173 24 95 170 24 110 183 24 120 192 25 112 185 24 117 190 24 134 204 38 134 204 38 115 188 24 97 172 24 
117 190 24 116 188 24 127 198 30 134 204 38 123 195 27 118 190 25 112 185 24 106 180 24 95 170 24 109 182 24 117 190 24 124 195 27 108 182 24 109 182 24 124 195 27 134 204 38 
127 198 30 126 197 29 110 184 24 107 181 24 124 195 27 112 185 24 115 188 24 119 191 25 134 204 38 122 194 26 103 177 24 103 177 24 113 186 24 117 190 24 105 179 24 100 175 24 
97 172 24 102 176 24 123 195 27 113 186 24 100 175 24 105 179 24 124 195 27 127 198 30 108 182 24 104 178 24 116 188 24 123 195 27 100 175 24 102 176 24 122 194 26 124 195 27 
