P3
16 16
255
177 56 167 181 60 171 174 53 164 176 55 166 187 66 177 197 76 187 178 57 168 179 58 169 193 72 183 195 74 185 171 50 161 175 54 165 190 68 179 190 68 179 175 54 165 173 52 162 
188 67 178 193 71 182 214 96 209 214 96 209 199 78 189 195 74 185 184 63 174 183 62 173 176 55 166 173 52 162 179 58 169 183 62 173 169 48 159 173 52 163 181 60 171 185 64 175 
199 78 189 202 82 193 183 62 173 186 65 175 209 90 202 202 82 193 190 69 180 183 62 173 195 74 185 202 82 193 195 73 184 195 73 184 210 91 203 214 96 209 195 74 185 193 71 182 
188 67 178 181 60 171 197 75 186 202 82 193 183 62 173 182 60 171 187 66 177 202 82 193 178 57 168 184 63 174 202 82 193 202 82 193 188 67 178 181 60 171 214 96 209 201 80 191 
193 71 182 185 64 175 178 57 168 188 67 178 197 76 187 197 75 186 171 50 161 170 49 160 180 59 170 190 68 179 179 58 169 174 53 164 197 76 187 197 76 187 175 54 165 171 50 161 
173 52 163 171 50 161 178 57 168 202 82 193 178 57 168 170 49 160 177 56 167 181 60 171 178 57 168 170 49 160 181 60 171 183 62 173 172 51 162 179 58 169 176 55 166 182 61 172 
214 96 209 214 96 209 198 77 188 197 75 186 187 66 177 187 66 177 185 64 175 190 68 179 199 78 189 214 96 209 193 72 183 184 63 174 214 96 209 214 96 209 195 74 185 190 69 180 
181 60 171 181 60 171 214 96 209 214 96 209 195 74 185 193 72 183 202 82 193 201 80 191 176 55 166 179 58 169 197 75 186 202 82 193 193 72 183 193 71 182 203 83 194 201 80 191 
195 74 185 195 73 184 173 52 163 180 59 170 201 80 191 193 72 183 178 57 168 182 60 171 180 59 170 183 62 173 179 58 169 172 51 162 187 66 177 184 63 174 174 53 164 174 53 164 
180 59 170 184 63 174 182 61 172 199 78 189 170 49 160 171 50 161 184 63 174 192 71 181 178 57 168 193 71 182 214 96 209 214 96 209 186 65 175 195 73 184 214 96 209 214 96 209 
201 80 191 203 83 194 195 74 185 195 74 185 214 96 209 202 82 193 195 74 185 193 72 183 203 83 194 199 78 189 183 62 173 190 68 179 193 71 182 187 66 177 175 54 165 188 67 178 
175 54 165 178 57 168 192 71 181 192 71 181 181 60 171 182 60 171 197 76 187 195 73 184 176 55 166 178 57 168 180 59 170 193 71 182 171 50 161 171 50 161 182 61 172 193 71 182 
182 60 171 181 60 171 170 49 160 171 50 161 201 80 191 209 90 202 174 53 164 170 49 160 187 66 177 197 76 187 190 68 179 195 73 184 214 96 209 214 96 209 193 71 182 172 51 162 
195 73 184 193 72 183 210 91 203 214 96 209 201 80 191 195 74 185 190 68 179 183 62 173 170 49 160 186 65 175 195 73 184 202 82 193 185 64 175 186 65 175 202 82 193 214 96 209 
209 90 202 207 87 199 188 67 178 184 63 174 202 82 193 190 68 179 193 71 182 197 75 186 214 96 209 199 78 189 179 58 169 180 59 170 190 69 180 195 73 184 182 60 171 176 55 166 
173 52 162 178 57 168 201 80 191 190 69 180 176 55 166 182 60 171 202 82 193 210 91 203 185 64 175 181 60 171 193 72 183 201 80 191 176 55 166 178 57 168 199 78 189 202 82 193 
