P3
16 16
255
232 104 7 236 109 11 230 102 5 231 104 7 241 115 17 248 125 27 233 105 8 234 107 10 245 121 23 247 123 25 227 99 2 231 103 6 243 117 19 243 117 19 231 103 6 228 100 3 
241 115 18 245 120 22 249 147 43 249 147 43 249 128 29 247 123 25 238 112 14 238 111 14 231 104 7 228 100 3 234 107 10 238 111 14 225 97 0 229 101 4 236 109 11 239 113 15 
249 128 29 249 132 32 238 111 14 240 113 16 249 142 39 249 132 32 243 118 20 238 111 14 247 123 25 249 132 32 246 123 24 246 123 24 249 144 40 249 147 43 247 123 25 245 120 22 
241 115 18 236 109 11 248 125 26 249 132 32 238 111 14 236 109 12 241 115 17 249 132 32 233 105 8 238 112 14 249 132 32 249 132 32 241 115 18 236 109 11 249 147 43 249 130 30 
245 120 22 239 113 15 233 105 8 241 115 18 248 125 27 248 125 26 227 99 2 226 98 1 235 107 10 243 117 19 234 107 10 229 102 4 248 125 27 248 125 27 231 103 6 227 99 2 
229 101 4 227 99 2 233 106 9 249 132 32 233 105 8 226 98 1 232 104 7 236 109 11 233 105 8 226 98 1 236 109 11 238 111 14 228 100 3 234 107 10 231 104 7 237 110 12 
249 147 43 249 147 43 249 127 28 248 125 26 241 115 17 241 115 17 239 113 15 243 117 19 249 128 29 249 147 43 245 121 23 238 112 14 249 147 43 249 147 43 247 123 25 243 118 20 
236 109 11 236 109 11 249 147 43 249 147 43 247 123 25 245 121 23 249 132 32 249 130 30 231 104 7 234 107 10 248 125 26 249 132 32 245 121 23 245 120 22 249 133 33 249 130 30 
247 123 25 246 123 24 229 101 4 235 107 10 249 130 30 245 121 23 233 105 8 236 109 12 235 107 10 238 111 14 234 107 10 228 100 3 241 115 17 238 112 14 230 102 5 229 102 4 
235 107 10 238 112 14 237 110 12 249 128 29 226 98 1 227 99 2 238 112 14 244 119 22 233 105 8 245 120 22 249 147 43 249 147 43 240 113 16 246 123 24 249 147 43 249 147 43 
249 130 30 249 133 33 247 123 25 247 123 25 249 147 43 249 132 32 247 123 25 245 121 23 249 133 33 249 128 29 238 111 14 243 117 19 245 120 22 241 115 17 231 103 6 241 115 18 
231 103 6 233 105 8 244 119 22 244 119 22 236 109 11 236 109 12 248 125 27 246 123 24 231 104 7 233 105 8 235 107 10 245 120 22 227 99 2 226 99 2 237 110 12 245 120 22 
236 109 12 236 109 11 226 98 1 227 99 2 249 130 30 249 142 39 229 102 4 226 98 1 241 115 17 248 125 27 243 117 19 246 123 24 249 147 43 249 147 43 245 120 22 228 100 3 
246 123 24 245 121 23 249 144 40 249 147 43 249 130 30 247 123 25 243 117 19 238 111 14 226 98 1 240 113 16 246 123 24 249 132 32 239 113 15 240 113 16 249 132 32 249 147 43 
249 142 39 249 138 37 241 115 18 238 112 14 249 132 32 243 117 19 245 120 22 248 125 26 249 147 43 249 128 29 234 107 10 235 107 10 243 118 20 246 123 24 236 109 12 231 104 7 
228 100 3 233 105 8 249 130 30 243 118 20 231 104 7 236 109 12 249 132 32 249 144 40 239 113 15 236 109 11 245 121 23 249 130 30 231 104 7 233 105 8 249 128 29 249 132 32 
