P3
16 16
255
229 117 155 236 126 161 224 113 151 228 117 154 243 138 170 244 158 185 230 120 156 233 123 158 244 149 178 244 154 181 218 106 146 226 114 152 244 142 172 244 142 172 226 114 152 221 109 148 
243 140 170 244 148 177 244 178 201 244 178 201 244 162 188 244 154 181 240 132 165 239 131 164 228 117 154 221 109 148 233 123 158 239 131 164 215 102 144 222 110 149 236 126 161 241 135 167 
244 162 188 244 167 192 239 131 164 242 136 168 244 175 198 244 167 192 244 144 173 239 131 164 244 154 181 244 167 192 244 152 180 244 152 180 244 176 199 244 178 201 244 154 181 244 148 177 
243 140 170 236 126 161 244 156 183 244 167 192 239 131 164 237 128 162 243 138 170 244 167 192 230 120 156 240 132 165 244 167 192 244 167 192 243 140 170 236 126 161 244 178 201 244 165 190 
244 148 177 241 135 167 230 120 156 243 140 170 244 158 185 244 156 183 218 106 146 216 103 144 234 124 159 244 142 172 233 123 158 223 111 150 244 158 185 244 158 185 226 114 152 218 106 146 
222 110 149 217 105 146 231 121 157 244 167 192 230 120 156 216 103 144 229 117 155 236 126 161 230 120 156 216 103 144 236 126 161 239 131 164 220 108 148 233 123 158 228 117 154 237 129 163 
244 178 201 244 178 201 244 161 187 244 156 183 243 138 170 243 138 170 241 135 167 244 142 172 244 162 188 244 178 201 244 149 178 240 132 165 244 178 201 244 178 201 244 154 181 244 144 173 
236 126 161 236 126 161 244 178 201 244 178 201 244 154 181 244 149 178 244 167 192 244 165 190 228 117 154 233 123 158 244 156 183 244 167 192 244 149 178 244 148 177 244 168 193 244 165 190 
244 154 181 244 152 180 222 110 149 234 124 159 244 165 190 244 149 178 230 120 156 237 128 162 234 124 159 239 131 164 233 123 158 220 108 148 243 138 170 240 132 165 224 113 151 223 111 150 
234 124 159 240 132 165 237 129 163 244 162 188 216 103 145 218 106 146 240 132 165 244 146 176 230 120 156 244 148 177 244 178 201 244 178 201 242 136 168 244 152 180 244 178 201 244 178 201 
244 165 190 244 168 193 244 154 181 244 154 181 244 178 201 244 167 192 244 154 181 244 149 178 244 168 193 244 162 188 239 131 164 244 142 172 244 148 177 243 138 170 226 114 152 243 140 170 
226 114 152 230 120 156 244 146 176 244 146 176 236 126 161 237 128 162 244 158 185 244 152 180 228 117 154 230 120 156 234 124 159 244 148 177 217 105 146 217 104 145 237 129 163 244 148 177 
237 128 162 236 126 161 216 103 145 218 106 146 244 165 190 244 175 198 223 111 150 216 103 144 243 138 170 244 158 185 244 142 172 244 152 180 244 178 201 244 178 201 244 148 177 220 108 148 
244 152 180 244 149 178 244 176 199 244 178 201 244 165 190 244 154 181 244 142 172 239 131 164 216 103 145 242 136 168 244 152 180 244 167 192 241 135 167 242 136 168 244 167 192 244 178 201 
244 175 198 244 172 196 243 140 170 240 132 165 244 167 192 244 142 172 244 148 177 244 156 183 244 178 201 244 162 188 233 123 158 234 124 159 244 144 173 244 152 180 237 128 162 228 117 154 
221 109 148 230 120 156 244 165 190 244 144 173 228 117 154 237 128 162 244 167 192 244 176 199 241 135 167 236 126 161 244 149 178 244 165 190 228 117 154 230 120 156 244 162 188 244 167 192 
