P3
16 16
255
108 35 162 113 36 165 106 34 160 108 34 161 119 39 169 130 45 178 109 35 162 111 36 163 126 43 174 128 44 176 103 32 158 107 34 161 122 41 171 122 41 171 107 34 161 104 33 159 
120 40 170 125 42 173 151 67 205 151 67 205 132 47 179 128 44 176 116 38 167 115 38 166 108 34 161 104 33 159 111 36 163 115 38 166 100 31 156 105 33 159 113 36 165 117 38 168 
132 47 179 134 48 181 115 38 166 118 39 168 137 50 184 134 48 181 123 41 172 115 38 166 128 44 176 134 48 181 127 44 175 127 44 175 141 54 188 151 67 205 128 44 176 125 42 173 
120 40 170 113 36 165 130 45 177 134 48 181 115 38 166 113 37 165 119 39 169 134 48 181 109 35 162 116 38 167 134 48 181 134 48 181 120 40 170 113 36 165 151 67 205 133 47 180 
125 42 173 117 38 168 109 35 162 120 40 170 130 45 178 130 45 177 103 32 158 101 32 157 111 36 164 122 41 171 111 36 163 105 33 159 130 45 178 130 45 178 107 34 161 103 32 158 
105 33 159 102 32 157 110 35 163 134 48 181 109 35 162 101 32 157 108 35 162 113 36 165 109 35 162 101 32 157 113 36 165 115 38 166 103 33 158 111 36 163 108 34 161 114 37 165 
151 67 205 151 67 205 132 46 179 130 45 177 119 39 169 119 39 169 117 38 168 122 41 171 132 47 179 151 67 205 126 43 174 116 38 167 151 67 205 151 67 205 128 44 176 123 41 172 
113 36 165 113 36 165 151 67 205 151 67 205 128 44 176 126 43 174 134 48 181 133 47 180 108 34 161 111 36 163 130 45 177 134 48 181 126 43 174 125 42 173 135 48 181 133 47 180 
128 44 176 127 44 175 105 33 159 111 36 164 133 47 180 126 43 174 109 35 162 113 37 165 111 36 164 115 38 166 111 36 163 103 33 158 119 39 169 116 38 167 106 34 160 105 33 159 
111 36 164 116 38 167 114 37 165 132 47 179 101 32 157 103 32 158 116 38 167 124 42 173 109 35 162 125 42 173 151 67 205 151 67 205 118 39 168 127 44 175 151 67 205 151 67 205 
133 47 180 135 48 181 128 44 176 128 44 176 151 67 205 134 48 181 128 44 176 126 43 174 135 48 181 132 47 179 115 38 166 122 41 171 125 42 173 119 39 169 107 34 161 120 40 170 
107 34 161 109 35 162 124 42 173 124 42 173 113 36 165 113 37 165 130 45 178 127 44 175 108 34 161 109 35 162 111 36 164 125 42 173 102 32 157 102 32 157 114 37 165 125 42 173 
113 37 165 113 36 165 101 32 157 103 32 158 133 47 180 137 50 184 105 33 159 101 32 157 119 39 169 130 45 178 122 41 171 127 44 175 151 67 205 151 67 205 125 42 173 103 33 158 
127 44 175 126 43 174 141 54 188 151 67 205 133 47 180 128 44 176 122 41 171 115 38 166 101 32 157 118 39 168 127 44 175 134 48 181 117 38 168 118 39 168 134 48 181 151 67 205 
137 50 184 136 49 183 120 40 170 116 38 167 134 48 181 122 41 171 125 42 173 130 45 177 151 67 205 132 47 179 111 36 163 111 36 164 123 41 172 127 44 175 113 37 165 108 34 161 
104 33 159 109 35 162 133 47 180 123 41 172 108 34 161 113 37 165 134 48 181 141 54 188 117 38 168 113 36 165 126 43 174 133 47 180 108 34 161 109 35 162 132 47 179 134 48 181 
