P3
16 16
255
165 55 48 178 58 54 169 54 51 164 51 50 166 52 51 159 50 48 162 51 48 166 52 50 172 55 51 180 61 54 164 51 50 161 50 50 172 55 51 202 74 63 164 54 48 157 48 48 
164 52 50 165 52 50 187 65 57 175 58 52 152 48 47 163 51 48 165 52 48 157 48 47 188 66 55 165 51 50 186 61 57 178 58 52 179 59 52 174 57 51 171 55 50 164 51 50 
165 52 51 181 59 54 170 54 52 170 55 50 159 50 48 204 91 83 158 50 48 164 51 50 178 58 52 167 52 51 171 55 51 168 54 51 200 85 77 157 50 47 169 55 50 172 55 52 
152 47 47 161 50 48 164 51 50 170 54 50 164 52 48 172 55 51 170 55 50 161 50 50 149 48 44 169 55 48 178 59 52 169 54 51 181 59 54 164 51 50 164 51 50 152 48 45 
169 55 51 176 58 51 181 59 54 162 51 48 172 55 51 170 54 51 168 54 51 178 58 52 161 51 48 172 58 51 161 51 48 170 54 51 164 51 50 176 61 54 184 61 55 156 50 48 
165 54 48 169 54 50 168 55 50 182 58 55 176 59 52 170 54 51 165 52 50 166 52 50 161 50 48 167 52 51 164 51 50 154 48 47 157 50 47 161 51 48 172 57 51 153 48 45 
151 48 47 165 52 51 175 58 52 166 52 50 164 54 48 166 52 51 162 50 50 159 50 48 164 52 48 161 50 48 179 59 54 174 54 52 165 52 50 170 54 51 181 61 54 162 51 48 
165 52 50 172 57 51 172 55 51 164 51 50 167 52 50 169 55 50 176 58 52 182 59 55 164 51 50 161 50 48 164 52 48 163 52 48 180 59 54 165 52 51 172 55 52 166 52 50 
169 54 51 177 57 54 172 54 52 166 52 50 174 57 52 164 52 48 181 61 54 181 59 54 170 55 48 177 57 55 163 54 48 169 54 50 167 54 48 164 51 50 181 59 54 165 51 50 
151 48 45 163 51 50 168 54 51 169 54 50 166 52 50 171 55 50 164 52 48 161 50 48 166 52 50 167 52 50 166 52 50 178 57 52 162 51 48 186 65 57 162 50 50 170 54 51 
179 58 52 167 52 51 145 47 44 174 57 52 163 54 47 176 57 54 175 58 51 172 55 51 172 55 52 168 54 51 206 87 80 162 51 48 182 62 55 191 63 57 169 55 48 162 51 48 
154 48 47 174 57 52 179 58 54 161 51 48 171 54 50 165 52 48 161 50 48 165 52 48 166 52 50 171 55 50 164 51 50 176 57 54 165 54 48 164 52 48 161 51 48 149 47 47 
172 54 52 164 51 50 169 55 48 170 52 52 166 52 50 163 52 48 171 54 51 155 50 47 158 50 47 175 58 52 161 50 50 158 50 48 168 52 51 166 52 50 157 50 47 163 51 48 
169 54 51 174 57 52 152 47 47 149 47 45 156 48 47 161 50 48 159 50 48 189 63 57 165 52 51 181 59 55 185 62 55 175 58 52 165 52 51 182 63 55 171 55 51 166 52 48 
162 51 50 174 57 52 157 48 48 159 51 48 179 58 52 166 52 48 166 52 50 165 52 51 167 55 48 185 63 57 162 52 47 167 54 48 178 58 52 163 51 48 157 50 48 169 54 51 
167 54 48 165 52 51 163 51 48 151 48 45 179 58 57 183 62 55 155 48 47 167 52 51 164 51 50 172 55 52 169 55 50 159 50 50 161 50 50 170 55 50 171 57 50 170 57 50 
