P3
16 16
255
149 34 33 153 36 33 147 34 32 149 34 33 159 38 33 169 42 35 150 35 33 151 35 33 165 40 34 167 41 35 144 33 32 148 34 32 161 39 34 161 39 34 148 34 32 145 33 32 
159 38 33 164 40 34 184 52 44 184 52 44 171 43 36 167 41 35 156 37 33 155 36 33 149 34 33 145 33 32 151 35 33 155 36 33 142 32 32 146 33 32 153 36 33 157 37 33 
171 43 36 172 44 36 155 36 33 157 37 33 175 45 37 172 44 36 162 39 34 155 36 33 167 41 35 172 44 36 166 41 34 166 41 34 175 46 38 184 52 44 167 41 35 164 40 34 
159 38 33 153 36 33 168 42 35 172 44 36 155 36 33 153 36 33 159 38 33 172 44 36 150 35 33 156 37 33 172 44 36 172 44 36 159 38 33 153 36 33 184 52 44 172 43 36 
164 40 34 157 37 33 150 35 33 159 38 33 169 42 35 168 42 35 144 33 32 143 32 32 152 35 33 161 39 34 151 35 33 146 34 32 169 42 35 169 42 35 148 34 32 144 33 32 
146 33 32 144 33 32 150 35 33 172 44 36 150 35 33 143 32 32 149 34 33 153 36 33 150 35 33 143 32 32 153 36 33 155 36 33 145 33 32 151 35 33 149 34 33 154 36 33 
184 52 44 184 52 44 170 43 35 168 42 35 159 38 33 159 38 33 157 37 33 161 39 34 171 43 36 184 52 44 165 40 34 156 37 33 184 52 44 184 52 44 167 41 35 162 39 34 
153 36 33 153 36 33 184 52 44 184 52 44 167 41 35 165 40 34 172 44 36 172 43 36 149 34 33 151 35 33 168 42 35 172 44 36 165 40 34 164 40 34 173 44 36 172 43 36 
167 41 35 166 41 34 146 33 32 152 35 33 172 43 36 165 40 34 150 35 33 153 36 33 152 35 33 155 36 33 151 35 33 145 33 32 159 38 33 156 37 33 147 34 32 146 34 32 
152 35 33 156 37 33 154 36 33 171 43 36 143 32 32 144 33 32 156 37 33 163 39 34 150 35 33 164 40 34 184 52 44 184 52 44 157 37 33 166 41 34 184 52 44 184 52 44 
172 43 36 173 44 36 167 41 35 167 41 35 184 52 44 172 44 36 167 41 35 165 40 34 173 44 36 171 43 36 155 36 33 161 39 34 164 40 34 159 38 33 148 34 32 159 38 33 
148 34 32 150 35 33 163 39 34 163 39 34 153 36 33 153 36 33 169 42 35 166 41 34 149 34 33 150 35 33 152 35 33 164 40 34 144 33 32 144 33 32 154 36 33 164 40 34 
153 36 33 153 36 33 143 32 32 144 33 32 172 43 36 175 45 37 146 34 32 143 32 32 159 38 33 169 42 35 161 39 34 166 41 34 184 52 44 184 52 44 164 40 34 145 33 32 
166 41 34 165 40 34 175 46 38 184 52 44 172 43 36 167 41 35 161 39 34 155 36 33 143 32 32 157 37 33 166 41 34 172 44 36 157 37 33 157 37 33 172 44 36 184 52 44 
175 45 37 174 45 37 159 38 33 156 37 33 172 44 36 161 39 34 164 40 34 168 42 35 184 52 44 171 43 36 151 35 33 152 35 33 162 39 34 166 41 34 153 36 33 149 34 33 
145 33 32 150 35 33 172 43 36 162 39 34 149 34 33 153 36 33 172 44 36 175 46 38 157 37 33 153 36 33 165 40 34 172 43 36 149 34 33 150 35 33 171 43 36 172 44 36 
