P3
16 16
255
245 185 28 246 189 31 244 182 26 245 184 27 248 196 36 252 208 48 245 186 28 246 187 30 251 203 43 251 206 45 243 179 23 244 183 26 249 199 38 249 199 38 244 183 26 243 180 24 
249 197 37 250 202 42 254 217 63 254 217 63 253 210 51 251 206 45 247 193 33 247 192 33 245 184 27 243 180 24 246 187 30 247 192 33 242 176 21 243 181 25 246 189 31 248 194 34 
253 210 51 253 212 53 247 192 33 248 195 35 254 215 58 253 212 53 249 200 39 247 192 33 251 206 45 253 212 53 251 205 44 251 205 44 254 215 59 254 217 63 251 206 45 250 202 42 
249 197 37 246 189 31 252 207 47 253 212 53 247 192 33 246 190 31 248 196 36 253 212 53 245 186 28 247 193 33 253 212 53 253 212 53 249 197 37 246 189 31 254 217 63 253 211 52 
250 202 42 248 194 34 245 186 28 249 197 37 252 208 48 252 207 47 243 179 23 242 177 22 246 188 30 249 199 38 246 187 30 244 181 25 252 208 48 252 208 48 244 183 26 243 179 23 
243 181 25 243 178 23 245 186 29 253 212 53 245 186 28 242 177 22 245 185 28 246 189 31 245 186 28 242 177 22 246 189 31 247 192 33 243 180 24 246 187 30 245 184 27 247 191 32 
254 217 63 254 217 63 252 209 50 252 207 47 248 196 36 248 196 36 248 194 34 249 199 38 253 210 51 254 217 63 251 203 43 247 193 33 254 217 63 254 217 63 251 206 45 249 200 39 
246 189 31 246 189 31 254 217 63 254 217 63 251 206 45 251 203 43 253 212 53 253 211 52 245 184 27 246 187 30 252 207 47 253 212 53 251 203 43 250 202 42 253 212 54 253 211 52 
251 206 45 251 205 44 243 181 25 246 188 30 253 211 52 251 203 43 245 186 28 246 190 31 246 188 30 247 192 33 246 187 30 243 180 24 248 196 36 247 193 33 244 182 26 244 181 25 
246 188 30 247 193 33 247 191 32 253 210 51 242 177 22 243 179 23 247 193 33 250 202 41 245 186 28 250 202 42 254 217 63 254 217 63 248 195 35 251 205 44 254 217 63 254 217 63 
253 211 52 253 212 54 251 206 45 251 206 45 254 217 63 253 212 53 251 206 45 251 203 43 253 212 54 253 210 51 247 192 33 249 199 38 250 202 42 248 196 36 244 183 26 249 197 37 
244 183 26 245 186 28 250 202 41 250 202 41 246 189 31 246 190 31 252 208 48 251 205 44 245 184 27 245 186 28 246 188 30 250 202 42 243 178 23 243 178 23 247 191 32 250 202 42 
246 190 31 246 189 31 242 177 22 243 179 23 253 211 52 254 215 58 244 181 25 242 177 22 248 196 36 252 208 48 249 199 38 251 205 44 254 217 63 254 217 63 250 202 42 243 180 24 
251 205 44 251 203 43 254 215 59 254 217 63 253 211 52 251 206 45 249 199 38 247 192 33 242 177 22 248 195 35 251 205 44 253 212 53 248 194 34 248 195 35 253 212 53 254 217 63 
254 215 58 253 214 57 249 197 37 247 193 33 253 212 53 249 199 38 250 202 42 252 207 47 254 217 63 253 210 51 246 187 30 246 188 30 249 200 39 251 205 44 246 190 31 245 184 27 
243 180 24 245 186 28 253 211 52 249 200 39 245 184 27 246 190 31 253 212 53 254 215 59 248 194 34 246 189 31 251 203 43 253 211 52 245 184 27 245 186 28 253 210 51 253 212 53 
