P3
16 16
255
76 99 49 69 89 44 73 96 47 62 80 40 76 99 49 69 89 44 62 80 40 62 80 40 62 80 40 62 80 40 76 99 49 69 89 44 62 80 40 62 80 40 62 80 40 62 80 40 
69 89 44 62 80 40 85 112 55 76 99 49 62 80 40 62 80 40 66 86 43 62 80 40 66 86 43 76 99 49 85 112 55 73 96 47 62 80 40 76 99 49 76 99 49 62 80 40 
76 99 49 74 97 48 76 99 49 62 80 40 62 80 40 66 86 43 76 99 49 62 80 40 62 80 40 76 99 49 69 90 45 62 80 40 62 80 40 62 80 40 69 89 44 62 80 40 
76 99 49 85 112 55 79 103 51 80 105 51 76 99 49 74 97 48 85 112 55 76 99 49 69 89 44 62 80 40 62 80 40 102 136 66 85 112 55 62 80 40 62 80 40 62 80 40 
76 99 49 62 80 40 76 99 49 102 136 66 85 112 55 62 80 40 73 96 47 66 86 43 62 80 40 74 97 48 76 99 49 85 112 55 85 112 55 62 80 40 62 80 40 73 96 47 
69 89 44 62 80 40 69 89 44 76 99 49 62 80 40 75 98 48 73 96 47 62 80 40 62 80 40 85 112 55 76 99 49 74 97 48 62 80 40 62 80 40 62 80 40 85 112 55 
62 80 40 62 80 40 62 80 40 71 92 46 82 108 53 102 136 66 85 112 55 74 97 48 76 99 49 76 99 49 74 97 48 62 80 40 62 80 40 69 89 44 76 99 49 76 99 49 
62 80 40 62 80 40 62 80 40 76 99 49 80 105 52 85 112 55 76 99 49 76 99 49 71 92 46 80 105 52 85 112 55 76 99 49 62 80 40 62 80 40 76 99 49 69 89 44 
76 99 49 66 86 43 76 99 49 76 99 49 69 89 44 73 96 47 62 80 40 69 89 44 62 80 40 75 98 48 102 136 66 85 112 55 74 97 48 71 92 46 69 89 44 62 80 40 
76 99 49 62 80 40 69 89 44 66 86 43 62 80 40 69 89 44 69 89 44 76 99 49 62 80 40 62 80 40 83 109 53 85 112 55 76 99 49 71 92 46 76 99 49 62 80 40 
85 112 55 73 96 47 62 80 40 62 80 40 62 80 40 76 99 49 80 105 52 85 112 55 76 99 49 74 97 48 80 105 52 76 99 49 62 80 40 62 80 40 62 80 40 76 99 49 
85 112 55 69 89 44 62 80 40 65 84 42 76 99 49 102 136 66 102 136 66 73 96 47 80 105 52 85 112 55 85 112 55 71 92 46 62 80 40 62 80 40 62 80 40 74 97 48 
76 99 49 76 99 49 62 80 40 62 80 40 66 86 43 102 136 66 62 80 40 62 80 40 74 97 48 76 99 49 62 80 40 62 80 40 62 80 40 62 80 40 62 80 40 85 112 55 
85 112 55 85 112 55 76 99 49 75 98 48 62 80 40 62 80 40 62 80 40 62 80 40 85 112 55 74 97 48 62 80 40 69 90 45 85 112 55 73 96 47 85 112 55 102 136 66 
73 96 47 62 80 40 80 105 51 102 136 66 85 112 55 62 80 40 66 86 43 76 99 49 102 136 66 82 108 53 73 96 47 85 112 55 85 112 55 73 96 47 85 112 55 89 117 57 
85 112 55 73 96 47 85 112 55 85 112 55 76 99 49 76 99 49 76 99 49 76 99 49 82 108 53 62 80 40 69 89 44 76 99 49 62 80 40 62 80 40 69 89 44 76 99 49 
