P3
16 16
255
185 133 92 150 108 74 150 108 74 121 85 58 121 85 58 185 133 92 150 108 74 150 108 74 121 85 58 121 85 58 89 61 41 121 85 58 121 85 58 185 133 92 121 85 58 185 133 92 
121 85 58 150 108 74 89 61 41 121 85 58 121 85 58 150 108 74 135 135 135 89 61 41 121 85 58 185 133 92 150 108 74 121 85 58 185 133 92 150 108 74 89 61 41 89 61 41 
185 133 92 121 85 58 121 85 58 89 61 41 185 133 92 121 85 58 121 85 58 121 85 58 185 133 92 121 85 58 121 85 58 121 85 58 89 61 41 89 61 41 185 133 92 121 85 58 
150 108 74 108 108 108 185 133 92 121 85 58 150 108 74 89 61 41 121 85 58 185 133 92 150 108 74 150 108 74 121 85 58 150 108 74 121 85 58 185 133 92 150 108 74 121 85 58 
150 108 74 121 85 58 150 108 74 185 133 92 89 61 41 150 108 74 121 85 58 121 85 58 150 108 74 89 61 41 121 85 58 108 108 108 121 85 58 150 108 74 89 61 41 121 85 58 
121 85 58 89 61 41 150 108 74 150 108 74 121 85 58 150 108 74 89 61 41 89 61 41 89 61 41 121 85 58 121 85 58 89 61 41 121 85 58 121 85 58 121 85 58 185 133 92 
185 133 92 121 85 58 121 85 58 121 85 58 135 135 135 121 85 58 121 85 58 185 133 92 185 133 92 121 85 58 185 133 92 185 133 92 121 85 58 150 108 74 121 85 58 150 108 74 
121 85 58 121 85 58 185 133 92 185 133 92 150 108 74 150 108 74 121 85 58 121 85 58 150 108 74 89 61 41 150 108 74 150 108 74 121 85 58 121 85 58 150 108 74 150 108 74 
150 108 74 121 85 58 121 85 58 150 108 74 121 85 58 150 108 74 121 85 58 89 61 41 121 85 58 150 108 74 150 108 74 121 85 58 121 85 58 121 85 58 89 61 41 121 85 58 
121 85 58 150 108 74 89 61 41 121 85 58 121 85 58 89 61 41 89 61 41 121 85 58 121 85 58 121 85 58 121 85 58 121 85 58 185 133 92 185 133 92 121 85 58 150 108 74 
121 85 58 150 108 74 121 85 58 185 133 92 185 133 92 121 85 58 185 133 92 150 108 74 89 61 41 185 133 92 185 133 92 89 61 41 150 108 74 150 108 74 135 135 135 121 85 58 
150 108 74 121 85 58 121 85 58 150 108 74 150 108 74 185 133 92 121 85 58 150 108 74 108 108 108 150 108 74 150 108 74 121 85 58 89 61 41 150 108 74 121 85 58 89 61 41 
121 85 58 89 61 41 150 108 74 121 85 58 150 108 74 150 108 74 185 133 92 121 85 58 121 85 58 121 85 58 121 85 58 121 85 58 121 85 58 121 85 58 185 133 92 185 133 92 
121 85 58 150 108 74 121 85 58 121 85 58 116 88 68 121 85 58 150 108 74 150 108 74 121 85 58 89 61 41 185 133 92 89 61 41 121 85 58 185 133 92 150 108 74 150 108 74 
150 108 74 121 85 58 89 61 41 185 133 92 121 85 58 89 61 41 121 85 58 89 61 41 185 133 92 185 133 92 121 85 58 150 108 74 121 85 58 121 85 58 150 108 74 150 108 74 
150 108 74 121 85 58 185 133 92 150 108 74 150 108 74 121 85 58 135 135 135 121 85 58 150 108 74 150 108 74 121 85 58 121 85 58 150 108 74 150 108 74 121 85 58 89 61 41 
