P3
16 16
255
180 155 145 159 107 88 146 98 81 159 107 88 127 86 70 159 107 88 159 107 88 146 98 81 159 107 88 159 107 88 77 53 44 159 107 88 180 136 119 159 107 88 159 107 88 169 119 100 
159 107 88 146 98 81 95 64 52 169 119 100 159 107 88 201 151 129 127 86 70 159 107 88 159 107 88 127 86 70 127 86 70 159 107 88 159 107 88 127 86 70 127 86 70 146 98 81 
159 107 88 95 64 52 159 107 88 159 107 88 159 107 88 146 98 81 146 98 81 169 119 100 127 86 70 159 107 88 227 192 175 127 86 70 159 107 88 95 64 52 159 107 88 180 136 119 
159 107 88 95 64 52 159 107 88 146 98 81 159 107 88 159 107 88 180 136 119 95 64 52 159 107 88 169 119 100 169 119 100 146 98 81 127 86 70 146 98 81 159 107 88 159 107 88 
127 86 70 146 98 81 159 107 88 127 86 70 146 98 81 127 86 70 95 64 52 95 64 52 146 98 81 180 155 145 169 119 100 159 107 88 146 98 81 146 98 81 159 107 88 127 86 70 
159 107 88 159 107 88 127 86 70 169 119 100 169 119 100 146 98 81 159 107 88 127 86 70 95 64 52 159 107 88 146 98 81 146 98 81 159 107 88 180 155 145 127 86 70 159 107 88 
127 86 70 159 107 88 159 107 88 169 119 100 169 119 100 127 86 70 159 107 88 159 107 88 159 107 88 127 86 70 169 119 100 169 119 100 169 119 100 146 98 81 127 86 70 127 86 70 
159 107 88 127 86 70 159 107 88 159 107 88 180 155 145 159 107 88 146 98 81 77 53 44 127 86 70 95 64 52 169 119 100 169 119 100 127 86 70 159 107 88 146 98 81 146 98 81 
159 107 88 180 136 119 146 98 81 159 107 88 159 107 88 127 86 70 169 119 100 169 119 100 169 119 100 127 86 70 127 86 70 146 98 81 159 107 88 159 107 88 127 86 70 159 107 88 
169 119 100 169 119 100 146 98 81 169 119 100 127 86 70 159 107 88 127 86 70 169 119 100 169 119 100 127 86 70 159 107 88 180 136 119 159 107 88 127 86 70 159 107 88 169 119 100 
169 119 100 169 119 100 180 155 145 146 98 81 95 64 52 159 107 88 127 86 70 159 107 88 146 98 81 201 151 129 159 107 88 159 107 88 127 86 70 95 64 52 127 86 70 169 119 100 
169 119 100 169 119 100 159 107 88 95 64 52 169 119 100 159 107 88 159 107 88 127 86 70 77 53 44 127 86 70 159 107 88 159 107 88 127 86 70 169 119 100 77 53 44 146 98 81 
77 53 44 146 98 81 127 86 70 146 98 81 127 86 70 159 107 88 159 107 88 159 107 88 127 86 70 159 107 88 146 98 81 127 86 70 159 107 88 159 107 88 146 98 81 227 192 175 
159 107 88 146 98 81 169 119 100 169 119 100 127 86 70 159 107 88 146 98 81 95 64 52 127 86 70 146 98 81 169 119 100 169 119 100 146 98 81 159 107 88 159 107 88 159 107 88 
159 107 88 201 151 129 169 119 100 169 119 100 146 98 81 127 86 70 95 64 52 169 119 100 159 107 88 146 98 81 169 119 100 169 119 100 159 107 88 180 155 145 127 86 70 159 107 88 
169 119 100 169 119 100 159 107 88 159 107 88 180 155 145 146 98 81 146 98 81 146 98 81 127 86 70 159 107 88 127 86 70 159 107 88 159 107 88 159 107 88 127 86 70 169 119 100 
