P3
16 16
255
143 143 143 143 143 143 143 143 143 143 143 143 127 127 127 116 116 116 116 116 116 127 127 127 116 116 116 104 104 104 116 116 116 116 116 116 127 127 127 127 127 127 127 127 127 127 127 127 
127 127 127 127 127 127 116 116 116 127 127 127 116 116 116 127 127 127 127 127 127 127 127 127 127 127 127 127 127 127 127 127 127 104 104 104 104 104 104 116 116 116 127 127 127 116 116 116 
127 127 127 116 116 116 104 104 104 104 104 104 116 116 116 116 116 116 116 116 116 104 104 104 116 116 116 116 116 116 116 116 116 127 127 127 127 127 127 127 127 127 127 127 127 127 127 127 
127 127 127 127 127 127 143 143 143 143 143 143 127 127 127 143 143 143 127 127 127 127 127 127 143 143 143 143 143 143 127 127 127 127 127 127 127 127 127 116 116 116 116 116 116 116 116 116 
116 116 116 127 127 127 127 127 127 116 116 116 116 116 116 116 116 116 127 127 127 116 116 116 127 127 127 143 143 143 143 143 143 143 143 143 143 143 143 116 116 116 127 127 127 127 127 127 
127 127 127 143 143 143 127 127 127 127 127 127 127 127 127 127 127 127 127 127 127 127 127 127 127 127 127 116 116 116 116 116 116 104 104 104 116 116 116 104 104 104 116 116 116 143 143 143 
116 116 116 127 127 127 127 127 127 143 143 143 143 143 143 143 143 143 116 116 116 143 143 143 143 143 143 116 116 116 116 116 116 116 116 116 127 127 127 127 127 127 127 127 127 127 127 127 
116 116 116 116 116 116 104 104 104 104 104 104 116 116 116 104 104 104 116 116 116 116 116 116 127 127 127 127 127 127 116 116 116 116 116 116 116 116 116 127 127 127 127 127 127 127 127 127 
143 143 143 143 143 143 143 143 143 127 127 127 143 143 143 127 127 127 127 127 127 143 143 143 143 143 143 143 143 143 127 127 127 127 127 127 127 127 127 127 127 127 127 127 127 116 116 116 
127 127 127 127 127 127 143 143 143 127 127 127 127 127 127 127 127 127 143 143 143 143 143 143 143 143 143 127 127 127 127 127 127 143 143 143 143 143 143 143 143 143 143 143 143 127 127 127 
104 104 104 127 127 127 116 116 116 127 127 127 116 116 116 116 116 116 104 104 104 104 104 104 116 116 116 127 127 127 116 116 116 127 127 127 127 127 127 116 116 116 116 116 116 116 116 116 
127 127 127 127 127 127 127 127 127 127 127 127 127 127 127 143 143 143 143 143 143 127 127 127 127 127 127 127 127 127 127 127 127 127 127 127 143 143 143 143 143 143 127 127 127 143 143 143 
127 127 127 116 116 116 116 116 116 116 116 116 127 127 127 143 143 143 127 127 127 116 116 116 116 116 116 127 127 127 127 127 127 104 104 104 104 104 104 116 116 116 104 104 104 116 116 116 
143 143 143 143 143 143 127 127 127 116 116 116 116 116 116 127 127 127 127 127 127 116 116 116 116 116 116 116 116 116 127 127 127 127 127 127 116 116 116 116 116 116 116 116 116 143 143 143 
127 127 127 116 116 116 116 116 116 127 127 127 127 127 127 127 127 127 127 127 127 127 127 127 127 127 127 127 127 127 127 127 127 127 127 127 143 143 143 143 143 143 143 143 143 143 143 143 
127 127 127 127 127 127 127 127 127 127 127 127 127 127 127 127 127 127 116 116 116 116 116 116 127 127 127 143 143 143 143 143 143 127 127 127 127 127 127 116 116 116 127 127 127 127 127 127 
