P3
16 16
255
37 60 245 36 59 245 35 57 245 34 56 245 34 56 245 35 57 245 34 56 245 41 68 245 46 75 245 38 62 245 34 56 245 35 57 245 35 57 245 35 57 245 34 56 245 44 72 245 
36 59 245 35 57 245 34 56 245 34 56 245 34 56 245 35 57 245 34 56 245 41 68 245 44 72 245 37 61 245 34 56 245 35 57 245 35 57 245 35 57 245 34 56 245 45 75 245 
36 59 245 34 56 245 34 56 245 34 56 245 34 56 245 35 57 245 34 56 245 41 68 245 44 72 245 36 59 245 34 56 245 34 56 245 35 57 245 35 57 245 34 56 245 39 64 245 
37 60 245 34 56 245 34 56 245 34 56 245 34 56 245 34 56 245 34 56 245 39 64 245 41 68 245 35 57 245 34 56 245 35 57 245 34 56 245 35 57 245 34 56 245 37 61 245 
45 75 245 34 56 245 34 56 245 34 56 245 34 56 245 34 56 245 34 55 245 44 72 245 39 64 245 35 57 245 35 57 245 35 57 245 37 60 245 35 57 245 35 57 245 36 59 245 
45 75 245 34 56 245 35 57 245 34 56 245 34 56 245 34 56 245 34 55 245 45 75 245 37 61 245 34 56 245 36 59 245 35 57 245 36 59 245 34 56 245 35 57 245 35 57 245 
41 68 245 34 56 245 35 57 245 34 56 245 34 56 245 34 56 245 34 55 245 45 75 245 36 59 245 35 57 245 35 58 245 35 57 245 36 59 245 34 56 245 35 57 245 34 56 245 
39 64 245 35 57 245 35 57 245 34 56 245 34 55 245 34 56 245 34 55 245 39 64 245 36 59 245 35 58 245 35 58 245 35 57 245 36 59 245 35 57 245 35 57 245 35 57 245 
39 64 245 37 60 245 35 57 245 34 56 245 34 55 245 34 56 245 34 56 245 39 64 245 35 58 245 35 58 245 35 58 245 34 56 245 35 58 245 35 57 245 35 57 245 35 57 245 
38 62 245 44 72 245 36 59 245 34 56 245 34 55 245 35 57 245 34 56 245 37 61 245 35 58 245 35 58 245 36 59 245 34 56 245 36 59 245 35 58 245 35 57 245 35 57 245 
37 60 245 45 75 245 37 60 245 34 56 245 34 55 245 35 58 245 34 56 245 36 59 245 35 58 245 35 58 245 36 59 245 34 56 245 37 60 245 35 58 245 34 56 245 35 57 245 
35 58 245 46 75 245 37 60 245 34 56 245 34 56 245 35 58 245 34 56 245 36 59 245 35 57 245 37 61 245 36 59 245 34 56 245 37 60 245 35 58 245 34 56 245 36 59 245 
35 58 245 46 75 245 36 59 245 34 56 245 34 56 245 35 58 245 34 56 245 36 59 245 35 57 245 39 64 245 35 58 245 34 56 245 37 60 245 35 58 245 34 56 245 38 62 245 
35 58 245 44 72 245 36 59 245 34 56 245 34 56 245 35 57 245 34 56 245 36 59 245 37 60 245 39 64 245 35 58 245 35 58 245 36 59 245 35 58 245 34 56 245 46 75 245 
35 58 245 45 75 245 35 58 245 34 56 245 34 56 245 35 57 245 34 56 245 37 61 245 36 59 245 39 64 245 35 57 245 35 58 245 36 59 245 35 58 245 34 56 245 46 76 245 
35 57 245 39 64 245 35 57 245 34 56 245 34 56 245 35 57 245 34 56 245 45 75 245 37 61 245 39 64 245 34 56 245 35 57 245 35 58 245 35 57 245 34 56 245 46 76 245 
