P3
16 16
255
41 68 245 37 61 245 37 61 245 37 61 245 35 58 245 35 58 245 35 58 245 37 61 245 37 61 245 37 61 245 37 61 245 37 61 245 41 68 245 45 74 245 44 73 245 45 75 245 
35 58 245 35 58 245 35 58 245 35 58 245 37 61 245 37 61 245 37 61 245 37 61 245 37 61 245 37 61 245 35 58 245 35 58 245 35 58 245 35 58 245 35 58 245 35 58 245 
37 61 245 37 61 245 35 58 245 35 58 245 35 58 245 35 58 245 35 58 245 35 58 245 37 61 245 37 61 245 41 68 245 41 68 245 41 68 245 37 61 245 35 58 245 35 58 245 
37 61 245 35 58 245 35 58 245 35 58 245 37 61 245 41 68 245 41 68 245 37 61 245 37 61 245 37 61 245 41 68 245 41 68 245 37 61 245 37 61 245 37 61 245 37 61 245 
35 58 245 35 58 245 37 61 245 37 61 245 37 61 245 35 58 245 35 58 245 35 58 245 35 58 245 37 61 245 35 58 245 35 58 245 35 58 245 37 61 245 37 61 245 37 61 245 
35 58 245 35 58 245 37 61 245 35 58 245 37 61 245 37 61 245 41 68 245 37 61 245 37 61 245 37 61 245 41 68 245 37 61 245 37 61 245 35 58 245 35 58 245 35 58 245 
41 68 245 37 61 245 37 61 245 37 61 245 37 61 245 37 61 245 37 61 245 37 61 245 37 61 245 37 61 245 37 61 245 37 61 245 45 74 245 45 74 245 55 90 245 41 68 245 
45 74 245 44 73 245 45 74 245 37 61 245 37 61 245 37 61 245 41 68 245 37 61 245 37 61 245 37 61 245 37 61 245 37 61 245 37 61 245 37 61 245 41 68 245 41 68 245 
55 90 245 55 90 245 45 74 245 41 68 245 45 74 245 55 90 245 45 74 245 41 68 245 37 61 245 41 68 245 37 61 245 41 68 245 41 68 245 37 61 245 37 61 245 45 74 245 
35 58 245 35 58 245 35 58 245 35 58 245 35 58 245 35 58 245 35 58 245 35 58 245 35 58 245 35 58 245 35 58 245 35 58 245 35 58 245 37 61 245 35 58 245 35 58 245 
37 61 245 35 58 245 35 58 245 35 58 245 35 58 245 37 61 245 35 58 245 35 58 245 35 58 245 37 61 245 37 61 245 41 68 245 37 61 245 37 61 245 37 61 245 37 61 245 
35 58 245 35 58 245 35 58 245 35 58 245 35 58 245 35 58 245 35 58 245 35 58 245 35 58 245 35 58 245 35 58 245 35 58 245 35 58 245 35 58 245 35 58 245 37 61 245 
35 58 245 35 58 245 35 58 245 35 58 245 35 58 245 35 58 245 35 58 245 35 58 245 35 58 245 35 58 245 35 58 245 37 61 245 35 58 245 35 58 245 35 58 245 35 58 245 
37 61 245 35 58 245 35 58 245 35 58 245 35 58 245 37 61 245 37 61 245 37 61 245 37 61 245 37 61 245 41 68 245 41 68 245 37 61 245 35 58 245 37 61 245 35 58 245 
35 58 245 35 58 245 35 58 245 35 58 245 35 58 245 35 58 245 35 58 245 37 61 245 37 61 245 41 68 245 55 90 245 55 90 245 44 73 245 41 68 245 37 61 245 35 58 245 
37 61 245 41 68 245 37 61 245 37 61 245 45 74 245 53 87 245 53 87 245 41 68 245 37 61 245 37 61 245 41 68 245 37 61 245 37 61 245 37 61 245 37 61 245 37 61 245 
